%TF.GenerationSoftware,KiCad,Pcbnew,10.0.1*%
%TF.CreationDate,2026-08-26T11:50:51+01:00*%
%TF.ProjectId,Clinical_Thermometer,436c696e-6963-4616-9c5f-546865726d6f,rev?*%
%TF.SameCoordinates,Original*%
%TF.FileFunction,Copper,L4,Bot*%
%TF.FilePolarity,Positive*%
%FSLAX46Y46*%
G04 Gerber Fmt 4.6, Leading zero omitted, Abs format (unit mm)*
G04 Created by KiCad (PCBNEW 10.0.1) date 2026-08-26 11:50:51*
%MOMM*%
%LPD*%
G01*
G04 APERTURE LIST*
G04 Aperture macros list*
%AMRoundRect*
0 Rectangle with rounded corners*
0 $1 Rounding radius*
0 $2 $3 $4 $5 $6 $7 $8 $9 X,Y pos of 4 corners*
0 Add a 4 corners polygon primitive as box body*
4,1,4,$2,$3,$4,$5,$6,$7,$8,$9,$2,$3,0*
0 Add four circle primitives for the rounded corners*
1,1,$1+$1,$2,$3*
1,1,$1+$1,$4,$5*
1,1,$1+$1,$6,$7*
1,1,$1+$1,$8,$9*
0 Add four rect primitives between the rounded corners*
20,1,$1+$1,$2,$3,$4,$5,0*
20,1,$1+$1,$4,$5,$6,$7,0*
20,1,$1+$1,$6,$7,$8,$9,0*
20,1,$1+$1,$8,$9,$2,$3,0*%
G04 Aperture macros list end*
%TA.AperFunction,SMDPad,CuDef*%
%ADD10R,2.100000X2.400000*%
%TD*%
%TA.AperFunction,ComponentPad*%
%ADD11RoundRect,0.170000X-0.680000X0.680000X-0.680000X-0.680000X0.680000X-0.680000X0.680000X0.680000X0*%
%TD*%
%TA.AperFunction,ComponentPad*%
%ADD12C,1.700000*%
%TD*%
%TA.AperFunction,ComponentPad*%
%ADD13C,0.650000*%
%TD*%
%TA.AperFunction,ComponentPad*%
%ADD14O,1.800000X1.000000*%
%TD*%
%TA.AperFunction,SMDPad,CuDef*%
%ADD15RoundRect,0.140000X-0.140000X-0.170000X0.140000X-0.170000X0.140000X0.170000X-0.140000X0.170000X0*%
%TD*%
%TA.AperFunction,SMDPad,CuDef*%
%ADD16RoundRect,0.140000X0.170000X-0.140000X0.170000X0.140000X-0.170000X0.140000X-0.170000X-0.140000X0*%
%TD*%
%TA.AperFunction,SMDPad,CuDef*%
%ADD17R,0.406400X0.812800*%
%TD*%
%TA.AperFunction,SMDPad,CuDef*%
%ADD18R,0.812800X0.406400*%
%TD*%
%TA.AperFunction,SMDPad,CuDef*%
%ADD19R,1.447800X1.447800*%
%TD*%
%TA.AperFunction,SMDPad,CuDef*%
%ADD20R,0.711200X0.711200*%
%TD*%
%TA.AperFunction,SMDPad,CuDef*%
%ADD21RoundRect,0.375000X-0.375000X0.625000X-0.375000X-0.625000X0.375000X-0.625000X0.375000X0.625000X0*%
%TD*%
%TA.AperFunction,SMDPad,CuDef*%
%ADD22RoundRect,0.500000X-1.400000X0.500000X-1.400000X-0.500000X1.400000X-0.500000X1.400000X0.500000X0*%
%TD*%
%TA.AperFunction,SMDPad,CuDef*%
%ADD23RoundRect,0.135000X0.185000X-0.135000X0.185000X0.135000X-0.185000X0.135000X-0.185000X-0.135000X0*%
%TD*%
%TA.AperFunction,SMDPad,CuDef*%
%ADD24RoundRect,0.135000X-0.185000X0.135000X-0.185000X-0.135000X0.185000X-0.135000X0.185000X0.135000X0*%
%TD*%
%TA.AperFunction,SMDPad,CuDef*%
%ADD25RoundRect,0.140000X-0.170000X0.140000X-0.170000X-0.140000X0.170000X-0.140000X0.170000X0.140000X0*%
%TD*%
%TA.AperFunction,SMDPad,CuDef*%
%ADD26RoundRect,0.147500X0.147500X0.172500X-0.147500X0.172500X-0.147500X-0.172500X0.147500X-0.172500X0*%
%TD*%
%TA.AperFunction,SMDPad,CuDef*%
%ADD27RoundRect,0.150000X0.825000X0.150000X-0.825000X0.150000X-0.825000X-0.150000X0.825000X-0.150000X0*%
%TD*%
%TA.AperFunction,HeatsinkPad*%
%ADD28R,2.410000X3.300000*%
%TD*%
%TA.AperFunction,HeatsinkPad*%
%ADD29C,0.500000*%
%TD*%
%TA.AperFunction,ViaPad*%
%ADD30C,0.600000*%
%TD*%
%TA.AperFunction,ViaPad*%
%ADD31C,0.800000*%
%TD*%
%TA.AperFunction,Conductor*%
%ADD32C,0.200000*%
%TD*%
%TA.AperFunction,Conductor*%
%ADD33C,0.600000*%
%TD*%
%TA.AperFunction,Conductor*%
%ADD34C,0.300000*%
%TD*%
%TA.AperFunction,Conductor*%
%ADD35C,0.500000*%
%TD*%
%TA.AperFunction,Conductor*%
%ADD36C,0.250000*%
%TD*%
%TA.AperFunction,Conductor*%
%ADD37C,0.225000*%
%TD*%
%TA.AperFunction,Conductor*%
%ADD38C,0.406200*%
%TD*%
%TA.AperFunction,Conductor*%
%ADD39C,0.591000*%
%TD*%
%TA.AperFunction,Conductor*%
%ADD40C,0.560800*%
%TD*%
%TA.AperFunction,Conductor*%
%ADD41C,0.272000*%
%TD*%
G04 APERTURE END LIST*
D10*
%TO.P,SW1,1,A_1*%
%TO.N,unconnected-(SW1-A-Pad1)*%
X143500000Y-70800000D03*
%TO.P,SW1,2,B_2*%
%TO.N,CHIP_EN*%
X143500000Y-64200000D03*
%TD*%
D11*
%TO.P,U4,1,GND_1*%
%TO.N,GND*%
X155000000Y-64460000D03*
D12*
%TO.P,U4,2,VCC_2*%
%TO.N,+3.3V*%
X155000000Y-67000000D03*
%TO.P,U4,3,SCL_3*%
%TO.N,I2C_SCL*%
X155000000Y-69540000D03*
%TO.P,U4,4,SDA_4*%
%TO.N,I2C_SDA*%
X155000000Y-72080000D03*
%TD*%
D13*
%TO.P,USB1,*%
%TO.N,*%
X173685000Y-70860000D03*
X173685000Y-65080000D03*
D14*
%TO.P,USB1,13,GND_13*%
%TO.N,GND*%
X173185000Y-72290000D03*
%TO.P,USB1,14,GND_14*%
X173185000Y-63650000D03*
%TO.P,USB1,15,GND_15*%
X177385000Y-72290000D03*
%TO.P,USB1,16,GND_16*%
X177385000Y-63650000D03*
%TD*%
D15*
%TO.P,C9,1*%
%TO.N,GND*%
X147370000Y-64900000D03*
%TO.P,C9,2*%
%TO.N,+3.3V*%
X148330000Y-64900000D03*
%TD*%
D16*
%TO.P,C2,1*%
%TO.N,CHIP_EN*%
X124210000Y-65550000D03*
%TO.P,C2,2*%
%TO.N,GND*%
X124210000Y-64590000D03*
%TD*%
D17*
%TO.P,U1,1,GND_1*%
%TO.N,GND*%
X113100000Y-62100002D03*
%TO.P,U1,2,GND_2*%
X113900001Y-62100002D03*
%TO.P,U1,3,3V3_3*%
%TO.N,+3.3V*%
X114700000Y-62100002D03*
%TO.P,U1,4,NC_4*%
%TO.N,unconnected-(U1-NC-Pad4)*%
X115500001Y-62100002D03*
%TO.P,U1,5,IO2_5*%
%TO.N,TEMP_DQ*%
X116299999Y-62100002D03*
%TO.P,U1,6,IO3_6*%
%TO.N,LED_DIN*%
X117100000Y-62100002D03*
%TO.P,U1,7,NC_7*%
%TO.N,unconnected-(U1-NC-Pad7)*%
X117900001Y-62100002D03*
%TO.P,U1,8,EN_8*%
%TO.N,CHIP_EN*%
X118699999Y-62100002D03*
%TO.P,U1,9,NC_9*%
%TO.N,unconnected-(U1-NC-Pad9)*%
X119500000Y-62100002D03*
%TO.P,U1,10,NC_10*%
%TO.N,unconnected-(U1-NC-Pad10)*%
X120299999Y-62100002D03*
%TO.P,U1,11,GND_11*%
%TO.N,GND*%
X121100000Y-62100002D03*
D18*
%TO.P,U1,12,IO0_12*%
%TO.N,I2C_SCL*%
X122000000Y-63199999D03*
%TO.P,U1,13,IO1_13*%
%TO.N,I2C_SDA*%
X122000000Y-64000000D03*
%TO.P,U1,14,GND_14*%
%TO.N,GND*%
X122000000Y-64800001D03*
%TO.P,U1,15,NC_15*%
%TO.N,unconnected-(U1-NC-Pad15)*%
X122000000Y-65600000D03*
%TO.P,U1,16,IO10_16*%
%TO.N,unconnected-(U1-IO10-Pad16)*%
X122000000Y-66400001D03*
%TO.P,U1,17,NC_17*%
%TO.N,unconnected-(U1-NC-Pad17)*%
X122000000Y-67199999D03*
%TO.P,U1,18,IO4_18*%
%TO.N,TOUCH_IN*%
X122000000Y-68000000D03*
%TO.P,U1,19,IO5_19*%
%TO.N,unconnected-(U1-IO5-Pad19)*%
X122000000Y-68800001D03*
%TO.P,U1,20,IO6_20*%
%TO.N,unconnected-(U1-IO6-Pad20)*%
X122000000Y-69599999D03*
%TO.P,U1,21,IO7_21*%
%TO.N,unconnected-(U1-IO7-Pad21)*%
X122000000Y-70400000D03*
%TO.P,U1,22,IO8_22*%
%TO.N,unconnected-(U1-IO8-Pad22)*%
X122000000Y-71199999D03*
%TO.P,U1,23,IO9_23*%
%TO.N,Net-(SW2-B)*%
X122000000Y-72000000D03*
%TO.P,U1,24,NC_24*%
%TO.N,unconnected-(U1-NC-Pad24)*%
X122000000Y-72799998D03*
D17*
%TO.P,U1,25,NC_25*%
%TO.N,unconnected-(U1-NC-Pad25)*%
X121100000Y-73899998D03*
%TO.P,U1,26,IO18_26*%
%TO.N,USB_DN*%
X120299999Y-73899998D03*
%TO.P,U1,27,IO19_27*%
%TO.N,USB_DP*%
X119500000Y-73899998D03*
%TO.P,U1,28,NC_28*%
%TO.N,unconnected-(U1-NC-Pad28)*%
X118699999Y-73899998D03*
%TO.P,U1,29,NC_29*%
%TO.N,unconnected-(U1-NC-Pad29)*%
X117900001Y-73899998D03*
%TO.P,U1,30,RXD0_30*%
%TO.N,unconnected-(U1-RXD0-Pad30)*%
X117100000Y-73899998D03*
%TO.P,U1,31,TXD0_31*%
%TO.N,unconnected-(U1-TXD0-Pad31)*%
X116299999Y-73899998D03*
%TO.P,U1,32,NC_32*%
%TO.N,unconnected-(U1-NC-Pad32)*%
X115500001Y-73899998D03*
%TO.P,U1,33,NC_33*%
%TO.N,unconnected-(U1-NC-Pad33)*%
X114700000Y-73899998D03*
%TO.P,U1,34,NC_34*%
%TO.N,unconnected-(U1-NC-Pad34)*%
X113900001Y-73899998D03*
%TO.P,U1,35,NC_35*%
%TO.N,unconnected-(U1-NC-Pad35)*%
X113100000Y-73899998D03*
D18*
%TO.P,U1,36,GND_36*%
%TO.N,GND*%
X112200000Y-72800001D03*
%TO.P,U1,37,GND_37*%
X112200000Y-72000000D03*
%TO.P,U1,38,GND_38*%
X112200000Y-71199999D03*
%TO.P,U1,39,GND_39*%
X112200000Y-70400000D03*
%TO.P,U1,40,GND_40*%
X112200000Y-69599999D03*
%TO.P,U1,41,GND_41*%
X112200000Y-68800001D03*
%TO.P,U1,42,GND_42*%
X112200000Y-68000000D03*
%TO.P,U1,43,GND_43*%
X112200000Y-67199999D03*
%TO.P,U1,44,GND_44*%
X112200000Y-66400001D03*
%TO.P,U1,45,GND_45*%
X112200000Y-65600000D03*
%TO.P,U1,46,GND_46*%
X112200000Y-64800001D03*
%TO.P,U1,47,GND_47*%
X112200000Y-64000000D03*
%TO.P,U1,48,GND_48*%
X112200000Y-63200002D03*
D19*
%TO.P,U1,49,GND_49*%
X117100000Y-68000000D03*
D20*
%TO.P,U1,50,GND_50*%
X112150000Y-73950000D03*
%TO.P,U1,51,GND_51*%
X122050000Y-73950000D03*
%TO.P,U1,52,GND_52*%
X122050000Y-62050000D03*
%TO.P,U1,53,GND_53*%
X112150000Y-62050000D03*
D19*
%TO.P,U1,54,GND_54*%
X115125000Y-69975000D03*
%TO.P,U1,55,GND_55*%
X117100000Y-69975000D03*
%TO.P,U1,56,GND_56*%
X119075000Y-69975000D03*
%TO.P,U1,57,GND_57*%
X119075000Y-68000000D03*
%TO.P,U1,58,GND_58*%
X119075000Y-66025000D03*
%TO.P,U1,59,GND_59*%
X117100000Y-66025000D03*
%TO.P,U1,60,GND_60*%
X115125000Y-66025000D03*
%TO.P,U1,61,GND_61*%
X115125000Y-68000000D03*
%TD*%
D21*
%TO.P,U2,1,GND_1*%
%TO.N,GND*%
X147200000Y-66740000D03*
%TO.P,U2,2,VO_2*%
%TO.N,+3.3V*%
X149500000Y-66740000D03*
D22*
X149500000Y-73040000D03*
D21*
%TO.P,U2,3,VI_3*%
%TO.N,LDO_IN*%
X151800000Y-66740000D03*
%TD*%
D16*
%TO.P,C8,1*%
%TO.N,GND*%
X147540000Y-63920000D03*
%TO.P,C8,2*%
%TO.N,LDO_IN*%
X147540000Y-62960000D03*
%TD*%
%TO.P,C15,1*%
%TO.N,CHIP_EN*%
X140960000Y-64000000D03*
%TO.P,C15,2*%
%TO.N,GND*%
X140960000Y-63040000D03*
%TD*%
D23*
%TO.P,R11,1*%
%TO.N,CHIP_EN*%
X138760000Y-64090000D03*
%TO.P,R11,2*%
%TO.N,+3.3V*%
X138760000Y-63070000D03*
%TD*%
D16*
%TO.P,C3,1*%
%TO.N,GND*%
X123710000Y-62340000D03*
%TO.P,C3,2*%
%TO.N,+3.3V*%
X123710000Y-61380000D03*
%TD*%
D24*
%TO.P,R2,1*%
%TO.N,+3.3V*%
X125740000Y-61380000D03*
%TO.P,R2,2*%
%TO.N,CHIP_EN*%
X125740000Y-62400000D03*
%TD*%
D23*
%TO.P,R3,1*%
%TO.N,GND*%
X153690000Y-74930000D03*
%TO.P,R3,2*%
%TO.N,Net-(U3-PROG)*%
X153690000Y-73910000D03*
%TD*%
D25*
%TO.P,C4,1*%
%TO.N,+3.3V*%
X124740000Y-61400000D03*
%TO.P,C4,2*%
%TO.N,GND*%
X124740000Y-62360000D03*
%TD*%
D26*
%TO.P,D3,1,K_1*%
%TO.N,VBAT*%
X152517500Y-63610000D03*
%TO.P,D3,2,A_2*%
%TO.N,LDO_IN*%
X151547500Y-63610000D03*
%TD*%
D27*
%TO.P,U3,1,TEMP_1*%
%TO.N,GND*%
X136675000Y-68405000D03*
%TO.P,U3,2,PROG_2*%
%TO.N,Net-(U3-PROG)*%
X136675000Y-69675000D03*
%TO.P,U3,3,GND_3*%
%TO.N,GND*%
X136675000Y-70945000D03*
%TO.P,U3,4,V_{CC}_4*%
%TO.N,VBUS_5V*%
X136675000Y-72215000D03*
%TO.P,U3,5,BAT_5*%
%TO.N,VBAT*%
X131725000Y-72215000D03*
%TO.P,U3,6,~{STDBY}_6*%
%TO.N,Net-(D7-A)*%
X131725000Y-70945000D03*
%TO.P,U3,7,~{CHRG}_7*%
%TO.N,Net-(D4-A)*%
X131725000Y-69675000D03*
%TO.P,U3,8,CE_8*%
%TO.N,VBUS_5V*%
X131725000Y-68405000D03*
D28*
%TO.P,U3,9,EPAD_9*%
%TO.N,GND*%
X134200000Y-70310000D03*
D29*
X133500000Y-69110000D03*
%TD*%
D26*
%TO.P,D2,1,K_1*%
%TO.N,VBUS_5V*%
X152500000Y-62500000D03*
%TO.P,D2,2,A_2*%
%TO.N,LDO_IN*%
X151530000Y-62500000D03*
%TD*%
D16*
%TO.P,C10,1*%
%TO.N,GND*%
X154850000Y-74940000D03*
%TO.P,C10,2*%
%TO.N,VBUS_5V*%
X154850000Y-73980000D03*
%TD*%
%TO.P,C14,1*%
%TO.N,CHIP_EN*%
X139830000Y-64050000D03*
%TO.P,C14,2*%
%TO.N,GND*%
X139830000Y-63090000D03*
%TD*%
D30*
%TO.N,TOUCH_IN*%
X126440000Y-68000000D03*
X121238200Y-67586753D03*
%TO.N,LDO_IN*%
X157100000Y-69360000D03*
%TO.N,GND*%
X119340000Y-75010000D03*
X122015000Y-64785000D03*
X123430000Y-62670000D03*
D31*
X119356000Y-63462100D03*
D30*
X119075000Y-69975000D03*
D31*
X165693200Y-74259800D03*
X165804300Y-66056000D03*
X120696000Y-69100000D03*
D30*
X119075000Y-66025000D03*
X122035000Y-62065000D03*
%TO.N,LED_DIN*%
X119082000Y-64497600D03*
X163132900Y-71918700D03*
%TO.N,I2C_SCL*%
X125580000Y-66281600D03*
D31*
%TO.N,+3.3V*%
X150819000Y-69332500D03*
X135996000Y-61956000D03*
D30*
%TO.N,VBUS_5V*%
X169060000Y-65650000D03*
X146695001Y-62115001D03*
D31*
X170318000Y-67035700D03*
D30*
X139764000Y-69770000D03*
X173630000Y-74560000D03*
X169880000Y-72120000D03*
%TO.N,Net-(SW2-B)*%
X123010000Y-66770000D03*
X158845000Y-63415000D03*
%TO.N,Net-(D7-A)*%
X176472000Y-71464300D03*
X129050000Y-70730000D03*
%TO.N,I2C_SDA*%
X118970000Y-72417500D03*
%TO.N,VBAT*%
X166220000Y-63730000D03*
D31*
X131160000Y-73530000D03*
X162678000Y-66780300D03*
X153351000Y-66780300D03*
D30*
%TO.N,TEMP_DQ*%
X120908000Y-69971833D03*
X118124000Y-64328000D03*
%TO.N,Net-(D4-A)*%
X177220000Y-71189300D03*
X128926000Y-70010900D03*
%TO.N,USB_DP*%
X117965000Y-72190000D03*
X174738000Y-66820700D03*
%TO.N,USB_DN*%
X174544000Y-69235700D03*
X119808000Y-71586400D03*
%TO.N,CHIP_EN*%
X120696000Y-64385700D03*
%TO.N,Net-(U3-PROG)*%
X151910000Y-73743100D03*
X139043000Y-71807400D03*
%TD*%
%TO.N,TOUCH_IN*%
D32*
X121290000Y-67560000D02*
X121730000Y-68000000D01*
X121238200Y-67586753D02*
X121264953Y-67560000D01*
X121730000Y-68000000D02*
X122000000Y-68000000D01*
X121264953Y-67560000D02*
X121290000Y-67560000D01*
%TO.N,VBAT*%
D33*
X131725000Y-72484600D02*
X131725000Y-72215000D01*
X131160000Y-73049600D02*
X131725000Y-72484600D01*
X131160000Y-73530000D02*
X131160000Y-73049600D01*
%TO.N,Net-(D7-A)*%
D34*
X131565000Y-71105000D02*
X131725000Y-70945000D01*
X129425000Y-71105000D02*
X131565000Y-71105000D01*
X129050000Y-70730000D02*
X129425000Y-71105000D01*
%TO.N,LDO_IN*%
D33*
X147540000Y-62960000D02*
X148000000Y-62500000D01*
X148000000Y-62500000D02*
X151530000Y-62500000D01*
X151548000Y-63610000D02*
X151548000Y-66487500D01*
D35*
X153260000Y-68200000D02*
X155940000Y-68200000D01*
D33*
X151548000Y-66487500D02*
X151800000Y-66740000D01*
X151530000Y-62500000D02*
X151530000Y-63592500D01*
X151530000Y-63592500D02*
X151548000Y-63610000D01*
X151547500Y-63610000D02*
X151548000Y-63610000D01*
D35*
X151800000Y-66740000D02*
X153260000Y-68200000D01*
X155940000Y-68200000D02*
X157100000Y-69360000D01*
%TO.N,GND*%
X124210000Y-64170000D02*
X124890000Y-63490000D01*
X134200000Y-70310000D02*
X134835000Y-70945000D01*
D32*
X122000000Y-62100000D02*
X122025000Y-62075000D01*
D35*
X124890000Y-62510000D02*
X124740000Y-62360000D01*
D32*
X122720000Y-74620000D02*
X122050000Y-73950000D01*
D34*
X124290000Y-64510000D02*
X124290000Y-64172700D01*
D35*
X136675000Y-68405000D02*
X136105000Y-68405000D01*
D32*
X123580000Y-75190000D02*
X123690000Y-75080000D01*
X119340000Y-75010000D02*
X119520000Y-75190000D01*
X123230000Y-74620000D02*
X122720000Y-74620000D01*
X123690000Y-75080000D02*
X123230000Y-74620000D01*
X121100000Y-62100000D02*
X122000000Y-62100000D01*
D34*
X124210000Y-64590000D02*
X124290000Y-64510000D01*
D35*
X134835000Y-70945000D02*
X136675000Y-70945000D01*
X124890000Y-63490000D02*
X124890000Y-62510000D01*
X124310000Y-64070000D02*
X124290000Y-64050000D01*
D34*
X124310000Y-64070000D02*
X124210000Y-64170000D01*
D32*
X119520000Y-75190000D02*
X123580000Y-75190000D01*
D35*
X124210000Y-64590000D02*
X124210000Y-64170000D01*
X136105000Y-68405000D02*
X134200000Y-70310000D01*
%TO.N,LED_DIN*%
D36*
X117100000Y-62756400D02*
X117341000Y-62756400D01*
X117100000Y-62100000D02*
X117100000Y-62756400D01*
X117341000Y-62756400D02*
X119082000Y-64497600D01*
%TO.N,I2C_SCL*%
D37*
X122619000Y-65838900D02*
X122619000Y-63584300D01*
D34*
X125580000Y-66281600D02*
X123319000Y-66281600D01*
D37*
X122384000Y-63584300D02*
X122000000Y-63200000D01*
X122619000Y-63584300D02*
X122384000Y-63584300D01*
X123288000Y-66250000D02*
X123030000Y-66250000D01*
X123030000Y-66250000D02*
X122619000Y-65838900D01*
%TO.N,+3.3V*%
D35*
X148330000Y-64900000D02*
X149500000Y-66070000D01*
X149500000Y-66070000D02*
X149500000Y-66740000D01*
X149500000Y-68013200D02*
X149500000Y-66740000D01*
X125510000Y-61610000D02*
X124950000Y-61610000D01*
D38*
X116006000Y-61390500D02*
X115794000Y-61390500D01*
D35*
X125930000Y-61570000D02*
X125740000Y-61380000D01*
D38*
X114994000Y-61390500D02*
X114947000Y-61343400D01*
D35*
X150819000Y-69332500D02*
X149500000Y-68013200D01*
X124950000Y-61610000D02*
X124740000Y-61400000D01*
X137646000Y-61956000D02*
X135996000Y-61956000D01*
D38*
X123710000Y-61343400D02*
X123443000Y-61610000D01*
D35*
X135610000Y-61570000D02*
X125930000Y-61570000D01*
D38*
X122709000Y-61391300D02*
X121606000Y-61391300D01*
D33*
X149500000Y-73040000D02*
X149500000Y-73070000D01*
D35*
X124740000Y-61400000D02*
X124590000Y-61550000D01*
D38*
X115794000Y-61390500D02*
X114994000Y-61390500D01*
D35*
X150819000Y-69332500D02*
X149500000Y-70651800D01*
X123710000Y-61380000D02*
X123710000Y-61343400D01*
X149500000Y-70651800D02*
X149500000Y-73040000D01*
D38*
X122709000Y-61610000D02*
X122709000Y-61391300D01*
D35*
X114947000Y-61343400D02*
X114700000Y-61590000D01*
X125740000Y-61380000D02*
X125510000Y-61610000D01*
X123880000Y-61550000D02*
X123710000Y-61380000D01*
X138760000Y-63070000D02*
X137646000Y-61956000D01*
D38*
X121606000Y-61391300D02*
X121606000Y-61390500D01*
D35*
X135996000Y-61956000D02*
X135610000Y-61570000D01*
D38*
X121606000Y-61390500D02*
X116006000Y-61390500D01*
X123443000Y-61610000D02*
X122709000Y-61610000D01*
D35*
X114700000Y-61590000D02*
X114700000Y-62100000D01*
X124590000Y-61550000D02*
X123880000Y-61550000D01*
%TO.N,VBUS_5V*%
D33*
X159112000Y-64228100D02*
X158240000Y-65100100D01*
X158240000Y-72458200D02*
X159112000Y-73330200D01*
X170543000Y-74953000D02*
X169880000Y-74290000D01*
X165710050Y-63250000D02*
X164690000Y-63250000D01*
D39*
X156267000Y-62889200D02*
X152889000Y-62889200D01*
D40*
X154900000Y-74030000D02*
X154850000Y-73980000D01*
D33*
X170318000Y-67035700D02*
X167200000Y-63917700D01*
X167200000Y-63917700D02*
X167200000Y-63720050D01*
X166509950Y-63030000D02*
X165930050Y-63030000D01*
X147030000Y-61780000D02*
X146740000Y-62070000D01*
D39*
X152889000Y-62889200D02*
X152500000Y-62500000D01*
D33*
X157637800Y-64260000D02*
X156267000Y-62889200D01*
X169880000Y-74290000D02*
X169880000Y-72120000D01*
X167200000Y-63720050D02*
X166509950Y-63030000D01*
X139764000Y-69770000D02*
X139764000Y-69678900D01*
X158240000Y-65100100D02*
X158240000Y-72458200D01*
X164690000Y-63250000D02*
X163173900Y-64766100D01*
X139328000Y-72570900D02*
X139764000Y-72135500D01*
X137730000Y-67644600D02*
X132485000Y-67644600D01*
X139764000Y-69678900D02*
X137730000Y-67644600D01*
X151908000Y-61780000D02*
X147030000Y-61780000D01*
X152500000Y-62500000D02*
X152500000Y-62371600D01*
X165930050Y-63030000D02*
X165710050Y-63250000D01*
X159112000Y-64228100D02*
X159080100Y-64260000D01*
X139764000Y-72135500D02*
X139764000Y-69770000D01*
X173660000Y-74560000D02*
X173267000Y-74953000D01*
X136675000Y-72215000D02*
X137031000Y-72570900D01*
X173267000Y-74953000D02*
X170543000Y-74953000D01*
X159650000Y-64766100D02*
X159112000Y-64228100D01*
X132485000Y-67644600D02*
X131725000Y-68405000D01*
X159080100Y-64260000D02*
X157637800Y-64260000D01*
X137031000Y-72570900D02*
X139328000Y-72570900D01*
X163173900Y-64766100D02*
X159650000Y-64766100D01*
D40*
X158412200Y-74030000D02*
X154900000Y-74030000D01*
X159112000Y-73330200D02*
X158412200Y-74030000D01*
D33*
X152500000Y-62371600D02*
X151908000Y-61780000D01*
%TO.N,Net-(SW2-B)*%
D34*
X123060000Y-66620000D02*
X123010000Y-66670000D01*
X123010000Y-66770000D02*
X123010000Y-70825100D01*
D37*
X123838000Y-71653400D02*
X123230000Y-71653400D01*
X122990000Y-71653400D02*
X122644000Y-72000000D01*
X123230000Y-71653400D02*
X122990000Y-71653400D01*
D34*
X123010000Y-66670000D02*
X123010000Y-66770000D01*
X123010000Y-70825100D02*
X123838000Y-71653400D01*
D37*
X122000000Y-72000000D02*
X122644000Y-72000000D01*
%TO.N,I2C_SDA*%
D34*
X118088000Y-71534700D02*
X118088000Y-65208800D01*
X118247000Y-65049400D02*
X120816000Y-65049400D01*
X118088000Y-65208800D02*
X118247000Y-65049400D01*
X121319000Y-64546700D02*
X121319000Y-64000000D01*
X121319000Y-64000000D02*
X122000000Y-64000000D01*
X118970000Y-72417500D02*
X118088000Y-71534700D01*
X120816000Y-65049400D02*
X121319000Y-64546700D01*
%TO.N,VBAT*%
D33*
X164358300Y-65100000D02*
X162678000Y-66780300D01*
X153351000Y-66780300D02*
X152950000Y-66379600D01*
X152400000Y-63727500D02*
X152518000Y-63610000D01*
X152950000Y-66379600D02*
X152950000Y-65794000D01*
X152950000Y-65794000D02*
X152496000Y-65340000D01*
X152400000Y-65340000D02*
X152400000Y-63727500D01*
X166220000Y-63730000D02*
X166500000Y-64010000D01*
X166500000Y-64010000D02*
X166500000Y-65100000D01*
X152517500Y-63610000D02*
X152400000Y-63727500D01*
X152496000Y-65340000D02*
X152400000Y-65340000D01*
X166500000Y-65100000D02*
X164358300Y-65100000D01*
%TO.N,TEMP_DQ*%
D34*
X116300000Y-62100000D02*
X116300000Y-62781400D01*
X118124000Y-64328000D02*
X116577000Y-62781400D01*
X116577000Y-62781400D02*
X116300000Y-62781400D01*
%TO.N,Net-(D4-A)*%
X131725000Y-69675000D02*
X131389000Y-70010900D01*
X131389000Y-70010900D02*
X128926000Y-70010900D01*
%TO.N,USB_DP*%
D41*
X119506000Y-72221755D02*
X119506000Y-72639519D01*
X118747981Y-72953500D02*
X118434000Y-72639519D01*
X119664000Y-72379755D02*
X119506000Y-72221755D01*
X118434000Y-72639519D02*
X118434000Y-72427148D01*
X119664000Y-73126397D02*
X119664000Y-72379755D01*
X119500000Y-73899998D02*
X119664000Y-73735998D01*
X118197067Y-72190000D02*
X117965000Y-72190000D01*
X119500000Y-73290397D02*
X119664000Y-73126397D01*
X119192019Y-72953500D02*
X118747981Y-72953500D01*
X118434000Y-72427148D02*
X118197067Y-72190000D01*
X119506000Y-72639519D02*
X119192019Y-72953500D01*
D34*
X119500000Y-73725000D02*
X119500000Y-73900000D01*
D41*
X119500000Y-73899998D02*
X119500000Y-73290397D01*
%TO.N,USB_DN*%
X119808000Y-71856245D02*
X119808000Y-71586400D01*
X120299999Y-73899998D02*
X120299999Y-73290397D01*
X120135999Y-73126397D02*
X120135999Y-72184244D01*
X120299999Y-73899998D02*
X120136000Y-73735999D01*
X120299999Y-73290397D02*
X120135999Y-73126397D01*
X120135999Y-72184244D02*
X119808000Y-71856245D01*
%TO.N,CHIP_EN*%
D34*
X118700000Y-62100000D02*
X118700000Y-62781400D01*
D32*
X125950000Y-62610000D02*
X125950000Y-62400000D01*
X124210000Y-65550000D02*
X124620000Y-65140000D01*
D34*
X139830000Y-64050000D02*
X140910000Y-64050000D01*
D32*
X125507000Y-65140000D02*
X125617000Y-65250000D01*
X122897000Y-62796800D02*
X121394000Y-62796800D01*
D34*
X125950000Y-62400000D02*
X125740000Y-62400000D01*
D32*
X124210000Y-65550000D02*
X123620000Y-65550000D01*
D34*
X139830000Y-64050000D02*
X138800000Y-64050000D01*
X136266000Y-62606000D02*
X136416000Y-62456000D01*
X137126000Y-62456000D02*
X138760000Y-64090000D01*
X135491000Y-62370000D02*
X135727000Y-62606000D01*
X120696000Y-64385700D02*
X120696000Y-63880900D01*
D32*
X122960000Y-62860000D02*
X122897000Y-62796800D01*
D34*
X120696000Y-63880900D02*
X119597000Y-62781400D01*
X125740000Y-62370000D02*
X135491000Y-62370000D01*
D32*
X122960000Y-64890000D02*
X122960000Y-62860000D01*
X125617000Y-65250000D02*
X127210000Y-65250000D01*
D34*
X140960000Y-64000000D02*
X141975000Y-64000000D01*
X140910000Y-64050000D02*
X140960000Y-64000000D01*
X135727000Y-62606000D02*
X136266000Y-62606000D01*
D32*
X123620000Y-65550000D02*
X122960000Y-64890000D01*
X127410000Y-65050000D02*
X127410000Y-64070000D01*
X127410000Y-64070000D02*
X125950000Y-62610000D01*
D34*
X143500000Y-64200000D02*
X142175000Y-64200000D01*
X138800000Y-64050000D02*
X138760000Y-64090000D01*
D32*
X121394000Y-62796800D02*
X120696000Y-63494100D01*
D34*
X136416000Y-62456000D02*
X137126000Y-62456000D01*
X119597000Y-62781400D02*
X118700000Y-62781400D01*
X141975000Y-64000000D02*
X142175000Y-64200000D01*
D32*
X124620000Y-65140000D02*
X125507000Y-65140000D01*
X127210000Y-65250000D02*
X127410000Y-65050000D01*
X120696000Y-63494100D02*
X120696000Y-64385700D01*
%TO.N,Net-(U3-PROG)*%
D34*
X139042000Y-71806200D02*
X139043000Y-71807400D01*
X151910000Y-73743100D02*
X151977000Y-73810000D01*
X153590000Y-73810000D02*
X153690000Y-73910000D01*
X139042000Y-70394200D02*
X139042000Y-71806200D01*
D37*
X137394000Y-70394200D02*
X136675000Y-69675000D01*
D34*
X151977000Y-73810000D02*
X153590000Y-73810000D01*
D37*
X139042000Y-70394200D02*
X137394000Y-70394200D01*
%TD*%
%TA.AperFunction,Conductor*%
%TO.N,GND*%
G36*
X156401361Y-64213115D02*
G01*
X156446155Y-64216304D01*
X156490541Y-64244819D01*
X157016011Y-64770289D01*
X157073364Y-64827642D01*
X157127512Y-64881790D01*
X157258614Y-64969390D01*
X157258627Y-64969397D01*
X157362952Y-65012609D01*
X157417356Y-65056449D01*
X157439421Y-65122743D01*
X157439500Y-65127170D01*
X157439500Y-68338769D01*
X157419815Y-68405808D01*
X157367011Y-68451563D01*
X157297853Y-68461507D01*
X157234297Y-68432482D01*
X157227819Y-68426450D01*
X156418418Y-67617049D01*
X156333034Y-67559998D01*
X156288229Y-67506386D01*
X156279522Y-67437061D01*
X156283990Y-67418590D01*
X156317246Y-67316243D01*
X156350500Y-67106287D01*
X156350500Y-66893713D01*
X156317246Y-66683757D01*
X156251557Y-66481588D01*
X156155051Y-66292184D01*
X156155049Y-66292181D01*
X156155048Y-66292179D01*
X156030109Y-66120213D01*
X155879686Y-65969790D01*
X155846201Y-65908467D01*
X155851185Y-65838775D01*
X155893057Y-65782842D01*
X155930478Y-65763723D01*
X155956995Y-65755460D01*
X155956998Y-65755459D01*
X156096233Y-65671289D01*
X156096237Y-65671286D01*
X156211286Y-65556237D01*
X156211289Y-65556233D01*
X156295459Y-65416998D01*
X156295461Y-65416992D01*
X156343864Y-65261662D01*
X156343865Y-65261655D01*
X156350000Y-65194151D01*
X156350000Y-64710000D01*
X155433012Y-64710000D01*
X155465925Y-64652993D01*
X155500000Y-64525826D01*
X155500000Y-64394174D01*
X155465925Y-64267007D01*
X155433012Y-64210000D01*
X156401361Y-64210000D01*
X156401361Y-64213115D01*
G37*
%TD.AperFunction*%
%TA.AperFunction,Conductor*%
G36*
X153593039Y-63704885D02*
G01*
X153638794Y-63757689D01*
X153650000Y-63809200D01*
X153650000Y-64210000D01*
X154566988Y-64210000D01*
X154534075Y-64267007D01*
X154500000Y-64394174D01*
X154500000Y-64525826D01*
X154534075Y-64652993D01*
X154566988Y-64710000D01*
X153650001Y-64710000D01*
X153650001Y-65062561D01*
X153630316Y-65129600D01*
X153577512Y-65175355D01*
X153508354Y-65185299D01*
X153444798Y-65156274D01*
X153438320Y-65150242D01*
X153236819Y-64948741D01*
X153203334Y-64887418D01*
X153200500Y-64861060D01*
X153200500Y-64183921D01*
X153217768Y-64120800D01*
X153219175Y-64118421D01*
X153264431Y-64041897D01*
X153264432Y-64041893D01*
X153264433Y-64041892D01*
X153310108Y-63884679D01*
X153310109Y-63884673D01*
X153310527Y-63879367D01*
X153313000Y-63847940D01*
X153313000Y-63809200D01*
X153315550Y-63800514D01*
X153314262Y-63791553D01*
X153325240Y-63767512D01*
X153332685Y-63742161D01*
X153339525Y-63736233D01*
X153343287Y-63727997D01*
X153365521Y-63713707D01*
X153385489Y-63696406D01*
X153396003Y-63694118D01*
X153402065Y-63690223D01*
X153437000Y-63685200D01*
X153526000Y-63685200D01*
X153593039Y-63704885D01*
G37*
%TD.AperFunction*%
%TA.AperFunction,Conductor*%
G36*
X114346128Y-60670185D02*
G01*
X114391883Y-60722989D01*
X114401827Y-60792147D01*
X114372802Y-60855703D01*
X114366698Y-60862253D01*
X114226267Y-61002453D01*
X114226268Y-61002453D01*
X114221830Y-61006883D01*
X114221584Y-61007049D01*
X114171143Y-61057488D01*
X114170509Y-61058122D01*
X114169939Y-61058693D01*
X114169937Y-61058694D01*
X114169870Y-61058760D01*
X114169871Y-61058761D01*
X114117420Y-61111128D01*
X114117392Y-61111163D01*
X114117142Y-61111468D01*
X114117058Y-61111568D01*
X114076334Y-61172518D01*
X114076279Y-61172600D01*
X114035198Y-61233975D01*
X114034933Y-61234469D01*
X114034931Y-61234470D01*
X114034924Y-61234483D01*
X114006843Y-61302276D01*
X114006806Y-61302366D01*
X113978517Y-61370506D01*
X113978452Y-61370718D01*
X113978420Y-61370827D01*
X113978346Y-61371067D01*
X113964071Y-61442828D01*
X113964052Y-61442923D01*
X113949558Y-61515482D01*
X113949516Y-61515905D01*
X113949515Y-61515906D01*
X113949500Y-61516059D01*
X113949500Y-61516082D01*
X113949500Y-61590012D01*
X113949441Y-61663309D01*
X113949500Y-61663606D01*
X113949500Y-62173918D01*
X113949500Y-62173920D01*
X113949499Y-62173920D01*
X113978341Y-62318911D01*
X113978343Y-62318918D01*
X113986861Y-62339482D01*
X113996300Y-62386933D01*
X113996300Y-62554271D01*
X113996301Y-62554278D01*
X114002708Y-62613885D01*
X114053002Y-62748730D01*
X114053004Y-62748734D01*
X114067119Y-62767588D01*
X114078466Y-62782746D01*
X114102885Y-62848209D01*
X114103201Y-62857058D01*
X114103201Y-63006402D01*
X114151029Y-63006402D01*
X114151045Y-63006401D01*
X114210573Y-63000000D01*
X114210576Y-62999999D01*
X114255949Y-62983076D01*
X114325640Y-62978090D01*
X114342612Y-62983073D01*
X114389317Y-63000493D01*
X114448927Y-63006902D01*
X114951072Y-63006901D01*
X115010683Y-63000493D01*
X115056666Y-62983341D01*
X115126355Y-62978356D01*
X115143323Y-62983338D01*
X115189318Y-63000493D01*
X115248928Y-63006902D01*
X115606455Y-63006901D01*
X115673494Y-63026585D01*
X115719249Y-63079389D01*
X115721013Y-63083442D01*
X115723529Y-63089516D01*
X115723538Y-63089533D01*
X115794723Y-63196068D01*
X115794726Y-63196072D01*
X115885327Y-63286673D01*
X115885331Y-63286676D01*
X115991866Y-63357861D01*
X115991872Y-63357864D01*
X115991873Y-63357865D01*
X116110256Y-63406901D01*
X116110260Y-63406901D01*
X116110261Y-63406902D01*
X116235928Y-63431900D01*
X116235931Y-63431900D01*
X116256249Y-63431900D01*
X116323288Y-63451585D01*
X116343919Y-63468207D01*
X117306996Y-64431035D01*
X117314096Y-64442680D01*
X117322006Y-64449209D01*
X117330558Y-64469679D01*
X117337432Y-64480953D01*
X117339572Y-64487646D01*
X117354263Y-64561497D01*
X117393457Y-64656122D01*
X117395030Y-64661038D01*
X117395748Y-64691014D01*
X117398954Y-64720830D01*
X117396576Y-64725578D01*
X117396704Y-64730888D01*
X117381099Y-64756498D01*
X117367678Y-64783309D01*
X117364606Y-64786493D01*
X117350000Y-64801099D01*
X117350000Y-65775000D01*
X117365173Y-65790173D01*
X117380539Y-65794685D01*
X117426294Y-65847489D01*
X117437500Y-65899000D01*
X117437500Y-66151000D01*
X117417815Y-66218039D01*
X117365011Y-66263794D01*
X117360148Y-66264851D01*
X117350000Y-66275000D01*
X117350000Y-67750000D01*
X117365173Y-67765173D01*
X117380539Y-67769685D01*
X117426294Y-67822489D01*
X117437500Y-67874000D01*
X117437500Y-68126000D01*
X117417815Y-68193039D01*
X117365011Y-68238794D01*
X117360148Y-68239851D01*
X117350000Y-68250000D01*
X117350000Y-69725000D01*
X117365173Y-69740173D01*
X117380539Y-69744685D01*
X117426294Y-69797489D01*
X117437500Y-69849000D01*
X117437500Y-70101000D01*
X117417815Y-70168039D01*
X117365011Y-70213794D01*
X117360148Y-70214851D01*
X117350000Y-70225000D01*
X117350000Y-71198900D01*
X117365173Y-71214073D01*
X117380539Y-71218585D01*
X117386466Y-71225425D01*
X117394703Y-71229187D01*
X117408992Y-71251421D01*
X117426294Y-71271389D01*
X117428581Y-71281903D01*
X117432477Y-71287965D01*
X117437500Y-71322900D01*
X117437500Y-71534058D01*
X117417815Y-71601097D01*
X117401183Y-71621738D01*
X117343208Y-71679714D01*
X117255609Y-71810814D01*
X117255602Y-71810827D01*
X117195264Y-71956498D01*
X117195261Y-71956510D01*
X117164500Y-72111153D01*
X117164500Y-72268846D01*
X117195261Y-72423489D01*
X117195264Y-72423501D01*
X117255602Y-72569172D01*
X117255609Y-72569185D01*
X117343210Y-72700288D01*
X117343213Y-72700292D01*
X117424338Y-72781417D01*
X117457823Y-72842740D01*
X117452839Y-72912432D01*
X117410967Y-72968365D01*
X117345503Y-72992782D01*
X117336657Y-72993098D01*
X116848929Y-72993098D01*
X116848923Y-72993099D01*
X116789316Y-72999506D01*
X116743329Y-73016658D01*
X116673637Y-73021640D01*
X116656667Y-73016657D01*
X116610687Y-72999508D01*
X116610683Y-72999507D01*
X116610682Y-72999507D01*
X116551072Y-72993098D01*
X116551062Y-72993098D01*
X116048928Y-72993098D01*
X116048922Y-72993099D01*
X115989315Y-72999506D01*
X115943332Y-73016657D01*
X115873640Y-73021641D01*
X115856668Y-73016657D01*
X115810689Y-72999508D01*
X115810685Y-72999507D01*
X115810684Y-72999507D01*
X115751074Y-72993098D01*
X115751064Y-72993098D01*
X115248930Y-72993098D01*
X115248924Y-72993099D01*
X115189317Y-72999506D01*
X115143330Y-73016658D01*
X115073638Y-73021640D01*
X115056668Y-73016657D01*
X115010688Y-72999508D01*
X115010684Y-72999507D01*
X115010683Y-72999507D01*
X114951073Y-72993098D01*
X114951063Y-72993098D01*
X114448929Y-72993098D01*
X114448923Y-72993099D01*
X114389318Y-72999506D01*
X114343331Y-73016658D01*
X114273639Y-73021641D01*
X114256668Y-73016657D01*
X114210689Y-72999508D01*
X114210685Y-72999507D01*
X114210684Y-72999507D01*
X114151074Y-72993098D01*
X114151064Y-72993098D01*
X113648930Y-72993098D01*
X113648924Y-72993099D01*
X113589317Y-72999506D01*
X113543330Y-73016658D01*
X113473638Y-73021640D01*
X113456668Y-73016657D01*
X113410688Y-72999508D01*
X113410684Y-72999507D01*
X113410683Y-72999507D01*
X113351073Y-72993098D01*
X113351063Y-72993098D01*
X112848929Y-72993098D01*
X112848923Y-72993099D01*
X112789315Y-72999507D01*
X112787750Y-72999877D01*
X112759232Y-73003201D01*
X112403200Y-73003201D01*
X112403200Y-73374900D01*
X112402490Y-73388149D01*
X112396300Y-73445725D01*
X112396301Y-74354270D01*
X112399034Y-74379698D01*
X112399290Y-74382074D01*
X112400000Y-74395328D01*
X112400000Y-74805600D01*
X112553428Y-74805600D01*
X112553444Y-74805599D01*
X112612972Y-74799198D01*
X112656078Y-74783120D01*
X112725770Y-74778134D01*
X112742740Y-74783117D01*
X112789317Y-74800489D01*
X112848927Y-74806898D01*
X113351072Y-74806897D01*
X113410683Y-74800489D01*
X113456666Y-74783337D01*
X113526355Y-74778352D01*
X113543323Y-74783334D01*
X113589318Y-74800489D01*
X113648928Y-74806898D01*
X114151073Y-74806897D01*
X114210684Y-74800489D01*
X114230882Y-74792955D01*
X114256666Y-74783339D01*
X114326357Y-74778354D01*
X114343327Y-74783336D01*
X114380403Y-74797164D01*
X114389311Y-74800487D01*
X114389317Y-74800489D01*
X114448927Y-74806898D01*
X114951072Y-74806897D01*
X115010683Y-74800489D01*
X115056666Y-74783337D01*
X115126355Y-74778352D01*
X115143323Y-74783334D01*
X115189318Y-74800489D01*
X115248928Y-74806898D01*
X115751073Y-74806897D01*
X115810684Y-74800489D01*
X115856665Y-74783338D01*
X115926356Y-74778353D01*
X115943333Y-74783339D01*
X115989307Y-74800486D01*
X115989310Y-74800487D01*
X115989316Y-74800489D01*
X116048926Y-74806898D01*
X116551071Y-74806897D01*
X116610682Y-74800489D01*
X116656665Y-74783337D01*
X116726354Y-74778352D01*
X116743322Y-74783334D01*
X116789317Y-74800489D01*
X116848927Y-74806898D01*
X117351072Y-74806897D01*
X117410683Y-74800489D01*
X117456666Y-74783337D01*
X117526355Y-74778352D01*
X117543323Y-74783334D01*
X117589318Y-74800489D01*
X117648928Y-74806898D01*
X118151073Y-74806897D01*
X118210684Y-74800489D01*
X118256665Y-74783338D01*
X118326356Y-74778353D01*
X118343333Y-74783339D01*
X118389307Y-74800486D01*
X118389310Y-74800487D01*
X118389316Y-74800489D01*
X118448926Y-74806898D01*
X118951071Y-74806897D01*
X119010682Y-74800489D01*
X119056665Y-74783337D01*
X119126354Y-74778352D01*
X119143322Y-74783334D01*
X119189317Y-74800489D01*
X119248927Y-74806898D01*
X119751072Y-74806897D01*
X119810683Y-74800489D01*
X119830881Y-74792955D01*
X119856665Y-74783339D01*
X119926356Y-74778354D01*
X119943326Y-74783336D01*
X119980402Y-74797164D01*
X119989310Y-74800487D01*
X119989316Y-74800489D01*
X120048926Y-74806898D01*
X120551071Y-74806897D01*
X120610682Y-74800489D01*
X120656665Y-74783337D01*
X120726354Y-74778352D01*
X120743322Y-74783334D01*
X120789317Y-74800489D01*
X120848927Y-74806898D01*
X121351072Y-74806897D01*
X121410683Y-74800489D01*
X121410687Y-74800488D01*
X121424754Y-74795241D01*
X121457249Y-74783120D01*
X121526937Y-74778134D01*
X121543917Y-74783119D01*
X121587028Y-74799198D01*
X121587027Y-74799198D01*
X121646555Y-74805599D01*
X121646572Y-74805600D01*
X121800000Y-74805600D01*
X122300000Y-74805600D01*
X122453428Y-74805600D01*
X122453444Y-74805599D01*
X122512972Y-74799198D01*
X122512979Y-74799196D01*
X122647686Y-74748954D01*
X122647693Y-74748950D01*
X122762787Y-74662790D01*
X122762790Y-74662787D01*
X122848950Y-74547693D01*
X122848954Y-74547686D01*
X122899196Y-74412979D01*
X122899198Y-74412972D01*
X122905599Y-74353444D01*
X122905600Y-74353427D01*
X122905600Y-74200000D01*
X122300000Y-74200000D01*
X122300000Y-74805600D01*
X121800000Y-74805600D01*
X121800000Y-74395327D01*
X121800014Y-74393467D01*
X121800099Y-74387758D01*
X121803700Y-74354271D01*
X121803700Y-74074000D01*
X121823385Y-74006961D01*
X121876189Y-73961206D01*
X121927700Y-73950000D01*
X122050000Y-73950000D01*
X122050000Y-73824000D01*
X122069685Y-73756961D01*
X122122489Y-73711206D01*
X122174000Y-73700000D01*
X122905600Y-73700000D01*
X122905600Y-73546572D01*
X122905599Y-73546555D01*
X122899198Y-73487027D01*
X122899197Y-73487023D01*
X122845853Y-73344002D01*
X122849225Y-73342743D01*
X122838019Y-73291199D01*
X122848804Y-73254475D01*
X122847096Y-73253838D01*
X122850194Y-73245531D01*
X122850196Y-73245529D01*
X122900491Y-73110681D01*
X122906900Y-73051071D01*
X122906899Y-72627892D01*
X122909120Y-72620328D01*
X122907852Y-72612547D01*
X122918823Y-72587282D01*
X122926583Y-72560854D01*
X122933248Y-72554062D01*
X122935682Y-72548459D01*
X122961919Y-72524851D01*
X122984520Y-72509721D01*
X122984610Y-72509661D01*
X123026050Y-72481971D01*
X123034765Y-72476148D01*
X123034778Y-72476134D01*
X123034992Y-72475960D01*
X123035163Y-72475817D01*
X123035177Y-72475809D01*
X123077269Y-72433643D01*
X123120148Y-72390765D01*
X123120298Y-72390540D01*
X123207891Y-72302794D01*
X123269185Y-72269257D01*
X123295648Y-72266400D01*
X123593384Y-72266400D01*
X123640854Y-72275846D01*
X123648143Y-72278867D01*
X123773813Y-72303888D01*
X123773900Y-72303888D01*
X123901951Y-72303911D01*
X124027630Y-72278935D01*
X124124124Y-72238986D01*
X124146020Y-72229922D01*
X124146023Y-72229920D01*
X124252578Y-72158752D01*
X124343201Y-72068161D01*
X124414409Y-71961631D01*
X124463467Y-71843257D01*
X124488488Y-71717587D01*
X124488511Y-71589449D01*
X124463535Y-71463770D01*
X124442900Y-71413926D01*
X124414522Y-71345379D01*
X124414520Y-71345376D01*
X124343354Y-71238824D01*
X124343350Y-71238819D01*
X123696803Y-70592039D01*
X123663329Y-70530710D01*
X123660500Y-70504374D01*
X123660500Y-69932053D01*
X128125500Y-69932053D01*
X128125500Y-70089746D01*
X128156261Y-70244389D01*
X128156264Y-70244401D01*
X128216604Y-70390076D01*
X128216605Y-70390078D01*
X128216606Y-70390079D01*
X128245209Y-70432887D01*
X128253437Y-70445200D01*
X128274315Y-70511877D01*
X128271952Y-70538282D01*
X128249500Y-70651153D01*
X128249500Y-70808846D01*
X128280261Y-70963489D01*
X128280264Y-70963501D01*
X128340602Y-71109172D01*
X128340609Y-71109185D01*
X128428210Y-71240288D01*
X128428213Y-71240292D01*
X128539707Y-71351786D01*
X128539711Y-71351789D01*
X128670814Y-71439390D01*
X128670827Y-71439397D01*
X128729670Y-71463770D01*
X128816503Y-71499737D01*
X128883580Y-71513079D01*
X128896252Y-71519006D01*
X128906894Y-71520156D01*
X128925968Y-71532907D01*
X128937239Y-71538180D01*
X128942384Y-71542330D01*
X129010331Y-71610277D01*
X129100590Y-71670585D01*
X129105225Y-71673682D01*
X129116864Y-71681460D01*
X129116872Y-71681464D01*
X129116873Y-71681465D01*
X129235256Y-71730501D01*
X129235260Y-71730501D01*
X129235261Y-71730502D01*
X129360928Y-71755500D01*
X129360931Y-71755500D01*
X130147369Y-71755500D01*
X130214408Y-71775185D01*
X130260163Y-71827989D01*
X130270107Y-71897147D01*
X130266445Y-71914096D01*
X130252402Y-71962429D01*
X130252401Y-71962432D01*
X130249500Y-71999298D01*
X130249500Y-72430701D01*
X130252401Y-72467567D01*
X130252402Y-72467573D01*
X130298254Y-72625393D01*
X130298257Y-72625400D01*
X130371356Y-72749006D01*
X130388539Y-72816730D01*
X130386241Y-72836317D01*
X130359500Y-72970753D01*
X130359500Y-73084793D01*
X130350061Y-73132245D01*
X130294106Y-73267332D01*
X130294103Y-73267341D01*
X130259500Y-73441304D01*
X130259500Y-73618695D01*
X130294103Y-73792658D01*
X130294106Y-73792667D01*
X130361983Y-73956540D01*
X130361990Y-73956553D01*
X130460535Y-74104034D01*
X130460538Y-74104038D01*
X130585961Y-74229461D01*
X130585965Y-74229464D01*
X130733446Y-74328009D01*
X130733459Y-74328016D01*
X130856363Y-74378923D01*
X130897334Y-74395894D01*
X130897336Y-74395894D01*
X130897341Y-74395896D01*
X131071304Y-74430499D01*
X131071307Y-74430500D01*
X131071309Y-74430500D01*
X131248693Y-74430500D01*
X131248694Y-74430499D01*
X131332240Y-74413881D01*
X131422658Y-74395896D01*
X131422661Y-74395894D01*
X131422666Y-74395894D01*
X131586547Y-74328013D01*
X131734035Y-74229464D01*
X131859464Y-74104035D01*
X131958013Y-73956547D01*
X132025894Y-73792666D01*
X132026373Y-73790261D01*
X132060499Y-73618695D01*
X132060500Y-73618693D01*
X132060500Y-73441308D01*
X132054082Y-73409044D01*
X132046862Y-73372748D01*
X132053088Y-73303161D01*
X132080793Y-73260883D01*
X132289860Y-73051816D01*
X132351182Y-73018334D01*
X132377540Y-73015500D01*
X132615686Y-73015500D01*
X132615694Y-73015500D01*
X132652569Y-73012598D01*
X132652571Y-73012597D01*
X132652573Y-73012597D01*
X132697628Y-72999507D01*
X132810398Y-72966744D01*
X132951865Y-72883081D01*
X133068081Y-72766865D01*
X133151744Y-72625398D01*
X133191280Y-72489315D01*
X133197597Y-72467573D01*
X133197598Y-72467567D01*
X133200500Y-72430694D01*
X133200500Y-71999306D01*
X133197598Y-71962431D01*
X133197597Y-71962429D01*
X133197597Y-71962426D01*
X133153629Y-71811089D01*
X133151744Y-71804602D01*
X133068081Y-71663135D01*
X133068078Y-71663132D01*
X133063298Y-71656969D01*
X133065750Y-71655066D01*
X133039155Y-71606421D01*
X133044104Y-71536726D01*
X133064940Y-71504304D01*
X133063298Y-71503031D01*
X133068075Y-71496870D01*
X133068081Y-71496865D01*
X133151744Y-71355398D01*
X133197598Y-71197569D01*
X133200500Y-71160694D01*
X133200500Y-70729306D01*
X133197598Y-70692431D01*
X133194382Y-70681363D01*
X133151745Y-70534606D01*
X133151744Y-70534603D01*
X133151744Y-70534602D01*
X133068081Y-70393135D01*
X133068078Y-70393132D01*
X133063298Y-70386969D01*
X133065750Y-70385066D01*
X133039155Y-70336421D01*
X133044104Y-70266726D01*
X133064940Y-70234304D01*
X133063298Y-70233031D01*
X133068075Y-70226870D01*
X133068081Y-70226865D01*
X133151744Y-70085398D01*
X133196914Y-69929922D01*
X133234519Y-69871040D01*
X133297991Y-69841833D01*
X133340181Y-69842903D01*
X133426129Y-69860000D01*
X133573871Y-69860000D01*
X133573873Y-69859999D01*
X133718760Y-69831179D01*
X133718775Y-69831175D01*
X133824024Y-69787578D01*
X133824024Y-69787577D01*
X133410904Y-69374457D01*
X133377419Y-69313134D01*
X133382403Y-69243442D01*
X133410904Y-69199094D01*
X133429288Y-69180709D01*
X133443355Y-69194776D01*
X133480109Y-69210000D01*
X133519891Y-69210000D01*
X133556645Y-69194776D01*
X133584776Y-69166645D01*
X133600000Y-69129891D01*
X133600000Y-69109999D01*
X133853554Y-69109999D01*
X133853554Y-69110001D01*
X134177577Y-69434024D01*
X134177578Y-69434024D01*
X134221175Y-69328775D01*
X134221179Y-69328760D01*
X134249999Y-69183873D01*
X134250000Y-69183871D01*
X134250000Y-69036128D01*
X134249999Y-69036126D01*
X134221179Y-68891240D01*
X134221178Y-68891236D01*
X134177577Y-68785975D01*
X133853554Y-69109999D01*
X133600000Y-69109999D01*
X133600000Y-69090109D01*
X133584776Y-69053355D01*
X133556645Y-69025224D01*
X133519891Y-69010000D01*
X133480109Y-69010000D01*
X133443355Y-69025224D01*
X133429289Y-69039289D01*
X133410904Y-69020904D01*
X133377419Y-68959581D01*
X133382403Y-68889889D01*
X133410904Y-68845542D01*
X133775027Y-68481419D01*
X133836350Y-68447934D01*
X133862708Y-68445100D01*
X135076000Y-68445100D01*
X135143039Y-68464785D01*
X135188794Y-68517589D01*
X135200000Y-68569100D01*
X135200000Y-68620649D01*
X135202899Y-68657489D01*
X135202900Y-68657495D01*
X135248716Y-68815193D01*
X135248717Y-68815196D01*
X135332314Y-68956552D01*
X135337100Y-68962722D01*
X135334640Y-68964629D01*
X135361210Y-69013288D01*
X135356226Y-69082980D01*
X135335162Y-69115781D01*
X135336699Y-69116974D01*
X135331915Y-69123140D01*
X135248255Y-69264603D01*
X135248254Y-69264606D01*
X135202402Y-69422426D01*
X135202401Y-69422432D01*
X135199500Y-69459298D01*
X135199500Y-69890701D01*
X135202401Y-69927567D01*
X135202402Y-69927573D01*
X135248254Y-70085393D01*
X135248255Y-70085396D01*
X135248256Y-70085398D01*
X135274937Y-70130513D01*
X135331917Y-70226862D01*
X135336702Y-70233031D01*
X135334369Y-70234840D01*
X135361210Y-70283995D01*
X135356226Y-70353687D01*
X135335470Y-70386021D01*
X135337097Y-70387283D01*
X135332313Y-70393449D01*
X135248718Y-70534801D01*
X135202899Y-70692513D01*
X135202704Y-70694998D01*
X135202705Y-70695000D01*
X136551000Y-70695000D01*
X136618039Y-70714685D01*
X136663794Y-70767489D01*
X136675000Y-70819000D01*
X136675000Y-71071000D01*
X136655315Y-71138039D01*
X136602511Y-71183794D01*
X136551000Y-71195000D01*
X135202705Y-71195000D01*
X135202704Y-71195001D01*
X135202899Y-71197486D01*
X135248718Y-71355198D01*
X135332314Y-71496552D01*
X135337100Y-71502722D01*
X135334640Y-71504629D01*
X135361210Y-71553288D01*
X135356226Y-71622980D01*
X135335162Y-71655781D01*
X135336699Y-71656974D01*
X135331915Y-71663140D01*
X135248255Y-71804603D01*
X135248254Y-71804606D01*
X135202402Y-71962426D01*
X135202401Y-71962432D01*
X135199500Y-71999298D01*
X135199500Y-72430701D01*
X135202401Y-72467567D01*
X135202402Y-72467573D01*
X135248254Y-72625393D01*
X135248255Y-72625396D01*
X135248256Y-72625398D01*
X135260568Y-72646217D01*
X135331917Y-72766862D01*
X135331923Y-72766870D01*
X135448129Y-72883076D01*
X135448133Y-72883079D01*
X135448135Y-72883081D01*
X135589602Y-72966744D01*
X135612378Y-72973361D01*
X135747426Y-73012597D01*
X135747429Y-73012597D01*
X135747431Y-73012598D01*
X135784306Y-73015500D01*
X136292135Y-73015500D01*
X136321563Y-73024141D01*
X136351546Y-73030659D01*
X136356573Y-73034421D01*
X136359174Y-73035185D01*
X136379789Y-73051795D01*
X136379804Y-73051806D01*
X136424713Y-73096702D01*
X136464074Y-73136052D01*
X136520711Y-73192689D01*
X136520716Y-73192692D01*
X136520795Y-73192758D01*
X136520798Y-73192760D01*
X136584096Y-73235042D01*
X136584107Y-73235054D01*
X136584110Y-73235051D01*
X136651821Y-73280294D01*
X136651833Y-73280299D01*
X136651909Y-73280339D01*
X136651920Y-73280347D01*
X136675234Y-73290000D01*
X136724337Y-73310331D01*
X136724336Y-73310331D01*
X136724340Y-73310332D01*
X136797503Y-73340637D01*
X136797514Y-73340639D01*
X136797592Y-73340662D01*
X136797611Y-73340670D01*
X136875751Y-73356201D01*
X136952158Y-73371400D01*
X136952167Y-73371400D01*
X136952267Y-73371410D01*
X136952270Y-73371411D01*
X136952271Y-73371410D01*
X136952272Y-73371411D01*
X137004831Y-73371403D01*
X137031112Y-73371400D01*
X139327449Y-73371400D01*
X139406291Y-73371454D01*
X139406563Y-73371400D01*
X139406842Y-73371400D01*
X139483645Y-73356122D01*
X139483648Y-73356141D01*
X139483728Y-73356105D01*
X139560967Y-73340798D01*
X139560979Y-73340792D01*
X139561204Y-73340725D01*
X139561493Y-73340637D01*
X139561497Y-73340637D01*
X139634663Y-73310331D01*
X139706690Y-73280554D01*
X139706917Y-73280402D01*
X139707179Y-73280294D01*
X139773057Y-73236274D01*
X139773145Y-73236246D01*
X139773131Y-73236225D01*
X139774909Y-73235039D01*
X139837861Y-73193040D01*
X139837866Y-73193034D01*
X139838091Y-73192851D01*
X139838284Y-73192691D01*
X139838289Y-73192689D01*
X139893793Y-73137183D01*
X139893871Y-73137141D01*
X139893854Y-73137124D01*
X140118791Y-72912495D01*
X140274056Y-72757444D01*
X140274289Y-72757289D01*
X140330170Y-72701407D01*
X140385437Y-72646217D01*
X140385443Y-72646207D01*
X140385604Y-72646011D01*
X140385771Y-72645806D01*
X140385789Y-72645789D01*
X140430209Y-72579310D01*
X140473132Y-72515167D01*
X140473237Y-72514913D01*
X140473394Y-72514679D01*
X140503694Y-72441526D01*
X140533576Y-72369527D01*
X140533579Y-72369511D01*
X140533614Y-72369397D01*
X140533664Y-72369232D01*
X140533730Y-72369013D01*
X140533737Y-72368997D01*
X140545336Y-72310683D01*
X140548980Y-72292365D01*
X140548996Y-72292368D01*
X140548996Y-72292280D01*
X140564446Y-72214894D01*
X140564446Y-72214889D01*
X140564449Y-72214857D01*
X140564449Y-72214596D01*
X140564500Y-72214342D01*
X140564500Y-72136051D01*
X140564554Y-72057209D01*
X140564553Y-72057205D01*
X140564557Y-72051802D01*
X140564500Y-72050619D01*
X140564500Y-69686127D01*
X140564506Y-69600117D01*
X140564500Y-69600086D01*
X140564500Y-69600058D01*
X140564500Y-69600055D01*
X140564499Y-69600053D01*
X140559119Y-69573005D01*
X140559118Y-69573001D01*
X140554967Y-69552135D01*
X141949500Y-69552135D01*
X141949500Y-72047870D01*
X141949501Y-72047876D01*
X141955908Y-72107483D01*
X142006202Y-72242328D01*
X142006206Y-72242335D01*
X142092452Y-72357544D01*
X142092455Y-72357547D01*
X142207664Y-72443793D01*
X142207671Y-72443797D01*
X142342517Y-72494091D01*
X142342516Y-72494091D01*
X142349444Y-72494835D01*
X142402127Y-72500500D01*
X144597872Y-72500499D01*
X144657483Y-72494091D01*
X144792331Y-72443796D01*
X144907546Y-72357546D01*
X144993796Y-72242331D01*
X145044091Y-72107483D01*
X145050500Y-72047873D01*
X145050499Y-69552128D01*
X145044091Y-69492517D01*
X145035393Y-69469197D01*
X144993797Y-69357671D01*
X144993793Y-69357664D01*
X144907547Y-69242455D01*
X144907544Y-69242452D01*
X144792335Y-69156206D01*
X144792328Y-69156202D01*
X144657482Y-69105908D01*
X144657483Y-69105908D01*
X144597883Y-69099501D01*
X144597881Y-69099500D01*
X144597873Y-69099500D01*
X144597864Y-69099500D01*
X142402129Y-69099500D01*
X142402123Y-69099501D01*
X142342516Y-69105908D01*
X142207671Y-69156202D01*
X142207664Y-69156206D01*
X142092455Y-69242452D01*
X142092452Y-69242455D01*
X142006206Y-69357664D01*
X142006202Y-69357671D01*
X141955908Y-69492517D01*
X141952033Y-69528564D01*
X141949501Y-69552123D01*
X141949500Y-69552135D01*
X140554967Y-69552135D01*
X140550278Y-69528566D01*
X140550276Y-69528553D01*
X140544720Y-69500611D01*
X140533755Y-69445460D01*
X140533752Y-69445454D01*
X140533752Y-69445451D01*
X140533740Y-69445412D01*
X140533737Y-69445406D01*
X140533737Y-69445403D01*
X140501247Y-69366965D01*
X140501247Y-69366959D01*
X140501246Y-69366960D01*
X140473422Y-69299774D01*
X140473395Y-69299725D01*
X140473394Y-69299721D01*
X140473391Y-69299716D01*
X140473387Y-69299709D01*
X140429183Y-69233555D01*
X140429179Y-69233544D01*
X140429178Y-69233546D01*
X140395991Y-69183871D01*
X140385827Y-69168657D01*
X140385826Y-69168656D01*
X140385792Y-69168614D01*
X140360897Y-69143719D01*
X140330687Y-69113509D01*
X140330684Y-69113503D01*
X140330683Y-69113505D01*
X138658520Y-67441096D01*
X145950000Y-67441096D01*
X145952897Y-67483824D01*
X145998831Y-67668523D01*
X146083390Y-67839022D01*
X146083392Y-67839025D01*
X146202632Y-67987366D01*
X146202633Y-67987367D01*
X146350974Y-68106607D01*
X146350977Y-68106609D01*
X146521476Y-68191168D01*
X146706175Y-68237102D01*
X146748903Y-68240000D01*
X146950000Y-68240000D01*
X146950000Y-66990000D01*
X145950000Y-66990000D01*
X145950000Y-67441096D01*
X138658520Y-67441096D01*
X138351805Y-67134336D01*
X138351789Y-67134311D01*
X138293942Y-67076464D01*
X138293939Y-67076461D01*
X138293938Y-67076459D01*
X138243799Y-67026312D01*
X138242627Y-67025142D01*
X138240335Y-67022849D01*
X138240325Y-67022842D01*
X138240309Y-67022826D01*
X138240297Y-67022816D01*
X138172357Y-66977420D01*
X138172357Y-66977419D01*
X138172352Y-66977416D01*
X138172350Y-66977415D01*
X138109231Y-66935234D01*
X138109204Y-66935222D01*
X138109179Y-66935206D01*
X138037222Y-66905400D01*
X137963554Y-66874880D01*
X137963553Y-66874879D01*
X137963549Y-66874878D01*
X137963510Y-66874866D01*
X137963499Y-66874863D01*
X137963497Y-66874863D01*
X137886733Y-66859592D01*
X137886730Y-66859591D01*
X137886730Y-66859592D01*
X137846783Y-66851643D01*
X137808901Y-66844106D01*
X137808899Y-66844105D01*
X137808890Y-66844104D01*
X137808856Y-66844100D01*
X137808842Y-66844100D01*
X137730059Y-66844100D01*
X137651217Y-66844094D01*
X137651187Y-66844100D01*
X132569910Y-66844100D01*
X132569440Y-66844077D01*
X132484839Y-66844099D01*
X132484789Y-66844100D01*
X132406147Y-66844100D01*
X132405968Y-66844116D01*
X132328054Y-66859635D01*
X132327972Y-66859652D01*
X132251503Y-66874863D01*
X132251407Y-66874902D01*
X132251300Y-66874924D01*
X132251144Y-66874988D01*
X132251137Y-66874990D01*
X132177658Y-66905448D01*
X132177601Y-66905473D01*
X132105821Y-66935206D01*
X132105732Y-66935265D01*
X132105634Y-66935306D01*
X132105558Y-66935356D01*
X132105555Y-66935358D01*
X132079171Y-66952998D01*
X132041585Y-66978127D01*
X131974702Y-67022816D01*
X131974563Y-67022929D01*
X131948536Y-67048971D01*
X131919395Y-67078127D01*
X131859179Y-67138342D01*
X131858870Y-67138682D01*
X131429621Y-67568158D01*
X131368307Y-67601659D01*
X131341917Y-67604500D01*
X130834298Y-67604500D01*
X130797432Y-67607401D01*
X130797426Y-67607402D01*
X130639606Y-67653254D01*
X130639603Y-67653255D01*
X130498137Y-67736917D01*
X130498129Y-67736923D01*
X130381923Y-67853129D01*
X130381917Y-67853137D01*
X130298255Y-67994603D01*
X130298254Y-67994606D01*
X130252402Y-68152426D01*
X130252401Y-68152432D01*
X130249500Y-68189298D01*
X130249500Y-68620701D01*
X130252401Y-68657567D01*
X130252402Y-68657573D01*
X130298254Y-68815393D01*
X130298255Y-68815396D01*
X130381917Y-68956862D01*
X130386702Y-68963031D01*
X130384256Y-68964927D01*
X130410857Y-69013642D01*
X130405873Y-69083334D01*
X130397320Y-69101579D01*
X130389089Y-69115964D01*
X130381919Y-69123135D01*
X130298256Y-69264602D01*
X130292281Y-69285167D01*
X130284951Y-69297979D01*
X130269973Y-69312372D01*
X130258792Y-69329881D01*
X130245288Y-69336094D01*
X130234573Y-69346392D01*
X130214191Y-69350403D01*
X130195319Y-69359087D01*
X130177322Y-69360400D01*
X129430935Y-69360400D01*
X129363896Y-69340715D01*
X129362090Y-69339533D01*
X129305179Y-69301506D01*
X129305172Y-69301502D01*
X129159501Y-69241164D01*
X129159489Y-69241161D01*
X129004845Y-69210400D01*
X129004842Y-69210400D01*
X128847158Y-69210400D01*
X128847155Y-69210400D01*
X128692510Y-69241161D01*
X128692498Y-69241164D01*
X128546827Y-69301502D01*
X128546814Y-69301509D01*
X128415711Y-69389110D01*
X128415707Y-69389113D01*
X128304213Y-69500607D01*
X128304210Y-69500611D01*
X128216609Y-69631714D01*
X128216602Y-69631727D01*
X128156264Y-69777398D01*
X128156261Y-69777410D01*
X128125500Y-69932053D01*
X123660500Y-69932053D01*
X123660500Y-67921153D01*
X125639500Y-67921153D01*
X125639500Y-68078846D01*
X125670261Y-68233489D01*
X125670264Y-68233501D01*
X125730602Y-68379172D01*
X125730609Y-68379185D01*
X125818210Y-68510288D01*
X125818213Y-68510292D01*
X125929707Y-68621786D01*
X125929711Y-68621789D01*
X126060814Y-68709390D01*
X126060827Y-68709397D01*
X126206498Y-68769735D01*
X126206503Y-68769737D01*
X126361153Y-68800499D01*
X126361156Y-68800500D01*
X126361158Y-68800500D01*
X126518844Y-68800500D01*
X126518845Y-68800499D01*
X126673497Y-68769737D01*
X126819179Y-68709394D01*
X126950289Y-68621789D01*
X127061789Y-68510289D01*
X127149394Y-68379179D01*
X127209737Y-68233497D01*
X127240500Y-68078842D01*
X127240500Y-67921158D01*
X127240500Y-67921155D01*
X127240499Y-67921153D01*
X127226968Y-67853129D01*
X127209737Y-67766503D01*
X127202901Y-67750000D01*
X127149397Y-67620827D01*
X127149390Y-67620814D01*
X127061789Y-67489711D01*
X127061786Y-67489707D01*
X126950292Y-67378213D01*
X126950288Y-67378210D01*
X126819185Y-67290609D01*
X126819172Y-67290602D01*
X126673501Y-67230264D01*
X126673489Y-67230261D01*
X126518845Y-67199500D01*
X126518842Y-67199500D01*
X126361158Y-67199500D01*
X126361155Y-67199500D01*
X126206510Y-67230261D01*
X126206498Y-67230264D01*
X126060827Y-67290602D01*
X126060814Y-67290609D01*
X125929711Y-67378210D01*
X125929707Y-67378213D01*
X125818213Y-67489707D01*
X125818210Y-67489711D01*
X125730609Y-67620814D01*
X125730602Y-67620827D01*
X125670264Y-67766498D01*
X125670261Y-67766510D01*
X125639500Y-67921153D01*
X123660500Y-67921153D01*
X123660500Y-67274935D01*
X123663345Y-67262703D01*
X123662322Y-67253758D01*
X123669751Y-67235175D01*
X123673237Y-67220194D01*
X123676849Y-67212850D01*
X123719394Y-67149179D01*
X123779134Y-67004951D01*
X123780902Y-67001359D01*
X123801939Y-66978448D01*
X123821445Y-66954244D01*
X123825364Y-66952939D01*
X123828159Y-66949896D01*
X123858240Y-66941997D01*
X123887739Y-66932179D01*
X123892165Y-66932100D01*
X125075065Y-66932100D01*
X125142104Y-66951785D01*
X125143909Y-66952966D01*
X125200821Y-66990994D01*
X125200823Y-66990995D01*
X125200827Y-66990997D01*
X125316378Y-67038859D01*
X125346503Y-67051337D01*
X125449171Y-67071759D01*
X125501153Y-67082099D01*
X125501156Y-67082100D01*
X125501158Y-67082100D01*
X125658844Y-67082100D01*
X125658845Y-67082099D01*
X125813497Y-67051337D01*
X125928994Y-67003497D01*
X125959172Y-66990997D01*
X125959172Y-66990996D01*
X125959179Y-66990994D01*
X126090289Y-66903389D01*
X126201789Y-66791889D01*
X126289394Y-66660779D01*
X126349737Y-66515097D01*
X126380500Y-66360442D01*
X126380500Y-66202758D01*
X126380500Y-66202755D01*
X126380499Y-66202753D01*
X126353765Y-66068350D01*
X126353763Y-66068345D01*
X126349737Y-66048103D01*
X126345926Y-66038903D01*
X145950000Y-66038903D01*
X145950000Y-66490000D01*
X146950000Y-66490000D01*
X146950000Y-65150000D01*
X146591209Y-65150000D01*
X146592528Y-65166767D01*
X146578161Y-65235143D01*
X146529106Y-65284897D01*
X146524005Y-65287577D01*
X146350974Y-65373392D01*
X146202633Y-65492632D01*
X146202632Y-65492633D01*
X146083392Y-65640974D01*
X146083390Y-65640977D01*
X145998831Y-65811476D01*
X145952897Y-65996175D01*
X145950000Y-66038903D01*
X126345926Y-66038903D01*
X126337112Y-66017623D01*
X126335652Y-66013176D01*
X126334690Y-65982751D01*
X126331436Y-65952484D01*
X126333597Y-65948165D01*
X126333445Y-65943342D01*
X126349083Y-65917229D01*
X126362711Y-65890004D01*
X126366862Y-65887540D01*
X126369343Y-65883399D01*
X126396622Y-65869883D01*
X126422800Y-65854352D01*
X126429728Y-65853481D01*
X126431950Y-65852381D01*
X126435412Y-65852767D01*
X126453466Y-65850500D01*
X127123331Y-65850500D01*
X127123347Y-65850501D01*
X127130943Y-65850501D01*
X127289054Y-65850501D01*
X127289057Y-65850501D01*
X127441785Y-65809577D01*
X127531115Y-65758002D01*
X127578716Y-65730520D01*
X127690520Y-65618716D01*
X127690520Y-65618715D01*
X127707948Y-65601287D01*
X127707953Y-65601280D01*
X127890520Y-65418716D01*
X127969577Y-65281784D01*
X128010501Y-65129057D01*
X128010501Y-64970942D01*
X128010501Y-64963347D01*
X128010500Y-64963329D01*
X128010500Y-64159060D01*
X128010501Y-64159047D01*
X128010501Y-63990945D01*
X128010501Y-63990943D01*
X127969577Y-63838215D01*
X127890520Y-63701284D01*
X127421417Y-63232181D01*
X127387932Y-63170858D01*
X127392916Y-63101166D01*
X127434788Y-63045233D01*
X127500252Y-63020816D01*
X127509098Y-63020500D01*
X135170192Y-63020500D01*
X135193202Y-63027256D01*
X135217062Y-63029699D01*
X135229366Y-63037875D01*
X135237231Y-63040185D01*
X135247506Y-63047554D01*
X135252947Y-63051893D01*
X135312330Y-63111276D01*
X135400966Y-63170500D01*
X135418873Y-63182465D01*
X135418874Y-63182465D01*
X135418875Y-63182466D01*
X135437506Y-63190183D01*
X135537256Y-63231501D01*
X135537260Y-63231501D01*
X135537261Y-63231502D01*
X135662928Y-63256500D01*
X135662931Y-63256500D01*
X136330071Y-63256500D01*
X136414615Y-63239682D01*
X136455744Y-63231501D01*
X136574127Y-63182465D01*
X136592034Y-63170500D01*
X136656545Y-63127396D01*
X136682132Y-63119385D01*
X136723220Y-63106520D01*
X136725433Y-63106500D01*
X136805192Y-63106500D01*
X136872231Y-63126185D01*
X136892873Y-63142819D01*
X137903181Y-64153127D01*
X137936666Y-64214450D01*
X137939500Y-64240806D01*
X137939500Y-64289168D01*
X137939501Y-64289192D01*
X137942335Y-64325205D01*
X137987129Y-64479388D01*
X137987131Y-64479393D01*
X138068863Y-64617595D01*
X138068869Y-64617603D01*
X138182396Y-64731130D01*
X138182400Y-64731133D01*
X138182402Y-64731135D01*
X138320607Y-64812869D01*
X138336568Y-64817506D01*
X138474791Y-64857664D01*
X138474794Y-64857664D01*
X138474796Y-64857665D01*
X138510819Y-64860500D01*
X139009180Y-64860499D01*
X139045204Y-64857665D01*
X139199393Y-64812869D01*
X139264058Y-64774625D01*
X139331781Y-64757442D01*
X139390297Y-64774623D01*
X139403605Y-64782494D01*
X139403608Y-64782494D01*
X139403610Y-64782496D01*
X139559002Y-64827642D01*
X139559005Y-64827642D01*
X139559007Y-64827643D01*
X139595310Y-64830500D01*
X139595318Y-64830500D01*
X140064682Y-64830500D01*
X140064690Y-64830500D01*
X140100993Y-64827643D01*
X140100995Y-64827642D01*
X140100997Y-64827642D01*
X140170321Y-64807501D01*
X140256395Y-64782494D01*
X140365840Y-64717767D01*
X140381741Y-64713417D01*
X140394026Y-64705523D01*
X140428961Y-64700500D01*
X140445584Y-64700500D01*
X140508704Y-64717767D01*
X140533605Y-64732494D01*
X140574587Y-64744400D01*
X140689002Y-64777642D01*
X140689005Y-64777642D01*
X140689007Y-64777643D01*
X140725310Y-64780500D01*
X140725318Y-64780500D01*
X141194682Y-64780500D01*
X141194690Y-64780500D01*
X141230993Y-64777643D01*
X141230995Y-64777642D01*
X141230997Y-64777642D01*
X141300524Y-64757442D01*
X141386395Y-64732494D01*
X141495840Y-64667767D01*
X141511741Y-64663417D01*
X141524026Y-64655523D01*
X141558961Y-64650500D01*
X141654191Y-64650500D01*
X141721230Y-64670185D01*
X141741872Y-64686819D01*
X141760328Y-64705275D01*
X141760331Y-64705277D01*
X141833874Y-64754416D01*
X141866873Y-64776465D01*
X141872952Y-64778983D01*
X141927355Y-64822823D01*
X141949421Y-64889116D01*
X141949500Y-64893544D01*
X141949500Y-65447870D01*
X141949501Y-65447876D01*
X141955908Y-65507483D01*
X142006202Y-65642328D01*
X142006206Y-65642335D01*
X142092452Y-65757544D01*
X142092455Y-65757547D01*
X142207664Y-65843793D01*
X142207671Y-65843797D01*
X142342517Y-65894091D01*
X142342516Y-65894091D01*
X142349444Y-65894835D01*
X142402127Y-65900500D01*
X144597872Y-65900499D01*
X144657483Y-65894091D01*
X144792331Y-65843796D01*
X144907546Y-65757546D01*
X144993796Y-65642331D01*
X145044091Y-65507483D01*
X145050500Y-65447873D01*
X145050499Y-64649999D01*
X146591209Y-64649999D01*
X146591210Y-64650000D01*
X147120000Y-64650000D01*
X147120000Y-64170000D01*
X146735495Y-64170000D01*
X146748670Y-64215353D01*
X146748469Y-64285223D01*
X146723474Y-64327230D01*
X146725061Y-64328461D01*
X146720277Y-64334627D01*
X146637968Y-64473804D01*
X146637966Y-64473809D01*
X146592855Y-64629081D01*
X146592854Y-64629087D01*
X146591209Y-64649999D01*
X145050499Y-64649999D01*
X145050499Y-64193803D01*
X145050499Y-62952129D01*
X145050498Y-62952123D01*
X145050291Y-62950198D01*
X145044091Y-62892517D01*
X145034092Y-62865709D01*
X144993797Y-62757671D01*
X144993793Y-62757664D01*
X144907547Y-62642455D01*
X144907544Y-62642452D01*
X144792335Y-62556206D01*
X144792328Y-62556202D01*
X144657482Y-62505908D01*
X144657483Y-62505908D01*
X144597883Y-62499501D01*
X144597881Y-62499500D01*
X144597873Y-62499500D01*
X144597864Y-62499500D01*
X142402129Y-62499500D01*
X142402123Y-62499501D01*
X142342516Y-62505908D01*
X142207671Y-62556202D01*
X142207664Y-62556206D01*
X142092455Y-62642452D01*
X142092452Y-62642455D01*
X142006206Y-62757664D01*
X142006203Y-62757669D01*
X141995876Y-62785359D01*
X141954004Y-62841292D01*
X141888540Y-62865709D01*
X141820267Y-62850857D01*
X141770862Y-62801452D01*
X141760617Y-62776619D01*
X141722031Y-62643804D01*
X141639721Y-62504625D01*
X141639714Y-62504616D01*
X141525383Y-62390285D01*
X141525374Y-62390278D01*
X141386195Y-62307968D01*
X141386190Y-62307966D01*
X141230918Y-62262855D01*
X141230912Y-62262854D01*
X141210000Y-62261209D01*
X141210000Y-62916000D01*
X141190315Y-62983039D01*
X141137511Y-63028794D01*
X141086000Y-63040000D01*
X140960000Y-63040000D01*
X140960000Y-63095500D01*
X140940315Y-63162539D01*
X140887511Y-63208294D01*
X140836000Y-63219500D01*
X140725302Y-63219500D01*
X140689008Y-63222356D01*
X140689002Y-63222357D01*
X140533609Y-63267504D01*
X140533606Y-63267505D01*
X140440223Y-63322732D01*
X140424321Y-63327082D01*
X140412037Y-63334977D01*
X140377102Y-63340000D01*
X140328352Y-63340000D01*
X140265233Y-63322732D01*
X140256395Y-63317506D01*
X140256393Y-63317505D01*
X140256389Y-63317503D01*
X140100997Y-63272357D01*
X140100991Y-63272356D01*
X140064697Y-63269500D01*
X140064690Y-63269500D01*
X139954000Y-63269500D01*
X139886961Y-63249815D01*
X139841206Y-63197011D01*
X139830000Y-63145500D01*
X139830000Y-63090000D01*
X139704499Y-63090000D01*
X139696093Y-63087531D01*
X139687428Y-63088819D01*
X139663082Y-63077838D01*
X139637460Y-63070315D01*
X139631723Y-63063695D01*
X139623737Y-63060093D01*
X139609191Y-63037691D01*
X139591705Y-63017511D01*
X139589458Y-63007300D01*
X139585687Y-63001492D01*
X139580750Y-62967720D01*
X139580500Y-62966582D01*
X139580499Y-62966419D01*
X139580499Y-62870820D01*
X139580022Y-62864762D01*
X139580001Y-62860188D01*
X139580020Y-62860121D01*
X139580000Y-62859606D01*
X139580000Y-62311210D01*
X139579999Y-62311209D01*
X140080000Y-62311209D01*
X140080000Y-62790000D01*
X140710000Y-62790000D01*
X140710000Y-62261210D01*
X140709999Y-62261209D01*
X140689087Y-62262854D01*
X140689081Y-62262855D01*
X140533809Y-62307966D01*
X140533803Y-62307968D01*
X140415848Y-62377727D01*
X140348124Y-62394910D01*
X140289607Y-62377728D01*
X140256193Y-62357967D01*
X140256190Y-62357966D01*
X140100918Y-62312855D01*
X140100912Y-62312854D01*
X140080000Y-62311209D01*
X139579999Y-62311209D01*
X139559087Y-62312854D01*
X139559081Y-62312855D01*
X139403809Y-62357966D01*
X139403806Y-62357967D01*
X139373881Y-62375665D01*
X139306157Y-62392846D01*
X139265796Y-62384492D01*
X139256356Y-62380819D01*
X139199393Y-62347131D01*
X139082494Y-62313168D01*
X139077386Y-62311181D01*
X139062798Y-62299937D01*
X139034670Y-62283302D01*
X138869116Y-62117748D01*
X138787522Y-62036154D01*
X145894501Y-62036154D01*
X145894501Y-62193847D01*
X145925262Y-62348490D01*
X145925265Y-62348502D01*
X145985603Y-62494173D01*
X145985610Y-62494186D01*
X146073211Y-62625289D01*
X146073214Y-62625293D01*
X146184708Y-62736787D01*
X146184712Y-62736790D01*
X146315815Y-62824391D01*
X146315828Y-62824398D01*
X146433764Y-62873248D01*
X146461504Y-62884738D01*
X146523536Y-62897077D01*
X146616146Y-62915499D01*
X146616151Y-62915499D01*
X146616159Y-62915501D01*
X146616166Y-62915501D01*
X146617648Y-62915647D01*
X146618384Y-62915944D01*
X146622133Y-62916690D01*
X146621991Y-62917400D01*
X146682436Y-62941805D01*
X146722798Y-62998837D01*
X146729500Y-63039051D01*
X146729500Y-63164697D01*
X146732356Y-63200991D01*
X146732357Y-63200997D01*
X146777504Y-63356390D01*
X146777507Y-63356397D01*
X146789910Y-63377370D01*
X146807093Y-63445094D01*
X146789912Y-63503608D01*
X146777968Y-63523804D01*
X146735496Y-63670000D01*
X147041648Y-63670000D01*
X147104766Y-63687267D01*
X147113605Y-63692494D01*
X147113608Y-63692494D01*
X147113610Y-63692496D01*
X147269002Y-63737642D01*
X147269005Y-63737642D01*
X147269007Y-63737643D01*
X147305310Y-63740500D01*
X147348401Y-63740500D01*
X147372591Y-63742882D01*
X147400861Y-63748506D01*
X147461156Y-63760500D01*
X147461158Y-63760500D01*
X147618843Y-63760500D01*
X147664398Y-63751438D01*
X147707407Y-63742883D01*
X147716430Y-63743690D01*
X147731599Y-63740500D01*
X147774682Y-63740500D01*
X147774690Y-63740500D01*
X147810993Y-63737643D01*
X147810995Y-63737642D01*
X147810997Y-63737642D01*
X147966389Y-63692496D01*
X147966389Y-63692495D01*
X147966395Y-63692494D01*
X147975233Y-63687267D01*
X148038352Y-63670000D01*
X148344504Y-63670000D01*
X148302031Y-63523803D01*
X148290090Y-63503613D01*
X148286819Y-63490722D01*
X148279220Y-63479809D01*
X148278393Y-63457515D01*
X148272906Y-63435889D01*
X148277066Y-63421722D01*
X148276631Y-63409987D01*
X148290088Y-63377370D01*
X148299551Y-63361370D01*
X148350624Y-63313691D01*
X148406279Y-63300500D01*
X150605500Y-63300500D01*
X150672539Y-63320185D01*
X150718294Y-63372989D01*
X150729500Y-63424500D01*
X150729500Y-63508014D01*
X150728512Y-63518835D01*
X150728980Y-63518875D01*
X150728468Y-63524936D01*
X150729421Y-63592554D01*
X150729500Y-63598129D01*
X150729500Y-63671342D01*
X150730609Y-63676921D01*
X150730688Y-63682518D01*
X150730690Y-63682609D01*
X150744765Y-63748506D01*
X150747500Y-63774406D01*
X150747500Y-65450831D01*
X150727815Y-65517870D01*
X150675011Y-65563625D01*
X150605853Y-65573569D01*
X150542297Y-65544544D01*
X150526853Y-65528519D01*
X150518293Y-65517870D01*
X150497722Y-65492278D01*
X150349296Y-65372970D01*
X150349295Y-65372969D01*
X150349292Y-65372967D01*
X150178697Y-65288360D01*
X149993892Y-65242400D01*
X149968229Y-65240660D01*
X149951123Y-65239500D01*
X149951121Y-65239500D01*
X149782230Y-65239500D01*
X149715191Y-65219815D01*
X149694549Y-65203181D01*
X149124941Y-64633573D01*
X149093547Y-64580489D01*
X149062494Y-64473605D01*
X148980117Y-64334313D01*
X148980115Y-64334311D01*
X148980112Y-64334307D01*
X148865692Y-64219887D01*
X148865684Y-64219881D01*
X148760800Y-64157853D01*
X148726395Y-64137506D01*
X148726394Y-64137505D01*
X148726393Y-64137505D01*
X148726390Y-64137504D01*
X148570997Y-64092357D01*
X148570991Y-64092356D01*
X148534697Y-64089500D01*
X148534690Y-64089500D01*
X148125310Y-64089500D01*
X148125302Y-64089500D01*
X148089008Y-64092356D01*
X148089002Y-64092357D01*
X147933610Y-64137503D01*
X147933605Y-64137506D01*
X147907857Y-64152732D01*
X147900240Y-64154816D01*
X147894691Y-64159493D01*
X147872731Y-64162342D01*
X147844739Y-64170000D01*
X147790000Y-64170000D01*
X147790000Y-64172833D01*
X147770315Y-64239872D01*
X147753681Y-64260514D01*
X147679887Y-64334307D01*
X147679881Y-64334315D01*
X147597505Y-64473606D01*
X147597504Y-64473609D01*
X147552357Y-64629002D01*
X147552356Y-64629008D01*
X147549500Y-64665302D01*
X147549500Y-65134697D01*
X147552356Y-65170991D01*
X147552357Y-65170997D01*
X147597503Y-65326389D01*
X147597505Y-65326393D01*
X147597506Y-65326395D01*
X147602732Y-65335233D01*
X147620000Y-65398352D01*
X147620000Y-65716000D01*
X147600315Y-65783039D01*
X147547511Y-65828794D01*
X147496000Y-65840000D01*
X147450000Y-65840000D01*
X147450000Y-68240000D01*
X147651097Y-68240000D01*
X147693824Y-68237102D01*
X147878523Y-68191168D01*
X148049022Y-68106609D01*
X148049025Y-68106607D01*
X148197366Y-67987367D01*
X148197367Y-67987366D01*
X148253033Y-67918115D01*
X148310376Y-67878196D01*
X148380198Y-67875616D01*
X148440331Y-67911194D01*
X148446305Y-67918089D01*
X148501992Y-67987366D01*
X148502280Y-67987724D01*
X148650704Y-68107030D01*
X148650707Y-68107032D01*
X148710072Y-68136474D01*
X148712645Y-68138852D01*
X148716060Y-68139650D01*
X148738122Y-68162397D01*
X148761385Y-68183895D01*
X148762984Y-68188030D01*
X148764705Y-68189804D01*
X148775938Y-68221520D01*
X148776533Y-68223057D01*
X148778317Y-68232030D01*
X148778333Y-68232069D01*
X148778342Y-68232113D01*
X148778373Y-68232189D01*
X148778374Y-68232191D01*
X148781816Y-68240500D01*
X148802140Y-68289567D01*
X148804860Y-68296132D01*
X148804862Y-68296146D01*
X148804865Y-68296146D01*
X148804867Y-68296150D01*
X148834875Y-68368619D01*
X148834877Y-68368622D01*
X148834915Y-68368694D01*
X148875009Y-68428700D01*
X148875013Y-68428706D01*
X148916994Y-68491549D01*
X148916997Y-68491552D01*
X148917045Y-68491611D01*
X148917049Y-68491616D01*
X148917053Y-68491620D01*
X148969727Y-68544294D01*
X149670101Y-69244828D01*
X149703579Y-69306155D01*
X149698587Y-69375846D01*
X149670101Y-69420170D01*
X148969823Y-70120607D01*
X148969717Y-70120715D01*
X148917049Y-70173384D01*
X148917024Y-70173420D01*
X148916994Y-70173451D01*
X148916758Y-70173803D01*
X148916755Y-70173807D01*
X148875051Y-70236236D01*
X148875009Y-70236300D01*
X148834916Y-70296305D01*
X148834900Y-70296343D01*
X148834875Y-70296381D01*
X148834802Y-70296555D01*
X148834799Y-70296561D01*
X148806385Y-70365182D01*
X148806025Y-70366053D01*
X148778342Y-70432887D01*
X148778333Y-70432930D01*
X148778317Y-70432970D01*
X148778254Y-70433284D01*
X148778251Y-70433293D01*
X148764587Y-70502035D01*
X148764584Y-70502051D01*
X148749498Y-70577884D01*
X148749491Y-70577958D01*
X148749500Y-70647536D01*
X148749500Y-71415500D01*
X148729815Y-71482539D01*
X148677011Y-71528294D01*
X148625500Y-71539500D01*
X148041971Y-71539500D01*
X148041965Y-71539500D01*
X148041964Y-71539501D01*
X148030316Y-71540536D01*
X147922584Y-71550113D01*
X147726954Y-71606089D01*
X147670235Y-71635717D01*
X147546593Y-71700302D01*
X147546591Y-71700303D01*
X147546590Y-71700304D01*
X147388890Y-71828890D01*
X147266153Y-71979417D01*
X147260302Y-71986593D01*
X147228287Y-72047883D01*
X147166089Y-72166954D01*
X147130205Y-72292366D01*
X147111808Y-72356664D01*
X147110114Y-72362583D01*
X147110113Y-72362586D01*
X147104059Y-72430686D01*
X147100017Y-72476156D01*
X147099500Y-72481966D01*
X147099500Y-73598028D01*
X147099501Y-73598034D01*
X147110113Y-73717415D01*
X147166089Y-73913045D01*
X147166090Y-73913048D01*
X147166091Y-73913049D01*
X147260302Y-74093407D01*
X147278872Y-74116181D01*
X147388890Y-74251109D01*
X147481348Y-74326498D01*
X147546593Y-74379698D01*
X147726951Y-74473909D01*
X147922582Y-74529886D01*
X148041963Y-74540500D01*
X150958036Y-74540499D01*
X151077418Y-74529886D01*
X151273049Y-74473909D01*
X151370539Y-74422983D01*
X151439074Y-74409392D01*
X151496843Y-74429791D01*
X151530812Y-74452489D01*
X151530827Y-74452497D01*
X151676498Y-74512835D01*
X151676503Y-74512837D01*
X151831153Y-74543599D01*
X151831156Y-74543600D01*
X151831158Y-74543600D01*
X151988844Y-74543600D01*
X151988845Y-74543599D01*
X152098689Y-74521750D01*
X152143488Y-74512839D01*
X152143490Y-74512838D01*
X152143497Y-74512837D01*
X152247063Y-74469938D01*
X152294515Y-74460500D01*
X152775773Y-74460500D01*
X152842812Y-74480185D01*
X152888567Y-74532989D01*
X152898511Y-74602147D01*
X152894850Y-74619094D01*
X152877155Y-74679999D01*
X152877155Y-74680000D01*
X153429591Y-74680000D01*
X153439318Y-74680382D01*
X153439516Y-74680397D01*
X153440819Y-74680500D01*
X153939180Y-74680499D01*
X153939193Y-74680498D01*
X153940668Y-74680382D01*
X153950393Y-74680000D01*
X154334739Y-74680000D01*
X154397857Y-74697267D01*
X154423605Y-74712494D01*
X154423608Y-74712494D01*
X154423610Y-74712496D01*
X154579002Y-74757642D01*
X154579005Y-74757642D01*
X154579007Y-74757643D01*
X154605216Y-74759705D01*
X154642936Y-74768760D01*
X154672220Y-74780890D01*
X154672224Y-74780890D01*
X154672225Y-74780891D01*
X154823085Y-74810900D01*
X154823088Y-74810900D01*
X158489114Y-74810900D01*
X158590609Y-74790710D01*
X158639980Y-74780890D01*
X158782095Y-74722024D01*
X158782100Y-74722020D01*
X158782103Y-74722019D01*
X158796866Y-74712155D01*
X158796868Y-74712154D01*
X158906587Y-74638842D01*
X158909995Y-74636565D01*
X159530128Y-74016429D01*
X159548903Y-74001022D01*
X159622289Y-73951989D01*
X159733789Y-73840489D01*
X159821393Y-73709379D01*
X159881737Y-73563697D01*
X159912500Y-73409042D01*
X159912500Y-73251357D01*
X159912500Y-73251354D01*
X159881738Y-73096708D01*
X159881737Y-73096707D01*
X159881737Y-73096703D01*
X159821393Y-72951021D01*
X159815776Y-72942615D01*
X159733790Y-72819912D01*
X159733784Y-72819905D01*
X159076819Y-72162940D01*
X159062115Y-72136012D01*
X159045523Y-72110194D01*
X159044631Y-72103993D01*
X159043334Y-72101617D01*
X159040500Y-72075259D01*
X159040500Y-71839853D01*
X162332400Y-71839853D01*
X162332400Y-71997546D01*
X162363161Y-72152189D01*
X162363164Y-72152201D01*
X162423502Y-72297872D01*
X162423509Y-72297885D01*
X162511110Y-72428988D01*
X162511113Y-72428992D01*
X162622607Y-72540486D01*
X162622611Y-72540489D01*
X162753714Y-72628090D01*
X162753727Y-72628097D01*
X162797493Y-72646225D01*
X162899403Y-72688437D01*
X163054053Y-72719199D01*
X163054056Y-72719200D01*
X163054058Y-72719200D01*
X163211744Y-72719200D01*
X163211745Y-72719199D01*
X163366397Y-72688437D01*
X163512079Y-72628094D01*
X163643189Y-72540489D01*
X163754689Y-72428989D01*
X163842294Y-72297879D01*
X163902637Y-72152197D01*
X163933400Y-71997542D01*
X163933400Y-71839858D01*
X163933400Y-71839855D01*
X163933399Y-71839853D01*
X163902637Y-71685203D01*
X163889620Y-71653776D01*
X163842297Y-71539527D01*
X163842290Y-71539514D01*
X163754689Y-71408411D01*
X163754686Y-71408407D01*
X163643192Y-71296913D01*
X163643188Y-71296910D01*
X163512085Y-71209309D01*
X163512072Y-71209302D01*
X163366401Y-71148964D01*
X163366389Y-71148961D01*
X163211745Y-71118200D01*
X163211742Y-71118200D01*
X163054058Y-71118200D01*
X163054055Y-71118200D01*
X162899410Y-71148961D01*
X162899398Y-71148964D01*
X162753727Y-71209302D01*
X162753714Y-71209309D01*
X162622611Y-71296910D01*
X162622607Y-71296913D01*
X162511113Y-71408407D01*
X162511110Y-71408411D01*
X162423509Y-71539514D01*
X162423502Y-71539527D01*
X162363164Y-71685198D01*
X162363161Y-71685210D01*
X162332400Y-71839853D01*
X159040500Y-71839853D01*
X159040500Y-65553586D01*
X159060185Y-65486547D01*
X159112989Y-65440792D01*
X159182147Y-65430848D01*
X159233392Y-65450485D01*
X159270812Y-65475489D01*
X159270827Y-65475497D01*
X159416498Y-65535835D01*
X159416503Y-65535837D01*
X159540507Y-65560503D01*
X159571153Y-65566599D01*
X159571156Y-65566600D01*
X159571158Y-65566600D01*
X162460259Y-65566600D01*
X162481504Y-65572838D01*
X162503593Y-65574418D01*
X162514376Y-65582490D01*
X162527298Y-65586285D01*
X162541797Y-65603018D01*
X162559526Y-65616290D01*
X162564233Y-65628910D01*
X162573053Y-65639089D01*
X162576204Y-65661006D01*
X162583943Y-65681754D01*
X162581080Y-65694914D01*
X162582997Y-65708247D01*
X162573797Y-65728390D01*
X162569091Y-65750027D01*
X162555821Y-65767753D01*
X162553972Y-65771803D01*
X162547948Y-65778273D01*
X162486221Y-65840000D01*
X162426769Y-65899452D01*
X162386541Y-65926331D01*
X162251455Y-65982285D01*
X162103965Y-66080835D01*
X162103961Y-66080838D01*
X161978538Y-66206261D01*
X161978535Y-66206265D01*
X161879990Y-66353746D01*
X161879983Y-66353759D01*
X161812106Y-66517632D01*
X161812103Y-66517641D01*
X161777500Y-66691604D01*
X161777500Y-66868995D01*
X161812103Y-67042958D01*
X161812106Y-67042967D01*
X161879983Y-67206840D01*
X161879990Y-67206853D01*
X161978535Y-67354334D01*
X161978538Y-67354338D01*
X162103961Y-67479761D01*
X162103965Y-67479764D01*
X162251446Y-67578309D01*
X162251459Y-67578316D01*
X162354077Y-67620821D01*
X162415334Y-67646194D01*
X162415336Y-67646194D01*
X162415341Y-67646196D01*
X162589304Y-67680799D01*
X162589307Y-67680800D01*
X162589309Y-67680800D01*
X162766693Y-67680800D01*
X162766694Y-67680799D01*
X162828411Y-67668523D01*
X162940658Y-67646196D01*
X162940661Y-67646194D01*
X162940666Y-67646194D01*
X163104547Y-67578313D01*
X163252035Y-67479764D01*
X163377464Y-67354335D01*
X163476013Y-67206847D01*
X163531968Y-67071754D01*
X163558844Y-67031532D01*
X164653559Y-65936819D01*
X164714882Y-65903334D01*
X164741240Y-65900500D01*
X166578844Y-65900500D01*
X166578845Y-65900499D01*
X166733497Y-65869737D01*
X166846166Y-65823067D01*
X166879172Y-65809397D01*
X166879172Y-65809396D01*
X166879179Y-65809394D01*
X167010289Y-65721789D01*
X167121789Y-65610289D01*
X167209394Y-65479179D01*
X167210920Y-65475494D01*
X167261393Y-65353642D01*
X167305234Y-65299238D01*
X167371528Y-65277173D01*
X167439227Y-65294452D01*
X167463635Y-65313413D01*
X169437151Y-67286929D01*
X169464031Y-67327157D01*
X169519985Y-67462244D01*
X169519990Y-67462253D01*
X169618535Y-67609734D01*
X169618538Y-67609738D01*
X169743961Y-67735161D01*
X169743965Y-67735164D01*
X169891446Y-67833709D01*
X169891459Y-67833716D01*
X170014363Y-67884623D01*
X170055334Y-67901594D01*
X170055336Y-67901594D01*
X170055341Y-67901596D01*
X170229304Y-67936199D01*
X170229307Y-67936200D01*
X170229309Y-67936200D01*
X170406693Y-67936200D01*
X170406694Y-67936199D01*
X170497610Y-67918115D01*
X170580658Y-67901596D01*
X170580661Y-67901594D01*
X170580666Y-67901594D01*
X170744547Y-67833713D01*
X170892035Y-67735164D01*
X171017464Y-67609735D01*
X171116013Y-67462247D01*
X171183894Y-67298366D01*
X171185439Y-67290602D01*
X171218499Y-67124395D01*
X171218500Y-67124393D01*
X171218500Y-66947006D01*
X171218499Y-66947004D01*
X171209059Y-66899546D01*
X171183894Y-66773034D01*
X171170979Y-66741853D01*
X173937500Y-66741853D01*
X173937500Y-66899546D01*
X173968261Y-67054189D01*
X173968264Y-67054201D01*
X174028602Y-67199872D01*
X174028609Y-67199885D01*
X174116210Y-67330988D01*
X174116213Y-67330992D01*
X174227707Y-67442486D01*
X174227711Y-67442489D01*
X174358814Y-67530090D01*
X174358827Y-67530097D01*
X174475240Y-67578316D01*
X174504503Y-67590437D01*
X174657253Y-67620821D01*
X174659153Y-67621199D01*
X174659156Y-67621200D01*
X174659158Y-67621200D01*
X174816844Y-67621200D01*
X174816845Y-67621199D01*
X174971497Y-67590437D01*
X175117179Y-67530094D01*
X175248289Y-67442489D01*
X175359789Y-67330989D01*
X175447394Y-67199879D01*
X175507737Y-67054197D01*
X175538500Y-66899542D01*
X175538500Y-66741858D01*
X175538500Y-66741855D01*
X175538499Y-66741853D01*
X175528504Y-66691604D01*
X175507737Y-66587203D01*
X175467475Y-66490000D01*
X175447397Y-66441527D01*
X175447390Y-66441514D01*
X175359789Y-66310411D01*
X175359786Y-66310407D01*
X175248292Y-66198913D01*
X175248288Y-66198910D01*
X175117185Y-66111309D01*
X175117172Y-66111302D01*
X174971501Y-66050964D01*
X174971489Y-66050961D01*
X174816845Y-66020200D01*
X174816842Y-66020200D01*
X174659158Y-66020200D01*
X174659155Y-66020200D01*
X174504510Y-66050961D01*
X174504498Y-66050964D01*
X174358827Y-66111302D01*
X174358814Y-66111309D01*
X174227711Y-66198910D01*
X174227707Y-66198913D01*
X174116213Y-66310407D01*
X174116210Y-66310411D01*
X174028609Y-66441514D01*
X174028602Y-66441527D01*
X173968264Y-66587198D01*
X173968261Y-66587210D01*
X173937500Y-66741853D01*
X171170979Y-66741853D01*
X171146893Y-66683704D01*
X171116016Y-66609159D01*
X171116009Y-66609146D01*
X171017464Y-66461665D01*
X171017461Y-66461661D01*
X170892038Y-66336238D01*
X170892034Y-66336235D01*
X170744553Y-66237690D01*
X170744544Y-66237685D01*
X170609457Y-66181731D01*
X170569229Y-66154851D01*
X169846369Y-65431991D01*
X169819489Y-65391762D01*
X169769397Y-65270827D01*
X169769390Y-65270814D01*
X169681789Y-65139711D01*
X169681786Y-65139707D01*
X169570292Y-65028213D01*
X169570288Y-65028210D01*
X169439185Y-64940609D01*
X169439175Y-64940604D01*
X169318235Y-64890509D01*
X169278007Y-64863629D01*
X168013419Y-63599041D01*
X168005123Y-63584324D01*
X167993910Y-63573700D01*
X167983257Y-63545531D01*
X167980689Y-63540976D01*
X167980025Y-63538277D01*
X167969737Y-63486553D01*
X167952564Y-63445094D01*
X167933886Y-63400000D01*
X171815138Y-63400000D01*
X172568014Y-63400000D01*
X172550796Y-63409941D01*
X172494941Y-63465796D01*
X172455445Y-63534205D01*
X172435001Y-63610504D01*
X172435001Y-63689496D01*
X172455445Y-63765795D01*
X172494941Y-63834204D01*
X172550796Y-63890059D01*
X172568014Y-63900000D01*
X171815138Y-63900000D01*
X171823430Y-63941690D01*
X171823430Y-63941692D01*
X171898807Y-64123671D01*
X171898814Y-64123684D01*
X172008248Y-64287462D01*
X172008251Y-64287466D01*
X172147533Y-64426748D01*
X172147537Y-64426751D01*
X172311315Y-64536185D01*
X172311328Y-64536192D01*
X172493306Y-64611569D01*
X172493318Y-64611572D01*
X172686504Y-64649999D01*
X172686508Y-64650000D01*
X172784019Y-64650000D01*
X172851058Y-64669685D01*
X172896813Y-64722489D01*
X172906757Y-64791647D01*
X172898581Y-64821448D01*
X172893001Y-64834921D01*
X172891223Y-64839214D01*
X172891222Y-64839216D01*
X172859500Y-64998692D01*
X172859500Y-64998695D01*
X172859500Y-65161305D01*
X172859500Y-65161307D01*
X172859499Y-65161307D01*
X172891222Y-65320783D01*
X172891225Y-65320793D01*
X172953450Y-65471019D01*
X172953452Y-65471023D01*
X173043788Y-65606220D01*
X173043794Y-65606228D01*
X173158771Y-65721205D01*
X173158779Y-65721211D01*
X173293976Y-65811547D01*
X173293980Y-65811549D01*
X173395214Y-65853481D01*
X173444211Y-65873776D01*
X173444215Y-65873776D01*
X173444216Y-65873777D01*
X173603692Y-65905500D01*
X173603695Y-65905500D01*
X173766307Y-65905500D01*
X173877412Y-65883399D01*
X173925789Y-65873776D01*
X174076021Y-65811548D01*
X174076023Y-65811547D01*
X174143169Y-65766680D01*
X174211225Y-65721208D01*
X174326208Y-65606225D01*
X174392186Y-65507482D01*
X174416547Y-65471023D01*
X174416549Y-65471019D01*
X174457163Y-65372967D01*
X174478776Y-65320789D01*
X174492210Y-65253255D01*
X174510500Y-65161307D01*
X174510500Y-64998692D01*
X174478777Y-64839216D01*
X174478776Y-64839215D01*
X174478776Y-64839211D01*
X174467865Y-64812869D01*
X174416549Y-64688980D01*
X174416547Y-64688976D01*
X174326211Y-64553779D01*
X174326205Y-64553771D01*
X174298505Y-64526071D01*
X174265020Y-64464748D01*
X174270004Y-64395056D01*
X174298505Y-64350708D01*
X174361752Y-64287461D01*
X174471185Y-64123684D01*
X174471192Y-64123671D01*
X174546569Y-63941692D01*
X174546569Y-63941690D01*
X174554862Y-63900000D01*
X173801986Y-63900000D01*
X173819204Y-63890059D01*
X173875059Y-63834204D01*
X173914555Y-63765795D01*
X173934999Y-63689496D01*
X173934999Y-63610504D01*
X173914555Y-63534205D01*
X173875059Y-63465796D01*
X173819204Y-63409941D01*
X173801986Y-63400000D01*
X174554862Y-63400000D01*
X174546569Y-63358309D01*
X174546569Y-63358307D01*
X174471192Y-63176328D01*
X174471185Y-63176315D01*
X174361751Y-63012537D01*
X174361748Y-63012533D01*
X174222465Y-62873250D01*
X174222462Y-62873248D01*
X174058684Y-62763814D01*
X174058671Y-62763807D01*
X173876693Y-62688430D01*
X173876681Y-62688427D01*
X173683495Y-62650000D01*
X173435000Y-62650000D01*
X173435000Y-63350001D01*
X172935000Y-63350001D01*
X172935000Y-62650000D01*
X172686504Y-62650000D01*
X172493318Y-62688427D01*
X172493306Y-62688430D01*
X172311328Y-62763807D01*
X172311315Y-62763814D01*
X172147537Y-62873248D01*
X172147535Y-62873250D01*
X172008251Y-63012533D01*
X172008248Y-63012537D01*
X171898814Y-63176315D01*
X171898807Y-63176328D01*
X171823430Y-63358307D01*
X171823430Y-63358309D01*
X171815138Y-63400000D01*
X167933886Y-63400000D01*
X167909397Y-63340877D01*
X167909390Y-63340864D01*
X167821790Y-63209762D01*
X167774567Y-63162539D01*
X167710289Y-63098261D01*
X167369692Y-62757664D01*
X167020242Y-62408213D01*
X167020238Y-62408210D01*
X166889135Y-62320609D01*
X166889122Y-62320602D01*
X166743451Y-62260264D01*
X166743439Y-62260261D01*
X166588795Y-62229500D01*
X166588792Y-62229500D01*
X166008892Y-62229500D01*
X165851208Y-62229500D01*
X165851205Y-62229500D01*
X165696560Y-62260261D01*
X165696548Y-62260264D01*
X165550877Y-62320602D01*
X165550864Y-62320609D01*
X165419761Y-62408210D01*
X165419757Y-62408213D01*
X165414790Y-62413181D01*
X165353467Y-62446666D01*
X165327109Y-62449500D01*
X164611156Y-62449500D01*
X164584477Y-62454807D01*
X164557798Y-62460114D01*
X164557797Y-62460114D01*
X164456510Y-62480261D01*
X164456498Y-62480264D01*
X164310827Y-62540602D01*
X164310814Y-62540609D01*
X164200231Y-62614500D01*
X164200230Y-62614501D01*
X164179708Y-62628212D01*
X164179707Y-62628213D01*
X162878641Y-63929281D01*
X162817318Y-63962766D01*
X162790960Y-63965600D01*
X160032940Y-63965600D01*
X159965901Y-63945915D01*
X159945259Y-63929281D01*
X159669855Y-63653877D01*
X159636370Y-63592554D01*
X159635919Y-63542008D01*
X159645500Y-63493842D01*
X159645500Y-63336158D01*
X159645500Y-63336155D01*
X159645499Y-63336153D01*
X159628325Y-63249815D01*
X159614737Y-63181503D01*
X159614735Y-63181498D01*
X159554397Y-63035827D01*
X159554390Y-63035814D01*
X159466789Y-62904711D01*
X159466786Y-62904707D01*
X159355292Y-62793213D01*
X159355288Y-62793210D01*
X159224185Y-62705609D01*
X159224172Y-62705602D01*
X159078501Y-62645264D01*
X159078489Y-62645261D01*
X158923845Y-62614500D01*
X158923842Y-62614500D01*
X158766158Y-62614500D01*
X158766155Y-62614500D01*
X158611510Y-62645261D01*
X158611498Y-62645264D01*
X158465827Y-62705602D01*
X158465814Y-62705609D01*
X158334711Y-62793210D01*
X158334707Y-62793213D01*
X158223213Y-62904707D01*
X158223210Y-62904711D01*
X158135609Y-63035814D01*
X158135602Y-63035827D01*
X158075264Y-63181498D01*
X158075261Y-63181508D01*
X158056830Y-63274165D01*
X158024444Y-63336076D01*
X157963728Y-63370650D01*
X157893959Y-63366909D01*
X157847532Y-63337654D01*
X156777292Y-62267413D01*
X156777288Y-62267410D01*
X156646185Y-62179809D01*
X156646172Y-62179802D01*
X156500501Y-62119464D01*
X156500489Y-62119461D01*
X156345845Y-62088700D01*
X156345842Y-62088700D01*
X156188158Y-62088700D01*
X156177512Y-62090817D01*
X156153323Y-62093200D01*
X153333992Y-62093200D01*
X153315716Y-62087833D01*
X153296674Y-62087451D01*
X153282886Y-62078193D01*
X153266953Y-62073515D01*
X153254481Y-62059122D01*
X153238667Y-62048504D01*
X153223456Y-62023316D01*
X153221198Y-62020711D01*
X153220186Y-62018435D01*
X153219788Y-62017515D01*
X153209394Y-61992421D01*
X153209317Y-61992306D01*
X153209266Y-61992182D01*
X153165801Y-61927180D01*
X153165807Y-61927175D01*
X153165778Y-61927146D01*
X153121789Y-61861311D01*
X153121690Y-61861212D01*
X153121616Y-61861101D01*
X153066814Y-61806336D01*
X153010289Y-61749811D01*
X153010288Y-61749810D01*
X153006285Y-61745807D01*
X153005843Y-61745406D01*
X152820028Y-61559717D01*
X152474361Y-61214283D01*
X152418289Y-61158211D01*
X152418180Y-61158138D01*
X152418083Y-61158041D01*
X152384663Y-61135727D01*
X152353238Y-61114745D01*
X152353211Y-61114713D01*
X152353205Y-61114723D01*
X152289227Y-61071974D01*
X152289225Y-61071973D01*
X152287179Y-61070606D01*
X152287051Y-61070553D01*
X152286939Y-61070478D01*
X152214221Y-61040386D01*
X152213859Y-61040236D01*
X152213809Y-61040215D01*
X152141492Y-61010260D01*
X152141420Y-61010239D01*
X152141419Y-61010239D01*
X152141230Y-61010182D01*
X152063117Y-60994671D01*
X152063081Y-60994652D01*
X152063079Y-60994664D01*
X151986840Y-60979499D01*
X151986576Y-60979473D01*
X151986572Y-60979473D01*
X151986567Y-60979473D01*
X151907729Y-60979500D01*
X146951155Y-60979500D01*
X146796510Y-61010261D01*
X146796498Y-61010264D01*
X146650827Y-61070602D01*
X146650814Y-61070609D01*
X146519711Y-61158210D01*
X146519707Y-61158213D01*
X146116248Y-61561672D01*
X146116203Y-61561719D01*
X146073213Y-61604709D01*
X146073209Y-61604715D01*
X145985610Y-61735815D01*
X145985603Y-61735828D01*
X145925265Y-61881499D01*
X145925262Y-61881511D01*
X145894501Y-62036154D01*
X138787522Y-62036154D01*
X138124421Y-61373052D01*
X138124414Y-61373046D01*
X138046919Y-61321266D01*
X138046820Y-61321201D01*
X138001495Y-61290916D01*
X138001494Y-61290915D01*
X138001492Y-61290914D01*
X137864917Y-61234343D01*
X137864907Y-61234340D01*
X137719920Y-61205500D01*
X137719918Y-61205500D01*
X136531270Y-61205500D01*
X136464231Y-61185815D01*
X136462378Y-61184601D01*
X136422552Y-61157989D01*
X136422547Y-61157987D01*
X136258668Y-61090106D01*
X136258660Y-61090104D01*
X136211680Y-61080759D01*
X136199286Y-61075006D01*
X136189055Y-61073964D01*
X136170524Y-61061656D01*
X136158602Y-61056123D01*
X136153135Y-61051767D01*
X136088416Y-60987048D01*
X135990440Y-60921584D01*
X135986121Y-60918698D01*
X135986116Y-60918694D01*
X135965495Y-60904916D01*
X135965493Y-60904915D01*
X135927218Y-60889061D01*
X135872815Y-60845220D01*
X135850750Y-60778926D01*
X135868029Y-60711227D01*
X135919166Y-60663616D01*
X135974671Y-60650500D01*
X176815649Y-60650500D01*
X176845933Y-60650500D01*
X176854042Y-60650765D01*
X176877728Y-60652317D01*
X177087489Y-60666065D01*
X177103550Y-60668180D01*
X177329011Y-60713028D01*
X177344650Y-60717218D01*
X177562332Y-60791111D01*
X177577299Y-60797311D01*
X177680780Y-60848342D01*
X177783460Y-60898978D01*
X177797508Y-60907088D01*
X177988631Y-61034793D01*
X178001491Y-61044661D01*
X178020870Y-61061656D01*
X178174310Y-61196220D01*
X178185779Y-61207689D01*
X178337335Y-61380504D01*
X178347209Y-61393372D01*
X178474911Y-61584492D01*
X178483021Y-61598539D01*
X178584685Y-61804693D01*
X178590890Y-61819674D01*
X178664375Y-62036154D01*
X178664776Y-62037333D01*
X178668974Y-62053000D01*
X178713817Y-62278437D01*
X178715935Y-62294519D01*
X178731235Y-62527956D01*
X178731500Y-62536066D01*
X178731500Y-62882923D01*
X178711815Y-62949962D01*
X178659011Y-62995717D01*
X178589853Y-63005661D01*
X178526297Y-62976636D01*
X178519819Y-62970604D01*
X178422465Y-62873250D01*
X178422462Y-62873248D01*
X178258684Y-62763814D01*
X178258671Y-62763807D01*
X178076693Y-62688430D01*
X178076681Y-62688427D01*
X177883495Y-62650000D01*
X177635000Y-62650000D01*
X177635000Y-63350001D01*
X177135000Y-63350001D01*
X177135000Y-62650000D01*
X176886504Y-62650000D01*
X176693318Y-62688427D01*
X176693306Y-62688430D01*
X176511328Y-62763807D01*
X176511315Y-62763814D01*
X176347537Y-62873248D01*
X176347535Y-62873250D01*
X176208251Y-63012533D01*
X176208248Y-63012537D01*
X176098814Y-63176315D01*
X176098807Y-63176328D01*
X176023430Y-63358307D01*
X176023430Y-63358309D01*
X176015138Y-63400000D01*
X176868014Y-63400000D01*
X176850796Y-63409941D01*
X176794941Y-63465796D01*
X176755445Y-63534205D01*
X176735001Y-63610504D01*
X176735001Y-63689496D01*
X176755445Y-63765795D01*
X176794941Y-63834204D01*
X176850796Y-63890059D01*
X176868014Y-63900000D01*
X176015138Y-63900000D01*
X176023430Y-63941690D01*
X176023430Y-63941692D01*
X176098807Y-64123671D01*
X176098814Y-64123684D01*
X176208248Y-64287462D01*
X176208251Y-64287466D01*
X176347533Y-64426748D01*
X176347537Y-64426751D01*
X176511315Y-64536185D01*
X176511328Y-64536192D01*
X176693306Y-64611569D01*
X176693318Y-64611572D01*
X176886504Y-64649999D01*
X176886508Y-64650000D01*
X177135000Y-64650000D01*
X177135000Y-63949999D01*
X177635000Y-63949999D01*
X177635000Y-64650000D01*
X177883492Y-64650000D01*
X177883495Y-64649999D01*
X178076681Y-64611572D01*
X178076693Y-64611569D01*
X178258671Y-64536192D01*
X178258684Y-64536185D01*
X178422462Y-64426751D01*
X178422466Y-64426748D01*
X178519819Y-64329396D01*
X178581142Y-64295911D01*
X178650834Y-64300895D01*
X178706767Y-64342767D01*
X178731184Y-64408231D01*
X178731500Y-64417077D01*
X178731500Y-71522923D01*
X178711815Y-71589962D01*
X178659011Y-71635717D01*
X178589853Y-71645661D01*
X178526297Y-71616636D01*
X178519819Y-71610604D01*
X178422466Y-71513251D01*
X178422462Y-71513248D01*
X178258684Y-71403814D01*
X178258675Y-71403809D01*
X178097047Y-71336861D01*
X178042644Y-71293020D01*
X178020579Y-71226726D01*
X178020500Y-71222300D01*
X178020500Y-71110455D01*
X178020499Y-71110453D01*
X178018576Y-71100785D01*
X177989737Y-70955803D01*
X177986891Y-70948932D01*
X177929397Y-70810127D01*
X177929390Y-70810114D01*
X177841789Y-70679011D01*
X177841786Y-70679007D01*
X177730292Y-70567513D01*
X177730288Y-70567510D01*
X177599185Y-70479909D01*
X177599172Y-70479902D01*
X177453501Y-70419564D01*
X177453489Y-70419561D01*
X177298845Y-70388800D01*
X177298842Y-70388800D01*
X177141158Y-70388800D01*
X177141155Y-70388800D01*
X176986510Y-70419561D01*
X176986498Y-70419564D01*
X176840827Y-70479902D01*
X176840814Y-70479909D01*
X176709714Y-70567508D01*
X176649279Y-70627942D01*
X176587955Y-70661426D01*
X176556933Y-70663228D01*
X176556933Y-70663800D01*
X176393155Y-70663800D01*
X176238510Y-70694561D01*
X176238498Y-70694564D01*
X176092827Y-70754902D01*
X176092814Y-70754909D01*
X175961711Y-70842510D01*
X175961707Y-70842513D01*
X175850213Y-70954007D01*
X175850210Y-70954011D01*
X175762609Y-71085114D01*
X175762602Y-71085127D01*
X175702264Y-71230798D01*
X175702261Y-71230810D01*
X175671500Y-71385453D01*
X175671500Y-71543146D01*
X175702261Y-71697789D01*
X175702264Y-71697801D01*
X175762602Y-71843472D01*
X175762609Y-71843485D01*
X175850210Y-71974588D01*
X175850213Y-71974592D01*
X175961707Y-72086086D01*
X175961711Y-72086089D01*
X176092814Y-72173690D01*
X176092827Y-72173697D01*
X176228566Y-72229921D01*
X176238503Y-72234037D01*
X176393153Y-72264799D01*
X176393156Y-72264800D01*
X176393158Y-72264800D01*
X176550844Y-72264800D01*
X176550845Y-72264799D01*
X176705497Y-72234037D01*
X176743647Y-72218234D01*
X176735001Y-72250504D01*
X176735001Y-72329496D01*
X176755445Y-72405795D01*
X176794941Y-72474204D01*
X176850796Y-72530059D01*
X176868014Y-72540000D01*
X176015138Y-72540000D01*
X176023430Y-72581690D01*
X176023430Y-72581692D01*
X176098807Y-72763671D01*
X176098814Y-72763684D01*
X176208248Y-72927462D01*
X176208251Y-72927466D01*
X176347533Y-73066748D01*
X176347537Y-73066751D01*
X176511315Y-73176185D01*
X176511328Y-73176192D01*
X176693306Y-73251569D01*
X176693318Y-73251572D01*
X176886504Y-73289999D01*
X176886508Y-73290000D01*
X177135000Y-73290000D01*
X177135000Y-72589999D01*
X177635000Y-72589999D01*
X177635000Y-73290000D01*
X177883492Y-73290000D01*
X177883495Y-73289999D01*
X178076681Y-73251572D01*
X178076693Y-73251569D01*
X178258671Y-73176192D01*
X178258684Y-73176185D01*
X178422462Y-73066751D01*
X178422466Y-73066748D01*
X178519819Y-72969396D01*
X178581142Y-72935911D01*
X178650834Y-72940895D01*
X178706767Y-72982767D01*
X178731184Y-73048231D01*
X178731500Y-73057077D01*
X178731500Y-73576933D01*
X178731235Y-73585043D01*
X178715935Y-73818480D01*
X178713817Y-73834562D01*
X178668974Y-74059999D01*
X178664776Y-74075664D01*
X178645118Y-74133577D01*
X178590892Y-74293321D01*
X178584685Y-74308306D01*
X178483021Y-74514460D01*
X178474911Y-74528507D01*
X178347209Y-74719627D01*
X178337335Y-74732495D01*
X178185779Y-74905310D01*
X178174310Y-74916779D01*
X178001495Y-75068335D01*
X177988627Y-75078209D01*
X177797507Y-75205911D01*
X177783460Y-75214021D01*
X177577306Y-75315685D01*
X177562321Y-75321892D01*
X177453493Y-75358834D01*
X177385741Y-75381833D01*
X177344666Y-75395776D01*
X177328999Y-75399974D01*
X177103562Y-75444817D01*
X177087480Y-75446935D01*
X176854043Y-75462235D01*
X176845933Y-75462500D01*
X174188941Y-75462500D01*
X174121902Y-75442815D01*
X174076147Y-75390011D01*
X174066203Y-75320853D01*
X174095228Y-75257297D01*
X174101260Y-75250819D01*
X174281786Y-75070292D01*
X174281789Y-75070289D01*
X174369394Y-74939179D01*
X174429737Y-74793497D01*
X174460500Y-74638842D01*
X174460500Y-74481158D01*
X174460500Y-74481155D01*
X174460499Y-74481153D01*
X174443540Y-74395894D01*
X174429737Y-74326503D01*
X174398508Y-74251109D01*
X174369397Y-74180827D01*
X174369390Y-74180814D01*
X174281789Y-74049711D01*
X174281786Y-74049707D01*
X174170292Y-73938213D01*
X174170288Y-73938210D01*
X174039185Y-73850609D01*
X174039172Y-73850602D01*
X173893501Y-73790264D01*
X173893489Y-73790261D01*
X173738845Y-73759500D01*
X173738842Y-73759500D01*
X173708842Y-73759500D01*
X173551158Y-73759500D01*
X173551155Y-73759500D01*
X173396510Y-73790261D01*
X173396498Y-73790264D01*
X173250827Y-73850602D01*
X173250814Y-73850609D01*
X173119711Y-73938210D01*
X173119707Y-73938213D01*
X173008217Y-74049704D01*
X173008211Y-74049711D01*
X172976351Y-74097392D01*
X172922739Y-74142196D01*
X172873250Y-74152500D01*
X170925940Y-74152500D01*
X170896499Y-74143855D01*
X170866513Y-74137332D01*
X170861497Y-74133577D01*
X170858901Y-74132815D01*
X170838259Y-74116181D01*
X170716819Y-73994741D01*
X170683334Y-73933418D01*
X170680500Y-73907060D01*
X170680500Y-72041155D01*
X170680499Y-72041153D01*
X170680270Y-72040000D01*
X171815138Y-72040000D01*
X172568014Y-72040000D01*
X172550796Y-72049941D01*
X172494941Y-72105796D01*
X172455445Y-72174205D01*
X172435001Y-72250504D01*
X172435001Y-72329496D01*
X172455445Y-72405795D01*
X172494941Y-72474204D01*
X172550796Y-72530059D01*
X172568014Y-72540000D01*
X171815138Y-72540000D01*
X171823430Y-72581690D01*
X171823430Y-72581692D01*
X171898807Y-72763671D01*
X171898814Y-72763684D01*
X172008248Y-72927462D01*
X172008251Y-72927466D01*
X172147533Y-73066748D01*
X172147537Y-73066751D01*
X172311315Y-73176185D01*
X172311328Y-73176192D01*
X172493306Y-73251569D01*
X172493318Y-73251572D01*
X172686504Y-73289999D01*
X172686508Y-73290000D01*
X172935000Y-73290000D01*
X172935000Y-72589999D01*
X173435000Y-72589999D01*
X173435000Y-73290000D01*
X173683492Y-73290000D01*
X173683495Y-73289999D01*
X173876681Y-73251572D01*
X173876693Y-73251569D01*
X174058671Y-73176192D01*
X174058684Y-73176185D01*
X174222462Y-73066751D01*
X174222466Y-73066748D01*
X174361748Y-72927466D01*
X174361751Y-72927462D01*
X174471185Y-72763684D01*
X174471192Y-72763671D01*
X174546569Y-72581692D01*
X174546569Y-72581690D01*
X174554862Y-72540000D01*
X173801986Y-72540000D01*
X173819204Y-72530059D01*
X173875059Y-72474204D01*
X173914555Y-72405795D01*
X173934999Y-72329496D01*
X173934999Y-72250504D01*
X173914555Y-72174205D01*
X173875059Y-72105796D01*
X173819204Y-72049941D01*
X173801986Y-72040000D01*
X174554862Y-72040000D01*
X174546569Y-71998309D01*
X174546569Y-71998307D01*
X174471192Y-71816328D01*
X174471185Y-71816315D01*
X174361751Y-71652537D01*
X174361748Y-71652533D01*
X174298505Y-71589290D01*
X174265020Y-71527967D01*
X174270004Y-71458275D01*
X174298504Y-71413928D01*
X174326208Y-71386225D01*
X174385884Y-71296913D01*
X174416547Y-71251023D01*
X174416549Y-71251019D01*
X174453960Y-71160701D01*
X174478776Y-71100789D01*
X174497391Y-71007208D01*
X174510500Y-70941307D01*
X174510500Y-70778692D01*
X174478777Y-70619216D01*
X174478776Y-70619215D01*
X174478776Y-70619211D01*
X174461693Y-70577968D01*
X174416549Y-70468980D01*
X174416547Y-70468976D01*
X174326211Y-70333779D01*
X174326205Y-70333771D01*
X174209289Y-70216855D01*
X174175804Y-70155532D01*
X174180788Y-70085840D01*
X174222660Y-70029907D01*
X174288124Y-70005490D01*
X174321160Y-70007556D01*
X174360108Y-70015304D01*
X174465155Y-70036200D01*
X174465158Y-70036200D01*
X174622844Y-70036200D01*
X174622845Y-70036199D01*
X174777497Y-70005437D01*
X174923179Y-69945094D01*
X175054289Y-69857489D01*
X175165789Y-69745989D01*
X175253394Y-69614879D01*
X175313737Y-69469197D01*
X175344500Y-69314542D01*
X175344500Y-69156858D01*
X175344500Y-69156855D01*
X175344499Y-69156853D01*
X175337792Y-69123135D01*
X175313737Y-69002203D01*
X175298297Y-68964927D01*
X175253397Y-68856527D01*
X175253390Y-68856514D01*
X175165789Y-68725411D01*
X175165786Y-68725407D01*
X175054292Y-68613913D01*
X175054288Y-68613910D01*
X174923185Y-68526309D01*
X174923172Y-68526302D01*
X174777501Y-68465964D01*
X174777489Y-68465961D01*
X174622845Y-68435200D01*
X174622842Y-68435200D01*
X174465158Y-68435200D01*
X174465155Y-68435200D01*
X174310510Y-68465961D01*
X174310498Y-68465964D01*
X174164827Y-68526302D01*
X174164814Y-68526309D01*
X174033711Y-68613910D01*
X174033707Y-68613913D01*
X173922213Y-68725407D01*
X173922210Y-68725411D01*
X173834609Y-68856514D01*
X173834602Y-68856527D01*
X173774264Y-69002198D01*
X173774261Y-69002210D01*
X173743500Y-69156853D01*
X173743500Y-69314546D01*
X173774261Y-69469189D01*
X173774264Y-69469201D01*
X173834602Y-69614872D01*
X173834609Y-69614885D01*
X173922210Y-69745988D01*
X173922213Y-69745992D01*
X174032025Y-69855804D01*
X174065510Y-69917127D01*
X174060526Y-69986819D01*
X174018654Y-70042752D01*
X173953190Y-70067169D01*
X173920152Y-70065102D01*
X173766307Y-70034500D01*
X173766305Y-70034500D01*
X173603695Y-70034500D01*
X173603693Y-70034500D01*
X173444216Y-70066222D01*
X173444206Y-70066225D01*
X173293980Y-70128450D01*
X173293976Y-70128452D01*
X173158779Y-70218788D01*
X173158771Y-70218794D01*
X173043794Y-70333771D01*
X173043788Y-70333779D01*
X172953452Y-70468976D01*
X172953450Y-70468980D01*
X172891225Y-70619206D01*
X172891222Y-70619216D01*
X172859500Y-70778692D01*
X172859500Y-70778695D01*
X172859500Y-70941305D01*
X172859500Y-70941307D01*
X172859499Y-70941307D01*
X172891222Y-71100783D01*
X172891223Y-71100785D01*
X172891224Y-71100789D01*
X172898580Y-71118548D01*
X172906049Y-71188016D01*
X172874775Y-71250495D01*
X172814686Y-71286148D01*
X172784019Y-71290000D01*
X172686504Y-71290000D01*
X172493318Y-71328427D01*
X172493306Y-71328430D01*
X172311328Y-71403807D01*
X172311315Y-71403814D01*
X172147537Y-71513248D01*
X172147533Y-71513251D01*
X172008251Y-71652533D01*
X172008248Y-71652537D01*
X171898814Y-71816315D01*
X171898807Y-71816328D01*
X171823430Y-71998307D01*
X171823430Y-71998309D01*
X171815138Y-72040000D01*
X170680270Y-72040000D01*
X170671825Y-71997546D01*
X170649737Y-71886503D01*
X170649735Y-71886498D01*
X170589397Y-71740827D01*
X170589390Y-71740814D01*
X170501789Y-71609711D01*
X170501786Y-71609707D01*
X170390292Y-71498213D01*
X170390288Y-71498210D01*
X170259185Y-71410609D01*
X170259172Y-71410602D01*
X170113501Y-71350264D01*
X170113489Y-71350261D01*
X169958845Y-71319500D01*
X169958842Y-71319500D01*
X169801158Y-71319500D01*
X169801155Y-71319500D01*
X169646510Y-71350261D01*
X169646498Y-71350264D01*
X169500827Y-71410602D01*
X169500814Y-71410609D01*
X169369711Y-71498210D01*
X169369707Y-71498213D01*
X169258213Y-71609707D01*
X169258210Y-71609711D01*
X169170609Y-71740814D01*
X169170602Y-71740827D01*
X169110264Y-71886498D01*
X169110261Y-71886510D01*
X169079500Y-72041153D01*
X169079500Y-74368846D01*
X169110261Y-74523489D01*
X169110264Y-74523501D01*
X169170602Y-74669172D01*
X169170609Y-74669185D01*
X169258210Y-74800288D01*
X169258213Y-74800292D01*
X169708741Y-75250819D01*
X169742226Y-75312142D01*
X169737242Y-75381833D01*
X169695371Y-75437767D01*
X169629906Y-75462184D01*
X169621060Y-75462500D01*
X155740489Y-75462500D01*
X155673450Y-75442815D01*
X155627695Y-75390011D01*
X155617751Y-75320853D01*
X155621412Y-75303906D01*
X155654504Y-75190000D01*
X153971362Y-75190000D01*
X153937306Y-75180000D01*
X152877156Y-75180000D01*
X152913153Y-75303906D01*
X152912953Y-75373775D01*
X152875010Y-75432445D01*
X152811372Y-75461288D01*
X152794076Y-75462500D01*
X111624000Y-75462500D01*
X111556961Y-75442815D01*
X111511206Y-75390011D01*
X111500000Y-75338500D01*
X111500000Y-74908035D01*
X111519685Y-74840996D01*
X111572489Y-74795241D01*
X111641647Y-74785297D01*
X111667337Y-74791854D01*
X111687026Y-74799198D01*
X111746555Y-74805599D01*
X111746572Y-74805600D01*
X111900000Y-74805600D01*
X111900000Y-73088400D01*
X111919685Y-73021361D01*
X111972489Y-72975606D01*
X111989237Y-72971962D01*
X111996800Y-72964400D01*
X111996800Y-72596801D01*
X112403200Y-72596801D01*
X113106400Y-72596801D01*
X113106400Y-72548973D01*
X113106399Y-72548956D01*
X113099997Y-72489423D01*
X113099997Y-72489421D01*
X113082807Y-72443334D01*
X113077821Y-72373642D01*
X113082807Y-72356664D01*
X113099997Y-72310575D01*
X113099998Y-72310572D01*
X113106399Y-72251044D01*
X113106400Y-72251027D01*
X113106400Y-72203200D01*
X112403200Y-72203200D01*
X112403200Y-72596801D01*
X111996800Y-72596801D01*
X111996800Y-71796800D01*
X112403200Y-71796800D01*
X113106400Y-71796800D01*
X113106400Y-71748972D01*
X113106399Y-71748955D01*
X113099997Y-71689422D01*
X113099997Y-71689420D01*
X113082807Y-71643333D01*
X113077821Y-71573641D01*
X113082807Y-71556663D01*
X113099997Y-71510574D01*
X113099998Y-71510571D01*
X113106399Y-71451043D01*
X113106400Y-71451026D01*
X113106400Y-71403199D01*
X112403200Y-71403199D01*
X112403200Y-71796800D01*
X111996800Y-71796800D01*
X111996800Y-70996799D01*
X112403200Y-70996799D01*
X113106400Y-70996799D01*
X113106400Y-70948971D01*
X113106399Y-70948954D01*
X113099998Y-70889426D01*
X113082806Y-70843332D01*
X113077822Y-70773640D01*
X113082807Y-70756662D01*
X113086506Y-70746744D01*
X113901100Y-70746744D01*
X113907501Y-70806272D01*
X113907503Y-70806279D01*
X113957745Y-70940986D01*
X113957749Y-70940993D01*
X114043909Y-71056087D01*
X114043912Y-71056090D01*
X114159006Y-71142250D01*
X114159013Y-71142254D01*
X114293720Y-71192496D01*
X114293727Y-71192498D01*
X114353255Y-71198899D01*
X114353272Y-71198900D01*
X114875000Y-71198900D01*
X115375000Y-71198900D01*
X115896728Y-71198900D01*
X115896744Y-71198899D01*
X115956272Y-71192498D01*
X115956276Y-71192497D01*
X116069166Y-71150392D01*
X116138858Y-71145408D01*
X116155834Y-71150392D01*
X116268723Y-71192497D01*
X116268727Y-71192498D01*
X116328255Y-71198899D01*
X116328272Y-71198900D01*
X116850000Y-71198900D01*
X116850000Y-70225000D01*
X115375000Y-70225000D01*
X115375000Y-71198900D01*
X114875000Y-71198900D01*
X114875000Y-70225000D01*
X113901100Y-70225000D01*
X113901100Y-70746744D01*
X113086506Y-70746744D01*
X113099998Y-70710572D01*
X113106399Y-70651044D01*
X113106400Y-70651027D01*
X113106400Y-70603200D01*
X112403200Y-70603200D01*
X112403200Y-70996799D01*
X111996800Y-70996799D01*
X111996800Y-70196800D01*
X112403200Y-70196800D01*
X113106400Y-70196800D01*
X113106400Y-70184761D01*
X113076969Y-70022072D01*
X113079556Y-69997898D01*
X113077821Y-69973641D01*
X113082807Y-69956663D01*
X113099997Y-69910574D01*
X113099998Y-69910571D01*
X113106399Y-69851043D01*
X113106400Y-69851026D01*
X113106400Y-69803199D01*
X112403200Y-69803199D01*
X112403200Y-70196800D01*
X111996800Y-70196800D01*
X111996800Y-69396799D01*
X112403200Y-69396799D01*
X113106400Y-69396799D01*
X113106400Y-69348971D01*
X113106399Y-69348954D01*
X113099997Y-69289421D01*
X113099997Y-69289419D01*
X113082808Y-69243335D01*
X113077822Y-69173644D01*
X113082808Y-69156665D01*
X113099997Y-69110580D01*
X113099997Y-69110578D01*
X113106399Y-69051045D01*
X113106400Y-69051028D01*
X113106400Y-69003201D01*
X112403200Y-69003201D01*
X112403200Y-69396799D01*
X111996800Y-69396799D01*
X111996800Y-68771744D01*
X113901100Y-68771744D01*
X113907501Y-68831272D01*
X113907503Y-68831280D01*
X113949607Y-68944167D01*
X113954591Y-69013859D01*
X113949607Y-69030833D01*
X113907503Y-69143719D01*
X113907501Y-69143727D01*
X113901100Y-69203255D01*
X113901100Y-69725000D01*
X114875000Y-69725000D01*
X115375000Y-69725000D01*
X116850000Y-69725000D01*
X116850000Y-68250000D01*
X115375000Y-68250000D01*
X115375000Y-69725000D01*
X114875000Y-69725000D01*
X114875000Y-68250000D01*
X113901100Y-68250000D01*
X113901100Y-68771744D01*
X111996800Y-68771744D01*
X111996800Y-68596801D01*
X112403200Y-68596801D01*
X113106400Y-68596801D01*
X113106400Y-68548973D01*
X113106399Y-68548956D01*
X113099997Y-68489423D01*
X113099997Y-68489421D01*
X113082807Y-68443334D01*
X113076470Y-68380886D01*
X113104189Y-68203200D01*
X112403200Y-68203200D01*
X112403200Y-68596801D01*
X111996800Y-68596801D01*
X111996800Y-67796800D01*
X112403200Y-67796800D01*
X113106400Y-67796800D01*
X113106400Y-67748972D01*
X113106399Y-67748955D01*
X113099997Y-67689422D01*
X113099997Y-67689420D01*
X113082807Y-67643333D01*
X113077821Y-67573641D01*
X113082807Y-67556663D01*
X113099997Y-67510574D01*
X113099998Y-67510571D01*
X113106399Y-67451043D01*
X113106400Y-67451026D01*
X113106400Y-67403199D01*
X112403200Y-67403199D01*
X112403200Y-67796800D01*
X111996800Y-67796800D01*
X111996800Y-66996799D01*
X112403200Y-66996799D01*
X113106400Y-66996799D01*
X113106400Y-66948971D01*
X113106399Y-66948954D01*
X113099997Y-66889421D01*
X113099997Y-66889419D01*
X113082808Y-66843335D01*
X113079475Y-66796744D01*
X113901100Y-66796744D01*
X113907501Y-66856272D01*
X113907503Y-66856280D01*
X113949607Y-66969167D01*
X113954591Y-67038859D01*
X113949607Y-67055833D01*
X113907503Y-67168719D01*
X113907501Y-67168727D01*
X113901100Y-67228255D01*
X113901100Y-67750000D01*
X114875000Y-67750000D01*
X115375000Y-67750000D01*
X116850000Y-67750000D01*
X116850000Y-66275000D01*
X115375000Y-66275000D01*
X115375000Y-67750000D01*
X114875000Y-67750000D01*
X114875000Y-66275000D01*
X113901100Y-66275000D01*
X113901100Y-66796744D01*
X113079475Y-66796744D01*
X113077822Y-66773644D01*
X113082808Y-66756665D01*
X113099997Y-66710580D01*
X113099997Y-66710578D01*
X113106399Y-66651045D01*
X113106400Y-66651028D01*
X113106400Y-66603201D01*
X112403200Y-66603201D01*
X112403200Y-66996799D01*
X111996800Y-66996799D01*
X111996800Y-66196801D01*
X112403200Y-66196801D01*
X113101413Y-66196801D01*
X113076193Y-66017247D01*
X113079387Y-65995533D01*
X113077821Y-65973642D01*
X113082807Y-65956664D01*
X113099997Y-65910575D01*
X113099998Y-65910572D01*
X113106399Y-65851044D01*
X113106400Y-65851027D01*
X113106400Y-65803200D01*
X112403200Y-65803200D01*
X112403200Y-66196801D01*
X111996800Y-66196801D01*
X111996800Y-65396800D01*
X112403200Y-65396800D01*
X113106400Y-65396800D01*
X113106400Y-65348972D01*
X113106399Y-65348955D01*
X113099998Y-65289427D01*
X113086507Y-65253255D01*
X113901100Y-65253255D01*
X113901100Y-65775000D01*
X114875000Y-65775000D01*
X115375000Y-65775000D01*
X116850000Y-65775000D01*
X116850000Y-64801100D01*
X116328255Y-64801100D01*
X116268727Y-64807501D01*
X116268719Y-64807503D01*
X116155833Y-64849607D01*
X116086141Y-64854591D01*
X116069167Y-64849607D01*
X115956280Y-64807503D01*
X115956272Y-64807501D01*
X115896744Y-64801100D01*
X115375000Y-64801100D01*
X115375000Y-65775000D01*
X114875000Y-65775000D01*
X114875000Y-64801100D01*
X114353255Y-64801100D01*
X114293727Y-64807501D01*
X114293720Y-64807503D01*
X114159013Y-64857745D01*
X114159006Y-64857749D01*
X114043912Y-64943909D01*
X114043909Y-64943912D01*
X113957749Y-65059006D01*
X113957745Y-65059013D01*
X113907503Y-65193720D01*
X113907501Y-65193727D01*
X113901100Y-65253255D01*
X113086507Y-65253255D01*
X113082806Y-65243332D01*
X113077822Y-65173641D01*
X113082807Y-65156663D01*
X113099998Y-65110573D01*
X113106399Y-65051045D01*
X113106400Y-65051028D01*
X113106400Y-65003201D01*
X112403200Y-65003201D01*
X112403200Y-65396800D01*
X111996800Y-65396800D01*
X111996800Y-64596801D01*
X112403200Y-64596801D01*
X113106400Y-64596801D01*
X113106400Y-64548973D01*
X113106399Y-64548956D01*
X113099997Y-64489423D01*
X113099997Y-64489421D01*
X113082807Y-64443334D01*
X113077821Y-64373642D01*
X113082807Y-64356664D01*
X113099997Y-64310575D01*
X113099998Y-64310572D01*
X113106399Y-64251044D01*
X113106400Y-64251027D01*
X113106400Y-64203200D01*
X112403200Y-64203200D01*
X112403200Y-64596801D01*
X111996800Y-64596801D01*
X111996800Y-63796800D01*
X112403200Y-63796800D01*
X113106400Y-63796800D01*
X113106400Y-63748972D01*
X113106399Y-63748955D01*
X113099997Y-63689422D01*
X113099997Y-63689420D01*
X113082808Y-63643336D01*
X113077822Y-63573645D01*
X113082808Y-63556666D01*
X113099997Y-63510581D01*
X113099997Y-63510579D01*
X113106399Y-63451046D01*
X113106400Y-63451029D01*
X113106400Y-63403202D01*
X112403200Y-63403202D01*
X112403200Y-63796800D01*
X111996800Y-63796800D01*
X111996800Y-63035600D01*
X111985492Y-63024292D01*
X111956961Y-63015915D01*
X111911206Y-62963111D01*
X111900000Y-62911600D01*
X111900000Y-62300000D01*
X112400973Y-62300000D01*
X112403179Y-62419067D01*
X112403016Y-62419659D01*
X112403200Y-62421364D01*
X112403200Y-62996802D01*
X113175438Y-62996802D01*
X113208132Y-63006402D01*
X113351028Y-63006402D01*
X113351044Y-63006401D01*
X113410572Y-63000000D01*
X113410575Y-62999999D01*
X113456664Y-62982809D01*
X113526355Y-62977823D01*
X113543334Y-62982809D01*
X113589422Y-62999999D01*
X113648956Y-63006401D01*
X113648973Y-63006402D01*
X113696801Y-63006402D01*
X113696801Y-62303202D01*
X113121365Y-62303202D01*
X113110460Y-62300000D01*
X112400973Y-62300000D01*
X111900000Y-62300000D01*
X111900000Y-61896802D01*
X113303200Y-61896802D01*
X113696801Y-61896802D01*
X113696801Y-61193602D01*
X113648956Y-61193602D01*
X113589428Y-61200003D01*
X113589421Y-61200005D01*
X113543331Y-61217195D01*
X113473639Y-61222178D01*
X113456668Y-61217194D01*
X113410583Y-61200006D01*
X113410572Y-61200003D01*
X113351044Y-61193602D01*
X113303200Y-61193602D01*
X113303200Y-61896802D01*
X111900000Y-61896802D01*
X111900000Y-61194400D01*
X112400000Y-61194400D01*
X112400000Y-61800000D01*
X112896800Y-61800000D01*
X112896800Y-61193602D01*
X112848955Y-61193602D01*
X112789427Y-61200003D01*
X112789419Y-61200005D01*
X112743463Y-61217146D01*
X112673771Y-61222130D01*
X112656797Y-61217146D01*
X112612979Y-61200803D01*
X112612972Y-61200801D01*
X112553444Y-61194400D01*
X112400000Y-61194400D01*
X111900000Y-61194400D01*
X111746555Y-61194400D01*
X111687027Y-61200801D01*
X111687020Y-61200803D01*
X111667333Y-61208146D01*
X111597641Y-61213130D01*
X111536318Y-61179645D01*
X111502834Y-61118321D01*
X111500000Y-61091964D01*
X111500000Y-60774500D01*
X111519685Y-60707461D01*
X111572489Y-60661706D01*
X111624000Y-60650500D01*
X114279089Y-60650500D01*
X114346128Y-60670185D01*
G37*
%TD.AperFunction*%
%TA.AperFunction,Conductor*%
G36*
X120987243Y-65690790D02*
G01*
X121014512Y-65693234D01*
X121023974Y-65700585D01*
X121032506Y-65702861D01*
X121046093Y-65717771D01*
X121069685Y-65736102D01*
X121074034Y-65748434D01*
X121079566Y-65754505D01*
X121090353Y-65788110D01*
X121092503Y-65800804D01*
X121092923Y-65801995D01*
X121092963Y-65803523D01*
X121093100Y-65804336D01*
X121093101Y-65851072D01*
X121099509Y-65910683D01*
X121120770Y-65967688D01*
X121122736Y-65979291D01*
X121116660Y-66043331D01*
X121099510Y-66089314D01*
X121099509Y-66089318D01*
X121093100Y-66148928D01*
X121093100Y-66148935D01*
X121093100Y-66148936D01*
X121093100Y-66651071D01*
X121093101Y-66651080D01*
X121096608Y-66683704D01*
X121084200Y-66752464D01*
X121036589Y-66803599D01*
X121009324Y-66815613D01*
X121004707Y-66817013D01*
X120859027Y-66877355D01*
X120859014Y-66877362D01*
X120727911Y-66964963D01*
X120727907Y-66964966D01*
X120616413Y-67076460D01*
X120616411Y-67076463D01*
X120528809Y-67207567D01*
X120525936Y-67212944D01*
X120523850Y-67211829D01*
X120486563Y-67258078D01*
X120420264Y-67280128D01*
X120352568Y-67262834D01*
X120304970Y-67211686D01*
X120298574Y-67196438D01*
X120249282Y-67052732D01*
X120247787Y-67019405D01*
X120245408Y-66986142D01*
X120246177Y-66983521D01*
X120246151Y-66982932D01*
X120246554Y-66982238D01*
X120250392Y-66969166D01*
X120292497Y-66856276D01*
X120292498Y-66856272D01*
X120298899Y-66796744D01*
X120298900Y-66796727D01*
X120298900Y-66275000D01*
X119325000Y-66275000D01*
X119325000Y-67750000D01*
X120325412Y-67750000D01*
X120328308Y-67748418D01*
X120398000Y-67753394D01*
X120453939Y-67795259D01*
X120469241Y-67822129D01*
X120528802Y-67965925D01*
X120528809Y-67965938D01*
X120616410Y-68097041D01*
X120616413Y-68097045D01*
X120727907Y-68208539D01*
X120727911Y-68208542D01*
X120859014Y-68296143D01*
X120859027Y-68296150D01*
X120961920Y-68338769D01*
X121004703Y-68356490D01*
X121004706Y-68356490D01*
X121010538Y-68358260D01*
X121009824Y-68360612D01*
X121062157Y-68387958D01*
X121096758Y-68448659D01*
X121099383Y-68490481D01*
X121093100Y-68548928D01*
X121093100Y-68548933D01*
X121093100Y-68548934D01*
X121093100Y-68548937D01*
X121093101Y-69047333D01*
X121073417Y-69114372D01*
X121020613Y-69160127D01*
X120969101Y-69171333D01*
X120829155Y-69171333D01*
X120674510Y-69202094D01*
X120674498Y-69202097D01*
X120528827Y-69262435D01*
X120528818Y-69262440D01*
X120490530Y-69288023D01*
X120423852Y-69308899D01*
X120356472Y-69290413D01*
X120309783Y-69238433D01*
X120302200Y-69218235D01*
X120247133Y-69020816D01*
X120247538Y-68990938D01*
X120245408Y-68961142D01*
X120248066Y-68952086D01*
X120248082Y-68950953D01*
X120248652Y-68950091D01*
X120250392Y-68944166D01*
X120292497Y-68831276D01*
X120292498Y-68831272D01*
X120298899Y-68771744D01*
X120298900Y-68771727D01*
X120298900Y-68250000D01*
X119325000Y-68250000D01*
X119325000Y-69851000D01*
X119305315Y-69918039D01*
X119252511Y-69963794D01*
X119201000Y-69975000D01*
X119075000Y-69975000D01*
X119075000Y-70101000D01*
X119072449Y-70109685D01*
X119073738Y-70118647D01*
X119062759Y-70142687D01*
X119055315Y-70168039D01*
X119048474Y-70173966D01*
X119044713Y-70182203D01*
X119022478Y-70196492D01*
X119002511Y-70213794D01*
X118991996Y-70216081D01*
X118985935Y-70219977D01*
X118951000Y-70225000D01*
X118862500Y-70225000D01*
X118795461Y-70205315D01*
X118749706Y-70152511D01*
X118738500Y-70101000D01*
X118738500Y-69849000D01*
X118758185Y-69781961D01*
X118810989Y-69736206D01*
X118814573Y-69735426D01*
X118825000Y-69725000D01*
X118825000Y-68250000D01*
X118809411Y-68234411D01*
X118795461Y-68230315D01*
X118749706Y-68177511D01*
X118738500Y-68126000D01*
X118738500Y-67874000D01*
X118758185Y-67806961D01*
X118810989Y-67761206D01*
X118814573Y-67760426D01*
X118825000Y-67750000D01*
X118825000Y-66275000D01*
X118809411Y-66259411D01*
X118795461Y-66255315D01*
X118749706Y-66202511D01*
X118738500Y-66151000D01*
X118738500Y-65899000D01*
X118758185Y-65831961D01*
X118810989Y-65786206D01*
X118862500Y-65775000D01*
X120298900Y-65775000D01*
X120335219Y-65738681D01*
X120337236Y-65740698D01*
X120371389Y-65711106D01*
X120422900Y-65699900D01*
X120819178Y-65699900D01*
X120879875Y-65699918D01*
X120879966Y-65699900D01*
X120880069Y-65699900D01*
X120943941Y-65687194D01*
X120944922Y-65686999D01*
X120955399Y-65687937D01*
X120964995Y-65684858D01*
X120987243Y-65690790D01*
G37*
%TD.AperFunction*%
%TA.AperFunction,Conductor*%
G36*
X124632697Y-62301545D02*
G01*
X124636311Y-62300708D01*
X124670896Y-62307743D01*
X124688875Y-62314173D01*
X124731087Y-62331658D01*
X124746128Y-62334649D01*
X124837259Y-62367243D01*
X124893754Y-62408354D01*
X124919054Y-62473482D01*
X124919501Y-62484000D01*
X124919501Y-62599191D01*
X124922334Y-62635200D01*
X124922334Y-62635203D01*
X124922335Y-62635204D01*
X124925258Y-62645264D01*
X124967131Y-62789394D01*
X124972731Y-62798862D01*
X124990000Y-62861984D01*
X124990000Y-63138789D01*
X125010910Y-63137145D01*
X125169835Y-63090974D01*
X125239704Y-63091174D01*
X125267548Y-63103318D01*
X125300607Y-63122869D01*
X125341268Y-63134682D01*
X125454791Y-63167664D01*
X125454794Y-63167664D01*
X125454796Y-63167665D01*
X125490819Y-63170500D01*
X125609902Y-63170499D01*
X125676941Y-63190183D01*
X125697583Y-63206818D01*
X126773181Y-64282416D01*
X126787884Y-64309343D01*
X126804477Y-64335162D01*
X126805368Y-64341362D01*
X126806666Y-64343739D01*
X126809500Y-64370097D01*
X126809500Y-64525500D01*
X126789815Y-64592539D01*
X126737011Y-64638294D01*
X126685500Y-64649500D01*
X125891656Y-64649500D01*
X125829657Y-64632888D01*
X125785300Y-64607279D01*
X125785299Y-64607278D01*
X125759770Y-64592539D01*
X125738785Y-64580423D01*
X125586057Y-64539499D01*
X125427943Y-64539499D01*
X125420347Y-64539499D01*
X125420331Y-64539500D01*
X125143999Y-64539500D01*
X125076960Y-64519815D01*
X125031205Y-64467011D01*
X125019999Y-64415500D01*
X125019999Y-64385375D01*
X125019998Y-64385350D01*
X125017145Y-64349089D01*
X124972030Y-64193803D01*
X124889721Y-64054625D01*
X124889714Y-64054616D01*
X124775383Y-63940285D01*
X124775374Y-63940278D01*
X124636195Y-63857968D01*
X124636190Y-63857966D01*
X124480918Y-63812855D01*
X124480912Y-63812854D01*
X124460000Y-63811209D01*
X124460000Y-64466000D01*
X124440315Y-64533039D01*
X124387511Y-64578794D01*
X124336000Y-64590000D01*
X124084000Y-64590000D01*
X124016961Y-64570315D01*
X123971206Y-64517511D01*
X123960000Y-64466000D01*
X123960000Y-63811210D01*
X123959999Y-63811209D01*
X123939087Y-63812854D01*
X123939081Y-63812855D01*
X123783809Y-63857966D01*
X123783800Y-63857970D01*
X123747620Y-63879367D01*
X123679896Y-63896550D01*
X123613634Y-63874390D01*
X123569871Y-63819923D01*
X123560500Y-63772635D01*
X123560500Y-63118789D01*
X123960000Y-63118789D01*
X123980910Y-63117145D01*
X124136194Y-63072032D01*
X124144962Y-63066846D01*
X124212684Y-63049659D01*
X124271212Y-63066842D01*
X124313805Y-63092032D01*
X124469089Y-63137145D01*
X124490000Y-63138789D01*
X124490000Y-62610000D01*
X123960000Y-62610000D01*
X123960000Y-63118789D01*
X123560500Y-63118789D01*
X123560500Y-62860951D01*
X123560625Y-62781894D01*
X123560500Y-62781424D01*
X123560500Y-62780943D01*
X123540187Y-62705136D01*
X123519943Y-62629102D01*
X123519703Y-62628685D01*
X123519579Y-62628221D01*
X123519578Y-62628219D01*
X123519577Y-62628218D01*
X123519577Y-62628216D01*
X123480186Y-62559988D01*
X123477988Y-62556168D01*
X123476505Y-62553588D01*
X123476472Y-62553453D01*
X123460000Y-62491775D01*
X123460000Y-62464000D01*
X123479685Y-62396961D01*
X123532489Y-62351206D01*
X123584000Y-62340000D01*
X123710000Y-62340000D01*
X123713181Y-62336819D01*
X123774504Y-62303334D01*
X123800862Y-62300500D01*
X123806082Y-62300500D01*
X124516083Y-62300500D01*
X124629138Y-62300500D01*
X124632697Y-62301545D01*
G37*
%TD.AperFunction*%
%TD*%
M02*
