%TF.GenerationSoftware,KiCad,Pcbnew,10.0.1*%
%TF.CreationDate,2026-08-26T11:50:51+01:00*%
%TF.ProjectId,Clinical_Thermometer,436c696e-6963-4616-9c5f-546865726d6f,rev?*%
%TF.SameCoordinates,Original*%
%TF.FileFunction,Legend,Bot*%
%TF.FilePolarity,Positive*%
%FSLAX46Y46*%
G04 Gerber Fmt 4.6, Leading zero omitted, Abs format (unit mm)*
G04 Created by KiCad (PCBNEW 10.0.1) date 2026-08-26 11:50:51*
%MOMM*%
%LPD*%
G01*
G04 APERTURE LIST*
%ADD10C,0.160000*%
%ADD11C,0.150000*%
%ADD12C,0.100000*%
%ADD13C,0.000000*%
%ADD14C,0.120000*%
%ADD15C,0.152400*%
G04 APERTURE END LIST*
D10*
X143823680Y-66983332D02*
X143861775Y-67097618D01*
X143861775Y-67097618D02*
X143861775Y-67288094D01*
X143861775Y-67288094D02*
X143823680Y-67364285D01*
X143823680Y-67364285D02*
X143785584Y-67402380D01*
X143785584Y-67402380D02*
X143709394Y-67440475D01*
X143709394Y-67440475D02*
X143633203Y-67440475D01*
X143633203Y-67440475D02*
X143557013Y-67402380D01*
X143557013Y-67402380D02*
X143518918Y-67364285D01*
X143518918Y-67364285D02*
X143480822Y-67288094D01*
X143480822Y-67288094D02*
X143442727Y-67135713D01*
X143442727Y-67135713D02*
X143404632Y-67059523D01*
X143404632Y-67059523D02*
X143366537Y-67021428D01*
X143366537Y-67021428D02*
X143290346Y-66983332D01*
X143290346Y-66983332D02*
X143214156Y-66983332D01*
X143214156Y-66983332D02*
X143137965Y-67021428D01*
X143137965Y-67021428D02*
X143099870Y-67059523D01*
X143099870Y-67059523D02*
X143061775Y-67135713D01*
X143061775Y-67135713D02*
X143061775Y-67326190D01*
X143061775Y-67326190D02*
X143099870Y-67440475D01*
X143061775Y-67707142D02*
X143861775Y-67897618D01*
X143861775Y-67897618D02*
X143290346Y-68049999D01*
X143290346Y-68049999D02*
X143861775Y-68202380D01*
X143861775Y-68202380D02*
X143061775Y-68392857D01*
X143861775Y-69116666D02*
X143861775Y-68659523D01*
X143861775Y-68888095D02*
X143061775Y-68888095D01*
X143061775Y-68888095D02*
X143176060Y-68811904D01*
X143176060Y-68811904D02*
X143252251Y-68735714D01*
X143252251Y-68735714D02*
X143290346Y-68659523D01*
X146263332Y-64185584D02*
X146301428Y-64223680D01*
X146301428Y-64223680D02*
X146415713Y-64261775D01*
X146415713Y-64261775D02*
X146491904Y-64261775D01*
X146491904Y-64261775D02*
X146606190Y-64223680D01*
X146606190Y-64223680D02*
X146682380Y-64147489D01*
X146682380Y-64147489D02*
X146720475Y-64071299D01*
X146720475Y-64071299D02*
X146758571Y-63918918D01*
X146758571Y-63918918D02*
X146758571Y-63804632D01*
X146758571Y-63804632D02*
X146720475Y-63652251D01*
X146720475Y-63652251D02*
X146682380Y-63576060D01*
X146682380Y-63576060D02*
X146606190Y-63499870D01*
X146606190Y-63499870D02*
X146491904Y-63461775D01*
X146491904Y-63461775D02*
X146415713Y-63461775D01*
X146415713Y-63461775D02*
X146301428Y-63499870D01*
X146301428Y-63499870D02*
X146263332Y-63537965D01*
X145882380Y-64261775D02*
X145729999Y-64261775D01*
X145729999Y-64261775D02*
X145653809Y-64223680D01*
X145653809Y-64223680D02*
X145615713Y-64185584D01*
X145615713Y-64185584D02*
X145539523Y-64071299D01*
X145539523Y-64071299D02*
X145501428Y-63918918D01*
X145501428Y-63918918D02*
X145501428Y-63614156D01*
X145501428Y-63614156D02*
X145539523Y-63537965D01*
X145539523Y-63537965D02*
X145577618Y-63499870D01*
X145577618Y-63499870D02*
X145653809Y-63461775D01*
X145653809Y-63461775D02*
X145806190Y-63461775D01*
X145806190Y-63461775D02*
X145882380Y-63499870D01*
X145882380Y-63499870D02*
X145920475Y-63537965D01*
X145920475Y-63537965D02*
X145958571Y-63614156D01*
X145958571Y-63614156D02*
X145958571Y-63804632D01*
X145958571Y-63804632D02*
X145920475Y-63880822D01*
X145920475Y-63880822D02*
X145882380Y-63918918D01*
X145882380Y-63918918D02*
X145806190Y-63957013D01*
X145806190Y-63957013D02*
X145653809Y-63957013D01*
X145653809Y-63957013D02*
X145577618Y-63918918D01*
X145577618Y-63918918D02*
X145539523Y-63880822D01*
X145539523Y-63880822D02*
X145501428Y-63804632D01*
X125525584Y-65136667D02*
X125563680Y-65098571D01*
X125563680Y-65098571D02*
X125601775Y-64984286D01*
X125601775Y-64984286D02*
X125601775Y-64908095D01*
X125601775Y-64908095D02*
X125563680Y-64793809D01*
X125563680Y-64793809D02*
X125487489Y-64717619D01*
X125487489Y-64717619D02*
X125411299Y-64679524D01*
X125411299Y-64679524D02*
X125258918Y-64641428D01*
X125258918Y-64641428D02*
X125144632Y-64641428D01*
X125144632Y-64641428D02*
X124992251Y-64679524D01*
X124992251Y-64679524D02*
X124916060Y-64717619D01*
X124916060Y-64717619D02*
X124839870Y-64793809D01*
X124839870Y-64793809D02*
X124801775Y-64908095D01*
X124801775Y-64908095D02*
X124801775Y-64984286D01*
X124801775Y-64984286D02*
X124839870Y-65098571D01*
X124839870Y-65098571D02*
X124877965Y-65136667D01*
X124877965Y-65441428D02*
X124839870Y-65479524D01*
X124839870Y-65479524D02*
X124801775Y-65555714D01*
X124801775Y-65555714D02*
X124801775Y-65746190D01*
X124801775Y-65746190D02*
X124839870Y-65822381D01*
X124839870Y-65822381D02*
X124877965Y-65860476D01*
X124877965Y-65860476D02*
X124954156Y-65898571D01*
X124954156Y-65898571D02*
X125030346Y-65898571D01*
X125030346Y-65898571D02*
X125144632Y-65860476D01*
X125144632Y-65860476D02*
X125601775Y-65403333D01*
X125601775Y-65403333D02*
X125601775Y-65898571D01*
X113161775Y-67380476D02*
X113809394Y-67380476D01*
X113809394Y-67380476D02*
X113885584Y-67418571D01*
X113885584Y-67418571D02*
X113923680Y-67456666D01*
X113923680Y-67456666D02*
X113961775Y-67532857D01*
X113961775Y-67532857D02*
X113961775Y-67685238D01*
X113961775Y-67685238D02*
X113923680Y-67761428D01*
X113923680Y-67761428D02*
X113885584Y-67799523D01*
X113885584Y-67799523D02*
X113809394Y-67837619D01*
X113809394Y-67837619D02*
X113161775Y-67837619D01*
X113961775Y-68637618D02*
X113961775Y-68180475D01*
X113961775Y-68409047D02*
X113161775Y-68409047D01*
X113161775Y-68409047D02*
X113276060Y-68332856D01*
X113276060Y-68332856D02*
X113352251Y-68256666D01*
X113352251Y-68256666D02*
X113390346Y-68180475D01*
D11*
X111773819Y-61058600D02*
X112011914Y-61058600D01*
X111916676Y-60820505D02*
X112011914Y-61058600D01*
X112011914Y-61058600D02*
X111916676Y-61296695D01*
X112202390Y-60915743D02*
X112011914Y-61058600D01*
X112011914Y-61058600D02*
X112202390Y-61201457D01*
X111773819Y-61058600D02*
X112011914Y-61058600D01*
X111916676Y-60820505D02*
X112011914Y-61058600D01*
X112011914Y-61058600D02*
X111916676Y-61296695D01*
X112202390Y-60915743D02*
X112011914Y-61058600D01*
X112011914Y-61058600D02*
X112202390Y-61201457D01*
D10*
X144881775Y-70890476D02*
X145529394Y-70890476D01*
X145529394Y-70890476D02*
X145605584Y-70928571D01*
X145605584Y-70928571D02*
X145643680Y-70966666D01*
X145643680Y-70966666D02*
X145681775Y-71042857D01*
X145681775Y-71042857D02*
X145681775Y-71195238D01*
X145681775Y-71195238D02*
X145643680Y-71271428D01*
X145643680Y-71271428D02*
X145605584Y-71309523D01*
X145605584Y-71309523D02*
X145529394Y-71347619D01*
X145529394Y-71347619D02*
X144881775Y-71347619D01*
X144957965Y-71690475D02*
X144919870Y-71728571D01*
X144919870Y-71728571D02*
X144881775Y-71804761D01*
X144881775Y-71804761D02*
X144881775Y-71995237D01*
X144881775Y-71995237D02*
X144919870Y-72071428D01*
X144919870Y-72071428D02*
X144957965Y-72109523D01*
X144957965Y-72109523D02*
X145034156Y-72147618D01*
X145034156Y-72147618D02*
X145110346Y-72147618D01*
X145110346Y-72147618D02*
X145224632Y-72109523D01*
X145224632Y-72109523D02*
X145681775Y-71652380D01*
X145681775Y-71652380D02*
X145681775Y-72147618D01*
X148825584Y-63306667D02*
X148863680Y-63268571D01*
X148863680Y-63268571D02*
X148901775Y-63154286D01*
X148901775Y-63154286D02*
X148901775Y-63078095D01*
X148901775Y-63078095D02*
X148863680Y-62963809D01*
X148863680Y-62963809D02*
X148787489Y-62887619D01*
X148787489Y-62887619D02*
X148711299Y-62849524D01*
X148711299Y-62849524D02*
X148558918Y-62811428D01*
X148558918Y-62811428D02*
X148444632Y-62811428D01*
X148444632Y-62811428D02*
X148292251Y-62849524D01*
X148292251Y-62849524D02*
X148216060Y-62887619D01*
X148216060Y-62887619D02*
X148139870Y-62963809D01*
X148139870Y-62963809D02*
X148101775Y-63078095D01*
X148101775Y-63078095D02*
X148101775Y-63154286D01*
X148101775Y-63154286D02*
X148139870Y-63268571D01*
X148139870Y-63268571D02*
X148177965Y-63306667D01*
X148444632Y-63763809D02*
X148406537Y-63687619D01*
X148406537Y-63687619D02*
X148368441Y-63649524D01*
X148368441Y-63649524D02*
X148292251Y-63611428D01*
X148292251Y-63611428D02*
X148254156Y-63611428D01*
X148254156Y-63611428D02*
X148177965Y-63649524D01*
X148177965Y-63649524D02*
X148139870Y-63687619D01*
X148139870Y-63687619D02*
X148101775Y-63763809D01*
X148101775Y-63763809D02*
X148101775Y-63916190D01*
X148101775Y-63916190D02*
X148139870Y-63992381D01*
X148139870Y-63992381D02*
X148177965Y-64030476D01*
X148177965Y-64030476D02*
X148254156Y-64068571D01*
X148254156Y-64068571D02*
X148292251Y-64068571D01*
X148292251Y-64068571D02*
X148368441Y-64030476D01*
X148368441Y-64030476D02*
X148406537Y-63992381D01*
X148406537Y-63992381D02*
X148444632Y-63916190D01*
X148444632Y-63916190D02*
X148444632Y-63763809D01*
X148444632Y-63763809D02*
X148482727Y-63687619D01*
X148482727Y-63687619D02*
X148520822Y-63649524D01*
X148520822Y-63649524D02*
X148597013Y-63611428D01*
X148597013Y-63611428D02*
X148749394Y-63611428D01*
X148749394Y-63611428D02*
X148825584Y-63649524D01*
X148825584Y-63649524D02*
X148863680Y-63687619D01*
X148863680Y-63687619D02*
X148901775Y-63763809D01*
X148901775Y-63763809D02*
X148901775Y-63916190D01*
X148901775Y-63916190D02*
X148863680Y-63992381D01*
X148863680Y-63992381D02*
X148825584Y-64030476D01*
X148825584Y-64030476D02*
X148749394Y-64068571D01*
X148749394Y-64068571D02*
X148597013Y-64068571D01*
X148597013Y-64068571D02*
X148520822Y-64030476D01*
X148520822Y-64030476D02*
X148482727Y-63992381D01*
X148482727Y-63992381D02*
X148444632Y-63916190D01*
X143044285Y-61655584D02*
X143082381Y-61693680D01*
X143082381Y-61693680D02*
X143196666Y-61731775D01*
X143196666Y-61731775D02*
X143272857Y-61731775D01*
X143272857Y-61731775D02*
X143387143Y-61693680D01*
X143387143Y-61693680D02*
X143463333Y-61617489D01*
X143463333Y-61617489D02*
X143501428Y-61541299D01*
X143501428Y-61541299D02*
X143539524Y-61388918D01*
X143539524Y-61388918D02*
X143539524Y-61274632D01*
X143539524Y-61274632D02*
X143501428Y-61122251D01*
X143501428Y-61122251D02*
X143463333Y-61046060D01*
X143463333Y-61046060D02*
X143387143Y-60969870D01*
X143387143Y-60969870D02*
X143272857Y-60931775D01*
X143272857Y-60931775D02*
X143196666Y-60931775D01*
X143196666Y-60931775D02*
X143082381Y-60969870D01*
X143082381Y-60969870D02*
X143044285Y-61007965D01*
X142282381Y-61731775D02*
X142739524Y-61731775D01*
X142510952Y-61731775D02*
X142510952Y-60931775D01*
X142510952Y-60931775D02*
X142587143Y-61046060D01*
X142587143Y-61046060D02*
X142663333Y-61122251D01*
X142663333Y-61122251D02*
X142739524Y-61160346D01*
X141558571Y-60931775D02*
X141939523Y-60931775D01*
X141939523Y-60931775D02*
X141977619Y-61312727D01*
X141977619Y-61312727D02*
X141939523Y-61274632D01*
X141939523Y-61274632D02*
X141863333Y-61236537D01*
X141863333Y-61236537D02*
X141672857Y-61236537D01*
X141672857Y-61236537D02*
X141596666Y-61274632D01*
X141596666Y-61274632D02*
X141558571Y-61312727D01*
X141558571Y-61312727D02*
X141520476Y-61388918D01*
X141520476Y-61388918D02*
X141520476Y-61579394D01*
X141520476Y-61579394D02*
X141558571Y-61655584D01*
X141558571Y-61655584D02*
X141596666Y-61693680D01*
X141596666Y-61693680D02*
X141672857Y-61731775D01*
X141672857Y-61731775D02*
X141863333Y-61731775D01*
X141863333Y-61731775D02*
X141939523Y-61693680D01*
X141939523Y-61693680D02*
X141977619Y-61655584D01*
X140014285Y-62181775D02*
X140280952Y-61800822D01*
X140471428Y-62181775D02*
X140471428Y-61381775D01*
X140471428Y-61381775D02*
X140166666Y-61381775D01*
X140166666Y-61381775D02*
X140090476Y-61419870D01*
X140090476Y-61419870D02*
X140052381Y-61457965D01*
X140052381Y-61457965D02*
X140014285Y-61534156D01*
X140014285Y-61534156D02*
X140014285Y-61648441D01*
X140014285Y-61648441D02*
X140052381Y-61724632D01*
X140052381Y-61724632D02*
X140090476Y-61762727D01*
X140090476Y-61762727D02*
X140166666Y-61800822D01*
X140166666Y-61800822D02*
X140471428Y-61800822D01*
X139252381Y-62181775D02*
X139709524Y-62181775D01*
X139480952Y-62181775D02*
X139480952Y-61381775D01*
X139480952Y-61381775D02*
X139557143Y-61496060D01*
X139557143Y-61496060D02*
X139633333Y-61572251D01*
X139633333Y-61572251D02*
X139709524Y-61610346D01*
X138490476Y-62181775D02*
X138947619Y-62181775D01*
X138719047Y-62181775D02*
X138719047Y-61381775D01*
X138719047Y-61381775D02*
X138795238Y-61496060D01*
X138795238Y-61496060D02*
X138871428Y-61572251D01*
X138871428Y-61572251D02*
X138947619Y-61610346D01*
X126065584Y-63676667D02*
X126103680Y-63638571D01*
X126103680Y-63638571D02*
X126141775Y-63524286D01*
X126141775Y-63524286D02*
X126141775Y-63448095D01*
X126141775Y-63448095D02*
X126103680Y-63333809D01*
X126103680Y-63333809D02*
X126027489Y-63257619D01*
X126027489Y-63257619D02*
X125951299Y-63219524D01*
X125951299Y-63219524D02*
X125798918Y-63181428D01*
X125798918Y-63181428D02*
X125684632Y-63181428D01*
X125684632Y-63181428D02*
X125532251Y-63219524D01*
X125532251Y-63219524D02*
X125456060Y-63257619D01*
X125456060Y-63257619D02*
X125379870Y-63333809D01*
X125379870Y-63333809D02*
X125341775Y-63448095D01*
X125341775Y-63448095D02*
X125341775Y-63524286D01*
X125341775Y-63524286D02*
X125379870Y-63638571D01*
X125379870Y-63638571D02*
X125417965Y-63676667D01*
X125341775Y-63943333D02*
X125341775Y-64438571D01*
X125341775Y-64438571D02*
X125646537Y-64171905D01*
X125646537Y-64171905D02*
X125646537Y-64286190D01*
X125646537Y-64286190D02*
X125684632Y-64362381D01*
X125684632Y-64362381D02*
X125722727Y-64400476D01*
X125722727Y-64400476D02*
X125798918Y-64438571D01*
X125798918Y-64438571D02*
X125989394Y-64438571D01*
X125989394Y-64438571D02*
X126065584Y-64400476D01*
X126065584Y-64400476D02*
X126103680Y-64362381D01*
X126103680Y-64362381D02*
X126141775Y-64286190D01*
X126141775Y-64286190D02*
X126141775Y-64057619D01*
X126141775Y-64057619D02*
X126103680Y-63981428D01*
X126103680Y-63981428D02*
X126065584Y-63943333D01*
X127211775Y-63486667D02*
X126830822Y-63220000D01*
X127211775Y-63029524D02*
X126411775Y-63029524D01*
X126411775Y-63029524D02*
X126411775Y-63334286D01*
X126411775Y-63334286D02*
X126449870Y-63410476D01*
X126449870Y-63410476D02*
X126487965Y-63448571D01*
X126487965Y-63448571D02*
X126564156Y-63486667D01*
X126564156Y-63486667D02*
X126678441Y-63486667D01*
X126678441Y-63486667D02*
X126754632Y-63448571D01*
X126754632Y-63448571D02*
X126792727Y-63410476D01*
X126792727Y-63410476D02*
X126830822Y-63334286D01*
X126830822Y-63334286D02*
X126830822Y-63029524D01*
X126487965Y-63791428D02*
X126449870Y-63829524D01*
X126449870Y-63829524D02*
X126411775Y-63905714D01*
X126411775Y-63905714D02*
X126411775Y-64096190D01*
X126411775Y-64096190D02*
X126449870Y-64172381D01*
X126449870Y-64172381D02*
X126487965Y-64210476D01*
X126487965Y-64210476D02*
X126564156Y-64248571D01*
X126564156Y-64248571D02*
X126640346Y-64248571D01*
X126640346Y-64248571D02*
X126754632Y-64210476D01*
X126754632Y-64210476D02*
X127211775Y-63753333D01*
X127211775Y-63753333D02*
X127211775Y-64248571D01*
X152693332Y-75331775D02*
X152959999Y-74950822D01*
X153150475Y-75331775D02*
X153150475Y-74531775D01*
X153150475Y-74531775D02*
X152845713Y-74531775D01*
X152845713Y-74531775D02*
X152769523Y-74569870D01*
X152769523Y-74569870D02*
X152731428Y-74607965D01*
X152731428Y-74607965D02*
X152693332Y-74684156D01*
X152693332Y-74684156D02*
X152693332Y-74798441D01*
X152693332Y-74798441D02*
X152731428Y-74874632D01*
X152731428Y-74874632D02*
X152769523Y-74912727D01*
X152769523Y-74912727D02*
X152845713Y-74950822D01*
X152845713Y-74950822D02*
X153150475Y-74950822D01*
X152426666Y-74531775D02*
X151931428Y-74531775D01*
X151931428Y-74531775D02*
X152198094Y-74836537D01*
X152198094Y-74836537D02*
X152083809Y-74836537D01*
X152083809Y-74836537D02*
X152007618Y-74874632D01*
X152007618Y-74874632D02*
X151969523Y-74912727D01*
X151969523Y-74912727D02*
X151931428Y-74988918D01*
X151931428Y-74988918D02*
X151931428Y-75179394D01*
X151931428Y-75179394D02*
X151969523Y-75255584D01*
X151969523Y-75255584D02*
X152007618Y-75293680D01*
X152007618Y-75293680D02*
X152083809Y-75331775D01*
X152083809Y-75331775D02*
X152312380Y-75331775D01*
X152312380Y-75331775D02*
X152388571Y-75293680D01*
X152388571Y-75293680D02*
X152426666Y-75255584D01*
X123895584Y-63466667D02*
X123933680Y-63428571D01*
X123933680Y-63428571D02*
X123971775Y-63314286D01*
X123971775Y-63314286D02*
X123971775Y-63238095D01*
X123971775Y-63238095D02*
X123933680Y-63123809D01*
X123933680Y-63123809D02*
X123857489Y-63047619D01*
X123857489Y-63047619D02*
X123781299Y-63009524D01*
X123781299Y-63009524D02*
X123628918Y-62971428D01*
X123628918Y-62971428D02*
X123514632Y-62971428D01*
X123514632Y-62971428D02*
X123362251Y-63009524D01*
X123362251Y-63009524D02*
X123286060Y-63047619D01*
X123286060Y-63047619D02*
X123209870Y-63123809D01*
X123209870Y-63123809D02*
X123171775Y-63238095D01*
X123171775Y-63238095D02*
X123171775Y-63314286D01*
X123171775Y-63314286D02*
X123209870Y-63428571D01*
X123209870Y-63428571D02*
X123247965Y-63466667D01*
X123438441Y-64152381D02*
X123971775Y-64152381D01*
X123133680Y-63961905D02*
X123705108Y-63771428D01*
X123705108Y-63771428D02*
X123705108Y-64266667D01*
X151030475Y-61701775D02*
X151030475Y-60901775D01*
X151030475Y-60901775D02*
X150839999Y-60901775D01*
X150839999Y-60901775D02*
X150725713Y-60939870D01*
X150725713Y-60939870D02*
X150649523Y-61016060D01*
X150649523Y-61016060D02*
X150611428Y-61092251D01*
X150611428Y-61092251D02*
X150573332Y-61244632D01*
X150573332Y-61244632D02*
X150573332Y-61358918D01*
X150573332Y-61358918D02*
X150611428Y-61511299D01*
X150611428Y-61511299D02*
X150649523Y-61587489D01*
X150649523Y-61587489D02*
X150725713Y-61663680D01*
X150725713Y-61663680D02*
X150839999Y-61701775D01*
X150839999Y-61701775D02*
X151030475Y-61701775D01*
X150306666Y-60901775D02*
X149811428Y-60901775D01*
X149811428Y-60901775D02*
X150078094Y-61206537D01*
X150078094Y-61206537D02*
X149963809Y-61206537D01*
X149963809Y-61206537D02*
X149887618Y-61244632D01*
X149887618Y-61244632D02*
X149849523Y-61282727D01*
X149849523Y-61282727D02*
X149811428Y-61358918D01*
X149811428Y-61358918D02*
X149811428Y-61549394D01*
X149811428Y-61549394D02*
X149849523Y-61625584D01*
X149849523Y-61625584D02*
X149887618Y-61663680D01*
X149887618Y-61663680D02*
X149963809Y-61701775D01*
X149963809Y-61701775D02*
X150192380Y-61701775D01*
X150192380Y-61701775D02*
X150268571Y-61663680D01*
X150268571Y-61663680D02*
X150306666Y-61625584D01*
X138609523Y-72696775D02*
X138609523Y-73344394D01*
X138609523Y-73344394D02*
X138571428Y-73420584D01*
X138571428Y-73420584D02*
X138533333Y-73458680D01*
X138533333Y-73458680D02*
X138457142Y-73496775D01*
X138457142Y-73496775D02*
X138304761Y-73496775D01*
X138304761Y-73496775D02*
X138228571Y-73458680D01*
X138228571Y-73458680D02*
X138190476Y-73420584D01*
X138190476Y-73420584D02*
X138152380Y-73344394D01*
X138152380Y-73344394D02*
X138152380Y-72696775D01*
X137847619Y-72696775D02*
X137352381Y-72696775D01*
X137352381Y-72696775D02*
X137619047Y-73001537D01*
X137619047Y-73001537D02*
X137504762Y-73001537D01*
X137504762Y-73001537D02*
X137428571Y-73039632D01*
X137428571Y-73039632D02*
X137390476Y-73077727D01*
X137390476Y-73077727D02*
X137352381Y-73153918D01*
X137352381Y-73153918D02*
X137352381Y-73344394D01*
X137352381Y-73344394D02*
X137390476Y-73420584D01*
X137390476Y-73420584D02*
X137428571Y-73458680D01*
X137428571Y-73458680D02*
X137504762Y-73496775D01*
X137504762Y-73496775D02*
X137733333Y-73496775D01*
X137733333Y-73496775D02*
X137809524Y-73458680D01*
X137809524Y-73458680D02*
X137847619Y-73420584D01*
X152605475Y-61691775D02*
X152605475Y-60891775D01*
X152605475Y-60891775D02*
X152414999Y-60891775D01*
X152414999Y-60891775D02*
X152300713Y-60929870D01*
X152300713Y-60929870D02*
X152224523Y-61006060D01*
X152224523Y-61006060D02*
X152186428Y-61082251D01*
X152186428Y-61082251D02*
X152148332Y-61234632D01*
X152148332Y-61234632D02*
X152148332Y-61348918D01*
X152148332Y-61348918D02*
X152186428Y-61501299D01*
X152186428Y-61501299D02*
X152224523Y-61577489D01*
X152224523Y-61577489D02*
X152300713Y-61653680D01*
X152300713Y-61653680D02*
X152414999Y-61691775D01*
X152414999Y-61691775D02*
X152605475Y-61691775D01*
X151843571Y-60967965D02*
X151805475Y-60929870D01*
X151805475Y-60929870D02*
X151729285Y-60891775D01*
X151729285Y-60891775D02*
X151538809Y-60891775D01*
X151538809Y-60891775D02*
X151462618Y-60929870D01*
X151462618Y-60929870D02*
X151424523Y-60967965D01*
X151424523Y-60967965D02*
X151386428Y-61044156D01*
X151386428Y-61044156D02*
X151386428Y-61120346D01*
X151386428Y-61120346D02*
X151424523Y-61234632D01*
X151424523Y-61234632D02*
X151881666Y-61691775D01*
X151881666Y-61691775D02*
X151386428Y-61691775D01*
X156295584Y-73945714D02*
X156333680Y-73907618D01*
X156333680Y-73907618D02*
X156371775Y-73793333D01*
X156371775Y-73793333D02*
X156371775Y-73717142D01*
X156371775Y-73717142D02*
X156333680Y-73602856D01*
X156333680Y-73602856D02*
X156257489Y-73526666D01*
X156257489Y-73526666D02*
X156181299Y-73488571D01*
X156181299Y-73488571D02*
X156028918Y-73450475D01*
X156028918Y-73450475D02*
X155914632Y-73450475D01*
X155914632Y-73450475D02*
X155762251Y-73488571D01*
X155762251Y-73488571D02*
X155686060Y-73526666D01*
X155686060Y-73526666D02*
X155609870Y-73602856D01*
X155609870Y-73602856D02*
X155571775Y-73717142D01*
X155571775Y-73717142D02*
X155571775Y-73793333D01*
X155571775Y-73793333D02*
X155609870Y-73907618D01*
X155609870Y-73907618D02*
X155647965Y-73945714D01*
X156371775Y-74707618D02*
X156371775Y-74250475D01*
X156371775Y-74479047D02*
X155571775Y-74479047D01*
X155571775Y-74479047D02*
X155686060Y-74402856D01*
X155686060Y-74402856D02*
X155762251Y-74326666D01*
X155762251Y-74326666D02*
X155800346Y-74250475D01*
X155571775Y-75202857D02*
X155571775Y-75279047D01*
X155571775Y-75279047D02*
X155609870Y-75355238D01*
X155609870Y-75355238D02*
X155647965Y-75393333D01*
X155647965Y-75393333D02*
X155724156Y-75431428D01*
X155724156Y-75431428D02*
X155876537Y-75469523D01*
X155876537Y-75469523D02*
X156067013Y-75469523D01*
X156067013Y-75469523D02*
X156219394Y-75431428D01*
X156219394Y-75431428D02*
X156295584Y-75393333D01*
X156295584Y-75393333D02*
X156333680Y-75355238D01*
X156333680Y-75355238D02*
X156371775Y-75279047D01*
X156371775Y-75279047D02*
X156371775Y-75202857D01*
X156371775Y-75202857D02*
X156333680Y-75126666D01*
X156333680Y-75126666D02*
X156295584Y-75088571D01*
X156295584Y-75088571D02*
X156219394Y-75050476D01*
X156219394Y-75050476D02*
X156067013Y-75012380D01*
X156067013Y-75012380D02*
X155876537Y-75012380D01*
X155876537Y-75012380D02*
X155724156Y-75050476D01*
X155724156Y-75050476D02*
X155647965Y-75088571D01*
X155647965Y-75088571D02*
X155609870Y-75126666D01*
X155609870Y-75126666D02*
X155571775Y-75202857D01*
X141395584Y-65125714D02*
X141433680Y-65087618D01*
X141433680Y-65087618D02*
X141471775Y-64973333D01*
X141471775Y-64973333D02*
X141471775Y-64897142D01*
X141471775Y-64897142D02*
X141433680Y-64782856D01*
X141433680Y-64782856D02*
X141357489Y-64706666D01*
X141357489Y-64706666D02*
X141281299Y-64668571D01*
X141281299Y-64668571D02*
X141128918Y-64630475D01*
X141128918Y-64630475D02*
X141014632Y-64630475D01*
X141014632Y-64630475D02*
X140862251Y-64668571D01*
X140862251Y-64668571D02*
X140786060Y-64706666D01*
X140786060Y-64706666D02*
X140709870Y-64782856D01*
X140709870Y-64782856D02*
X140671775Y-64897142D01*
X140671775Y-64897142D02*
X140671775Y-64973333D01*
X140671775Y-64973333D02*
X140709870Y-65087618D01*
X140709870Y-65087618D02*
X140747965Y-65125714D01*
X141471775Y-65887618D02*
X141471775Y-65430475D01*
X141471775Y-65659047D02*
X140671775Y-65659047D01*
X140671775Y-65659047D02*
X140786060Y-65582856D01*
X140786060Y-65582856D02*
X140862251Y-65506666D01*
X140862251Y-65506666D02*
X140900346Y-65430475D01*
X140938441Y-66573333D02*
X141471775Y-66573333D01*
X140633680Y-66382857D02*
X141205108Y-66192380D01*
X141205108Y-66192380D02*
X141205108Y-66687619D01*
%TO.C,SW1*%
D12*
X141650000Y-64450000D02*
X142300000Y-64450000D01*
X141700000Y-70550000D02*
X141650000Y-64450000D01*
D13*
X142300000Y-64450000D02*
X142299999Y-64450000D01*
X142299999Y-64450000D01*
X142299999Y-64450000D01*
X142299999Y-64450000D01*
X142299999Y-64450000D01*
X142299999Y-64450000D01*
X142299999Y-64450000D01*
X142299999Y-64449999D01*
X142299999Y-64449999D01*
X142299999Y-64449999D01*
X142299999Y-64449999D01*
X142299999Y-64449999D01*
X142300000Y-64449999D01*
X142300000Y-64449999D01*
X142300000Y-64449999D01*
X142300000Y-64449999D01*
X142300000Y-64449999D01*
X142300000Y-64449999D01*
X142300000Y-64449999D01*
X142300000Y-64449999D01*
X142300000Y-64449999D01*
X142300000Y-64449999D01*
X142300000Y-64449999D01*
X142300000Y-64449999D01*
X142300001Y-64449999D01*
X142300001Y-64449999D01*
X142300001Y-64449999D01*
X142300001Y-64449999D01*
X142300001Y-64449999D01*
X142300001Y-64449999D01*
X142300001Y-64450000D01*
X142300001Y-64450000D01*
X142300001Y-64450000D01*
X142300001Y-64450000D01*
X142300001Y-64450000D01*
X142300001Y-64450000D01*
X142300001Y-64450000D01*
X142300000Y-64450000D01*
X142300000Y-64450000D02*
X142300001Y-64450000D01*
X142300001Y-64450000D01*
X142300001Y-64450000D01*
X142300001Y-64450000D01*
X142300001Y-64450000D01*
X142300001Y-64450000D01*
X142300001Y-64450001D01*
X142300001Y-64450001D01*
X142300001Y-64450001D01*
X142300001Y-64450001D01*
X142300001Y-64450001D01*
X142300001Y-64450001D01*
X142300001Y-64450001D01*
X142300000Y-64450001D01*
X142300000Y-64450001D01*
X142300000Y-64450001D01*
X142300000Y-64450001D01*
X142300000Y-64450001D01*
X142300000Y-64450001D01*
X142300000Y-64450001D01*
X142300000Y-64450001D01*
X142300000Y-64450001D01*
X142300000Y-64450001D01*
X142300000Y-64450001D01*
X142300000Y-64450001D01*
X142299999Y-64450001D01*
X142299999Y-64450001D01*
X142299999Y-64450001D01*
X142299999Y-64450001D01*
X142299999Y-64450001D01*
X142299999Y-64450001D01*
X142299999Y-64450000D01*
X142299999Y-64450000D01*
X142299999Y-64450000D01*
X142299999Y-64450000D01*
X142299999Y-64450000D01*
X142299999Y-64450000D01*
X142300000Y-64450000D01*
D12*
X142300000Y-70550000D02*
X141700000Y-70550000D01*
D13*
X143300000Y-73000000D02*
X143299999Y-73000000D01*
X143299999Y-73000000D01*
X143299999Y-73000000D01*
X143299999Y-73000000D01*
X143299999Y-73000000D01*
X143299999Y-73000000D01*
X143299999Y-73000000D01*
X143299999Y-72999999D01*
X143299999Y-72999999D01*
X143299999Y-72999999D01*
X143299999Y-72999999D01*
X143299999Y-72999999D01*
X143300000Y-72999999D01*
X143300000Y-72999999D01*
X143300000Y-72999999D01*
X143300000Y-72999999D01*
X143300000Y-72999999D01*
X143300000Y-72999999D01*
X143300000Y-72999999D01*
X143300000Y-72999999D01*
X143300000Y-72999999D01*
X143300000Y-72999999D01*
X143300000Y-72999999D01*
X143300000Y-72999999D01*
X143300001Y-72999999D01*
X143300001Y-72999999D01*
X143300001Y-72999999D01*
X143300001Y-72999999D01*
X143300001Y-72999999D01*
X143300001Y-72999999D01*
X143300001Y-73000000D01*
X143300001Y-73000000D01*
X143300001Y-73000000D01*
X143300001Y-73000000D01*
X143300001Y-73000000D01*
X143300001Y-73000000D01*
X143300001Y-73000000D01*
X143300000Y-73000000D01*
X143300000Y-73000000D02*
X143300001Y-73000000D01*
X143300001Y-73000000D01*
X143300001Y-73000000D01*
X143300001Y-73000000D01*
X143300001Y-73000000D01*
X143300001Y-73000000D01*
X143300001Y-73000001D01*
X143300001Y-73000001D01*
X143300001Y-73000001D01*
X143300001Y-73000001D01*
X143300001Y-73000001D01*
X143300001Y-73000001D01*
X143300001Y-73000001D01*
X143300000Y-73000001D01*
X143300000Y-73000001D01*
X143300000Y-73000001D01*
X143300000Y-73000001D01*
X143300000Y-73000001D01*
X143300000Y-73000001D01*
X143300000Y-73000001D01*
X143300000Y-73000001D01*
X143300000Y-73000001D01*
X143300000Y-73000001D01*
X143300000Y-73000001D01*
X143300000Y-73000001D01*
X143299999Y-73000001D01*
X143299999Y-73000001D01*
X143299999Y-73000001D01*
X143299999Y-73000001D01*
X143299999Y-73000001D01*
X143299999Y-73000001D01*
X143299999Y-73000000D01*
X143299999Y-73000000D01*
X143299999Y-73000000D01*
X143299999Y-73000000D01*
X143299999Y-73000000D01*
X143299999Y-73000000D01*
X143300000Y-73000000D01*
D12*
D13*
X143300000Y-73100000D02*
X143299999Y-73100000D01*
X143299999Y-73100000D01*
X143299999Y-73100000D01*
X143299999Y-73100000D01*
X143299999Y-73100000D01*
X143299999Y-73100000D01*
X143299999Y-73100000D01*
X143299999Y-73099999D01*
X143299999Y-73099999D01*
X143299999Y-73099999D01*
X143299999Y-73099999D01*
X143299999Y-73099999D01*
X143300000Y-73099999D01*
X143300000Y-73099999D01*
X143300000Y-73099999D01*
X143300000Y-73099999D01*
X143300000Y-73099999D01*
X143300000Y-73099999D01*
X143300000Y-73099999D01*
X143300000Y-73099999D01*
X143300000Y-73099999D01*
X143300000Y-73099999D01*
X143300000Y-73099999D01*
X143300000Y-73099999D01*
X143300001Y-73099999D01*
X143300001Y-73099999D01*
X143300001Y-73099999D01*
X143300001Y-73099999D01*
X143300001Y-73099999D01*
X143300001Y-73099999D01*
X143300001Y-73100000D01*
X143300001Y-73100000D01*
X143300001Y-73100000D01*
X143300001Y-73100000D01*
X143300001Y-73100000D01*
X143300001Y-73100000D01*
X143300001Y-73100000D01*
X143300000Y-73100000D01*
X143300000Y-73100000D02*
X143300001Y-73100000D01*
X143300001Y-73100000D01*
X143300001Y-73100000D01*
X143300001Y-73100000D01*
X143300001Y-73100000D01*
X143300001Y-73100000D01*
X143300001Y-73100001D01*
X143300001Y-73100001D01*
X143300001Y-73100001D01*
X143300001Y-73100001D01*
X143300001Y-73100001D01*
X143300001Y-73100001D01*
X143300001Y-73100001D01*
X143300000Y-73100001D01*
X143300000Y-73100001D01*
X143300000Y-73100001D01*
X143300000Y-73100001D01*
X143300000Y-73100001D01*
X143300000Y-73100001D01*
X143300000Y-73100001D01*
X143300000Y-73100001D01*
X143300000Y-73100001D01*
X143300000Y-73100001D01*
X143300000Y-73100001D01*
X143300000Y-73100001D01*
X143299999Y-73100001D01*
X143299999Y-73100001D01*
X143299999Y-73100001D01*
X143299999Y-73100001D01*
X143299999Y-73100001D01*
X143299999Y-73100001D01*
X143299999Y-73100000D01*
X143299999Y-73100000D01*
X143299999Y-73100000D01*
X143299999Y-73100000D01*
X143299999Y-73100000D01*
X143299999Y-73100000D01*
X143300000Y-73100000D01*
D12*
X144700000Y-70550000D02*
X145350000Y-70550000D01*
X145350000Y-64450000D02*
X144700000Y-64450000D01*
X145350000Y-70550000D02*
X145350000Y-64450000D01*
X143300000Y-73000000D02*
G75*
G02*
X143300000Y-73100000I0J-50000D01*
G01*
X143300000Y-73100000D02*
G75*
G02*
X143300000Y-73000000I0J50000D01*
G01*
%TO.C,C9*%
D14*
X147742164Y-64540000D02*
X147957836Y-64540000D01*
X147742164Y-65260000D02*
X147957836Y-65260000D01*
%TO.C,C2*%
X123850000Y-65177836D02*
X123850000Y-64962164D01*
X124570000Y-65177836D02*
X124570000Y-64962164D01*
%TO.C,U1*%
D15*
X105962100Y-61269000D02*
X105962100Y-74731000D01*
X105962100Y-74731000D02*
X122827700Y-74731000D01*
X122827700Y-61269000D02*
X105962100Y-61269000D01*
X122827700Y-74731000D02*
X122827700Y-61269000D01*
%TO.C,U2*%
D14*
X146090000Y-68040000D02*
X146090000Y-71800000D01*
X146090000Y-71800000D02*
X147350000Y-71800000D01*
X152910000Y-68040000D02*
X152910000Y-71800000D01*
X152910000Y-71800000D02*
X151650000Y-71800000D01*
X146190000Y-66760000D02*
X145860000Y-67000000D01*
X145860000Y-66520000D01*
X146190000Y-66760000D01*
G36*
X146190000Y-66760000D02*
G01*
X145860000Y-67000000D01*
X145860000Y-66520000D01*
X146190000Y-66760000D01*
G37*
%TO.C,C8*%
X147180000Y-63547836D02*
X147180000Y-63332164D01*
X147900000Y-63547836D02*
X147900000Y-63332164D01*
%TO.C,C15*%
X140600000Y-63627836D02*
X140600000Y-63412164D01*
X141320000Y-63627836D02*
X141320000Y-63412164D01*
%TO.C,R11*%
X138380000Y-63733641D02*
X138380000Y-63426359D01*
X139140000Y-63733641D02*
X139140000Y-63426359D01*
%TO.C,C3*%
X123350000Y-61967836D02*
X123350000Y-61752164D01*
X124070000Y-61967836D02*
X124070000Y-61752164D01*
%TO.C,R2*%
X125360000Y-61736359D02*
X125360000Y-62043641D01*
X126120000Y-61736359D02*
X126120000Y-62043641D01*
%TO.C,R3*%
X153310000Y-74573641D02*
X153310000Y-74266359D01*
X154070000Y-74573641D02*
X154070000Y-74266359D01*
%TO.C,C4*%
X124380000Y-61772164D02*
X124380000Y-61987836D01*
X125100000Y-61772164D02*
X125100000Y-61987836D01*
%TO.C,D3*%
D12*
X153172500Y-63610000D02*
G75*
G02*
X153072500Y-63610000I-50000J0D01*
G01*
X153072500Y-63610000D02*
G75*
G02*
X153172500Y-63610000I50000J0D01*
G01*
%TO.C,U3*%
D14*
X132140000Y-67750000D02*
X132140000Y-67845000D01*
X132140000Y-72775000D02*
X132140000Y-72870000D01*
X132140000Y-72870000D02*
X136260000Y-72870000D01*
X136260000Y-67750000D02*
X132140000Y-67750000D01*
X136260000Y-67845000D02*
X136260000Y-67750000D01*
X136260000Y-72870000D02*
X136260000Y-72775000D01*
X136800000Y-67840000D02*
X136560000Y-67510000D01*
X137040000Y-67510000D01*
X136800000Y-67840000D01*
G36*
X136800000Y-67840000D02*
G01*
X136560000Y-67510000D01*
X137040000Y-67510000D01*
X136800000Y-67840000D01*
G37*
%TO.C,D2*%
D12*
X153155000Y-62500000D02*
G75*
G02*
X153055000Y-62500000I-50000J0D01*
G01*
X153055000Y-62500000D02*
G75*
G02*
X153155000Y-62500000I50000J0D01*
G01*
%TO.C,C10*%
D14*
X154490000Y-74567836D02*
X154490000Y-74352164D01*
X155210000Y-74567836D02*
X155210000Y-74352164D01*
%TO.C,C14*%
X139470000Y-63677836D02*
X139470000Y-63462164D01*
X140190000Y-63677836D02*
X140190000Y-63462164D01*
%TD*%
M02*
