%TF.GenerationSoftware,KiCad,Pcbnew,10.0.1*%
%TF.CreationDate,2026-08-26T11:50:51+01:00*%
%TF.ProjectId,Clinical_Thermometer,436c696e-6963-4616-9c5f-546865726d6f,rev?*%
%TF.SameCoordinates,Original*%
%TF.FileFunction,Copper,L1,Top*%
%TF.FilePolarity,Positive*%
%FSLAX46Y46*%
G04 Gerber Fmt 4.6, Leading zero omitted, Abs format (unit mm)*
G04 Created by KiCad (PCBNEW 10.0.1) date 2026-08-26 11:50:51*
%MOMM*%
%LPD*%
G01*
G04 APERTURE LIST*
G04 Aperture macros list*
%AMRoundRect*
0 Rectangle with rounded corners*
0 $1 Rounding radius*
0 $2 $3 $4 $5 $6 $7 $8 $9 X,Y pos of 4 corners*
0 Add a 4 corners polygon primitive as box body*
4,1,4,$2,$3,$4,$5,$6,$7,$8,$9,$2,$3,0*
0 Add four circle primitives for the rounded corners*
1,1,$1+$1,$2,$3*
1,1,$1+$1,$4,$5*
1,1,$1+$1,$6,$7*
1,1,$1+$1,$8,$9*
0 Add four rect primitives between the rounded corners*
20,1,$1+$1,$2,$3,$4,$5,0*
20,1,$1+$1,$4,$5,$6,$7,0*
20,1,$1+$1,$6,$7,$8,$9,0*
20,1,$1+$1,$8,$9,$2,$3,0*%
G04 Aperture macros list end*
%TA.AperFunction,SMDPad,CuDef*%
%ADD10RoundRect,0.150000X0.150000X-0.512500X0.150000X0.512500X-0.150000X0.512500X-0.150000X-0.512500X0*%
%TD*%
%TA.AperFunction,SMDPad,CuDef*%
%ADD11R,2.500000X2.500000*%
%TD*%
%TA.AperFunction,SMDPad,CuDef*%
%ADD12RoundRect,0.140000X0.140000X0.170000X-0.140000X0.170000X-0.140000X-0.170000X0.140000X-0.170000X0*%
%TD*%
%TA.AperFunction,SMDPad,CuDef*%
%ADD13RoundRect,0.140000X-0.170000X0.140000X-0.170000X-0.140000X0.170000X-0.140000X0.170000X0.140000X0*%
%TD*%
%TA.AperFunction,SMDPad,CuDef*%
%ADD14RoundRect,0.090000X-0.360000X0.660000X-0.360000X-0.660000X0.360000X-0.660000X0.360000X0.660000X0*%
%TD*%
%TA.AperFunction,SMDPad,CuDef*%
%ADD15RoundRect,0.135000X-0.185000X0.135000X-0.185000X-0.135000X0.185000X-0.135000X0.185000X0.135000X0*%
%TD*%
%TA.AperFunction,SMDPad,CuDef*%
%ADD16RoundRect,0.140000X0.170000X-0.140000X0.170000X0.140000X-0.170000X0.140000X-0.170000X-0.140000X0*%
%TD*%
%TA.AperFunction,SMDPad,CuDef*%
%ADD17RoundRect,0.147500X0.147500X0.172500X-0.147500X0.172500X-0.147500X-0.172500X0.147500X-0.172500X0*%
%TD*%
%TA.AperFunction,SMDPad,CuDef*%
%ADD18RoundRect,0.135000X-0.135000X-0.185000X0.135000X-0.185000X0.135000X0.185000X-0.135000X0.185000X0*%
%TD*%
%TA.AperFunction,SMDPad,CuDef*%
%ADD19R,2.100000X2.400000*%
%TD*%
%TA.AperFunction,SMDPad,CuDef*%
%ADD20RoundRect,0.135000X0.185000X-0.135000X0.185000X0.135000X-0.185000X0.135000X-0.185000X-0.135000X0*%
%TD*%
%TA.AperFunction,SMDPad,CuDef*%
%ADD21R,1.550000X0.600000*%
%TD*%
%TA.AperFunction,SMDPad,CuDef*%
%ADD22R,1.800000X1.200000*%
%TD*%
%TA.AperFunction,SMDPad,CuDef*%
%ADD23RoundRect,0.135000X0.135000X0.185000X-0.135000X0.185000X-0.135000X-0.185000X0.135000X-0.185000X0*%
%TD*%
%TA.AperFunction,ComponentPad*%
%ADD24RoundRect,0.170000X-0.680000X0.680000X-0.680000X-0.680000X0.680000X-0.680000X0.680000X0.680000X0*%
%TD*%
%TA.AperFunction,ComponentPad*%
%ADD25C,1.700000*%
%TD*%
%TA.AperFunction,SMDPad,CuDef*%
%ADD26R,1.050000X1.500000*%
%TD*%
%TA.AperFunction,SMDPad,CuDef*%
%ADD27O,1.050000X1.500000*%
%TD*%
%TA.AperFunction,SMDPad,CuDef*%
%ADD28RoundRect,0.147500X0.172500X-0.147500X0.172500X0.147500X-0.172500X0.147500X-0.172500X-0.147500X0*%
%TD*%
%TA.AperFunction,SMDPad,CuDef*%
%ADD29RoundRect,0.147500X-0.147500X-0.172500X0.147500X-0.172500X0.147500X0.172500X-0.147500X0.172500X0*%
%TD*%
%TA.AperFunction,ComponentPad*%
%ADD30C,0.650000*%
%TD*%
%TA.AperFunction,ComponentPad*%
%ADD31O,1.800000X1.000000*%
%TD*%
%TA.AperFunction,SMDPad,CuDef*%
%ADD32R,1.150000X0.600000*%
%TD*%
%TA.AperFunction,SMDPad,CuDef*%
%ADD33R,1.150000X0.300000*%
%TD*%
%TA.AperFunction,HeatsinkPad*%
%ADD34C,0.500000*%
%TD*%
%TA.AperFunction,HeatsinkPad*%
%ADD35R,1.900000X2.900000*%
%TD*%
%TA.AperFunction,ViaPad*%
%ADD36C,0.600000*%
%TD*%
%TA.AperFunction,ViaPad*%
%ADD37C,0.800000*%
%TD*%
%TA.AperFunction,Conductor*%
%ADD38C,0.500000*%
%TD*%
%TA.AperFunction,Conductor*%
%ADD39C,0.200000*%
%TD*%
%TA.AperFunction,Conductor*%
%ADD40C,0.300000*%
%TD*%
%TA.AperFunction,Conductor*%
%ADD41C,0.375000*%
%TD*%
%TA.AperFunction,Conductor*%
%ADD42C,0.600000*%
%TD*%
%TA.AperFunction,Conductor*%
%ADD43C,0.187400*%
%TD*%
%TA.AperFunction,Conductor*%
%ADD44C,0.250000*%
%TD*%
%TA.AperFunction,Conductor*%
%ADD45C,0.560800*%
%TD*%
%TA.AperFunction,Conductor*%
%ADD46C,0.225000*%
%TD*%
G04 APERTURE END LIST*
D10*
%TO.P,U6,1,Q_1*%
%TO.N,TOUCH_IN*%
X126610000Y-66627500D03*
%TO.P,U6,2,VSS_2*%
%TO.N,GND*%
X127560000Y-66627500D03*
%TO.P,U6,3,I_3*%
%TO.N,Net-(U6-I)*%
X128510000Y-66627500D03*
%TO.P,U6,4,AHLB_4*%
%TO.N,GND*%
X128510000Y-64352500D03*
%TO.P,U6,5,VDD_5*%
%TO.N,+3.3V*%
X127560000Y-64352500D03*
%TO.P,U6,6,TOG_6*%
%TO.N,GND*%
X126610000Y-64352500D03*
%TD*%
D11*
%TO.P,TP1,1,1_1*%
%TO.N,Net-(U6-I)*%
X129030000Y-72640000D03*
%TD*%
D12*
%TO.P,C18,1*%
%TO.N,+3.3V*%
X127720000Y-62790000D03*
%TO.P,C18,2*%
%TO.N,GND*%
X126760000Y-62790000D03*
%TD*%
%TO.P,C17,1*%
%TO.N,+3.3V*%
X127680000Y-61720000D03*
%TO.P,C17,2*%
%TO.N,GND*%
X126720000Y-61720000D03*
%TD*%
D13*
%TO.P,C16,1*%
%TO.N,GND*%
X130010000Y-65240000D03*
%TO.P,C16,2*%
%TO.N,Net-(U6-I)*%
X130010000Y-66200000D03*
%TD*%
D14*
%TO.P,D1,1,VDD_1*%
%TO.N,LDO_IN*%
X167410000Y-69120000D03*
%TO.P,D1,2,DOUT_2*%
%TO.N,unconnected-(D1-DOUT-Pad2)*%
X164110000Y-69120000D03*
%TO.P,D1,3,VSS_3*%
%TO.N,GND*%
X164110000Y-74020000D03*
%TO.P,D1,4,DIN_4*%
%TO.N,LED_DIN*%
X167410000Y-74020000D03*
%TD*%
D15*
%TO.P,R7,1*%
%TO.N,I2C_SCL*%
X157610000Y-71320000D03*
%TO.P,R7,2*%
%TO.N,+3.3V*%
X157610000Y-72340000D03*
%TD*%
D16*
%TO.P,C5,1*%
%TO.N,VBUS_5V*%
X169440000Y-64890000D03*
%TO.P,C5,2*%
%TO.N,GND*%
X169440000Y-63930000D03*
%TD*%
D12*
%TO.P,C12,1*%
%TO.N,+3.3V*%
X124170000Y-68350000D03*
%TO.P,C12,2*%
%TO.N,GND*%
X123210000Y-68350000D03*
%TD*%
%TO.P,C7,1*%
%TO.N,GND*%
X163300000Y-63080000D03*
%TO.P,C7,2*%
%TO.N,Net-(SW2-B)*%
X162340000Y-63080000D03*
%TD*%
D17*
%TO.P,D7,1,K_1*%
%TO.N,Net-(D7-K)*%
X175985000Y-73500000D03*
%TO.P,D7,2,A_2*%
%TO.N,Net-(D7-A)*%
X175015000Y-73500000D03*
%TD*%
D18*
%TO.P,R4,1*%
%TO.N,VBUS_5V*%
X174990000Y-74500000D03*
%TO.P,R4,2*%
%TO.N,Net-(D7-K)*%
X176010000Y-74500000D03*
%TD*%
D19*
%TO.P,SW2,1,A_1*%
%TO.N,unconnected-(SW2-A-Pad1)*%
X160560000Y-69570000D03*
%TO.P,SW2,2,B_2*%
%TO.N,Net-(SW2-B)*%
X160560000Y-62970000D03*
%TD*%
D16*
%TO.P,C6,1*%
%TO.N,VBUS_5V*%
X170940000Y-65010000D03*
%TO.P,C6,2*%
%TO.N,GND*%
X170940000Y-64050000D03*
%TD*%
D20*
%TO.P,R8,1*%
%TO.N,+3.3V*%
X157650000Y-74680000D03*
%TO.P,R8,2*%
%TO.N,I2C_SDA*%
X157650000Y-73660000D03*
%TD*%
D21*
%TO.P,J1,1,1_1*%
%TO.N,VBAT*%
X164885000Y-63850000D03*
%TO.P,J1,2,2_2*%
%TO.N,GND*%
X164885000Y-64850000D03*
D22*
%TO.P,J1,S1,SHIELD_S1*%
X167410000Y-62550000D03*
%TO.P,J1,S2,SHIELD_S2*%
X167410000Y-66150000D03*
%TD*%
D23*
%TO.P,R10,1*%
%TO.N,+3.3V*%
X163420000Y-61980000D03*
%TO.P,R10,2*%
%TO.N,Net-(SW2-B)*%
X162400000Y-61980000D03*
%TD*%
D16*
%TO.P,C11,1*%
%TO.N,+3.3V*%
X157800000Y-65610000D03*
%TO.P,C11,2*%
%TO.N,GND*%
X157800000Y-64650000D03*
%TD*%
D24*
%TO.P,U4,1,GND_1*%
%TO.N,GND*%
X155000000Y-64460000D03*
D25*
%TO.P,U4,2,VCC_2*%
%TO.N,+3.3V*%
X155000000Y-67000000D03*
%TO.P,U4,3,SCL_3*%
%TO.N,I2C_SCL*%
X155000000Y-69540000D03*
%TO.P,U4,4,SDA_4*%
%TO.N,I2C_SDA*%
X155000000Y-72080000D03*
%TD*%
D26*
%TO.P,U5,1,GND_1*%
%TO.N,GND*%
X123180000Y-72850000D03*
D27*
%TO.P,U5,2,DQ_2*%
%TO.N,TEMP_DQ*%
X124450000Y-72850000D03*
%TO.P,U5,3,V_{DD}_3*%
%TO.N,+3.3V*%
X125720000Y-72850000D03*
%TD*%
D13*
%TO.P,C13,1*%
%TO.N,GND*%
X160880000Y-72930000D03*
%TO.P,C13,2*%
%TO.N,LDO_IN*%
X160880000Y-73890000D03*
%TD*%
D28*
%TO.P,D5,1,K_1*%
%TO.N,Net-(D5-K)*%
X119690000Y-73565000D03*
%TO.P,D5,2,A_2*%
%TO.N,GND*%
X119690000Y-72595000D03*
%TD*%
D20*
%TO.P,R6,1*%
%TO.N,Net-(D5-K)*%
X120860000Y-73570000D03*
%TO.P,R6,2*%
%TO.N,+3.3V*%
X120860000Y-72550000D03*
%TD*%
D18*
%TO.P,R5,1*%
%TO.N,Net-(D4-K)*%
X172505000Y-74560000D03*
%TO.P,R5,2*%
%TO.N,VBUS_5V*%
X173525000Y-74560000D03*
%TD*%
D23*
%TO.P,R9,1*%
%TO.N,+3.3V*%
X124370000Y-69410000D03*
%TO.P,R9,2*%
%TO.N,TEMP_DQ*%
X123350000Y-69410000D03*
%TD*%
D29*
%TO.P,D4,1,K_1*%
%TO.N,Net-(D4-K)*%
X172530000Y-73560000D03*
%TO.P,D4,2,A_2*%
%TO.N,Net-(D4-A)*%
X173500000Y-73560000D03*
%TD*%
D30*
%TO.P,USB1,*%
%TO.N,*%
X173685000Y-70860000D03*
X173685000Y-65080000D03*
D31*
%TO.P,USB1,13,GND_13*%
%TO.N,GND*%
X173185000Y-72290000D03*
%TO.P,USB1,14,GND_14*%
X173185000Y-63650000D03*
%TO.P,USB1,15,GND_15*%
X177385000Y-72290000D03*
%TO.P,USB1,16,GND_16*%
X177385000Y-63650000D03*
D32*
%TO.P,USB1,A1B12,GND_A1B12*%
X172425000Y-71170000D03*
%TO.P,USB1,A4B9,VBUS_A4B9*%
%TO.N,VBUS_5V*%
X172425000Y-70370000D03*
D33*
%TO.P,USB1,A5,CC1_A5*%
%TO.N,unconnected-(USB1-CC1-PadA5)*%
X172425000Y-69220000D03*
%TO.P,USB1,A6,DP1_A6*%
%TO.N,USB_DP*%
X172425000Y-68220000D03*
%TO.P,USB1,A7,DN1_A7*%
%TO.N,USB_DN*%
X172425000Y-67720000D03*
%TO.P,USB1,A8,SBU1_A8*%
%TO.N,unconnected-(USB1-SBU1-PadA8)*%
X172425000Y-66720000D03*
D32*
%TO.P,USB1,B1A12,GND_B1A12*%
%TO.N,GND*%
X172425000Y-64770000D03*
%TO.P,USB1,B4A9,VBUS_B4A9*%
%TO.N,VBUS_5V*%
X172425000Y-65570000D03*
D33*
%TO.P,USB1,B5,CC2_B5*%
%TO.N,unconnected-(USB1-CC2-PadB5)*%
X172425000Y-66220000D03*
%TO.P,USB1,B6,DP2_B6*%
%TO.N,USB_DP*%
X172425000Y-67220000D03*
%TO.P,USB1,B7,DN2_B7*%
%TO.N,USB_DN*%
X172425000Y-68720000D03*
%TO.P,USB1,B8,SBU2_B8*%
%TO.N,unconnected-(USB1-SBU2-PadB8)*%
X172425000Y-69720000D03*
%TD*%
D34*
%TO.P,U3,9,EPAD_9*%
%TO.N,GND*%
X134900000Y-71510000D03*
X134900000Y-70310000D03*
X134900000Y-69110000D03*
D35*
X134200000Y-70310000D03*
D34*
X133500000Y-71510000D03*
X133500000Y-70310000D03*
X133500000Y-69110000D03*
%TD*%
D36*
%TO.N,TOUCH_IN*%
X126440000Y-68000000D03*
X121238200Y-67586753D03*
%TO.N,LDO_IN*%
X157100000Y-69360000D03*
%TO.N,GND*%
X119340000Y-75010000D03*
X122015000Y-64785000D03*
X123430000Y-62670000D03*
D37*
X119356000Y-63462100D03*
D36*
X119075000Y-69975000D03*
D37*
X165693200Y-74259800D03*
X165804300Y-66056000D03*
X120696000Y-69100000D03*
D36*
X119075000Y-66025000D03*
X122035000Y-62065000D03*
%TO.N,LED_DIN*%
X119082000Y-64497600D03*
X163132900Y-71918700D03*
%TO.N,I2C_SCL*%
X125580000Y-66281600D03*
D37*
%TO.N,+3.3V*%
X150819000Y-69332500D03*
X135996000Y-61956000D03*
D36*
%TO.N,VBUS_5V*%
X169060000Y-65650000D03*
X146695001Y-62115001D03*
D37*
X170318000Y-67035700D03*
D36*
X139764000Y-69770000D03*
X173630000Y-74560000D03*
X169880000Y-72120000D03*
%TO.N,Net-(SW2-B)*%
X123010000Y-66770000D03*
X158845000Y-63415000D03*
%TO.N,Net-(D7-A)*%
X176472000Y-71464300D03*
X129050000Y-70730000D03*
%TO.N,I2C_SDA*%
X118970000Y-72417500D03*
%TO.N,VBAT*%
X166220000Y-63730000D03*
D37*
X131160000Y-73530000D03*
X162678000Y-66780300D03*
X153351000Y-66780300D03*
D36*
%TO.N,TEMP_DQ*%
X120908000Y-69971833D03*
X118124000Y-64328000D03*
%TO.N,Net-(D4-A)*%
X177220000Y-71189300D03*
X128926000Y-70010900D03*
%TO.N,USB_DP*%
X117965000Y-72190000D03*
X174738000Y-66820700D03*
%TO.N,USB_DN*%
X174544000Y-69235700D03*
X119808000Y-71586400D03*
%TO.N,CHIP_EN*%
X120696000Y-64385700D03*
%TO.N,Net-(U3-PROG)*%
X151910000Y-73743100D03*
X139043000Y-71807400D03*
%TD*%
%TO.N,GND*%
D38*
X119719000Y-72595000D02*
X119690000Y-72595000D01*
X120458000Y-71855600D02*
X119719000Y-72595000D01*
X120458000Y-71317200D02*
X120458000Y-71855600D01*
X119116000Y-69975000D02*
X120458000Y-71317200D01*
X119075000Y-69975000D02*
X119116000Y-69975000D01*
%TO.N,Net-(U6-I)*%
D39*
X127420000Y-68510000D02*
X127420000Y-71200000D01*
X129230000Y-68510000D02*
X127420000Y-68510000D01*
X130030000Y-67710000D02*
X129230000Y-68510000D01*
X130010000Y-67690000D02*
X130030000Y-67710000D01*
X127420000Y-71200000D02*
X129220000Y-73000000D01*
X130010000Y-66200000D02*
X130010000Y-67690000D01*
%TO.N,TOUCH_IN*%
X126610000Y-67830000D02*
X126440000Y-68000000D01*
X126610000Y-66627500D02*
X126610000Y-67830000D01*
%TO.N,TEMP_DQ*%
D40*
X122682000Y-70078500D02*
X123350000Y-69410000D01*
X121066500Y-70078500D02*
X122682000Y-70078500D01*
X120959833Y-69971833D02*
X121066500Y-70078500D01*
X120908000Y-69971833D02*
X120959833Y-69971833D01*
%TO.N,Net-(U6-I)*%
D39*
X128510000Y-66627500D02*
X129582500Y-66627500D01*
X129582500Y-66627500D02*
X130010000Y-66200000D01*
%TO.N,GND*%
D38*
X127651869Y-65901869D02*
X127861869Y-65901869D01*
X126550000Y-64800000D02*
X127651869Y-65901869D01*
X126550000Y-64412500D02*
X126550000Y-64800000D01*
X126610000Y-64352500D02*
X126550000Y-64412500D01*
X127560000Y-66203738D02*
X127560000Y-66627500D01*
X128510000Y-65253738D02*
X127560000Y-66203738D01*
X128510000Y-64352500D02*
X128510000Y-65253738D01*
X129122500Y-64352500D02*
X130010000Y-65240000D01*
X128510000Y-64352500D02*
X129122500Y-64352500D01*
X125112500Y-64352500D02*
X123430000Y-62670000D01*
X126610000Y-64352500D02*
X125112500Y-64352500D01*
%TO.N,+3.3V*%
X127680000Y-62750000D02*
X127720000Y-62790000D01*
X127680000Y-61720000D02*
X127680000Y-62750000D01*
X127720000Y-62790000D02*
X127560000Y-62950000D01*
X127560000Y-64352500D02*
X127560000Y-62950000D01*
%TO.N,GND*%
X126720000Y-62750000D02*
X126760000Y-62790000D01*
X126720000Y-61720000D02*
X126720000Y-62750000D01*
X126610000Y-62940000D02*
X126760000Y-62790000D01*
X126610000Y-64352500D02*
X126610000Y-62940000D01*
%TO.N,LDO_IN*%
X160830000Y-72300000D02*
X160503154Y-72300000D01*
X160220000Y-73539999D02*
X160570001Y-73890000D01*
X160220000Y-72583154D02*
X160220000Y-73539999D01*
X160040000Y-72300000D02*
X157100000Y-69360000D01*
X160503154Y-72300000D02*
X160040000Y-72300000D01*
X167410000Y-69120000D02*
X166310000Y-70220000D01*
X160570001Y-73890000D02*
X160880000Y-73890000D01*
X160503154Y-72300000D02*
X160220000Y-72583154D01*
X162910000Y-70220000D02*
X160830000Y-72300000D01*
X166310000Y-70220000D02*
X162910000Y-70220000D01*
%TO.N,GND*%
X171930000Y-64050000D02*
X170940000Y-64050000D01*
X119690000Y-72595000D02*
X119765000Y-72595000D01*
X120460000Y-71900400D02*
X121330000Y-71900400D01*
D41*
X163480000Y-63080000D02*
X163300000Y-63080000D01*
D38*
X120256000Y-69540500D02*
X120696000Y-69100000D01*
X173205000Y-72320000D02*
X171930000Y-72320000D01*
D41*
X163500000Y-63100000D02*
X163480000Y-63080000D01*
D42*
X123020000Y-62690000D02*
X123380000Y-62690000D01*
D38*
X119765000Y-72595000D02*
X120460000Y-71900400D01*
D41*
X168110000Y-66900000D02*
X169322000Y-66900000D01*
D38*
X167410000Y-66150000D02*
X166135000Y-66150000D01*
X166041000Y-66056000D02*
X166135000Y-66150000D01*
D39*
X122035000Y-62815000D02*
X121830000Y-63020000D01*
X119662000Y-72622500D02*
X119690000Y-72595000D01*
D41*
X170248000Y-65520700D02*
X169322000Y-66445900D01*
D38*
X119356000Y-63462100D02*
X121388000Y-63462100D01*
X162870000Y-64650000D02*
X162650000Y-64870000D01*
X121388000Y-63462100D02*
X121830000Y-63020000D01*
X162650000Y-64870000D02*
X158020000Y-64870000D01*
X157610000Y-64460000D02*
X157800000Y-64650000D01*
X120256000Y-71112600D02*
X120256000Y-69540500D01*
X163930000Y-64850000D02*
X163300000Y-64220000D01*
X171930000Y-63680000D02*
X171930000Y-64050000D01*
D39*
X118580000Y-73705000D02*
X119662000Y-72622500D01*
D38*
X121330000Y-71900400D02*
X122280000Y-72850000D01*
X169562000Y-63930000D02*
X169440000Y-63930000D01*
X171495000Y-71885000D02*
X171495000Y-71200000D01*
X155000000Y-64460000D02*
X157610000Y-64460000D01*
D39*
X119340000Y-75010000D02*
X119210000Y-75010000D01*
D41*
X164892000Y-62768000D02*
X164560000Y-63100000D01*
X164892000Y-62650700D02*
X164892000Y-62768000D01*
D38*
X170248000Y-64696200D02*
X170248000Y-65520700D01*
X170894000Y-64050000D02*
X170288000Y-64655800D01*
X134200000Y-70310000D02*
X134900000Y-70310000D01*
X134900000Y-69110000D02*
X134900000Y-70310000D01*
D41*
X164560000Y-63100000D02*
X163500000Y-63100000D01*
D39*
X122035000Y-62065000D02*
X122035000Y-62815000D01*
D38*
X171930000Y-64050000D02*
X171930000Y-64285000D01*
X170940000Y-64050000D02*
X170894000Y-64050000D01*
X133500000Y-69110000D02*
X134900000Y-69110000D01*
X163300000Y-64220000D02*
X162870000Y-64650000D01*
X158020000Y-64870000D02*
X157800000Y-64650000D01*
X165804300Y-66056000D02*
X166041000Y-66056000D01*
D39*
X118580000Y-75070000D02*
X118580000Y-73705000D01*
D38*
X120460000Y-71316400D02*
X120256000Y-71112600D01*
D39*
X119150000Y-75070000D02*
X118580000Y-75070000D01*
D38*
X169440000Y-63930000D02*
X168161000Y-62650700D01*
X120460000Y-71900400D02*
X120460000Y-71316400D01*
X164349800Y-74259800D02*
X164110000Y-74020000D01*
X163020000Y-72930000D02*
X164110000Y-74020000D01*
D39*
X119356000Y-63462100D02*
X119356000Y-63516900D01*
D38*
X173205000Y-63680000D02*
X171930000Y-63680000D01*
D41*
X169322000Y-66445900D02*
X169322000Y-66900000D01*
D38*
X165693200Y-74259800D02*
X164349800Y-74259800D01*
X171930000Y-72320000D02*
X171495000Y-71885000D01*
X171930000Y-64285000D02*
X172445000Y-64800000D01*
X163300000Y-63080000D02*
X163300000Y-64220000D01*
X123180000Y-72850000D02*
X122280000Y-72850000D01*
X120696000Y-69100000D02*
X122460000Y-69100000D01*
X134900000Y-71510000D02*
X133500000Y-71510000D01*
X168110000Y-66900000D02*
X166835000Y-66900000D01*
X122460000Y-69100000D02*
X123210000Y-68350000D01*
X168161000Y-62650700D02*
X164892000Y-62650700D01*
X170288000Y-64655800D02*
X170248000Y-64696200D01*
D42*
X122690000Y-63020000D02*
X123020000Y-62690000D01*
D38*
X172445000Y-71200000D02*
X171495000Y-71200000D01*
X170288000Y-64655800D02*
X169562000Y-63930000D01*
X134200000Y-70310000D02*
X133500000Y-70310000D01*
D39*
X119210000Y-75010000D02*
X119150000Y-75070000D01*
D38*
X164885000Y-64850000D02*
X163930000Y-64850000D01*
X134900000Y-70310000D02*
X134900000Y-71510000D01*
X160880000Y-72930000D02*
X163020000Y-72930000D01*
D42*
X121830000Y-63020000D02*
X122690000Y-63020000D01*
%TO.N,LED_DIN*%
D43*
X164439900Y-73058100D02*
X164658100Y-73058100D01*
D44*
X164658100Y-73058100D02*
X166448100Y-73058100D01*
D43*
X163300500Y-71918700D02*
X164439900Y-73058100D01*
D44*
X166448100Y-73058100D02*
X167410000Y-74020000D01*
X163132900Y-71918700D02*
X163300500Y-71918700D01*
%TO.N,I2C_SCL*%
D40*
X156677106Y-71320000D02*
X157610000Y-71320000D01*
X155597106Y-70240000D02*
X156677106Y-71320000D01*
X155570000Y-70240000D02*
X155597106Y-70240000D01*
X155000000Y-69670000D02*
X155570000Y-70240000D01*
X155000000Y-69540000D02*
X155000000Y-69670000D01*
%TO.N,+3.3V*%
D38*
X152226500Y-70740000D02*
X150819000Y-69332500D01*
D42*
X122530000Y-74040000D02*
X125620000Y-74040000D01*
D38*
X158710000Y-73440000D02*
X158710000Y-73620000D01*
X157610000Y-72340000D02*
X158710000Y-73440000D01*
D42*
X125720000Y-73940000D02*
X125720000Y-72850000D01*
D38*
X157610000Y-72340000D02*
X157090000Y-71820000D01*
D42*
X125620000Y-74040000D02*
X125720000Y-73940000D01*
D38*
X155390000Y-70740000D02*
X152226500Y-70740000D01*
X156470000Y-71820000D02*
X156232942Y-71582943D01*
X156020000Y-71402943D02*
X156020000Y-71370000D01*
X156232942Y-71582943D02*
X156200000Y-71582943D01*
D42*
X120860000Y-72550000D02*
X120890000Y-72550000D01*
X120890000Y-72550000D02*
X120950000Y-72610000D01*
D38*
X157090000Y-71820000D02*
X156470000Y-71820000D01*
X156020000Y-71370000D02*
X155390000Y-70740000D01*
X156200000Y-71582943D02*
X156020000Y-71402943D01*
D42*
X120860000Y-72550000D02*
X121040000Y-72550000D01*
X121040000Y-72550000D02*
X122530000Y-74040000D01*
D38*
X158710000Y-73620000D02*
X157650000Y-74680000D01*
%TO.N,VBUS_5V*%
D42*
X169440000Y-65270000D02*
X169060000Y-65650000D01*
X173660000Y-74560000D02*
X174930000Y-74560000D01*
X170940000Y-65010000D02*
X170940000Y-65600000D01*
X146695001Y-62115001D02*
X139764000Y-69046200D01*
X173630000Y-74560000D02*
X173660000Y-74560000D01*
X173525000Y-74560000D02*
X173630000Y-74560000D01*
X139764000Y-69046200D02*
X139764000Y-69770000D01*
X171530000Y-65600000D02*
X172445000Y-65600000D01*
D45*
X172445000Y-70400000D02*
X171465000Y-70400000D01*
D42*
X170940000Y-67035700D02*
X170318000Y-67035700D01*
D45*
X170940000Y-70300200D02*
X171365000Y-70300200D01*
D42*
X174930000Y-74560000D02*
X174990000Y-74500000D01*
X170940000Y-65010000D02*
X171530000Y-65600000D01*
X169880000Y-71360200D02*
X169880000Y-72120000D01*
D45*
X171365000Y-70300200D02*
X171465000Y-70400000D01*
D42*
X169440000Y-64890000D02*
X169440000Y-65270000D01*
X170940000Y-70300200D02*
X169880000Y-71360200D01*
X146740000Y-62070000D02*
X146695001Y-62115001D01*
X170940000Y-67035700D02*
X170940000Y-70300200D01*
X170940000Y-65600000D02*
X170940000Y-67035700D01*
%TO.N,Net-(SW2-B)*%
D40*
X162230000Y-62150000D02*
X162230000Y-62970000D01*
X158845000Y-63415000D02*
X159235000Y-63025400D01*
X159235000Y-63025400D02*
X159235000Y-62970000D01*
X162400000Y-61980000D02*
X162230000Y-62150000D01*
X162230000Y-62970000D02*
X162340000Y-63080000D01*
X160560000Y-62970000D02*
X159235000Y-62970000D01*
X160560000Y-62970000D02*
X162230000Y-62970000D01*
%TO.N,Net-(D7-K)*%
X175985000Y-74475000D02*
X175985000Y-73500000D01*
X176010000Y-74500000D02*
X175985000Y-74475000D01*
%TO.N,Net-(D7-A)*%
X176472000Y-71464300D02*
X175015000Y-72921200D01*
X175015000Y-72921200D02*
X175015000Y-73500000D01*
%TO.N,I2C_SDA*%
X155510000Y-72590000D02*
X156580000Y-72590000D01*
X156580000Y-72590000D02*
X157650000Y-73660000D01*
X155000000Y-72080000D02*
X155510000Y-72590000D01*
%TO.N,VBAT*%
D42*
X166100000Y-63850000D02*
X166220000Y-63730000D01*
X164885000Y-63850000D02*
X166100000Y-63850000D01*
%TO.N,TEMP_DQ*%
D40*
X123350000Y-69410000D02*
X124450000Y-70510000D01*
X124450000Y-70510000D02*
X124450000Y-72850000D01*
%TO.N,Net-(D5-K)*%
X120860000Y-73570000D02*
X119695000Y-73570000D01*
%TO.N,Net-(D4-K)*%
X172505000Y-73585000D02*
X172505000Y-74560000D01*
X172530000Y-73560000D02*
X172505000Y-73585000D01*
%TO.N,Net-(D4-A)*%
X176977000Y-71189300D02*
X176700000Y-70912600D01*
X176244000Y-70912600D02*
X175967000Y-71189300D01*
X175871000Y-71189300D02*
X173500000Y-73560000D01*
X176700000Y-70912600D02*
X176244000Y-70912600D01*
X177220000Y-71189300D02*
X176977000Y-71189300D01*
X175967000Y-71189300D02*
X175871000Y-71189300D01*
%TO.N,USB_DP*%
X174309000Y-67250000D02*
X172445000Y-67250000D01*
D46*
X171452000Y-68070000D02*
X171452000Y-67417500D01*
X171620000Y-67250000D02*
X172445000Y-67250000D01*
X171452000Y-67417500D02*
X171620000Y-67250000D01*
D40*
X172445000Y-68250000D02*
X171632000Y-68250000D01*
X174738000Y-66820700D02*
X174309000Y-67250000D01*
D46*
X171632000Y-68250000D02*
X171452000Y-68070000D01*
%TO.N,USB_DN*%
D40*
X174544000Y-69235700D02*
X173743000Y-69235700D01*
D46*
X173258000Y-67750000D02*
X173350000Y-67750000D01*
D40*
X173743000Y-69235700D02*
X173258000Y-68750000D01*
X172445000Y-67750000D02*
X173258000Y-67750000D01*
D46*
X173320000Y-68750000D02*
X173258000Y-68750000D01*
X173520000Y-68550000D02*
X173320000Y-68750000D01*
X173350000Y-67750000D02*
X173520000Y-67920000D01*
X173520000Y-67920000D02*
X173520000Y-68550000D01*
X172445000Y-68750000D02*
X173258000Y-68750000D01*
%TD*%
%TA.AperFunction,Conductor*%
%TO.N,+3.3V*%
G36*
X176854042Y-60650765D02*
G01*
X176877728Y-60652317D01*
X177087489Y-60666065D01*
X177103550Y-60668180D01*
X177329011Y-60713028D01*
X177344650Y-60717218D01*
X177562332Y-60791111D01*
X177577299Y-60797311D01*
X177778126Y-60896347D01*
X177783460Y-60898978D01*
X177797507Y-60907088D01*
X177835230Y-60932293D01*
X177988631Y-61034793D01*
X178001495Y-61044664D01*
X178174310Y-61196220D01*
X178185779Y-61207689D01*
X178262578Y-61295261D01*
X178289716Y-61326206D01*
X178337335Y-61380504D01*
X178347209Y-61393372D01*
X178474911Y-61584492D01*
X178483021Y-61598539D01*
X178584685Y-61804693D01*
X178590890Y-61819674D01*
X178649095Y-61991140D01*
X178664776Y-62037333D01*
X178668974Y-62053000D01*
X178713817Y-62278437D01*
X178715935Y-62294519D01*
X178720463Y-62363602D01*
X178730648Y-62519008D01*
X178731235Y-62527956D01*
X178731500Y-62536066D01*
X178731500Y-62882216D01*
X178711815Y-62949255D01*
X178659011Y-62995010D01*
X178589853Y-63004954D01*
X178526297Y-62975929D01*
X178519819Y-62969897D01*
X178422785Y-62872863D01*
X178422781Y-62872860D01*
X178258920Y-62763371D01*
X178258907Y-62763364D01*
X178076839Y-62687950D01*
X178076829Y-62687947D01*
X177883543Y-62649500D01*
X177883541Y-62649500D01*
X176886459Y-62649500D01*
X176886457Y-62649500D01*
X176693170Y-62687947D01*
X176693160Y-62687950D01*
X176511092Y-62763364D01*
X176511079Y-62763371D01*
X176347218Y-62872860D01*
X176347214Y-62872863D01*
X176207863Y-63012214D01*
X176207860Y-63012218D01*
X176098371Y-63176079D01*
X176098364Y-63176092D01*
X176022950Y-63358160D01*
X176022947Y-63358170D01*
X175984500Y-63551456D01*
X175984500Y-63551459D01*
X175984500Y-63748541D01*
X175984500Y-63748543D01*
X175984499Y-63748543D01*
X176022947Y-63941829D01*
X176022950Y-63941839D01*
X176098364Y-64123907D01*
X176098371Y-64123920D01*
X176207860Y-64287781D01*
X176207863Y-64287785D01*
X176347214Y-64427136D01*
X176347218Y-64427139D01*
X176511079Y-64536628D01*
X176511092Y-64536635D01*
X176693160Y-64612049D01*
X176693165Y-64612051D01*
X176693169Y-64612051D01*
X176693170Y-64612052D01*
X176886456Y-64650500D01*
X176886459Y-64650500D01*
X177883543Y-64650500D01*
X178040910Y-64619197D01*
X178076835Y-64612051D01*
X178258914Y-64536632D01*
X178422782Y-64427139D01*
X178454511Y-64395410D01*
X178519819Y-64330103D01*
X178581142Y-64296618D01*
X178650834Y-64301602D01*
X178706767Y-64343474D01*
X178731184Y-64408938D01*
X178731500Y-64417784D01*
X178731500Y-71522216D01*
X178711815Y-71589255D01*
X178659011Y-71635010D01*
X178589853Y-71644954D01*
X178526297Y-71615929D01*
X178519819Y-71609897D01*
X178422785Y-71512863D01*
X178422781Y-71512860D01*
X178258920Y-71403371D01*
X178258907Y-71403364D01*
X178097048Y-71336321D01*
X178042644Y-71292480D01*
X178020579Y-71226186D01*
X178020500Y-71221760D01*
X178020500Y-71110455D01*
X178020499Y-71110453D01*
X178018577Y-71100789D01*
X177989737Y-70955803D01*
X177985760Y-70946202D01*
X177929397Y-70810127D01*
X177929390Y-70810114D01*
X177841789Y-70679011D01*
X177841786Y-70679007D01*
X177730292Y-70567513D01*
X177730288Y-70567510D01*
X177599185Y-70479909D01*
X177599172Y-70479902D01*
X177453501Y-70419564D01*
X177453489Y-70419561D01*
X177298845Y-70388800D01*
X177298842Y-70388800D01*
X177141158Y-70388800D01*
X177141154Y-70388800D01*
X177138055Y-70389105D01*
X177136448Y-70388800D01*
X177135067Y-70388800D01*
X177135067Y-70388538D01*
X177113709Y-70384485D01*
X177088934Y-70384059D01*
X177074106Y-70376971D01*
X177069410Y-70376080D01*
X177057087Y-70368847D01*
X177057026Y-70368806D01*
X177057023Y-70368805D01*
X177056235Y-70368278D01*
X177054708Y-70367259D01*
X177008127Y-70336135D01*
X177007961Y-70336066D01*
X177007814Y-70335968D01*
X176948724Y-70311529D01*
X176948361Y-70311379D01*
X176889744Y-70287099D01*
X176889570Y-70287064D01*
X176889405Y-70286996D01*
X176889376Y-70286990D01*
X176889371Y-70286988D01*
X176827129Y-70274643D01*
X176827130Y-70274636D01*
X176827062Y-70274630D01*
X176764067Y-70262099D01*
X176763732Y-70262066D01*
X176763716Y-70262066D01*
X176704290Y-70262098D01*
X176700575Y-70262100D01*
X176242522Y-70262100D01*
X176180284Y-70262066D01*
X176180113Y-70262100D01*
X176179929Y-70262100D01*
X176116900Y-70274637D01*
X176116869Y-70274644D01*
X176054595Y-70286996D01*
X176054429Y-70287064D01*
X176054256Y-70287099D01*
X176054178Y-70287131D01*
X176054174Y-70287132D01*
X176008119Y-70306208D01*
X175995336Y-70311504D01*
X175936183Y-70335968D01*
X175935881Y-70336129D01*
X175913905Y-70350813D01*
X175883176Y-70371345D01*
X175829604Y-70407099D01*
X175829600Y-70407102D01*
X175829453Y-70407222D01*
X175829398Y-70407268D01*
X175829336Y-70407317D01*
X175785308Y-70451345D01*
X175785263Y-70451391D01*
X175684120Y-70552424D01*
X175677218Y-70557032D01*
X175674295Y-70561244D01*
X175643943Y-70579254D01*
X175624363Y-70587365D01*
X175562891Y-70612822D01*
X175521585Y-70640423D01*
X175521577Y-70640428D01*
X175456353Y-70684001D01*
X175424599Y-70715755D01*
X174512755Y-71627482D01*
X174504811Y-71631818D01*
X174499389Y-71639062D01*
X174474628Y-71648297D01*
X174451429Y-71660963D01*
X174442402Y-71660316D01*
X174433925Y-71663479D01*
X174408100Y-71657861D01*
X174381738Y-71655974D01*
X174372688Y-71650157D01*
X174365652Y-71648627D01*
X174337398Y-71627476D01*
X174298859Y-71588937D01*
X174265374Y-71527614D01*
X174270358Y-71457922D01*
X174298859Y-71413575D01*
X174326205Y-71386228D01*
X174326208Y-71386225D01*
X174385752Y-71297111D01*
X174416547Y-71251023D01*
X174416549Y-71251019D01*
X174446488Y-71178740D01*
X174478776Y-71100789D01*
X174504693Y-70970500D01*
X174510500Y-70941307D01*
X174510500Y-70778692D01*
X174478777Y-70619216D01*
X174478776Y-70619215D01*
X174478776Y-70619211D01*
X174465585Y-70587365D01*
X174416549Y-70468980D01*
X174416547Y-70468976D01*
X174326211Y-70333779D01*
X174326205Y-70333771D01*
X174209289Y-70216855D01*
X174175804Y-70155532D01*
X174180788Y-70085840D01*
X174222660Y-70029907D01*
X174288124Y-70005490D01*
X174321160Y-70007556D01*
X174355397Y-70014367D01*
X174465155Y-70036200D01*
X174465158Y-70036200D01*
X174622844Y-70036200D01*
X174622845Y-70036199D01*
X174777497Y-70005437D01*
X174923179Y-69945094D01*
X175054289Y-69857489D01*
X175165789Y-69745989D01*
X175253394Y-69614879D01*
X175313737Y-69469197D01*
X175344500Y-69314542D01*
X175344500Y-69156858D01*
X175344500Y-69156855D01*
X175344499Y-69156853D01*
X175338462Y-69126503D01*
X175313737Y-69002203D01*
X175299678Y-68968262D01*
X175253397Y-68856527D01*
X175253390Y-68856514D01*
X175165789Y-68725411D01*
X175165786Y-68725407D01*
X175054292Y-68613913D01*
X175054288Y-68613910D01*
X174923185Y-68526309D01*
X174923172Y-68526302D01*
X174777501Y-68465964D01*
X174777489Y-68465961D01*
X174622845Y-68435200D01*
X174622842Y-68435200D01*
X174465158Y-68435200D01*
X174465155Y-68435200D01*
X174310510Y-68465961D01*
X174310503Y-68465963D01*
X174304451Y-68468470D01*
X174234982Y-68475937D01*
X174172503Y-68444662D01*
X174136851Y-68384572D01*
X174133000Y-68353908D01*
X174133000Y-68024517D01*
X174135544Y-68015851D01*
X174134256Y-68006911D01*
X174145235Y-67982849D01*
X174152685Y-67957478D01*
X174159510Y-67951563D01*
X174163260Y-67943346D01*
X174185504Y-67929039D01*
X174205489Y-67911723D01*
X174215982Y-67909438D01*
X174222025Y-67905552D01*
X174256953Y-67900517D01*
X174307744Y-67900500D01*
X174307807Y-67900500D01*
X174373071Y-67900500D01*
X174373281Y-67900479D01*
X174373291Y-67900477D01*
X174373296Y-67900477D01*
X174435453Y-67888090D01*
X174498744Y-67875501D01*
X174498755Y-67875496D01*
X174498940Y-67875439D01*
X174498962Y-67875435D01*
X174558829Y-67850612D01*
X174617127Y-67826465D01*
X174617141Y-67826455D01*
X174617306Y-67826366D01*
X174617328Y-67826358D01*
X174672164Y-67789689D01*
X174723669Y-67755276D01*
X174723672Y-67755272D01*
X174723682Y-67755266D01*
X174723834Y-67755141D01*
X174723837Y-67755137D01*
X174723846Y-67755132D01*
X174759277Y-67719675D01*
X174771083Y-67707862D01*
X174771088Y-67707867D01*
X174771111Y-67707832D01*
X174814276Y-67664669D01*
X174814276Y-67664668D01*
X174818620Y-67660325D01*
X174818940Y-67659969D01*
X174841214Y-67637680D01*
X174902524Y-67604177D01*
X174904627Y-67603738D01*
X174971497Y-67590437D01*
X175113997Y-67531412D01*
X175117172Y-67530097D01*
X175117172Y-67530096D01*
X175117179Y-67530094D01*
X175248289Y-67442489D01*
X175359789Y-67330989D01*
X175447394Y-67199879D01*
X175507737Y-67054197D01*
X175538500Y-66899542D01*
X175538500Y-66741858D01*
X175538500Y-66741853D01*
X175510167Y-66599421D01*
X175507737Y-66587203D01*
X175490947Y-66546667D01*
X175447397Y-66441527D01*
X175447390Y-66441514D01*
X175359789Y-66310411D01*
X175359786Y-66310407D01*
X175248292Y-66198913D01*
X175248288Y-66198910D01*
X175117185Y-66111309D01*
X175117172Y-66111302D01*
X174971501Y-66050964D01*
X174971489Y-66050961D01*
X174816845Y-66020200D01*
X174816842Y-66020200D01*
X174659158Y-66020200D01*
X174659155Y-66020200D01*
X174504510Y-66050961D01*
X174504498Y-66050964D01*
X174358827Y-66111302D01*
X174358814Y-66111309D01*
X174227711Y-66198910D01*
X174227707Y-66198913D01*
X174116213Y-66310407D01*
X174116210Y-66310411D01*
X174028609Y-66441514D01*
X174028602Y-66441527D01*
X173994876Y-66522952D01*
X173951035Y-66577356D01*
X173884741Y-66599421D01*
X173880315Y-66599500D01*
X173620201Y-66599500D01*
X173618002Y-66598854D01*
X173615783Y-66599421D01*
X173584640Y-66589058D01*
X173553162Y-66579815D01*
X173551662Y-66578084D01*
X173549488Y-66577361D01*
X173528887Y-66551800D01*
X173507407Y-66527011D01*
X173506632Y-66524187D01*
X173505643Y-66522960D01*
X173496912Y-66488763D01*
X173496320Y-66483255D01*
X173496320Y-66456747D01*
X173500500Y-66417873D01*
X173500499Y-66029499D01*
X173520183Y-65962461D01*
X173572987Y-65916706D01*
X173624499Y-65905500D01*
X173766307Y-65905500D01*
X173895505Y-65879800D01*
X173925789Y-65873776D01*
X174076021Y-65811548D01*
X174076023Y-65811547D01*
X174143169Y-65766680D01*
X174211225Y-65721208D01*
X174326208Y-65606225D01*
X174372379Y-65537125D01*
X174416547Y-65471023D01*
X174416549Y-65471019D01*
X174444834Y-65402733D01*
X174478776Y-65320789D01*
X174500518Y-65211488D01*
X174510500Y-65161307D01*
X174510500Y-64998692D01*
X174478777Y-64839216D01*
X174478776Y-64839215D01*
X174478776Y-64839211D01*
X174470918Y-64820239D01*
X174416549Y-64688980D01*
X174416547Y-64688976D01*
X174326211Y-64553779D01*
X174326205Y-64553771D01*
X174298859Y-64526425D01*
X174265374Y-64465102D01*
X174270358Y-64395410D01*
X174298859Y-64351063D01*
X174362136Y-64287785D01*
X174362139Y-64287782D01*
X174471632Y-64123914D01*
X174547051Y-63941835D01*
X174571749Y-63817670D01*
X174585500Y-63748543D01*
X174585500Y-63551456D01*
X174547052Y-63358170D01*
X174547051Y-63358169D01*
X174547051Y-63358165D01*
X174542166Y-63346372D01*
X174471635Y-63176092D01*
X174471628Y-63176079D01*
X174362139Y-63012218D01*
X174362136Y-63012214D01*
X174222785Y-62872863D01*
X174222781Y-62872860D01*
X174058920Y-62763371D01*
X174058907Y-62763364D01*
X173876839Y-62687950D01*
X173876829Y-62687947D01*
X173683543Y-62649500D01*
X173683541Y-62649500D01*
X172686459Y-62649500D01*
X172686457Y-62649500D01*
X172493170Y-62687947D01*
X172493160Y-62687950D01*
X172311092Y-62763364D01*
X172311079Y-62763371D01*
X172147218Y-62872860D01*
X172147214Y-62872863D01*
X172126897Y-62893181D01*
X172065574Y-62926666D01*
X172039216Y-62929500D01*
X171856080Y-62929500D01*
X171711092Y-62958340D01*
X171711082Y-62958343D01*
X171574511Y-63014912D01*
X171574498Y-63014919D01*
X171451584Y-63097048D01*
X171451580Y-63097051D01*
X171347051Y-63201580D01*
X171347048Y-63201584D01*
X171335358Y-63219080D01*
X171281745Y-63263885D01*
X171217379Y-63271969D01*
X171217310Y-63272854D01*
X171213021Y-63272516D01*
X171212420Y-63272592D01*
X171211109Y-63272366D01*
X171174697Y-63269500D01*
X171174690Y-63269500D01*
X170705310Y-63269500D01*
X170705302Y-63269500D01*
X170669008Y-63272356D01*
X170669002Y-63272357D01*
X170513609Y-63317504D01*
X170513606Y-63317505D01*
X170374315Y-63399881D01*
X170374307Y-63399887D01*
X170329689Y-63444506D01*
X170268366Y-63477991D01*
X170198674Y-63473007D01*
X170142741Y-63431135D01*
X170135280Y-63419953D01*
X170120117Y-63394313D01*
X170120114Y-63394310D01*
X170120112Y-63394307D01*
X170005692Y-63279887D01*
X170005684Y-63279881D01*
X169902875Y-63219080D01*
X169866395Y-63197506D01*
X169866394Y-63197505D01*
X169866393Y-63197505D01*
X169866391Y-63197504D01*
X169759598Y-63166477D01*
X169706503Y-63135072D01*
X168846808Y-62275176D01*
X168813330Y-62213849D01*
X168810499Y-62187505D01*
X168810499Y-61902129D01*
X168810498Y-61902123D01*
X168810298Y-61900264D01*
X168804091Y-61842517D01*
X168803601Y-61841204D01*
X168753797Y-61707671D01*
X168753793Y-61707664D01*
X168667547Y-61592455D01*
X168667544Y-61592452D01*
X168552335Y-61506206D01*
X168552328Y-61506202D01*
X168417482Y-61455908D01*
X168417483Y-61455908D01*
X168357883Y-61449501D01*
X168357881Y-61449500D01*
X168357873Y-61449500D01*
X168357864Y-61449500D01*
X166462129Y-61449500D01*
X166462123Y-61449501D01*
X166402516Y-61455908D01*
X166267671Y-61506202D01*
X166267664Y-61506206D01*
X166152455Y-61592452D01*
X166152452Y-61592455D01*
X166066206Y-61707664D01*
X166066202Y-61707671D01*
X166024481Y-61819533D01*
X165982610Y-61875467D01*
X165917146Y-61899884D01*
X165908299Y-61900200D01*
X164818080Y-61900200D01*
X164673092Y-61929040D01*
X164673082Y-61929043D01*
X164536511Y-61985612D01*
X164536498Y-61985619D01*
X164413584Y-62067748D01*
X164413580Y-62067751D01*
X164309049Y-62172282D01*
X164307309Y-62174888D01*
X164306044Y-62175945D01*
X164305185Y-62176992D01*
X164304986Y-62176829D01*
X164253698Y-62219695D01*
X164204205Y-62230000D01*
X163544000Y-62230000D01*
X163476961Y-62210315D01*
X163431206Y-62157511D01*
X163420000Y-62106000D01*
X163420000Y-61980000D01*
X163294499Y-61980000D01*
X163286032Y-61977513D01*
X163277301Y-61978802D01*
X163253021Y-61967820D01*
X163227460Y-61960315D01*
X163221681Y-61953645D01*
X163213640Y-61950009D01*
X163199151Y-61927644D01*
X163181705Y-61907511D01*
X163179449Y-61897235D01*
X163175650Y-61891370D01*
X163170693Y-61857335D01*
X163170500Y-61856454D01*
X163170499Y-61856249D01*
X163170499Y-61730820D01*
X163170017Y-61724705D01*
X163170001Y-61720061D01*
X163170015Y-61720009D01*
X163170000Y-61719607D01*
X163170000Y-61167154D01*
X163670000Y-61167154D01*
X163670000Y-61730000D01*
X164189931Y-61730000D01*
X164187167Y-61694877D01*
X164187166Y-61694871D01*
X164142407Y-61540811D01*
X164142406Y-61540808D01*
X164060738Y-61402714D01*
X164060731Y-61402705D01*
X163947294Y-61289268D01*
X163947285Y-61289261D01*
X163809191Y-61207593D01*
X163809188Y-61207591D01*
X163670001Y-61167153D01*
X163670000Y-61167154D01*
X163170000Y-61167154D01*
X163169998Y-61167153D01*
X163030811Y-61207591D01*
X163030810Y-61207592D01*
X162973611Y-61241419D01*
X162905886Y-61258600D01*
X162847371Y-61241419D01*
X162813935Y-61221645D01*
X162789393Y-61207131D01*
X162789392Y-61207130D01*
X162789391Y-61207130D01*
X162789388Y-61207129D01*
X162635208Y-61162335D01*
X162635202Y-61162334D01*
X162599181Y-61159500D01*
X162200830Y-61159500D01*
X162200808Y-61159501D01*
X162164794Y-61162335D01*
X162010611Y-61207129D01*
X162010608Y-61207130D01*
X161876890Y-61286210D01*
X161809166Y-61303392D01*
X161770437Y-61295659D01*
X161717487Y-61275910D01*
X161717480Y-61275908D01*
X161657883Y-61269501D01*
X161657881Y-61269500D01*
X161657873Y-61269500D01*
X161657864Y-61269500D01*
X159462129Y-61269500D01*
X159462123Y-61269501D01*
X159402516Y-61275908D01*
X159267671Y-61326202D01*
X159267664Y-61326206D01*
X159152455Y-61412452D01*
X159152452Y-61412455D01*
X159066206Y-61527664D01*
X159066202Y-61527671D01*
X159015908Y-61662517D01*
X159009501Y-61722116D01*
X159009500Y-61722135D01*
X159009500Y-62276455D01*
X158989815Y-62343494D01*
X158937011Y-62389249D01*
X158932956Y-62391015D01*
X158926875Y-62393533D01*
X158926866Y-62393538D01*
X158820331Y-62464723D01*
X158820327Y-62464726D01*
X158729728Y-62555325D01*
X158729719Y-62555336D01*
X158707076Y-62589223D01*
X158653463Y-62634027D01*
X158628170Y-62641947D01*
X158611505Y-62645262D01*
X158611500Y-62645263D01*
X158465827Y-62705602D01*
X158465814Y-62705609D01*
X158334711Y-62793210D01*
X158334707Y-62793213D01*
X158223213Y-62904707D01*
X158223210Y-62904711D01*
X158135609Y-63035814D01*
X158135602Y-63035827D01*
X158075264Y-63181498D01*
X158075261Y-63181510D01*
X158044500Y-63336153D01*
X158044500Y-63493846D01*
X158071599Y-63630082D01*
X158065372Y-63699673D01*
X158022509Y-63754851D01*
X157956619Y-63778095D01*
X157902530Y-63768835D01*
X157896423Y-63766305D01*
X157828913Y-63738342D01*
X157828908Y-63738341D01*
X157828907Y-63738340D01*
X157683920Y-63709500D01*
X157683918Y-63709500D01*
X156451572Y-63709500D01*
X156384533Y-63689815D01*
X156338778Y-63637011D01*
X156333187Y-63622390D01*
X156295921Y-63502800D01*
X156295920Y-63502799D01*
X156295920Y-63502797D01*
X156211683Y-63363453D01*
X156211681Y-63363451D01*
X156211680Y-63363449D01*
X156096550Y-63248319D01*
X156079902Y-63238255D01*
X155957203Y-63164080D01*
X155801749Y-63115639D01*
X155801747Y-63115638D01*
X155801745Y-63115638D01*
X155754449Y-63111340D01*
X155734195Y-63109500D01*
X155734192Y-63109500D01*
X154265797Y-63109500D01*
X154198255Y-63115637D01*
X154198244Y-63115640D01*
X154042800Y-63164078D01*
X153903449Y-63248319D01*
X153788319Y-63363449D01*
X153704080Y-63502796D01*
X153655638Y-63658254D01*
X153649500Y-63725807D01*
X153649500Y-65194202D01*
X153655637Y-65261744D01*
X153655640Y-65261755D01*
X153704078Y-65417199D01*
X153704079Y-65417201D01*
X153704080Y-65417203D01*
X153788317Y-65556547D01*
X153788319Y-65556550D01*
X153903449Y-65671680D01*
X153903451Y-65671681D01*
X153903453Y-65671683D01*
X154042797Y-65755920D01*
X154149007Y-65789016D01*
X154207152Y-65827752D01*
X154227207Y-65873653D01*
X154870591Y-66517037D01*
X154807007Y-66534075D01*
X154692993Y-66599901D01*
X154599901Y-66692993D01*
X154534075Y-66807007D01*
X154517037Y-66870591D01*
X154256605Y-66610159D01*
X154223120Y-66548836D01*
X154222691Y-66546778D01*
X154216894Y-66517634D01*
X154216891Y-66517627D01*
X154216890Y-66517623D01*
X154149016Y-66353759D01*
X154149009Y-66353746D01*
X154050464Y-66206265D01*
X154050461Y-66206261D01*
X153925038Y-66080838D01*
X153925034Y-66080835D01*
X153777553Y-65982290D01*
X153777540Y-65982283D01*
X153613667Y-65914406D01*
X153613658Y-65914403D01*
X153439694Y-65879800D01*
X153439691Y-65879800D01*
X153262309Y-65879800D01*
X153262306Y-65879800D01*
X153088341Y-65914403D01*
X153088332Y-65914406D01*
X152924459Y-65982283D01*
X152924446Y-65982290D01*
X152776965Y-66080835D01*
X152776961Y-66080838D01*
X152651538Y-66206261D01*
X152651535Y-66206265D01*
X152552990Y-66353746D01*
X152552983Y-66353759D01*
X152485106Y-66517632D01*
X152485103Y-66517641D01*
X152450500Y-66691604D01*
X152450500Y-66868995D01*
X152485103Y-67042958D01*
X152485106Y-67042967D01*
X152552983Y-67206840D01*
X152552990Y-67206853D01*
X152651535Y-67354334D01*
X152651538Y-67354338D01*
X152776961Y-67479761D01*
X152776965Y-67479764D01*
X152924446Y-67578309D01*
X152924459Y-67578316D01*
X153047363Y-67629223D01*
X153088334Y-67646194D01*
X153088336Y-67646194D01*
X153088341Y-67646196D01*
X153262304Y-67680799D01*
X153262307Y-67680800D01*
X153262309Y-67680800D01*
X153439693Y-67680800D01*
X153439694Y-67680799D01*
X153516121Y-67665597D01*
X153613658Y-67646196D01*
X153613660Y-67646195D01*
X153613666Y-67646194D01*
X153673284Y-67621499D01*
X153742749Y-67614031D01*
X153805228Y-67645306D01*
X153831217Y-67679765D01*
X153845373Y-67707547D01*
X153884728Y-67761716D01*
X154517037Y-67129408D01*
X154534075Y-67192993D01*
X154599901Y-67307007D01*
X154692993Y-67400099D01*
X154807007Y-67465925D01*
X154870590Y-67482962D01*
X154238282Y-68115269D01*
X154238282Y-68115270D01*
X154292452Y-68154626D01*
X154292451Y-68154626D01*
X154301495Y-68159234D01*
X154352292Y-68207208D01*
X154369087Y-68275029D01*
X154346550Y-68341164D01*
X154301499Y-68380202D01*
X154292182Y-68384949D01*
X154120213Y-68509890D01*
X153969890Y-68660213D01*
X153844951Y-68832179D01*
X153748444Y-69021585D01*
X153682753Y-69223760D01*
X153649500Y-69433713D01*
X153649500Y-69646286D01*
X153681636Y-69849188D01*
X153682754Y-69856243D01*
X153746959Y-70053846D01*
X153748444Y-70058414D01*
X153844951Y-70247820D01*
X153969890Y-70419786D01*
X154120213Y-70570109D01*
X154292182Y-70695050D01*
X154300946Y-70699516D01*
X154351742Y-70747491D01*
X154368536Y-70815312D01*
X154345998Y-70881447D01*
X154300946Y-70920484D01*
X154292182Y-70924949D01*
X154120213Y-71049890D01*
X153969890Y-71200213D01*
X153844951Y-71372179D01*
X153748444Y-71561585D01*
X153748443Y-71561587D01*
X153748443Y-71561588D01*
X153734042Y-71605909D01*
X153682753Y-71763760D01*
X153659749Y-71909002D01*
X153649500Y-71973713D01*
X153649500Y-72186287D01*
X153651489Y-72198842D01*
X153677554Y-72363416D01*
X153682754Y-72396243D01*
X153741530Y-72577137D01*
X153748444Y-72598414D01*
X153844951Y-72787820D01*
X153969890Y-72959786D01*
X154120213Y-73110109D01*
X154292179Y-73235048D01*
X154292181Y-73235049D01*
X154292184Y-73235051D01*
X154481588Y-73331557D01*
X154683757Y-73397246D01*
X154893713Y-73430500D01*
X154893714Y-73430500D01*
X155106286Y-73430500D01*
X155106287Y-73430500D01*
X155316243Y-73397246D01*
X155518412Y-73331557D01*
X155670597Y-73254014D01*
X155726892Y-73240500D01*
X156259192Y-73240500D01*
X156326231Y-73260185D01*
X156346873Y-73276819D01*
X156793181Y-73723127D01*
X156826666Y-73784450D01*
X156829500Y-73810806D01*
X156829500Y-73859168D01*
X156829501Y-73859192D01*
X156832335Y-73895205D01*
X156877129Y-74049388D01*
X156877130Y-74049391D01*
X156877131Y-74049393D01*
X156883444Y-74060067D01*
X156911419Y-74107371D01*
X156928601Y-74175095D01*
X156911419Y-74233611D01*
X156877594Y-74290806D01*
X156837156Y-74430000D01*
X157389591Y-74430000D01*
X157399318Y-74430382D01*
X157399516Y-74430397D01*
X157400819Y-74430500D01*
X157899180Y-74430499D01*
X157899193Y-74430498D01*
X157900668Y-74430382D01*
X157910393Y-74430000D01*
X158462844Y-74430000D01*
X158422404Y-74290805D01*
X158388581Y-74233612D01*
X158371398Y-74165888D01*
X158388582Y-74107369D01*
X158392645Y-74100499D01*
X158422869Y-74049393D01*
X158449554Y-73957544D01*
X158467664Y-73895208D01*
X158467664Y-73895206D01*
X158467665Y-73895204D01*
X158470500Y-73859181D01*
X158470499Y-73460820D01*
X158467665Y-73424796D01*
X158422869Y-73270607D01*
X158341135Y-73132402D01*
X158341133Y-73132400D01*
X158341130Y-73132396D01*
X158276060Y-73067326D01*
X158242575Y-73006003D01*
X158247559Y-72936311D01*
X158276063Y-72891961D01*
X158300732Y-72867293D01*
X158300738Y-72867285D01*
X158382404Y-72729194D01*
X158422844Y-72590000D01*
X157734000Y-72590000D01*
X157666961Y-72570315D01*
X157621206Y-72517511D01*
X157610000Y-72466000D01*
X157610000Y-72214499D01*
X157612486Y-72206032D01*
X157611198Y-72197301D01*
X157622179Y-72173021D01*
X157629685Y-72147460D01*
X157636354Y-72141681D01*
X157639991Y-72133640D01*
X157662355Y-72119151D01*
X157682489Y-72101705D01*
X157692764Y-72099449D01*
X157698630Y-72095650D01*
X157732664Y-72090693D01*
X157733546Y-72090500D01*
X157733750Y-72090499D01*
X157859180Y-72090499D01*
X157865294Y-72090017D01*
X157869939Y-72090001D01*
X157869990Y-72090015D01*
X157870393Y-72090000D01*
X158422845Y-72090000D01*
X158422844Y-72089999D01*
X158415984Y-72066385D01*
X158416183Y-71996516D01*
X158454125Y-71937846D01*
X158517763Y-71909002D01*
X158586893Y-71919143D01*
X158622741Y-71944109D01*
X159433181Y-72754549D01*
X159466666Y-72815872D01*
X159469500Y-72842230D01*
X159469500Y-73613917D01*
X159469500Y-73613919D01*
X159469499Y-73613919D01*
X159498340Y-73758906D01*
X159498343Y-73758916D01*
X159554914Y-73895490D01*
X159554916Y-73895494D01*
X159563885Y-73908917D01*
X159580977Y-73934498D01*
X159637049Y-74018417D01*
X159637052Y-74018420D01*
X159987050Y-74368416D01*
X160044318Y-74425684D01*
X160091586Y-74472952D01*
X160214499Y-74555080D01*
X160214512Y-74555087D01*
X160351083Y-74611656D01*
X160351088Y-74611658D01*
X160351092Y-74611658D01*
X160351093Y-74611659D01*
X160496080Y-74640500D01*
X160496083Y-74640500D01*
X160497934Y-74640500D01*
X160502096Y-74641092D01*
X160502143Y-74641097D01*
X160502142Y-74641099D01*
X160532528Y-74645423D01*
X160609007Y-74667643D01*
X160645310Y-74670500D01*
X160645318Y-74670500D01*
X161114682Y-74670500D01*
X161114690Y-74670500D01*
X161150993Y-74667643D01*
X161150995Y-74667642D01*
X161150997Y-74667642D01*
X161227470Y-74645424D01*
X161306395Y-74622494D01*
X161445687Y-74540117D01*
X161560117Y-74425687D01*
X161642494Y-74286395D01*
X161687643Y-74130993D01*
X161690500Y-74094690D01*
X161690500Y-73804500D01*
X161710185Y-73737461D01*
X161762989Y-73691706D01*
X161814500Y-73680500D01*
X162657770Y-73680500D01*
X162724809Y-73700185D01*
X162745451Y-73716819D01*
X163123181Y-74094549D01*
X163156666Y-74155872D01*
X163159500Y-74182230D01*
X163159500Y-74718703D01*
X163174696Y-74834142D01*
X163174699Y-74834151D01*
X163226521Y-74959261D01*
X163234200Y-74977798D01*
X163328851Y-75101149D01*
X163452202Y-75195800D01*
X163496191Y-75214021D01*
X163520135Y-75223939D01*
X163574538Y-75267780D01*
X163596603Y-75334074D01*
X163579324Y-75401773D01*
X163528187Y-75449384D01*
X163472682Y-75462500D01*
X158384888Y-75462500D01*
X158317849Y-75442815D01*
X158272094Y-75390011D01*
X158262150Y-75320853D01*
X158291175Y-75257297D01*
X158297207Y-75250819D01*
X158340731Y-75207294D01*
X158340738Y-75207285D01*
X158422404Y-75069194D01*
X158462844Y-74930000D01*
X156837156Y-74930000D01*
X156877595Y-75069194D01*
X156959261Y-75207285D01*
X156959268Y-75207294D01*
X157002793Y-75250819D01*
X157036278Y-75312142D01*
X157031294Y-75381834D01*
X156989422Y-75437767D01*
X156923958Y-75462184D01*
X156915112Y-75462500D01*
X120204602Y-75462500D01*
X120137563Y-75442815D01*
X120091808Y-75390011D01*
X120081864Y-75320853D01*
X120090041Y-75291047D01*
X120109737Y-75243497D01*
X120140500Y-75088842D01*
X120140500Y-74931158D01*
X120140500Y-74931155D01*
X120140499Y-74931153D01*
X120123403Y-74845205D01*
X120109737Y-74776503D01*
X120098420Y-74749181D01*
X120049397Y-74630827D01*
X120049390Y-74630814D01*
X119976785Y-74522154D01*
X119955907Y-74455477D01*
X119974391Y-74388097D01*
X120026370Y-74341406D01*
X120028206Y-74340546D01*
X120036509Y-74336738D01*
X120121897Y-74311931D01*
X120229819Y-74248106D01*
X120235687Y-74245416D01*
X120264118Y-74241284D01*
X120291971Y-74234218D01*
X120298850Y-74236238D01*
X120304831Y-74235369D01*
X120321113Y-74242775D01*
X120350487Y-74251400D01*
X120420607Y-74292869D01*
X120422163Y-74293321D01*
X120574791Y-74337664D01*
X120574794Y-74337664D01*
X120574796Y-74337665D01*
X120610819Y-74340500D01*
X121109180Y-74340499D01*
X121145204Y-74337665D01*
X121299393Y-74292869D01*
X121437598Y-74211135D01*
X121551135Y-74097598D01*
X121632869Y-73959393D01*
X121666879Y-73842331D01*
X121677664Y-73805208D01*
X121677665Y-73805202D01*
X121678236Y-73797947D01*
X121680500Y-73769181D01*
X121680499Y-73584031D01*
X121683356Y-73574300D01*
X121682089Y-73564237D01*
X121693033Y-73541341D01*
X121700183Y-73516993D01*
X121707848Y-73510350D01*
X121712223Y-73501200D01*
X121733808Y-73487856D01*
X121752987Y-73471238D01*
X121763026Y-73469794D01*
X121771654Y-73464461D01*
X121797027Y-73464905D01*
X121822145Y-73461294D01*
X121833231Y-73465539D01*
X121841513Y-73465685D01*
X121873285Y-73480879D01*
X121873354Y-73480906D01*
X121924505Y-73515084D01*
X121924580Y-73515115D01*
X121924646Y-73515159D01*
X121992201Y-73543124D01*
X122061087Y-73571658D01*
X122061092Y-73571660D01*
X122066895Y-73573400D01*
X122066917Y-73573414D01*
X122067071Y-73573453D01*
X122067280Y-73573516D01*
X122067246Y-73573628D01*
X122083358Y-73584113D01*
X122120143Y-73603053D01*
X122124773Y-73611062D01*
X122125457Y-73611508D01*
X122126953Y-73614835D01*
X122155109Y-73663543D01*
X122157910Y-73679586D01*
X122160909Y-73707483D01*
X122211202Y-73842328D01*
X122211206Y-73842335D01*
X122297452Y-73957544D01*
X122297455Y-73957547D01*
X122412664Y-74043793D01*
X122412671Y-74043797D01*
X122547517Y-74094091D01*
X122547516Y-74094091D01*
X122553014Y-74094682D01*
X122607127Y-74100500D01*
X123752872Y-74100499D01*
X123812483Y-74094091D01*
X123947331Y-74043796D01*
X123948430Y-74042972D01*
X123949717Y-74042492D01*
X123955112Y-74039547D01*
X123955535Y-74040322D01*
X124013887Y-74018552D01*
X124070198Y-74027673D01*
X124150873Y-74061091D01*
X124334408Y-74097598D01*
X124348992Y-74100499D01*
X124348996Y-74100500D01*
X124348997Y-74100500D01*
X124551004Y-74100500D01*
X124551005Y-74100499D01*
X124749127Y-74061091D01*
X124935756Y-73983786D01*
X125016562Y-73929792D01*
X125083234Y-73908917D01*
X125150614Y-73927401D01*
X125154340Y-73929795D01*
X125234479Y-73983343D01*
X125234486Y-73983347D01*
X125421016Y-74060609D01*
X125421025Y-74060612D01*
X125470000Y-74070353D01*
X125470000Y-74070352D01*
X125970000Y-74070352D01*
X126018974Y-74060612D01*
X126018983Y-74060609D01*
X126205513Y-73983347D01*
X126205526Y-73983340D01*
X126373399Y-73871170D01*
X126373403Y-73871167D01*
X126516167Y-73728403D01*
X126516170Y-73728399D01*
X126628340Y-73560526D01*
X126628347Y-73560513D01*
X126705609Y-73373983D01*
X126705612Y-73373974D01*
X126744999Y-73175958D01*
X126745000Y-73175955D01*
X126745000Y-73100000D01*
X125970000Y-73100000D01*
X125970000Y-74070352D01*
X125470000Y-74070352D01*
X125470000Y-73215865D01*
X125470067Y-73211789D01*
X125470400Y-73201638D01*
X125475500Y-73176003D01*
X125475500Y-72600000D01*
X125970000Y-72600000D01*
X126745000Y-72600000D01*
X126745000Y-72524045D01*
X126744999Y-72524041D01*
X126705612Y-72326025D01*
X126705609Y-72326016D01*
X126628347Y-72139486D01*
X126628340Y-72139473D01*
X126516170Y-71971600D01*
X126516167Y-71971596D01*
X126373403Y-71828832D01*
X126373399Y-71828829D01*
X126205526Y-71716659D01*
X126205513Y-71716652D01*
X126018984Y-71639390D01*
X126018977Y-71639388D01*
X125970000Y-71629645D01*
X125970000Y-72600000D01*
X125475500Y-72600000D01*
X125475500Y-72523997D01*
X125472383Y-72508326D01*
X125470000Y-72484134D01*
X125470000Y-71629646D01*
X125469999Y-71629645D01*
X125421022Y-71639388D01*
X125421015Y-71639390D01*
X125271952Y-71701134D01*
X125202483Y-71708603D01*
X125140004Y-71677327D01*
X125104352Y-71617238D01*
X125100500Y-71586573D01*
X125100500Y-70445928D01*
X125075502Y-70320261D01*
X125075501Y-70320260D01*
X125075501Y-70320256D01*
X125026465Y-70201873D01*
X125009131Y-70175931D01*
X124990749Y-70148420D01*
X124969873Y-70081748D01*
X124988357Y-70014367D01*
X125006176Y-69991847D01*
X125010738Y-69987285D01*
X125010739Y-69987283D01*
X125092406Y-69849191D01*
X125092407Y-69849188D01*
X125137166Y-69695128D01*
X125137167Y-69695122D01*
X125139931Y-69660000D01*
X124571308Y-69660000D01*
X124541867Y-69651355D01*
X124511881Y-69644832D01*
X124506865Y-69641077D01*
X124504269Y-69640315D01*
X124483627Y-69623681D01*
X124406319Y-69546373D01*
X124372834Y-69485050D01*
X124370000Y-69458692D01*
X124370000Y-69410000D01*
X124321308Y-69410000D01*
X124291867Y-69401355D01*
X124261881Y-69394832D01*
X124256865Y-69391077D01*
X124254269Y-69390315D01*
X124233627Y-69373681D01*
X124156818Y-69296872D01*
X124123333Y-69235549D01*
X124120499Y-69209191D01*
X124120499Y-69160831D01*
X124120498Y-69160806D01*
X124120435Y-69160000D01*
X124620000Y-69160000D01*
X125139931Y-69160000D01*
X125137167Y-69124877D01*
X125137166Y-69124871D01*
X125092407Y-68970811D01*
X125092406Y-68970808D01*
X125010738Y-68832714D01*
X125010731Y-68832705D01*
X124965635Y-68787610D01*
X124932149Y-68726287D01*
X124934240Y-68665330D01*
X124947143Y-68620920D01*
X124947145Y-68620909D01*
X124948790Y-68600000D01*
X124620000Y-68600000D01*
X124620000Y-69160000D01*
X124120435Y-69160000D01*
X124119912Y-69153360D01*
X124117665Y-69124796D01*
X124072869Y-68970607D01*
X123991135Y-68832402D01*
X123991132Y-68832399D01*
X123986352Y-68826236D01*
X123986422Y-68826181D01*
X123984406Y-68824803D01*
X123973104Y-68798088D01*
X123959205Y-68772633D01*
X123959036Y-68764833D01*
X123957184Y-68760454D01*
X123958583Y-68743850D01*
X123958180Y-68725174D01*
X123959359Y-68718345D01*
X123987643Y-68620993D01*
X123990500Y-68584690D01*
X123990500Y-68115310D01*
X123987643Y-68079007D01*
X123987596Y-68078846D01*
X123942495Y-67923608D01*
X123942492Y-67923600D01*
X123937266Y-67914763D01*
X123920000Y-67851645D01*
X123920000Y-67545494D01*
X124420000Y-67545494D01*
X124420000Y-68100000D01*
X124948790Y-68100000D01*
X124947145Y-68079089D01*
X124902031Y-67923804D01*
X124819721Y-67784625D01*
X124819714Y-67784616D01*
X124705383Y-67670285D01*
X124705374Y-67670278D01*
X124566193Y-67587967D01*
X124566190Y-67587965D01*
X124420001Y-67545493D01*
X124420000Y-67545494D01*
X123920000Y-67545494D01*
X123919998Y-67545493D01*
X123773809Y-67587965D01*
X123773806Y-67587967D01*
X123753608Y-67599912D01*
X123747609Y-67601433D01*
X123742967Y-67605527D01*
X123714138Y-67609924D01*
X123685884Y-67617092D01*
X123678463Y-67615366D01*
X123673896Y-67616063D01*
X123658556Y-67610737D01*
X123639947Y-67606410D01*
X123633475Y-67603521D01*
X123606395Y-67587506D01*
X123581190Y-67580183D01*
X123573416Y-67576713D01*
X123553037Y-67559358D01*
X123530477Y-67544950D01*
X123526841Y-67537049D01*
X123520222Y-67531412D01*
X123512461Y-67505795D01*
X123501272Y-67481477D01*
X123502485Y-67472865D01*
X123499964Y-67464544D01*
X123507284Y-67438797D01*
X123511019Y-67412290D01*
X123517472Y-67402966D01*
X123519073Y-67397338D01*
X123524963Y-67392144D01*
X123536275Y-67375802D01*
X123631789Y-67280289D01*
X123719394Y-67149179D01*
X123731931Y-67118913D01*
X123758735Y-67054201D01*
X123779737Y-67003497D01*
X123810500Y-66848842D01*
X123810500Y-66691158D01*
X123810500Y-66691155D01*
X123810499Y-66691153D01*
X123779737Y-66536503D01*
X123771921Y-66517633D01*
X123719397Y-66390827D01*
X123719390Y-66390814D01*
X123631789Y-66259711D01*
X123631786Y-66259707D01*
X123520292Y-66148213D01*
X123520288Y-66148210D01*
X123389185Y-66060609D01*
X123389172Y-66060602D01*
X123243501Y-66000264D01*
X123243489Y-66000261D01*
X123088845Y-65969500D01*
X123088842Y-65969500D01*
X122931158Y-65969500D01*
X122931155Y-65969500D01*
X122776510Y-66000261D01*
X122776498Y-66000264D01*
X122630827Y-66060602D01*
X122630814Y-66060609D01*
X122499711Y-66148210D01*
X122499707Y-66148213D01*
X122388213Y-66259707D01*
X122388210Y-66259711D01*
X122300609Y-66390814D01*
X122300602Y-66390827D01*
X122240264Y-66536498D01*
X122240261Y-66536510D01*
X122209500Y-66691153D01*
X122209500Y-66848846D01*
X122240261Y-67003489D01*
X122240264Y-67003501D01*
X122300602Y-67149172D01*
X122300609Y-67149185D01*
X122388210Y-67280288D01*
X122388213Y-67280292D01*
X122499707Y-67391786D01*
X122499711Y-67391789D01*
X122630819Y-67479393D01*
X122635847Y-67482081D01*
X122685691Y-67531044D01*
X122701151Y-67599182D01*
X122677319Y-67664862D01*
X122665075Y-67679120D01*
X122559884Y-67784311D01*
X122559881Y-67784315D01*
X122477505Y-67923606D01*
X122477504Y-67923607D01*
X122446452Y-68030489D01*
X122415057Y-68083574D01*
X122185451Y-68313181D01*
X122158523Y-68327884D01*
X122132705Y-68344477D01*
X122126504Y-68345368D01*
X122124128Y-68346666D01*
X122097770Y-68349500D01*
X121906894Y-68349500D01*
X121839855Y-68329815D01*
X121794100Y-68277011D01*
X121784156Y-68207853D01*
X121813181Y-68144297D01*
X121819213Y-68137819D01*
X121859986Y-68097045D01*
X121859989Y-68097042D01*
X121947594Y-67965932D01*
X122007937Y-67820250D01*
X122038700Y-67665595D01*
X122038700Y-67507911D01*
X122038700Y-67507908D01*
X122038699Y-67507906D01*
X122033735Y-67482951D01*
X122007937Y-67353256D01*
X121998714Y-67330989D01*
X121947597Y-67207580D01*
X121947590Y-67207567D01*
X121859989Y-67076464D01*
X121859986Y-67076460D01*
X121748492Y-66964966D01*
X121748488Y-66964963D01*
X121617385Y-66877362D01*
X121617372Y-66877355D01*
X121471701Y-66817017D01*
X121471689Y-66817014D01*
X121317045Y-66786253D01*
X121317042Y-66786253D01*
X121159358Y-66786253D01*
X121159355Y-66786253D01*
X121004710Y-66817014D01*
X121004698Y-66817017D01*
X120859027Y-66877355D01*
X120859014Y-66877362D01*
X120727911Y-66964963D01*
X120727907Y-66964966D01*
X120616413Y-67076460D01*
X120616410Y-67076464D01*
X120528809Y-67207567D01*
X120528802Y-67207580D01*
X120468464Y-67353251D01*
X120468461Y-67353263D01*
X120437700Y-67507906D01*
X120437700Y-67665599D01*
X120468461Y-67820242D01*
X120468464Y-67820254D01*
X120528802Y-67965925D01*
X120528808Y-67965936D01*
X120572669Y-68031579D01*
X120593546Y-68098256D01*
X120575061Y-68165636D01*
X120523082Y-68212326D01*
X120493758Y-68222086D01*
X120433340Y-68234104D01*
X120433332Y-68234106D01*
X120269459Y-68301983D01*
X120269446Y-68301990D01*
X120121965Y-68400535D01*
X120121961Y-68400538D01*
X119996538Y-68525961D01*
X119996535Y-68525965D01*
X119897990Y-68673446D01*
X119897983Y-68673459D01*
X119830107Y-68837329D01*
X119830104Y-68837339D01*
X119820653Y-68884854D01*
X119811903Y-68901579D01*
X119807902Y-68920027D01*
X119789102Y-68945169D01*
X119788268Y-68946765D01*
X119786767Y-68948293D01*
X119724757Y-69010374D01*
X119673040Y-69062091D01*
X119672964Y-69062185D01*
X119672783Y-69062405D01*
X119631677Y-69124001D01*
X119631638Y-69124058D01*
X119590913Y-69185007D01*
X119590750Y-69185310D01*
X119590725Y-69185358D01*
X119590718Y-69185370D01*
X119589829Y-69187520D01*
X119589033Y-69188508D01*
X119588556Y-69189395D01*
X119588340Y-69189852D01*
X119587997Y-69190500D01*
X119587599Y-69190289D01*
X119546011Y-69241942D01*
X119479726Y-69264035D01*
X119427796Y-69254677D01*
X119308501Y-69205264D01*
X119308489Y-69205261D01*
X119153845Y-69174500D01*
X119153842Y-69174500D01*
X118996158Y-69174500D01*
X118996155Y-69174500D01*
X118841510Y-69205261D01*
X118841498Y-69205264D01*
X118695827Y-69265602D01*
X118695814Y-69265609D01*
X118564711Y-69353210D01*
X118564707Y-69353213D01*
X118453213Y-69464707D01*
X118453210Y-69464711D01*
X118365609Y-69595814D01*
X118365602Y-69595827D01*
X118305264Y-69741498D01*
X118305261Y-69741510D01*
X118274500Y-69896153D01*
X118274500Y-70053846D01*
X118305261Y-70208489D01*
X118305264Y-70208501D01*
X118365602Y-70354172D01*
X118365609Y-70354185D01*
X118453210Y-70485288D01*
X118453213Y-70485292D01*
X118564707Y-70596786D01*
X118564711Y-70596789D01*
X118695817Y-70684392D01*
X118695819Y-70684392D01*
X118695821Y-70684394D01*
X118773922Y-70716744D01*
X118789402Y-70723156D01*
X118829638Y-70750042D01*
X118961024Y-70881447D01*
X119050063Y-70970500D01*
X119102025Y-71022469D01*
X119135505Y-71083795D01*
X119130516Y-71153486D01*
X119117440Y-71179034D01*
X119098608Y-71207217D01*
X119098602Y-71207228D01*
X119038264Y-71352898D01*
X119038261Y-71352910D01*
X119006311Y-71513532D01*
X119004522Y-71513176D01*
X118981557Y-71570027D01*
X118924517Y-71610378D01*
X118896487Y-71616474D01*
X118891159Y-71616999D01*
X118736505Y-71647761D01*
X118736497Y-71647764D01*
X118684594Y-71669263D01*
X118615124Y-71676732D01*
X118552645Y-71645456D01*
X118549488Y-71642410D01*
X118475289Y-71568211D01*
X118475288Y-71568210D01*
X118475287Y-71568209D01*
X118344185Y-71480609D01*
X118344172Y-71480602D01*
X118198501Y-71420264D01*
X118198489Y-71420261D01*
X118043845Y-71389500D01*
X118043842Y-71389500D01*
X117886158Y-71389500D01*
X117886155Y-71389500D01*
X117731510Y-71420261D01*
X117731498Y-71420264D01*
X117585827Y-71480602D01*
X117585814Y-71480609D01*
X117454711Y-71568210D01*
X117454707Y-71568213D01*
X117343213Y-71679707D01*
X117343210Y-71679711D01*
X117255609Y-71810814D01*
X117255602Y-71810827D01*
X117195264Y-71956498D01*
X117195261Y-71956510D01*
X117164500Y-72111153D01*
X117164500Y-72268846D01*
X117195261Y-72423489D01*
X117195264Y-72423501D01*
X117255602Y-72569172D01*
X117255609Y-72569185D01*
X117343210Y-72700288D01*
X117343213Y-72700292D01*
X117454707Y-72811786D01*
X117454711Y-72811789D01*
X117585814Y-72899390D01*
X117585827Y-72899397D01*
X117731498Y-72959735D01*
X117731503Y-72959737D01*
X117858930Y-72985084D01*
X117886153Y-72990499D01*
X117886156Y-72990500D01*
X117886158Y-72990500D01*
X118043844Y-72990500D01*
X118130005Y-72973361D01*
X118143960Y-72970585D01*
X118177677Y-72973601D01*
X118211458Y-72976010D01*
X118212391Y-72976708D01*
X118213552Y-72976812D01*
X118240277Y-72997573D01*
X118267402Y-73017868D01*
X118267809Y-73018961D01*
X118268729Y-73019675D01*
X118279985Y-73051583D01*
X118291834Y-73083327D01*
X118291586Y-73084465D01*
X118291974Y-73085564D01*
X118284185Y-73118524D01*
X118276998Y-73151603D01*
X118276079Y-73152830D01*
X118275907Y-73153561D01*
X118255853Y-73179863D01*
X118155725Y-73280038D01*
X118114468Y-73321296D01*
X118099469Y-73336295D01*
X118099394Y-73336393D01*
X118060420Y-73403936D01*
X118060407Y-73403960D01*
X118020419Y-73473221D01*
X118020374Y-73473330D01*
X118020370Y-73473345D01*
X117999668Y-73550672D01*
X117979500Y-73625943D01*
X117979500Y-73626009D01*
X117979480Y-73626084D01*
X117979495Y-73685310D01*
X117979500Y-73707275D01*
X117979500Y-74990943D01*
X117979500Y-75149057D01*
X118012675Y-75272869D01*
X118021662Y-75306407D01*
X118019999Y-75376256D01*
X117980836Y-75434119D01*
X117916608Y-75461623D01*
X117901887Y-75462500D01*
X111624000Y-75462500D01*
X111556961Y-75442815D01*
X111511206Y-75390011D01*
X111500000Y-75338500D01*
X111500000Y-64249153D01*
X117323500Y-64249153D01*
X117323500Y-64406846D01*
X117354261Y-64561489D01*
X117354264Y-64561501D01*
X117414602Y-64707172D01*
X117414609Y-64707185D01*
X117502210Y-64838288D01*
X117502213Y-64838292D01*
X117613707Y-64949786D01*
X117613711Y-64949789D01*
X117744814Y-65037390D01*
X117744827Y-65037397D01*
X117884122Y-65095094D01*
X117890503Y-65097737D01*
X118034073Y-65126295D01*
X118045153Y-65128499D01*
X118045156Y-65128500D01*
X118045158Y-65128500D01*
X118202844Y-65128500D01*
X118202845Y-65128499D01*
X118357497Y-65097737D01*
X118417115Y-65073042D01*
X118429096Y-65071754D01*
X118439750Y-65066112D01*
X118463190Y-65068088D01*
X118486579Y-65065574D01*
X118499093Y-65071116D01*
X118509372Y-65071983D01*
X118527016Y-65083482D01*
X118540131Y-65089290D01*
X118546532Y-65094210D01*
X118571711Y-65119389D01*
X118629701Y-65158137D01*
X118632967Y-65160647D01*
X118651225Y-65185695D01*
X118671096Y-65209472D01*
X118671624Y-65213680D01*
X118674124Y-65217109D01*
X118675941Y-65248052D01*
X118679803Y-65278797D01*
X118677972Y-65282623D01*
X118678221Y-65286858D01*
X118663022Y-65313869D01*
X118649648Y-65341824D01*
X118645054Y-65345804D01*
X118643959Y-65347751D01*
X118640998Y-65349319D01*
X118626292Y-65362062D01*
X118564713Y-65403208D01*
X118564707Y-65403213D01*
X118453213Y-65514707D01*
X118453210Y-65514711D01*
X118365609Y-65645814D01*
X118365602Y-65645827D01*
X118305264Y-65791498D01*
X118305261Y-65791510D01*
X118274500Y-65946153D01*
X118274500Y-66103846D01*
X118305261Y-66258489D01*
X118305264Y-66258501D01*
X118365602Y-66404172D01*
X118365609Y-66404185D01*
X118453210Y-66535288D01*
X118453213Y-66535292D01*
X118564707Y-66646786D01*
X118564711Y-66646789D01*
X118695814Y-66734390D01*
X118695827Y-66734397D01*
X118841498Y-66794735D01*
X118841503Y-66794737D01*
X118996153Y-66825499D01*
X118996156Y-66825500D01*
X118996158Y-66825500D01*
X119153844Y-66825500D01*
X119153845Y-66825499D01*
X119308497Y-66794737D01*
X119436171Y-66741853D01*
X119454172Y-66734397D01*
X119454172Y-66734396D01*
X119454179Y-66734394D01*
X119585289Y-66646789D01*
X119696789Y-66535289D01*
X119784394Y-66404179D01*
X119844737Y-66258497D01*
X119875500Y-66103842D01*
X119875500Y-65946158D01*
X119875500Y-65946155D01*
X119875499Y-65946153D01*
X119869183Y-65914403D01*
X119844737Y-65791503D01*
X119816357Y-65722987D01*
X119784397Y-65645827D01*
X119784390Y-65645814D01*
X119696789Y-65514711D01*
X119696786Y-65514707D01*
X119585292Y-65403213D01*
X119585288Y-65403210D01*
X119530707Y-65366740D01*
X119485902Y-65313128D01*
X119477195Y-65243803D01*
X119507350Y-65180775D01*
X119530702Y-65160540D01*
X119592289Y-65119389D01*
X119703789Y-65007889D01*
X119791394Y-64876779D01*
X119805933Y-64841676D01*
X119849772Y-64787275D01*
X119916066Y-64765209D01*
X119983765Y-64782487D01*
X120023596Y-64820239D01*
X120074210Y-64895988D01*
X120074213Y-64895992D01*
X120185707Y-65007486D01*
X120185711Y-65007489D01*
X120316814Y-65095090D01*
X120316827Y-65095097D01*
X120417931Y-65136975D01*
X120462503Y-65155437D01*
X120589885Y-65180775D01*
X120617153Y-65186199D01*
X120617156Y-65186200D01*
X120617158Y-65186200D01*
X120774844Y-65186200D01*
X120774845Y-65186199D01*
X120929497Y-65155437D01*
X121075179Y-65095094D01*
X121075184Y-65095090D01*
X121075187Y-65095089D01*
X121107611Y-65073424D01*
X121174288Y-65052545D01*
X121241669Y-65071029D01*
X121288359Y-65123007D01*
X121291064Y-65129072D01*
X121305604Y-65164176D01*
X121305609Y-65164185D01*
X121393210Y-65295288D01*
X121393213Y-65295292D01*
X121504707Y-65406786D01*
X121504711Y-65406789D01*
X121635814Y-65494390D01*
X121635827Y-65494397D01*
X121749526Y-65541492D01*
X121781503Y-65554737D01*
X121936153Y-65585499D01*
X121936156Y-65585500D01*
X121936158Y-65585500D01*
X122093844Y-65585500D01*
X122093845Y-65585499D01*
X122248497Y-65554737D01*
X122394179Y-65494394D01*
X122525289Y-65406789D01*
X122636789Y-65295289D01*
X122724394Y-65164179D01*
X122725585Y-65161305D01*
X122739173Y-65128499D01*
X122784737Y-65018497D01*
X122815500Y-64863842D01*
X122815500Y-64706158D01*
X122815500Y-64706155D01*
X122815499Y-64706153D01*
X122801205Y-64634294D01*
X122784737Y-64551503D01*
X122778576Y-64536628D01*
X122724397Y-64405827D01*
X122724390Y-64405814D01*
X122636789Y-64274711D01*
X122636786Y-64274707D01*
X122525292Y-64163213D01*
X122525288Y-64163210D01*
X122394185Y-64075609D01*
X122394172Y-64075602D01*
X122354237Y-64059061D01*
X122299833Y-64015220D01*
X122277768Y-63948926D01*
X122295047Y-63881227D01*
X122346184Y-63833616D01*
X122401689Y-63820500D01*
X122768844Y-63820500D01*
X122768845Y-63820499D01*
X122923497Y-63789737D01*
X123036166Y-63743067D01*
X123069172Y-63729397D01*
X123069172Y-63729396D01*
X123069179Y-63729394D01*
X123199682Y-63642194D01*
X123266354Y-63621318D01*
X123333735Y-63639802D01*
X123356250Y-63657617D01*
X124529548Y-64830915D01*
X124529549Y-64830916D01*
X124594621Y-64895988D01*
X124634085Y-64935452D01*
X124756998Y-65017580D01*
X124757011Y-65017587D01*
X124886033Y-65071029D01*
X124893587Y-65074158D01*
X124893591Y-65074158D01*
X124893592Y-65074159D01*
X125038579Y-65103000D01*
X125038582Y-65103000D01*
X125774282Y-65103000D01*
X125778341Y-65104192D01*
X125782470Y-65103271D01*
X125811575Y-65113950D01*
X125841321Y-65122685D01*
X125845220Y-65126295D01*
X125848063Y-65127339D01*
X125856752Y-65136975D01*
X125873152Y-65152162D01*
X125877414Y-65157793D01*
X125941919Y-65266865D01*
X126016195Y-65341141D01*
X126021349Y-65347950D01*
X126030828Y-65372958D01*
X126043645Y-65396430D01*
X126043022Y-65405129D01*
X126046114Y-65413284D01*
X126040568Y-65439444D01*
X126038661Y-65466122D01*
X126033434Y-65473103D01*
X126031626Y-65481635D01*
X126012816Y-65500645D01*
X125996789Y-65522055D01*
X125988617Y-65525102D01*
X125982484Y-65531302D01*
X125956384Y-65537125D01*
X125931325Y-65546472D01*
X125921574Y-65544891D01*
X125914291Y-65546517D01*
X125900598Y-65541492D01*
X125875027Y-65537349D01*
X125813501Y-65511864D01*
X125813489Y-65511861D01*
X125658845Y-65481100D01*
X125658842Y-65481100D01*
X125501158Y-65481100D01*
X125501155Y-65481100D01*
X125346510Y-65511861D01*
X125346498Y-65511864D01*
X125200827Y-65572202D01*
X125200814Y-65572209D01*
X125069711Y-65659810D01*
X125069707Y-65659813D01*
X124958213Y-65771307D01*
X124958210Y-65771311D01*
X124870609Y-65902414D01*
X124870602Y-65902427D01*
X124810264Y-66048098D01*
X124810261Y-66048110D01*
X124779500Y-66202753D01*
X124779500Y-66360446D01*
X124810261Y-66515089D01*
X124810264Y-66515101D01*
X124870602Y-66660772D01*
X124870609Y-66660785D01*
X124958210Y-66791888D01*
X124958213Y-66791892D01*
X125069707Y-66903386D01*
X125069711Y-66903389D01*
X125200814Y-66990990D01*
X125200827Y-66990997D01*
X125300490Y-67032278D01*
X125346503Y-67051337D01*
X125472804Y-67076460D01*
X125501153Y-67082099D01*
X125501156Y-67082100D01*
X125501158Y-67082100D01*
X125658838Y-67082100D01*
X125658842Y-67082100D01*
X125661298Y-67081611D01*
X125662613Y-67081728D01*
X125664907Y-67081503D01*
X125664949Y-67081937D01*
X125730887Y-67087831D01*
X125786070Y-67130688D01*
X125806551Y-67176342D01*
X125809500Y-67189620D01*
X125809500Y-67205694D01*
X125812402Y-67242569D01*
X125849998Y-67371975D01*
X125850862Y-67375864D01*
X125848776Y-67406914D01*
X125848688Y-67438023D01*
X125846432Y-67441811D01*
X125846180Y-67445577D01*
X125836124Y-67459131D01*
X125821166Y-67484263D01*
X125822072Y-67485007D01*
X125818208Y-67489714D01*
X125730609Y-67620814D01*
X125730602Y-67620827D01*
X125670264Y-67766498D01*
X125670261Y-67766510D01*
X125639500Y-67921153D01*
X125639500Y-68078846D01*
X125670261Y-68233489D01*
X125670264Y-68233501D01*
X125730602Y-68379172D01*
X125730609Y-68379185D01*
X125818210Y-68510288D01*
X125818213Y-68510292D01*
X125929707Y-68621786D01*
X125929711Y-68621789D01*
X126060814Y-68709390D01*
X126060827Y-68709397D01*
X126206498Y-68769735D01*
X126206503Y-68769737D01*
X126349032Y-68798088D01*
X126361153Y-68800499D01*
X126361156Y-68800500D01*
X126361158Y-68800500D01*
X126518844Y-68800500D01*
X126592818Y-68785785D01*
X126671309Y-68770172D01*
X126740900Y-68776399D01*
X126796077Y-68819262D01*
X126819322Y-68885151D01*
X126819500Y-68891789D01*
X126819500Y-71113330D01*
X126819499Y-71113348D01*
X126819499Y-71279054D01*
X126819498Y-71279054D01*
X126824337Y-71297111D01*
X126859466Y-71428214D01*
X126860424Y-71431787D01*
X126873536Y-71454497D01*
X126873537Y-71454499D01*
X126939477Y-71568712D01*
X126939481Y-71568717D01*
X127058349Y-71687585D01*
X127058355Y-71687590D01*
X127243181Y-71872416D01*
X127276666Y-71933739D01*
X127279500Y-71960097D01*
X127279500Y-73937870D01*
X127279501Y-73937876D01*
X127285908Y-73997483D01*
X127336202Y-74132328D01*
X127336206Y-74132335D01*
X127422452Y-74247544D01*
X127422455Y-74247547D01*
X127537664Y-74333793D01*
X127537671Y-74333797D01*
X127672517Y-74384091D01*
X127672516Y-74384091D01*
X127679444Y-74384835D01*
X127732127Y-74390500D01*
X130327872Y-74390499D01*
X130387483Y-74384091D01*
X130522331Y-74333796D01*
X130555738Y-74308786D01*
X130621199Y-74284369D01*
X130689472Y-74299219D01*
X130698937Y-74304949D01*
X130733453Y-74328013D01*
X130733456Y-74328014D01*
X130733457Y-74328015D01*
X130842707Y-74373267D01*
X130897334Y-74395894D01*
X130897336Y-74395894D01*
X130897341Y-74395896D01*
X131071304Y-74430499D01*
X131071307Y-74430500D01*
X131071309Y-74430500D01*
X131248693Y-74430500D01*
X131248694Y-74430499D01*
X131306682Y-74418964D01*
X131422658Y-74395896D01*
X131422661Y-74395894D01*
X131422666Y-74395894D01*
X131572583Y-74333797D01*
X131586540Y-74328016D01*
X131586540Y-74328015D01*
X131586547Y-74328013D01*
X131734035Y-74229464D01*
X131859464Y-74104035D01*
X131958013Y-73956547D01*
X132025894Y-73792666D01*
X132027529Y-73784450D01*
X132051437Y-73664253D01*
X151109500Y-73664253D01*
X151109500Y-73821946D01*
X151140261Y-73976589D01*
X151140264Y-73976601D01*
X151200602Y-74122272D01*
X151200609Y-74122285D01*
X151288210Y-74253388D01*
X151288213Y-74253392D01*
X151399707Y-74364886D01*
X151399711Y-74364889D01*
X151530814Y-74452490D01*
X151530827Y-74452497D01*
X151676498Y-74512835D01*
X151676503Y-74512837D01*
X151813623Y-74540112D01*
X151831153Y-74543599D01*
X151831156Y-74543600D01*
X151831158Y-74543600D01*
X151988844Y-74543600D01*
X151988845Y-74543599D01*
X152143497Y-74512837D01*
X152256166Y-74466167D01*
X152289172Y-74452497D01*
X152289172Y-74452496D01*
X152289179Y-74452494D01*
X152420289Y-74364889D01*
X152531789Y-74253389D01*
X152619394Y-74122279D01*
X152623052Y-74113449D01*
X152646523Y-74056783D01*
X152679737Y-73976597D01*
X152710500Y-73821942D01*
X152710500Y-73664258D01*
X152710500Y-73664255D01*
X152710499Y-73664253D01*
X152700007Y-73611508D01*
X152679737Y-73509603D01*
X152664719Y-73473345D01*
X152619397Y-73363927D01*
X152619390Y-73363914D01*
X152531789Y-73232811D01*
X152531786Y-73232807D01*
X152420292Y-73121313D01*
X152420288Y-73121310D01*
X152289185Y-73033709D01*
X152289172Y-73033702D01*
X152143501Y-72973364D01*
X152143489Y-72973361D01*
X151988845Y-72942600D01*
X151988842Y-72942600D01*
X151831158Y-72942600D01*
X151831155Y-72942600D01*
X151676510Y-72973361D01*
X151676498Y-72973364D01*
X151530827Y-73033702D01*
X151530814Y-73033709D01*
X151399711Y-73121310D01*
X151399707Y-73121313D01*
X151288213Y-73232807D01*
X151288210Y-73232811D01*
X151200609Y-73363914D01*
X151200602Y-73363927D01*
X151140264Y-73509598D01*
X151140261Y-73509610D01*
X151109500Y-73664253D01*
X132051437Y-73664253D01*
X132051578Y-73663543D01*
X132060500Y-73618691D01*
X132060500Y-73441309D01*
X132060500Y-73441306D01*
X132060499Y-73441304D01*
X132025896Y-73267341D01*
X132025893Y-73267332D01*
X131958016Y-73103459D01*
X131958009Y-73103446D01*
X131859464Y-72955965D01*
X131859461Y-72955961D01*
X131734038Y-72830538D01*
X131734034Y-72830535D01*
X131586553Y-72731990D01*
X131586540Y-72731983D01*
X131422667Y-72664106D01*
X131422658Y-72664103D01*
X131248694Y-72629500D01*
X131248691Y-72629500D01*
X131071309Y-72629500D01*
X131071304Y-72629500D01*
X130928690Y-72657868D01*
X130859099Y-72651641D01*
X130803921Y-72608778D01*
X130780677Y-72542888D01*
X130780499Y-72536251D01*
X130780499Y-71342129D01*
X130780498Y-71342123D01*
X130779874Y-71336321D01*
X130774091Y-71282517D01*
X130772799Y-71279054D01*
X130723797Y-71147671D01*
X130723793Y-71147664D01*
X130637547Y-71032455D01*
X130637544Y-71032452D01*
X130522335Y-70946206D01*
X130522328Y-70946202D01*
X130387482Y-70895908D01*
X130387483Y-70895908D01*
X130327883Y-70889501D01*
X130327881Y-70889500D01*
X130327873Y-70889500D01*
X130327865Y-70889500D01*
X129974500Y-70889500D01*
X129907461Y-70869815D01*
X129861706Y-70817011D01*
X129850500Y-70765500D01*
X129850500Y-70651155D01*
X129850499Y-70651153D01*
X129837066Y-70583621D01*
X129819737Y-70496503D01*
X129798790Y-70445931D01*
X129759397Y-70350827D01*
X129759389Y-70350813D01*
X129734655Y-70313796D01*
X129722562Y-70295699D01*
X129701684Y-70229023D01*
X129704046Y-70202624D01*
X129726500Y-70089742D01*
X129726500Y-69932058D01*
X129726500Y-69932055D01*
X129726499Y-69932053D01*
X129714213Y-69870289D01*
X129695737Y-69777403D01*
X129679904Y-69739179D01*
X129635397Y-69631727D01*
X129635390Y-69631714D01*
X129547789Y-69500611D01*
X129547786Y-69500607D01*
X129436292Y-69389113D01*
X129436288Y-69389110D01*
X129329802Y-69317958D01*
X129322179Y-69308837D01*
X129311703Y-69303223D01*
X129300187Y-69282522D01*
X129284997Y-69264346D01*
X129283515Y-69252553D01*
X129277737Y-69242165D01*
X129279241Y-69218522D01*
X129276290Y-69195021D01*
X129281419Y-69184298D01*
X129282175Y-69172436D01*
X129296221Y-69153360D01*
X129306445Y-69131993D01*
X129317598Y-69124331D01*
X129323605Y-69116175D01*
X129344136Y-69106102D01*
X129354449Y-69099018D01*
X129360413Y-69096739D01*
X129461785Y-69069577D01*
X129512383Y-69040364D01*
X129598716Y-68990520D01*
X129710520Y-68878716D01*
X129710520Y-68878714D01*
X129720723Y-68868512D01*
X129720727Y-68868506D01*
X129777098Y-68812135D01*
X132749500Y-68812135D01*
X132749500Y-71807869D01*
X132749501Y-71807876D01*
X132755908Y-71867483D01*
X132806202Y-72002328D01*
X132806206Y-72002335D01*
X132892452Y-72117544D01*
X132892455Y-72117547D01*
X133007664Y-72203793D01*
X133007671Y-72203797D01*
X133036365Y-72214499D01*
X133142517Y-72254091D01*
X133202127Y-72260500D01*
X133401413Y-72260499D01*
X133401419Y-72260500D01*
X133426082Y-72260500D01*
X134981514Y-72260500D01*
X134981530Y-72260499D01*
X135197871Y-72260499D01*
X135197872Y-72260499D01*
X135257483Y-72254091D01*
X135392331Y-72203796D01*
X135507546Y-72117546D01*
X135593796Y-72002331D01*
X135644091Y-71867483D01*
X135650500Y-71807873D01*
X135650500Y-71728553D01*
X138242500Y-71728553D01*
X138242500Y-71886246D01*
X138273261Y-72040889D01*
X138273264Y-72040901D01*
X138333602Y-72186572D01*
X138333609Y-72186585D01*
X138421210Y-72317688D01*
X138421213Y-72317692D01*
X138532707Y-72429186D01*
X138532711Y-72429189D01*
X138663814Y-72516790D01*
X138663827Y-72516797D01*
X138809498Y-72577135D01*
X138809503Y-72577137D01*
X138964153Y-72607899D01*
X138964156Y-72607900D01*
X138964158Y-72607900D01*
X139121844Y-72607900D01*
X139121845Y-72607899D01*
X139276497Y-72577137D01*
X139400120Y-72525931D01*
X139422172Y-72516797D01*
X139422172Y-72516796D01*
X139422179Y-72516794D01*
X139553289Y-72429189D01*
X139664789Y-72317689D01*
X139752394Y-72186579D01*
X139812737Y-72040897D01*
X139843500Y-71886242D01*
X139843500Y-71728558D01*
X139843500Y-71728555D01*
X139843499Y-71728553D01*
X139833945Y-71680521D01*
X139812737Y-71573903D01*
X139810589Y-71568717D01*
X139752397Y-71428227D01*
X139752390Y-71428214D01*
X139664789Y-71297111D01*
X139664786Y-71297107D01*
X139553292Y-71185613D01*
X139553288Y-71185610D01*
X139422185Y-71098009D01*
X139422172Y-71098002D01*
X139276501Y-71037664D01*
X139276489Y-71037661D01*
X139121845Y-71006900D01*
X139121842Y-71006900D01*
X138964158Y-71006900D01*
X138964155Y-71006900D01*
X138809510Y-71037661D01*
X138809498Y-71037664D01*
X138663827Y-71098002D01*
X138663814Y-71098009D01*
X138532711Y-71185610D01*
X138532707Y-71185613D01*
X138421213Y-71297107D01*
X138421210Y-71297111D01*
X138333609Y-71428214D01*
X138333602Y-71428227D01*
X138273264Y-71573898D01*
X138273261Y-71573910D01*
X138242500Y-71728553D01*
X135650500Y-71728553D01*
X135650500Y-70313796D01*
X135650500Y-70236082D01*
X135650500Y-69036082D01*
X135650500Y-69029969D01*
X135650499Y-69029947D01*
X135650499Y-68967369D01*
X138963499Y-68967369D01*
X138963499Y-68968261D01*
X138963499Y-68968262D01*
X138963500Y-69011309D01*
X138963500Y-69848846D01*
X138994261Y-70003489D01*
X138994264Y-70003501D01*
X139054602Y-70149172D01*
X139054609Y-70149185D01*
X139142210Y-70280288D01*
X139142213Y-70280292D01*
X139253707Y-70391786D01*
X139253711Y-70391789D01*
X139384814Y-70479390D01*
X139384827Y-70479397D01*
X139526824Y-70538213D01*
X139530503Y-70539737D01*
X139681785Y-70569829D01*
X139685153Y-70570499D01*
X139685156Y-70570500D01*
X139685158Y-70570500D01*
X139842844Y-70570500D01*
X139842845Y-70570499D01*
X139997497Y-70539737D01*
X140143179Y-70479394D01*
X140274289Y-70391789D01*
X140385789Y-70280289D01*
X140473394Y-70149179D01*
X140533737Y-70003497D01*
X140564500Y-69848842D01*
X140564500Y-69691158D01*
X140564500Y-69429130D01*
X140584185Y-69362091D01*
X140600808Y-69341460D01*
X147205301Y-62736779D01*
X147205304Y-62736778D01*
X147255710Y-62686370D01*
X147308124Y-62633955D01*
X147314533Y-62628701D01*
X147322643Y-62619431D01*
X147361800Y-62580275D01*
X147449402Y-62449163D01*
X147509743Y-62303480D01*
X147540502Y-62148824D01*
X147540499Y-61991140D01*
X147509732Y-61836485D01*
X147449385Y-61690805D01*
X147361778Y-61559697D01*
X147361777Y-61559696D01*
X147361775Y-61559693D01*
X147361774Y-61559692D01*
X147250280Y-61448203D01*
X147250277Y-61448200D01*
X147119162Y-61360597D01*
X146973480Y-61300257D01*
X146973475Y-61300255D01*
X146844361Y-61274576D01*
X146818825Y-61269498D01*
X146818824Y-61269498D01*
X146661142Y-61269500D01*
X146506486Y-61300268D01*
X146506482Y-61300269D01*
X146360811Y-61360612D01*
X146360809Y-61360613D01*
X146229699Y-61448219D01*
X146178423Y-61499499D01*
X146178422Y-61499500D01*
X146123213Y-61554711D01*
X146123210Y-61554712D01*
X146073213Y-61604711D01*
X146073209Y-61604713D01*
X146073210Y-61604714D01*
X139223926Y-68454195D01*
X139223897Y-68454223D01*
X139223206Y-68454916D01*
X139142211Y-68535911D01*
X139142206Y-68535917D01*
X139142204Y-68535920D01*
X139126449Y-68559500D01*
X139114123Y-68577948D01*
X139114122Y-68577949D01*
X139055405Y-68665824D01*
X139055403Y-68665827D01*
X139054606Y-68667021D01*
X139054603Y-68667027D01*
X139054601Y-68667031D01*
X139030426Y-68725396D01*
X139030339Y-68725604D01*
X138995947Y-68808636D01*
X138995946Y-68808640D01*
X138994260Y-68812708D01*
X138994259Y-68812711D01*
X138985546Y-68856521D01*
X138978987Y-68889500D01*
X138963500Y-68967358D01*
X138963500Y-68967363D01*
X138963499Y-68967369D01*
X135650499Y-68967369D01*
X135650499Y-68812129D01*
X135650498Y-68812123D01*
X135650497Y-68812116D01*
X135644091Y-68752517D01*
X135640858Y-68743850D01*
X135593797Y-68617671D01*
X135593793Y-68617664D01*
X135507547Y-68502455D01*
X135507544Y-68502452D01*
X135392335Y-68416206D01*
X135392328Y-68416202D01*
X135257482Y-68365908D01*
X135257483Y-68365908D01*
X135197883Y-68359501D01*
X135197881Y-68359500D01*
X135197873Y-68359500D01*
X134973918Y-68359500D01*
X133426082Y-68359500D01*
X133426077Y-68359500D01*
X133202130Y-68359500D01*
X133202123Y-68359501D01*
X133142516Y-68365908D01*
X133007671Y-68416202D01*
X133007664Y-68416206D01*
X132892455Y-68502452D01*
X132892452Y-68502455D01*
X132806206Y-68617664D01*
X132806202Y-68617671D01*
X132755908Y-68752517D01*
X132751009Y-68798088D01*
X132749501Y-68812123D01*
X132749500Y-68812135D01*
X129777098Y-68812135D01*
X130510519Y-68078716D01*
X130589577Y-67941785D01*
X130630501Y-67789057D01*
X130630501Y-67630943D01*
X130617303Y-67581689D01*
X130614725Y-67572066D01*
X130610500Y-67539973D01*
X130610500Y-66866666D01*
X130630185Y-66799627D01*
X130646820Y-66778984D01*
X130690112Y-66735692D01*
X130690117Y-66735687D01*
X130772494Y-66596395D01*
X130817643Y-66440993D01*
X130820500Y-66404690D01*
X130820500Y-65995310D01*
X130817643Y-65959007D01*
X130813909Y-65946155D01*
X130774443Y-65810314D01*
X130772494Y-65803605D01*
X130760379Y-65783120D01*
X130743196Y-65715399D01*
X130760379Y-65656880D01*
X130772494Y-65636395D01*
X130808675Y-65511861D01*
X130817642Y-65480997D01*
X130817643Y-65480991D01*
X130818264Y-65473103D01*
X130820500Y-65444690D01*
X130820500Y-65035310D01*
X130817643Y-64999007D01*
X130817552Y-64998695D01*
X130772495Y-64843609D01*
X130772494Y-64843606D01*
X130772494Y-64843605D01*
X130690117Y-64704313D01*
X130690115Y-64704311D01*
X130690112Y-64704307D01*
X130575692Y-64589887D01*
X130575684Y-64589881D01*
X130436393Y-64507505D01*
X130436390Y-64507503D01*
X130329510Y-64476452D01*
X130276424Y-64445057D01*
X129600921Y-63769552D01*
X129600920Y-63769551D01*
X129599848Y-63768835D01*
X129554212Y-63738342D01*
X129519569Y-63715194D01*
X129519565Y-63715192D01*
X129511046Y-63709500D01*
X129477995Y-63687416D01*
X129341413Y-63630842D01*
X129325894Y-63627755D01*
X129312970Y-63621920D01*
X129296790Y-63608022D01*
X129277891Y-63598136D01*
X129262283Y-63578381D01*
X129259969Y-63576393D01*
X129259517Y-63574880D01*
X129257266Y-63572031D01*
X129178081Y-63438135D01*
X129178076Y-63438129D01*
X129061870Y-63321923D01*
X129061862Y-63321917D01*
X128954952Y-63258691D01*
X128920398Y-63238256D01*
X128920397Y-63238255D01*
X128920396Y-63238255D01*
X128920393Y-63238254D01*
X128762573Y-63192402D01*
X128762567Y-63192401D01*
X128725701Y-63189500D01*
X128725694Y-63189500D01*
X128621168Y-63189500D01*
X128554129Y-63169815D01*
X128508374Y-63117011D01*
X128497550Y-63055772D01*
X128498791Y-63040001D01*
X128498790Y-63040000D01*
X127970000Y-63040000D01*
X127970000Y-63258691D01*
X127950315Y-63325730D01*
X127933681Y-63346372D01*
X127841923Y-63438129D01*
X127841917Y-63438137D01*
X127758255Y-63579603D01*
X127758254Y-63579606D01*
X127712402Y-63737426D01*
X127712401Y-63737432D01*
X127709500Y-63774298D01*
X127709500Y-64228500D01*
X127706949Y-64237185D01*
X127708238Y-64246147D01*
X127697259Y-64270187D01*
X127689815Y-64295539D01*
X127682974Y-64301466D01*
X127679213Y-64309703D01*
X127656978Y-64323992D01*
X127637011Y-64341294D01*
X127626496Y-64343581D01*
X127620435Y-64347477D01*
X127585500Y-64352500D01*
X127534500Y-64352500D01*
X127467461Y-64332815D01*
X127421706Y-64280011D01*
X127410500Y-64228500D01*
X127410500Y-63774313D01*
X127410499Y-63774298D01*
X127410125Y-63769551D01*
X127407598Y-63737431D01*
X127404221Y-63725807D01*
X127365424Y-63592265D01*
X127360500Y-63557670D01*
X127360500Y-63456666D01*
X127380185Y-63389627D01*
X127396816Y-63368987D01*
X127410117Y-63355687D01*
X127492494Y-63216395D01*
X127537643Y-63060993D01*
X127540500Y-63024690D01*
X127540500Y-62555310D01*
X127539295Y-62540000D01*
X127970000Y-62540000D01*
X128498790Y-62540000D01*
X128497145Y-62519089D01*
X128452032Y-62363806D01*
X128405014Y-62284304D01*
X128387831Y-62216580D01*
X128405016Y-62158057D01*
X128412031Y-62146195D01*
X128457145Y-61990910D01*
X128458790Y-61970000D01*
X127970000Y-61970000D01*
X127970000Y-62540000D01*
X127539295Y-62540000D01*
X127537643Y-62519007D01*
X127535054Y-62510097D01*
X127492495Y-62363609D01*
X127492494Y-62363605D01*
X127491450Y-62361840D01*
X127487766Y-62355609D01*
X127483416Y-62339710D01*
X127475523Y-62327427D01*
X127470500Y-62292492D01*
X127470500Y-62102065D01*
X127475424Y-62067469D01*
X127479628Y-62053000D01*
X127497643Y-61990993D01*
X127500500Y-61954690D01*
X127500500Y-61485310D01*
X127497643Y-61449007D01*
X127497414Y-61448219D01*
X127452495Y-61293608D01*
X127452492Y-61293600D01*
X127447266Y-61284763D01*
X127430000Y-61221645D01*
X127430000Y-60915494D01*
X127930000Y-60915494D01*
X127930000Y-61470000D01*
X128458790Y-61470000D01*
X128457145Y-61449089D01*
X128412031Y-61293804D01*
X128329721Y-61154625D01*
X128329714Y-61154616D01*
X128215383Y-61040285D01*
X128215374Y-61040278D01*
X128076193Y-60957967D01*
X128076190Y-60957965D01*
X127930001Y-60915493D01*
X127930000Y-60915494D01*
X127430000Y-60915494D01*
X127429998Y-60915493D01*
X127283809Y-60957965D01*
X127283806Y-60957967D01*
X127263608Y-60969912D01*
X127195884Y-60987092D01*
X127137370Y-60969910D01*
X127116397Y-60957507D01*
X127116390Y-60957504D01*
X126960997Y-60912357D01*
X126960991Y-60912356D01*
X126924697Y-60909500D01*
X126924690Y-60909500D01*
X126515310Y-60909500D01*
X126515302Y-60909500D01*
X126479008Y-60912356D01*
X126479002Y-60912357D01*
X126323609Y-60957504D01*
X126323606Y-60957505D01*
X126184315Y-61039881D01*
X126184307Y-61039887D01*
X126069887Y-61154307D01*
X126069881Y-61154315D01*
X125987505Y-61293606D01*
X125987504Y-61293609D01*
X125942357Y-61449002D01*
X125942356Y-61449008D01*
X125939500Y-61485302D01*
X125939500Y-61954697D01*
X125942356Y-61990991D01*
X125942357Y-61990994D01*
X125942400Y-61991142D01*
X125958980Y-62048210D01*
X125964576Y-62067469D01*
X125969500Y-62102065D01*
X125969500Y-62510097D01*
X125949815Y-62577136D01*
X125948604Y-62578985D01*
X125944914Y-62584506D01*
X125888343Y-62721082D01*
X125888340Y-62721092D01*
X125859500Y-62866079D01*
X125859500Y-63478000D01*
X125839815Y-63545039D01*
X125787011Y-63590794D01*
X125735500Y-63602000D01*
X125474729Y-63602000D01*
X125407690Y-63582315D01*
X125387048Y-63565681D01*
X124176071Y-62354703D01*
X124149191Y-62314475D01*
X124139394Y-62290821D01*
X124136450Y-62286415D01*
X124051789Y-62159710D01*
X123940292Y-62048213D01*
X123940288Y-62048210D01*
X123809185Y-61960609D01*
X123809172Y-61960602D01*
X123663501Y-61900264D01*
X123663489Y-61900261D01*
X123508845Y-61869500D01*
X123508842Y-61869500D01*
X123351158Y-61869500D01*
X123351156Y-61869500D01*
X123290992Y-61881467D01*
X123262591Y-61887117D01*
X123238401Y-61889500D01*
X122941152Y-61889500D01*
X122937116Y-61890303D01*
X122867525Y-61884071D01*
X122812350Y-61841204D01*
X122798372Y-61816136D01*
X122744397Y-61685827D01*
X122744390Y-61685814D01*
X122656789Y-61554711D01*
X122656786Y-61554707D01*
X122545292Y-61443213D01*
X122545288Y-61443210D01*
X122414185Y-61355609D01*
X122414172Y-61355602D01*
X122268501Y-61295264D01*
X122268489Y-61295261D01*
X122113845Y-61264500D01*
X122113842Y-61264500D01*
X121956158Y-61264500D01*
X121956155Y-61264500D01*
X121801510Y-61295261D01*
X121801498Y-61295264D01*
X121655827Y-61355602D01*
X121655814Y-61355609D01*
X121524711Y-61443210D01*
X121524707Y-61443213D01*
X121413213Y-61554707D01*
X121413210Y-61554711D01*
X121325609Y-61685814D01*
X121325602Y-61685827D01*
X121265264Y-61831498D01*
X121265261Y-61831510D01*
X121234500Y-61986153D01*
X121234500Y-62143846D01*
X121265260Y-62298488D01*
X121265263Y-62298498D01*
X121278709Y-62330959D01*
X121286178Y-62400429D01*
X121254902Y-62462908D01*
X121251830Y-62466091D01*
X121208212Y-62509709D01*
X121208204Y-62509718D01*
X121120607Y-62640818D01*
X121117807Y-62646057D01*
X121068843Y-62695900D01*
X121008451Y-62711600D01*
X119891270Y-62711600D01*
X119824231Y-62691915D01*
X119822378Y-62690701D01*
X119782552Y-62664089D01*
X119782547Y-62664087D01*
X119618667Y-62596206D01*
X119618658Y-62596203D01*
X119444694Y-62561600D01*
X119444691Y-62561600D01*
X119267309Y-62561600D01*
X119267306Y-62561600D01*
X119093341Y-62596203D01*
X119093332Y-62596206D01*
X118929459Y-62664083D01*
X118929446Y-62664090D01*
X118781965Y-62762635D01*
X118781961Y-62762638D01*
X118656538Y-62888061D01*
X118656535Y-62888065D01*
X118557990Y-63035546D01*
X118557983Y-63035559D01*
X118490106Y-63199432D01*
X118490103Y-63199441D01*
X118455500Y-63373404D01*
X118455500Y-63426662D01*
X118435815Y-63493701D01*
X118383011Y-63539456D01*
X118313853Y-63549400D01*
X118307309Y-63548279D01*
X118202846Y-63527500D01*
X118202842Y-63527500D01*
X118045158Y-63527500D01*
X118045155Y-63527500D01*
X117890510Y-63558261D01*
X117890498Y-63558264D01*
X117744827Y-63618602D01*
X117744814Y-63618609D01*
X117613711Y-63706210D01*
X117613707Y-63706213D01*
X117502213Y-63817707D01*
X117502210Y-63817711D01*
X117414609Y-63948814D01*
X117414602Y-63948827D01*
X117354264Y-64094498D01*
X117354261Y-64094510D01*
X117323500Y-64249153D01*
X111500000Y-64249153D01*
X111500000Y-60774500D01*
X111519685Y-60707461D01*
X111572489Y-60661706D01*
X111624000Y-60650500D01*
X176815649Y-60650500D01*
X176845933Y-60650500D01*
X176854042Y-60650765D01*
G37*
%TD.AperFunction*%
%TA.AperFunction,Conductor*%
G36*
X156940816Y-65230185D02*
G01*
X156986571Y-65282989D01*
X156996515Y-65352147D01*
X156994969Y-65359299D01*
X156995495Y-65360000D01*
X157301648Y-65360000D01*
X157341256Y-65366496D01*
X157353575Y-65370648D01*
X157373605Y-65382494D01*
X157483024Y-65414283D01*
X157485500Y-65415118D01*
X157498323Y-65424094D01*
X157533573Y-65444941D01*
X157541584Y-65452952D01*
X157541583Y-65452952D01*
X157557599Y-65463653D01*
X157589420Y-65484914D01*
X157589422Y-65484916D01*
X157589423Y-65484916D01*
X157664505Y-65535084D01*
X157801087Y-65591658D01*
X157909818Y-65613286D01*
X157909820Y-65613287D01*
X157950192Y-65621318D01*
X158012103Y-65653704D01*
X158046677Y-65714420D01*
X158050000Y-65742935D01*
X158050000Y-66388789D01*
X158070910Y-66387145D01*
X158226195Y-66342031D01*
X158365374Y-66259721D01*
X158365383Y-66259714D01*
X158479714Y-66145383D01*
X158479721Y-66145374D01*
X158562030Y-66006196D01*
X158607145Y-65850910D01*
X158607145Y-65850907D01*
X158609999Y-65814644D01*
X158610000Y-65814629D01*
X158610000Y-65744500D01*
X158629685Y-65677461D01*
X158682489Y-65631706D01*
X158734000Y-65620500D01*
X162723920Y-65620500D01*
X162824462Y-65600500D01*
X162868913Y-65591658D01*
X163005495Y-65535084D01*
X163080577Y-65484916D01*
X163128416Y-65452952D01*
X163215316Y-65366050D01*
X163218496Y-65363278D01*
X163246541Y-65350361D01*
X163273641Y-65335563D01*
X163277994Y-65335874D01*
X163281958Y-65334049D01*
X163312534Y-65338344D01*
X163343332Y-65340547D01*
X163347561Y-65343265D01*
X163351148Y-65343769D01*
X163359399Y-65350872D01*
X163387679Y-65369046D01*
X163451585Y-65432952D01*
X163474907Y-65448535D01*
X163474908Y-65448536D01*
X163574502Y-65515083D01*
X163574506Y-65515085D01*
X163624679Y-65535867D01*
X163624681Y-65535867D01*
X163631080Y-65538518D01*
X163711088Y-65571659D01*
X163826512Y-65594618D01*
X163848046Y-65598901D01*
X163856081Y-65600500D01*
X163856082Y-65600500D01*
X163856083Y-65600500D01*
X163863271Y-65600500D01*
X163906604Y-65608318D01*
X164002517Y-65644091D01*
X164002516Y-65644091D01*
X164009444Y-65644835D01*
X164062127Y-65650500D01*
X164815723Y-65650499D01*
X164882762Y-65670183D01*
X164928517Y-65722987D01*
X164938461Y-65792146D01*
X164937340Y-65798690D01*
X164903800Y-65967304D01*
X164903800Y-66144695D01*
X164938403Y-66318658D01*
X164938406Y-66318667D01*
X165006283Y-66482540D01*
X165006290Y-66482553D01*
X165104835Y-66630034D01*
X165104838Y-66630038D01*
X165230261Y-66755461D01*
X165230265Y-66755464D01*
X165377746Y-66854009D01*
X165377759Y-66854016D01*
X165496951Y-66903386D01*
X165541634Y-66921894D01*
X165541636Y-66921894D01*
X165541641Y-66921896D01*
X165715604Y-66956499D01*
X165715607Y-66956500D01*
X165715609Y-66956500D01*
X165892991Y-66956500D01*
X165943773Y-66946398D01*
X165960449Y-66947890D01*
X165976810Y-66944331D01*
X165994526Y-66950938D01*
X166013363Y-66952624D01*
X166027070Y-66963076D01*
X166042275Y-66968748D01*
X166067232Y-66993704D01*
X166079247Y-67009754D01*
X166101597Y-67059873D01*
X166113340Y-67118907D01*
X166113342Y-67118915D01*
X166169912Y-67255488D01*
X166169919Y-67255501D01*
X166252048Y-67378415D01*
X166252051Y-67378419D01*
X166356580Y-67482948D01*
X166356584Y-67482951D01*
X166479498Y-67565080D01*
X166479511Y-67565087D01*
X166616082Y-67621656D01*
X166616087Y-67621658D01*
X166616091Y-67621658D01*
X166616092Y-67621659D01*
X166761079Y-67650500D01*
X166837866Y-67650500D01*
X166904905Y-67670185D01*
X166950660Y-67722989D01*
X166960604Y-67792147D01*
X166931579Y-67855703D01*
X166885319Y-67889060D01*
X166857758Y-67900477D01*
X166752205Y-67944198D01*
X166752202Y-67944199D01*
X166752202Y-67944200D01*
X166628851Y-68038851D01*
X166536478Y-68159234D01*
X166534198Y-68162205D01*
X166474699Y-68305848D01*
X166474698Y-68305850D01*
X166459500Y-68421298D01*
X166459500Y-68957769D01*
X166439815Y-69024808D01*
X166423181Y-69045450D01*
X166035451Y-69433181D01*
X165974128Y-69466666D01*
X165947770Y-69469500D01*
X165184500Y-69469500D01*
X165117461Y-69449815D01*
X165071706Y-69397011D01*
X165060500Y-69345500D01*
X165060499Y-68421296D01*
X165045303Y-68305857D01*
X165045301Y-68305850D01*
X165045301Y-68305849D01*
X164985800Y-68162202D01*
X164891149Y-68038851D01*
X164767798Y-67944200D01*
X164767794Y-67944198D01*
X164624151Y-67884699D01*
X164624149Y-67884698D01*
X164508701Y-67869500D01*
X163711296Y-67869500D01*
X163595857Y-67884696D01*
X163595848Y-67884699D01*
X163452205Y-67944198D01*
X163452202Y-67944199D01*
X163452202Y-67944200D01*
X163328851Y-68038851D01*
X163236478Y-68159234D01*
X163234198Y-68162205D01*
X163174699Y-68305848D01*
X163174698Y-68305850D01*
X163162233Y-68400536D01*
X163159500Y-68421299D01*
X163159500Y-68945169D01*
X163159501Y-69345500D01*
X163139817Y-69412539D01*
X163087013Y-69458294D01*
X163035501Y-69469500D01*
X162836080Y-69469500D01*
X162691092Y-69498340D01*
X162691082Y-69498343D01*
X162554511Y-69554912D01*
X162554498Y-69554919D01*
X162431584Y-69637048D01*
X162431580Y-69637051D01*
X162322180Y-69746452D01*
X162260857Y-69779937D01*
X162191165Y-69774953D01*
X162135232Y-69733081D01*
X162110815Y-69667617D01*
X162110499Y-69658771D01*
X162110499Y-68322129D01*
X162110498Y-68322123D01*
X162110497Y-68322116D01*
X162104091Y-68262517D01*
X162093494Y-68234106D01*
X162053797Y-68127671D01*
X162053793Y-68127664D01*
X161967547Y-68012455D01*
X161967544Y-68012452D01*
X161852335Y-67926206D01*
X161852328Y-67926202D01*
X161717482Y-67875908D01*
X161717483Y-67875908D01*
X161657883Y-67869501D01*
X161657881Y-67869500D01*
X161657873Y-67869500D01*
X161657864Y-67869500D01*
X159462129Y-67869500D01*
X159462123Y-67869501D01*
X159402516Y-67875908D01*
X159267671Y-67926202D01*
X159267664Y-67926206D01*
X159152455Y-68012452D01*
X159152452Y-68012455D01*
X159066206Y-68127664D01*
X159066202Y-68127671D01*
X159015908Y-68262517D01*
X159011665Y-68301987D01*
X159009501Y-68322123D01*
X159009500Y-68322135D01*
X159009500Y-69908770D01*
X158989815Y-69975809D01*
X158937011Y-70021564D01*
X158867853Y-70031508D01*
X158804297Y-70002483D01*
X158797819Y-69996451D01*
X157846071Y-69044703D01*
X157819191Y-69004475D01*
X157809394Y-68980821D01*
X157793991Y-68957769D01*
X157721789Y-68849710D01*
X157610292Y-68738213D01*
X157610288Y-68738210D01*
X157479185Y-68650609D01*
X157479172Y-68650602D01*
X157333501Y-68590264D01*
X157333489Y-68590261D01*
X157178845Y-68559500D01*
X157178842Y-68559500D01*
X157021158Y-68559500D01*
X157021155Y-68559500D01*
X156866510Y-68590261D01*
X156866498Y-68590264D01*
X156720827Y-68650602D01*
X156720814Y-68650609D01*
X156589711Y-68738210D01*
X156589707Y-68738213D01*
X156478213Y-68849707D01*
X156478210Y-68849711D01*
X156417469Y-68940616D01*
X156363856Y-68985421D01*
X156294531Y-68994128D01*
X156231504Y-68963973D01*
X156203882Y-68928020D01*
X156182039Y-68885151D01*
X156155051Y-68832184D01*
X156140471Y-68812116D01*
X156030109Y-68660213D01*
X155879786Y-68509890D01*
X155707817Y-68384949D01*
X155698504Y-68380204D01*
X155647707Y-68332230D01*
X155630912Y-68264409D01*
X155653449Y-68198274D01*
X155698507Y-68159232D01*
X155707555Y-68154622D01*
X155761716Y-68115270D01*
X155761717Y-68115270D01*
X155129408Y-67482962D01*
X155192993Y-67465925D01*
X155307007Y-67400099D01*
X155400099Y-67307007D01*
X155465925Y-67192993D01*
X155482962Y-67129408D01*
X156115270Y-67761717D01*
X156115270Y-67761716D01*
X156154622Y-67707554D01*
X156251095Y-67518217D01*
X156316757Y-67316130D01*
X156316757Y-67316127D01*
X156350000Y-67106246D01*
X156350000Y-66893753D01*
X156320091Y-66704915D01*
X156317982Y-66691604D01*
X161777500Y-66691604D01*
X161777500Y-66868995D01*
X161812103Y-67042958D01*
X161812106Y-67042967D01*
X161879983Y-67206840D01*
X161879990Y-67206853D01*
X161978535Y-67354334D01*
X161978538Y-67354338D01*
X162103961Y-67479761D01*
X162103965Y-67479764D01*
X162251446Y-67578309D01*
X162251459Y-67578316D01*
X162374363Y-67629223D01*
X162415334Y-67646194D01*
X162415336Y-67646194D01*
X162415341Y-67646196D01*
X162589304Y-67680799D01*
X162589307Y-67680800D01*
X162589309Y-67680800D01*
X162766693Y-67680800D01*
X162766694Y-67680799D01*
X162843121Y-67665597D01*
X162940658Y-67646196D01*
X162940661Y-67646194D01*
X162940666Y-67646194D01*
X163104547Y-67578313D01*
X163252035Y-67479764D01*
X163377464Y-67354335D01*
X163476013Y-67206847D01*
X163543894Y-67042966D01*
X163550501Y-67009754D01*
X163572422Y-66899546D01*
X163578500Y-66868991D01*
X163578500Y-66691609D01*
X163578500Y-66691606D01*
X163578499Y-66691604D01*
X163543896Y-66517641D01*
X163543893Y-66517633D01*
X163512367Y-66441521D01*
X163476016Y-66353759D01*
X163476009Y-66353746D01*
X163377464Y-66206265D01*
X163377461Y-66206261D01*
X163252038Y-66080838D01*
X163252034Y-66080835D01*
X163104553Y-65982290D01*
X163104540Y-65982283D01*
X162940667Y-65914406D01*
X162940658Y-65914403D01*
X162766694Y-65879800D01*
X162766691Y-65879800D01*
X162589309Y-65879800D01*
X162589306Y-65879800D01*
X162415341Y-65914403D01*
X162415332Y-65914406D01*
X162251459Y-65982283D01*
X162251446Y-65982290D01*
X162103965Y-66080835D01*
X162103961Y-66080838D01*
X161978538Y-66206261D01*
X161978535Y-66206265D01*
X161879990Y-66353746D01*
X161879983Y-66353759D01*
X161812106Y-66517632D01*
X161812103Y-66517641D01*
X161777500Y-66691604D01*
X156317982Y-66691604D01*
X156316757Y-66683871D01*
X156316757Y-66683869D01*
X156251095Y-66481782D01*
X156154624Y-66292449D01*
X156115270Y-66238282D01*
X156115269Y-66238282D01*
X155482962Y-66870590D01*
X155465925Y-66807007D01*
X155400099Y-66692993D01*
X155307007Y-66599901D01*
X155192993Y-66534075D01*
X155129409Y-66517037D01*
X155770123Y-65876321D01*
X155770503Y-65867429D01*
X155775737Y-65860000D01*
X156995496Y-65860000D01*
X157037968Y-66006195D01*
X157120278Y-66145374D01*
X157120285Y-66145383D01*
X157234616Y-66259714D01*
X157234625Y-66259721D01*
X157373804Y-66342031D01*
X157529089Y-66387145D01*
X157550000Y-66388789D01*
X157550000Y-65860000D01*
X156995496Y-65860000D01*
X155775737Y-65860000D01*
X155776491Y-65858930D01*
X155778628Y-65848757D01*
X155796270Y-65830858D01*
X155810747Y-65810314D01*
X155822820Y-65803924D01*
X155827677Y-65798998D01*
X155841225Y-65792514D01*
X155846029Y-65790562D01*
X155957203Y-65755920D01*
X156096547Y-65671683D01*
X156211683Y-65556547D01*
X156295920Y-65417203D01*
X156312724Y-65363278D01*
X156333187Y-65297610D01*
X156371924Y-65239462D01*
X156435949Y-65211488D01*
X156451572Y-65210500D01*
X156873777Y-65210500D01*
X156940816Y-65230185D01*
G37*
%TD.AperFunction*%
%TD*%
M02*
