%TF.GenerationSoftware,KiCad,Pcbnew,10.0.1*%
%TF.CreationDate,2026-08-26T11:50:51+01:00*%
%TF.ProjectId,Clinical_Thermometer,436c696e-6963-4616-9c5f-546865726d6f,rev?*%
%TF.SameCoordinates,Original*%
%TF.FileFunction,Legend,Top*%
%TF.FilePolarity,Positive*%
%FSLAX46Y46*%
G04 Gerber Fmt 4.6, Leading zero omitted, Abs format (unit mm)*
G04 Created by KiCad (PCBNEW 10.0.1) date 2026-08-26 11:50:51*
%MOMM*%
%LPD*%
G01*
G04 APERTURE LIST*
%ADD10C,0.080000*%
%ADD11C,0.160000*%
%ADD12C,0.150000*%
%ADD13C,0.120000*%
%ADD14C,0.100000*%
%ADD15C,0.000000*%
%ADD16C,0.127000*%
%ADD17C,0.200000*%
%ADD18C,0.250000*%
%ADD19C,0.060000*%
G04 APERTURE END LIST*
D10*
X124725935Y-66099523D02*
X125373554Y-66099523D01*
X125373554Y-66099523D02*
X125449744Y-66061428D01*
X125449744Y-66061428D02*
X125487840Y-66023333D01*
X125487840Y-66023333D02*
X125525935Y-65947142D01*
X125525935Y-65947142D02*
X125525935Y-65794761D01*
X125525935Y-65794761D02*
X125487840Y-65718571D01*
X125487840Y-65718571D02*
X125449744Y-65680476D01*
X125449744Y-65680476D02*
X125373554Y-65642380D01*
X125373554Y-65642380D02*
X124725935Y-65642380D01*
X124725935Y-64918571D02*
X124725935Y-65070952D01*
X124725935Y-65070952D02*
X124764030Y-65147143D01*
X124764030Y-65147143D02*
X124802125Y-65185238D01*
X124802125Y-65185238D02*
X124916411Y-65261428D01*
X124916411Y-65261428D02*
X125068792Y-65299524D01*
X125068792Y-65299524D02*
X125373554Y-65299524D01*
X125373554Y-65299524D02*
X125449744Y-65261428D01*
X125449744Y-65261428D02*
X125487840Y-65223333D01*
X125487840Y-65223333D02*
X125525935Y-65147143D01*
X125525935Y-65147143D02*
X125525935Y-64994762D01*
X125525935Y-64994762D02*
X125487840Y-64918571D01*
X125487840Y-64918571D02*
X125449744Y-64880476D01*
X125449744Y-64880476D02*
X125373554Y-64842381D01*
X125373554Y-64842381D02*
X125183078Y-64842381D01*
X125183078Y-64842381D02*
X125106887Y-64880476D01*
X125106887Y-64880476D02*
X125068792Y-64918571D01*
X125068792Y-64918571D02*
X125030697Y-64994762D01*
X125030697Y-64994762D02*
X125030697Y-65147143D01*
X125030697Y-65147143D02*
X125068792Y-65223333D01*
X125068792Y-65223333D02*
X125106887Y-65261428D01*
X125106887Y-65261428D02*
X125183078Y-65299524D01*
X128950476Y-74545935D02*
X129407619Y-74545935D01*
X129179047Y-75345935D02*
X129179047Y-74545935D01*
X129674286Y-75345935D02*
X129674286Y-74545935D01*
X129674286Y-74545935D02*
X129979048Y-74545935D01*
X129979048Y-74545935D02*
X130055238Y-74584030D01*
X130055238Y-74584030D02*
X130093333Y-74622125D01*
X130093333Y-74622125D02*
X130131429Y-74698316D01*
X130131429Y-74698316D02*
X130131429Y-74812601D01*
X130131429Y-74812601D02*
X130093333Y-74888792D01*
X130093333Y-74888792D02*
X130055238Y-74926887D01*
X130055238Y-74926887D02*
X129979048Y-74964982D01*
X129979048Y-74964982D02*
X129674286Y-74964982D01*
X130893333Y-75345935D02*
X130436190Y-75345935D01*
X130664762Y-75345935D02*
X130664762Y-74545935D01*
X130664762Y-74545935D02*
X130588571Y-74660220D01*
X130588571Y-74660220D02*
X130512381Y-74736411D01*
X130512381Y-74736411D02*
X130436190Y-74774506D01*
X128815714Y-63049744D02*
X128777618Y-63087840D01*
X128777618Y-63087840D02*
X128663333Y-63125935D01*
X128663333Y-63125935D02*
X128587142Y-63125935D01*
X128587142Y-63125935D02*
X128472856Y-63087840D01*
X128472856Y-63087840D02*
X128396666Y-63011649D01*
X128396666Y-63011649D02*
X128358571Y-62935459D01*
X128358571Y-62935459D02*
X128320475Y-62783078D01*
X128320475Y-62783078D02*
X128320475Y-62668792D01*
X128320475Y-62668792D02*
X128358571Y-62516411D01*
X128358571Y-62516411D02*
X128396666Y-62440220D01*
X128396666Y-62440220D02*
X128472856Y-62364030D01*
X128472856Y-62364030D02*
X128587142Y-62325935D01*
X128587142Y-62325935D02*
X128663333Y-62325935D01*
X128663333Y-62325935D02*
X128777618Y-62364030D01*
X128777618Y-62364030D02*
X128815714Y-62402125D01*
X129577618Y-63125935D02*
X129120475Y-63125935D01*
X129349047Y-63125935D02*
X129349047Y-62325935D01*
X129349047Y-62325935D02*
X129272856Y-62440220D01*
X129272856Y-62440220D02*
X129196666Y-62516411D01*
X129196666Y-62516411D02*
X129120475Y-62554506D01*
X130034761Y-62668792D02*
X129958571Y-62630697D01*
X129958571Y-62630697D02*
X129920476Y-62592601D01*
X129920476Y-62592601D02*
X129882380Y-62516411D01*
X129882380Y-62516411D02*
X129882380Y-62478316D01*
X129882380Y-62478316D02*
X129920476Y-62402125D01*
X129920476Y-62402125D02*
X129958571Y-62364030D01*
X129958571Y-62364030D02*
X130034761Y-62325935D01*
X130034761Y-62325935D02*
X130187142Y-62325935D01*
X130187142Y-62325935D02*
X130263333Y-62364030D01*
X130263333Y-62364030D02*
X130301428Y-62402125D01*
X130301428Y-62402125D02*
X130339523Y-62478316D01*
X130339523Y-62478316D02*
X130339523Y-62516411D01*
X130339523Y-62516411D02*
X130301428Y-62592601D01*
X130301428Y-62592601D02*
X130263333Y-62630697D01*
X130263333Y-62630697D02*
X130187142Y-62668792D01*
X130187142Y-62668792D02*
X130034761Y-62668792D01*
X130034761Y-62668792D02*
X129958571Y-62706887D01*
X129958571Y-62706887D02*
X129920476Y-62744982D01*
X129920476Y-62744982D02*
X129882380Y-62821173D01*
X129882380Y-62821173D02*
X129882380Y-62973554D01*
X129882380Y-62973554D02*
X129920476Y-63049744D01*
X129920476Y-63049744D02*
X129958571Y-63087840D01*
X129958571Y-63087840D02*
X130034761Y-63125935D01*
X130034761Y-63125935D02*
X130187142Y-63125935D01*
X130187142Y-63125935D02*
X130263333Y-63087840D01*
X130263333Y-63087840D02*
X130301428Y-63049744D01*
X130301428Y-63049744D02*
X130339523Y-62973554D01*
X130339523Y-62973554D02*
X130339523Y-62821173D01*
X130339523Y-62821173D02*
X130301428Y-62744982D01*
X130301428Y-62744982D02*
X130263333Y-62706887D01*
X130263333Y-62706887D02*
X130187142Y-62668792D01*
X128765714Y-61889744D02*
X128727618Y-61927840D01*
X128727618Y-61927840D02*
X128613333Y-61965935D01*
X128613333Y-61965935D02*
X128537142Y-61965935D01*
X128537142Y-61965935D02*
X128422856Y-61927840D01*
X128422856Y-61927840D02*
X128346666Y-61851649D01*
X128346666Y-61851649D02*
X128308571Y-61775459D01*
X128308571Y-61775459D02*
X128270475Y-61623078D01*
X128270475Y-61623078D02*
X128270475Y-61508792D01*
X128270475Y-61508792D02*
X128308571Y-61356411D01*
X128308571Y-61356411D02*
X128346666Y-61280220D01*
X128346666Y-61280220D02*
X128422856Y-61204030D01*
X128422856Y-61204030D02*
X128537142Y-61165935D01*
X128537142Y-61165935D02*
X128613333Y-61165935D01*
X128613333Y-61165935D02*
X128727618Y-61204030D01*
X128727618Y-61204030D02*
X128765714Y-61242125D01*
X129527618Y-61965935D02*
X129070475Y-61965935D01*
X129299047Y-61965935D02*
X129299047Y-61165935D01*
X129299047Y-61165935D02*
X129222856Y-61280220D01*
X129222856Y-61280220D02*
X129146666Y-61356411D01*
X129146666Y-61356411D02*
X129070475Y-61394506D01*
X129794285Y-61165935D02*
X130327619Y-61165935D01*
X130327619Y-61165935D02*
X129984761Y-61965935D01*
X130045714Y-64379744D02*
X130007618Y-64417840D01*
X130007618Y-64417840D02*
X129893333Y-64455935D01*
X129893333Y-64455935D02*
X129817142Y-64455935D01*
X129817142Y-64455935D02*
X129702856Y-64417840D01*
X129702856Y-64417840D02*
X129626666Y-64341649D01*
X129626666Y-64341649D02*
X129588571Y-64265459D01*
X129588571Y-64265459D02*
X129550475Y-64113078D01*
X129550475Y-64113078D02*
X129550475Y-63998792D01*
X129550475Y-63998792D02*
X129588571Y-63846411D01*
X129588571Y-63846411D02*
X129626666Y-63770220D01*
X129626666Y-63770220D02*
X129702856Y-63694030D01*
X129702856Y-63694030D02*
X129817142Y-63655935D01*
X129817142Y-63655935D02*
X129893333Y-63655935D01*
X129893333Y-63655935D02*
X130007618Y-63694030D01*
X130007618Y-63694030D02*
X130045714Y-63732125D01*
X130807618Y-64455935D02*
X130350475Y-64455935D01*
X130579047Y-64455935D02*
X130579047Y-63655935D01*
X130579047Y-63655935D02*
X130502856Y-63770220D01*
X130502856Y-63770220D02*
X130426666Y-63846411D01*
X130426666Y-63846411D02*
X130350475Y-63884506D01*
X131493333Y-63655935D02*
X131340952Y-63655935D01*
X131340952Y-63655935D02*
X131264761Y-63694030D01*
X131264761Y-63694030D02*
X131226666Y-63732125D01*
X131226666Y-63732125D02*
X131150476Y-63846411D01*
X131150476Y-63846411D02*
X131112380Y-63998792D01*
X131112380Y-63998792D02*
X131112380Y-64303554D01*
X131112380Y-64303554D02*
X131150476Y-64379744D01*
X131150476Y-64379744D02*
X131188571Y-64417840D01*
X131188571Y-64417840D02*
X131264761Y-64455935D01*
X131264761Y-64455935D02*
X131417142Y-64455935D01*
X131417142Y-64455935D02*
X131493333Y-64417840D01*
X131493333Y-64417840D02*
X131531428Y-64379744D01*
X131531428Y-64379744D02*
X131569523Y-64303554D01*
X131569523Y-64303554D02*
X131569523Y-64113078D01*
X131569523Y-64113078D02*
X131531428Y-64036887D01*
X131531428Y-64036887D02*
X131493333Y-63998792D01*
X131493333Y-63998792D02*
X131417142Y-63960697D01*
X131417142Y-63960697D02*
X131264761Y-63960697D01*
X131264761Y-63960697D02*
X131188571Y-63998792D01*
X131188571Y-63998792D02*
X131150476Y-64036887D01*
X131150476Y-64036887D02*
X131112380Y-64113078D01*
D11*
X163631775Y-67700475D02*
X162831775Y-67700475D01*
X162831775Y-67700475D02*
X162831775Y-67509999D01*
X162831775Y-67509999D02*
X162869870Y-67395713D01*
X162869870Y-67395713D02*
X162946060Y-67319523D01*
X162946060Y-67319523D02*
X163022251Y-67281428D01*
X163022251Y-67281428D02*
X163174632Y-67243332D01*
X163174632Y-67243332D02*
X163288918Y-67243332D01*
X163288918Y-67243332D02*
X163441299Y-67281428D01*
X163441299Y-67281428D02*
X163517489Y-67319523D01*
X163517489Y-67319523D02*
X163593680Y-67395713D01*
X163593680Y-67395713D02*
X163631775Y-67509999D01*
X163631775Y-67509999D02*
X163631775Y-67700475D01*
X163631775Y-66481428D02*
X163631775Y-66938571D01*
X163631775Y-66709999D02*
X162831775Y-66709999D01*
X162831775Y-66709999D02*
X162946060Y-66786190D01*
X162946060Y-66786190D02*
X163022251Y-66862380D01*
X163022251Y-66862380D02*
X163060346Y-66938571D01*
D12*
X166997704Y-67798571D02*
X166997704Y-67341428D01*
X166997704Y-67570000D02*
X167797704Y-67570000D01*
X167797704Y-67570000D02*
X167683419Y-67493809D01*
X167683419Y-67493809D02*
X167607228Y-67417619D01*
X167607228Y-67417619D02*
X167569133Y-67341428D01*
D11*
X159021775Y-72123332D02*
X158640822Y-72389999D01*
X159021775Y-72580475D02*
X158221775Y-72580475D01*
X158221775Y-72580475D02*
X158221775Y-72275713D01*
X158221775Y-72275713D02*
X158259870Y-72199523D01*
X158259870Y-72199523D02*
X158297965Y-72161428D01*
X158297965Y-72161428D02*
X158374156Y-72123332D01*
X158374156Y-72123332D02*
X158488441Y-72123332D01*
X158488441Y-72123332D02*
X158564632Y-72161428D01*
X158564632Y-72161428D02*
X158602727Y-72199523D01*
X158602727Y-72199523D02*
X158640822Y-72275713D01*
X158640822Y-72275713D02*
X158640822Y-72580475D01*
X158221775Y-71856666D02*
X158221775Y-71323332D01*
X158221775Y-71323332D02*
X159021775Y-71666190D01*
X169825584Y-62453332D02*
X169863680Y-62491428D01*
X169863680Y-62491428D02*
X169901775Y-62605713D01*
X169901775Y-62605713D02*
X169901775Y-62681904D01*
X169901775Y-62681904D02*
X169863680Y-62796190D01*
X169863680Y-62796190D02*
X169787489Y-62872380D01*
X169787489Y-62872380D02*
X169711299Y-62910475D01*
X169711299Y-62910475D02*
X169558918Y-62948571D01*
X169558918Y-62948571D02*
X169444632Y-62948571D01*
X169444632Y-62948571D02*
X169292251Y-62910475D01*
X169292251Y-62910475D02*
X169216060Y-62872380D01*
X169216060Y-62872380D02*
X169139870Y-62796190D01*
X169139870Y-62796190D02*
X169101775Y-62681904D01*
X169101775Y-62681904D02*
X169101775Y-62605713D01*
X169101775Y-62605713D02*
X169139870Y-62491428D01*
X169139870Y-62491428D02*
X169177965Y-62453332D01*
X169101775Y-61729523D02*
X169101775Y-62110475D01*
X169101775Y-62110475D02*
X169482727Y-62148571D01*
X169482727Y-62148571D02*
X169444632Y-62110475D01*
X169444632Y-62110475D02*
X169406537Y-62034285D01*
X169406537Y-62034285D02*
X169406537Y-61843809D01*
X169406537Y-61843809D02*
X169444632Y-61767618D01*
X169444632Y-61767618D02*
X169482727Y-61729523D01*
X169482727Y-61729523D02*
X169558918Y-61691428D01*
X169558918Y-61691428D02*
X169749394Y-61691428D01*
X169749394Y-61691428D02*
X169825584Y-61729523D01*
X169825584Y-61729523D02*
X169863680Y-61767618D01*
X169863680Y-61767618D02*
X169901775Y-61843809D01*
X169901775Y-61843809D02*
X169901775Y-62034285D01*
X169901775Y-62034285D02*
X169863680Y-62110475D01*
X169863680Y-62110475D02*
X169825584Y-62148571D01*
X120975714Y-68465584D02*
X120937618Y-68503680D01*
X120937618Y-68503680D02*
X120823333Y-68541775D01*
X120823333Y-68541775D02*
X120747142Y-68541775D01*
X120747142Y-68541775D02*
X120632856Y-68503680D01*
X120632856Y-68503680D02*
X120556666Y-68427489D01*
X120556666Y-68427489D02*
X120518571Y-68351299D01*
X120518571Y-68351299D02*
X120480475Y-68198918D01*
X120480475Y-68198918D02*
X120480475Y-68084632D01*
X120480475Y-68084632D02*
X120518571Y-67932251D01*
X120518571Y-67932251D02*
X120556666Y-67856060D01*
X120556666Y-67856060D02*
X120632856Y-67779870D01*
X120632856Y-67779870D02*
X120747142Y-67741775D01*
X120747142Y-67741775D02*
X120823333Y-67741775D01*
X120823333Y-67741775D02*
X120937618Y-67779870D01*
X120937618Y-67779870D02*
X120975714Y-67817965D01*
X121737618Y-68541775D02*
X121280475Y-68541775D01*
X121509047Y-68541775D02*
X121509047Y-67741775D01*
X121509047Y-67741775D02*
X121432856Y-67856060D01*
X121432856Y-67856060D02*
X121356666Y-67932251D01*
X121356666Y-67932251D02*
X121280475Y-67970346D01*
X122042380Y-67817965D02*
X122080476Y-67779870D01*
X122080476Y-67779870D02*
X122156666Y-67741775D01*
X122156666Y-67741775D02*
X122347142Y-67741775D01*
X122347142Y-67741775D02*
X122423333Y-67779870D01*
X122423333Y-67779870D02*
X122461428Y-67817965D01*
X122461428Y-67817965D02*
X122499523Y-67894156D01*
X122499523Y-67894156D02*
X122499523Y-67970346D01*
X122499523Y-67970346D02*
X122461428Y-68084632D01*
X122461428Y-68084632D02*
X122004285Y-68541775D01*
X122004285Y-68541775D02*
X122499523Y-68541775D01*
X164715584Y-61523332D02*
X164753680Y-61561428D01*
X164753680Y-61561428D02*
X164791775Y-61675713D01*
X164791775Y-61675713D02*
X164791775Y-61751904D01*
X164791775Y-61751904D02*
X164753680Y-61866190D01*
X164753680Y-61866190D02*
X164677489Y-61942380D01*
X164677489Y-61942380D02*
X164601299Y-61980475D01*
X164601299Y-61980475D02*
X164448918Y-62018571D01*
X164448918Y-62018571D02*
X164334632Y-62018571D01*
X164334632Y-62018571D02*
X164182251Y-61980475D01*
X164182251Y-61980475D02*
X164106060Y-61942380D01*
X164106060Y-61942380D02*
X164029870Y-61866190D01*
X164029870Y-61866190D02*
X163991775Y-61751904D01*
X163991775Y-61751904D02*
X163991775Y-61675713D01*
X163991775Y-61675713D02*
X164029870Y-61561428D01*
X164029870Y-61561428D02*
X164067965Y-61523332D01*
X163991775Y-61256666D02*
X163991775Y-60723332D01*
X163991775Y-60723332D02*
X164791775Y-61066190D01*
X176939524Y-74921775D02*
X176939524Y-74121775D01*
X176939524Y-74121775D02*
X177130000Y-74121775D01*
X177130000Y-74121775D02*
X177244286Y-74159870D01*
X177244286Y-74159870D02*
X177320476Y-74236060D01*
X177320476Y-74236060D02*
X177358571Y-74312251D01*
X177358571Y-74312251D02*
X177396667Y-74464632D01*
X177396667Y-74464632D02*
X177396667Y-74578918D01*
X177396667Y-74578918D02*
X177358571Y-74731299D01*
X177358571Y-74731299D02*
X177320476Y-74807489D01*
X177320476Y-74807489D02*
X177244286Y-74883680D01*
X177244286Y-74883680D02*
X177130000Y-74921775D01*
X177130000Y-74921775D02*
X176939524Y-74921775D01*
X177663333Y-74121775D02*
X178196667Y-74121775D01*
X178196667Y-74121775D02*
X177853809Y-74921775D01*
X177366667Y-73921775D02*
X177100000Y-73540822D01*
X176909524Y-73921775D02*
X176909524Y-73121775D01*
X176909524Y-73121775D02*
X177214286Y-73121775D01*
X177214286Y-73121775D02*
X177290476Y-73159870D01*
X177290476Y-73159870D02*
X177328571Y-73197965D01*
X177328571Y-73197965D02*
X177366667Y-73274156D01*
X177366667Y-73274156D02*
X177366667Y-73388441D01*
X177366667Y-73388441D02*
X177328571Y-73464632D01*
X177328571Y-73464632D02*
X177290476Y-73502727D01*
X177290476Y-73502727D02*
X177214286Y-73540822D01*
X177214286Y-73540822D02*
X176909524Y-73540822D01*
X178052381Y-73388441D02*
X178052381Y-73921775D01*
X177861905Y-73083680D02*
X177671428Y-73655108D01*
X177671428Y-73655108D02*
X178166667Y-73655108D01*
X159123680Y-62796667D02*
X159161775Y-62682381D01*
X159161775Y-62682381D02*
X159161775Y-62491905D01*
X159161775Y-62491905D02*
X159123680Y-62415714D01*
X159123680Y-62415714D02*
X159085584Y-62377619D01*
X159085584Y-62377619D02*
X159009394Y-62339524D01*
X159009394Y-62339524D02*
X158933203Y-62339524D01*
X158933203Y-62339524D02*
X158857013Y-62377619D01*
X158857013Y-62377619D02*
X158818918Y-62415714D01*
X158818918Y-62415714D02*
X158780822Y-62491905D01*
X158780822Y-62491905D02*
X158742727Y-62644286D01*
X158742727Y-62644286D02*
X158704632Y-62720476D01*
X158704632Y-62720476D02*
X158666537Y-62758571D01*
X158666537Y-62758571D02*
X158590346Y-62796667D01*
X158590346Y-62796667D02*
X158514156Y-62796667D01*
X158514156Y-62796667D02*
X158437965Y-62758571D01*
X158437965Y-62758571D02*
X158399870Y-62720476D01*
X158399870Y-62720476D02*
X158361775Y-62644286D01*
X158361775Y-62644286D02*
X158361775Y-62453809D01*
X158361775Y-62453809D02*
X158399870Y-62339524D01*
X158361775Y-62072857D02*
X159161775Y-61882381D01*
X159161775Y-61882381D02*
X158590346Y-61730000D01*
X158590346Y-61730000D02*
X159161775Y-61577619D01*
X159161775Y-61577619D02*
X158361775Y-61387143D01*
X158437965Y-61120476D02*
X158399870Y-61082380D01*
X158399870Y-61082380D02*
X158361775Y-61006190D01*
X158361775Y-61006190D02*
X158361775Y-60815714D01*
X158361775Y-60815714D02*
X158399870Y-60739523D01*
X158399870Y-60739523D02*
X158437965Y-60701428D01*
X158437965Y-60701428D02*
X158514156Y-60663333D01*
X158514156Y-60663333D02*
X158590346Y-60663333D01*
X158590346Y-60663333D02*
X158704632Y-60701428D01*
X158704632Y-60701428D02*
X159161775Y-61158571D01*
X159161775Y-61158571D02*
X159161775Y-60663333D01*
X171105584Y-62613332D02*
X171143680Y-62651428D01*
X171143680Y-62651428D02*
X171181775Y-62765713D01*
X171181775Y-62765713D02*
X171181775Y-62841904D01*
X171181775Y-62841904D02*
X171143680Y-62956190D01*
X171143680Y-62956190D02*
X171067489Y-63032380D01*
X171067489Y-63032380D02*
X170991299Y-63070475D01*
X170991299Y-63070475D02*
X170838918Y-63108571D01*
X170838918Y-63108571D02*
X170724632Y-63108571D01*
X170724632Y-63108571D02*
X170572251Y-63070475D01*
X170572251Y-63070475D02*
X170496060Y-63032380D01*
X170496060Y-63032380D02*
X170419870Y-62956190D01*
X170419870Y-62956190D02*
X170381775Y-62841904D01*
X170381775Y-62841904D02*
X170381775Y-62765713D01*
X170381775Y-62765713D02*
X170419870Y-62651428D01*
X170419870Y-62651428D02*
X170457965Y-62613332D01*
X170381775Y-61927618D02*
X170381775Y-62079999D01*
X170381775Y-62079999D02*
X170419870Y-62156190D01*
X170419870Y-62156190D02*
X170457965Y-62194285D01*
X170457965Y-62194285D02*
X170572251Y-62270475D01*
X170572251Y-62270475D02*
X170724632Y-62308571D01*
X170724632Y-62308571D02*
X171029394Y-62308571D01*
X171029394Y-62308571D02*
X171105584Y-62270475D01*
X171105584Y-62270475D02*
X171143680Y-62232380D01*
X171143680Y-62232380D02*
X171181775Y-62156190D01*
X171181775Y-62156190D02*
X171181775Y-62003809D01*
X171181775Y-62003809D02*
X171143680Y-61927618D01*
X171143680Y-61927618D02*
X171105584Y-61889523D01*
X171105584Y-61889523D02*
X171029394Y-61851428D01*
X171029394Y-61851428D02*
X170838918Y-61851428D01*
X170838918Y-61851428D02*
X170762727Y-61889523D01*
X170762727Y-61889523D02*
X170724632Y-61927618D01*
X170724632Y-61927618D02*
X170686537Y-62003809D01*
X170686537Y-62003809D02*
X170686537Y-62156190D01*
X170686537Y-62156190D02*
X170724632Y-62232380D01*
X170724632Y-62232380D02*
X170762727Y-62270475D01*
X170762727Y-62270475D02*
X170838918Y-62308571D01*
X156026667Y-75381775D02*
X155760000Y-75000822D01*
X155569524Y-75381775D02*
X155569524Y-74581775D01*
X155569524Y-74581775D02*
X155874286Y-74581775D01*
X155874286Y-74581775D02*
X155950476Y-74619870D01*
X155950476Y-74619870D02*
X155988571Y-74657965D01*
X155988571Y-74657965D02*
X156026667Y-74734156D01*
X156026667Y-74734156D02*
X156026667Y-74848441D01*
X156026667Y-74848441D02*
X155988571Y-74924632D01*
X155988571Y-74924632D02*
X155950476Y-74962727D01*
X155950476Y-74962727D02*
X155874286Y-75000822D01*
X155874286Y-75000822D02*
X155569524Y-75000822D01*
X156483809Y-74924632D02*
X156407619Y-74886537D01*
X156407619Y-74886537D02*
X156369524Y-74848441D01*
X156369524Y-74848441D02*
X156331428Y-74772251D01*
X156331428Y-74772251D02*
X156331428Y-74734156D01*
X156331428Y-74734156D02*
X156369524Y-74657965D01*
X156369524Y-74657965D02*
X156407619Y-74619870D01*
X156407619Y-74619870D02*
X156483809Y-74581775D01*
X156483809Y-74581775D02*
X156636190Y-74581775D01*
X156636190Y-74581775D02*
X156712381Y-74619870D01*
X156712381Y-74619870D02*
X156750476Y-74657965D01*
X156750476Y-74657965D02*
X156788571Y-74734156D01*
X156788571Y-74734156D02*
X156788571Y-74772251D01*
X156788571Y-74772251D02*
X156750476Y-74848441D01*
X156750476Y-74848441D02*
X156712381Y-74886537D01*
X156712381Y-74886537D02*
X156636190Y-74924632D01*
X156636190Y-74924632D02*
X156483809Y-74924632D01*
X156483809Y-74924632D02*
X156407619Y-74962727D01*
X156407619Y-74962727D02*
X156369524Y-75000822D01*
X156369524Y-75000822D02*
X156331428Y-75077013D01*
X156331428Y-75077013D02*
X156331428Y-75229394D01*
X156331428Y-75229394D02*
X156369524Y-75305584D01*
X156369524Y-75305584D02*
X156407619Y-75343680D01*
X156407619Y-75343680D02*
X156483809Y-75381775D01*
X156483809Y-75381775D02*
X156636190Y-75381775D01*
X156636190Y-75381775D02*
X156712381Y-75343680D01*
X156712381Y-75343680D02*
X156750476Y-75305584D01*
X156750476Y-75305584D02*
X156788571Y-75229394D01*
X156788571Y-75229394D02*
X156788571Y-75077013D01*
X156788571Y-75077013D02*
X156750476Y-75000822D01*
X156750476Y-75000822D02*
X156712381Y-74962727D01*
X156712381Y-74962727D02*
X156636190Y-74924632D01*
X168911775Y-68346666D02*
X169483203Y-68346666D01*
X169483203Y-68346666D02*
X169597489Y-68384761D01*
X169597489Y-68384761D02*
X169673680Y-68460952D01*
X169673680Y-68460952D02*
X169711775Y-68575237D01*
X169711775Y-68575237D02*
X169711775Y-68651428D01*
X169711775Y-67546666D02*
X169711775Y-68003809D01*
X169711775Y-67775237D02*
X168911775Y-67775237D01*
X168911775Y-67775237D02*
X169026060Y-67851428D01*
X169026060Y-67851428D02*
X169102251Y-67927618D01*
X169102251Y-67927618D02*
X169140346Y-68003809D01*
X165875714Y-61491775D02*
X165609047Y-61110822D01*
X165418571Y-61491775D02*
X165418571Y-60691775D01*
X165418571Y-60691775D02*
X165723333Y-60691775D01*
X165723333Y-60691775D02*
X165799523Y-60729870D01*
X165799523Y-60729870D02*
X165837618Y-60767965D01*
X165837618Y-60767965D02*
X165875714Y-60844156D01*
X165875714Y-60844156D02*
X165875714Y-60958441D01*
X165875714Y-60958441D02*
X165837618Y-61034632D01*
X165837618Y-61034632D02*
X165799523Y-61072727D01*
X165799523Y-61072727D02*
X165723333Y-61110822D01*
X165723333Y-61110822D02*
X165418571Y-61110822D01*
X166637618Y-61491775D02*
X166180475Y-61491775D01*
X166409047Y-61491775D02*
X166409047Y-60691775D01*
X166409047Y-60691775D02*
X166332856Y-60806060D01*
X166332856Y-60806060D02*
X166256666Y-60882251D01*
X166256666Y-60882251D02*
X166180475Y-60920346D01*
X167132857Y-60691775D02*
X167209047Y-60691775D01*
X167209047Y-60691775D02*
X167285238Y-60729870D01*
X167285238Y-60729870D02*
X167323333Y-60767965D01*
X167323333Y-60767965D02*
X167361428Y-60844156D01*
X167361428Y-60844156D02*
X167399523Y-60996537D01*
X167399523Y-60996537D02*
X167399523Y-61187013D01*
X167399523Y-61187013D02*
X167361428Y-61339394D01*
X167361428Y-61339394D02*
X167323333Y-61415584D01*
X167323333Y-61415584D02*
X167285238Y-61453680D01*
X167285238Y-61453680D02*
X167209047Y-61491775D01*
X167209047Y-61491775D02*
X167132857Y-61491775D01*
X167132857Y-61491775D02*
X167056666Y-61453680D01*
X167056666Y-61453680D02*
X167018571Y-61415584D01*
X167018571Y-61415584D02*
X166980476Y-61339394D01*
X166980476Y-61339394D02*
X166942380Y-61187013D01*
X166942380Y-61187013D02*
X166942380Y-60996537D01*
X166942380Y-60996537D02*
X166980476Y-60844156D01*
X166980476Y-60844156D02*
X167018571Y-60767965D01*
X167018571Y-60767965D02*
X167056666Y-60729870D01*
X167056666Y-60729870D02*
X167132857Y-60691775D01*
X157935584Y-63414285D02*
X157973680Y-63452381D01*
X157973680Y-63452381D02*
X158011775Y-63566666D01*
X158011775Y-63566666D02*
X158011775Y-63642857D01*
X158011775Y-63642857D02*
X157973680Y-63757143D01*
X157973680Y-63757143D02*
X157897489Y-63833333D01*
X157897489Y-63833333D02*
X157821299Y-63871428D01*
X157821299Y-63871428D02*
X157668918Y-63909524D01*
X157668918Y-63909524D02*
X157554632Y-63909524D01*
X157554632Y-63909524D02*
X157402251Y-63871428D01*
X157402251Y-63871428D02*
X157326060Y-63833333D01*
X157326060Y-63833333D02*
X157249870Y-63757143D01*
X157249870Y-63757143D02*
X157211775Y-63642857D01*
X157211775Y-63642857D02*
X157211775Y-63566666D01*
X157211775Y-63566666D02*
X157249870Y-63452381D01*
X157249870Y-63452381D02*
X157287965Y-63414285D01*
X158011775Y-62652381D02*
X158011775Y-63109524D01*
X158011775Y-62880952D02*
X157211775Y-62880952D01*
X157211775Y-62880952D02*
X157326060Y-62957143D01*
X157326060Y-62957143D02*
X157402251Y-63033333D01*
X157402251Y-63033333D02*
X157440346Y-63109524D01*
X158011775Y-61890476D02*
X158011775Y-62347619D01*
X158011775Y-62119047D02*
X157211775Y-62119047D01*
X157211775Y-62119047D02*
X157326060Y-62195238D01*
X157326060Y-62195238D02*
X157402251Y-62271428D01*
X157402251Y-62271428D02*
X157440346Y-62347619D01*
X157938224Y-66430476D02*
X157290605Y-66430476D01*
X157290605Y-66430476D02*
X157214415Y-66468571D01*
X157214415Y-66468571D02*
X157176320Y-66506666D01*
X157176320Y-66506666D02*
X157138224Y-66582857D01*
X157138224Y-66582857D02*
X157138224Y-66735238D01*
X157138224Y-66735238D02*
X157176320Y-66811428D01*
X157176320Y-66811428D02*
X157214415Y-66849523D01*
X157214415Y-66849523D02*
X157290605Y-66887619D01*
X157290605Y-66887619D02*
X157938224Y-66887619D01*
X157671558Y-67611428D02*
X157138224Y-67611428D01*
X157976320Y-67420952D02*
X157404891Y-67230475D01*
X157404891Y-67230475D02*
X157404891Y-67725714D01*
X127460476Y-74591775D02*
X127460476Y-75239394D01*
X127460476Y-75239394D02*
X127498571Y-75315584D01*
X127498571Y-75315584D02*
X127536666Y-75353680D01*
X127536666Y-75353680D02*
X127612857Y-75391775D01*
X127612857Y-75391775D02*
X127765238Y-75391775D01*
X127765238Y-75391775D02*
X127841428Y-75353680D01*
X127841428Y-75353680D02*
X127879523Y-75315584D01*
X127879523Y-75315584D02*
X127917619Y-75239394D01*
X127917619Y-75239394D02*
X127917619Y-74591775D01*
X128679523Y-74591775D02*
X128298571Y-74591775D01*
X128298571Y-74591775D02*
X128260475Y-74972727D01*
X128260475Y-74972727D02*
X128298571Y-74934632D01*
X128298571Y-74934632D02*
X128374761Y-74896537D01*
X128374761Y-74896537D02*
X128565237Y-74896537D01*
X128565237Y-74896537D02*
X128641428Y-74934632D01*
X128641428Y-74934632D02*
X128679523Y-74972727D01*
X128679523Y-74972727D02*
X128717618Y-75048918D01*
X128717618Y-75048918D02*
X128717618Y-75239394D01*
X128717618Y-75239394D02*
X128679523Y-75315584D01*
X128679523Y-75315584D02*
X128641428Y-75353680D01*
X128641428Y-75353680D02*
X128565237Y-75391775D01*
X128565237Y-75391775D02*
X128374761Y-75391775D01*
X128374761Y-75391775D02*
X128298571Y-75353680D01*
X128298571Y-75353680D02*
X128260475Y-75315584D01*
X162305584Y-73734285D02*
X162343680Y-73772381D01*
X162343680Y-73772381D02*
X162381775Y-73886666D01*
X162381775Y-73886666D02*
X162381775Y-73962857D01*
X162381775Y-73962857D02*
X162343680Y-74077143D01*
X162343680Y-74077143D02*
X162267489Y-74153333D01*
X162267489Y-74153333D02*
X162191299Y-74191428D01*
X162191299Y-74191428D02*
X162038918Y-74229524D01*
X162038918Y-74229524D02*
X161924632Y-74229524D01*
X161924632Y-74229524D02*
X161772251Y-74191428D01*
X161772251Y-74191428D02*
X161696060Y-74153333D01*
X161696060Y-74153333D02*
X161619870Y-74077143D01*
X161619870Y-74077143D02*
X161581775Y-73962857D01*
X161581775Y-73962857D02*
X161581775Y-73886666D01*
X161581775Y-73886666D02*
X161619870Y-73772381D01*
X161619870Y-73772381D02*
X161657965Y-73734285D01*
X162381775Y-72972381D02*
X162381775Y-73429524D01*
X162381775Y-73200952D02*
X161581775Y-73200952D01*
X161581775Y-73200952D02*
X161696060Y-73277143D01*
X161696060Y-73277143D02*
X161772251Y-73353333D01*
X161772251Y-73353333D02*
X161810346Y-73429524D01*
X161581775Y-72705714D02*
X161581775Y-72210476D01*
X161581775Y-72210476D02*
X161886537Y-72477142D01*
X161886537Y-72477142D02*
X161886537Y-72362857D01*
X161886537Y-72362857D02*
X161924632Y-72286666D01*
X161924632Y-72286666D02*
X161962727Y-72248571D01*
X161962727Y-72248571D02*
X162038918Y-72210476D01*
X162038918Y-72210476D02*
X162229394Y-72210476D01*
X162229394Y-72210476D02*
X162305584Y-72248571D01*
X162305584Y-72248571D02*
X162343680Y-72286666D01*
X162343680Y-72286666D02*
X162381775Y-72362857D01*
X162381775Y-72362857D02*
X162381775Y-72591428D01*
X162381775Y-72591428D02*
X162343680Y-72667619D01*
X162343680Y-72667619D02*
X162305584Y-72705714D01*
X118381775Y-73570475D02*
X117581775Y-73570475D01*
X117581775Y-73570475D02*
X117581775Y-73379999D01*
X117581775Y-73379999D02*
X117619870Y-73265713D01*
X117619870Y-73265713D02*
X117696060Y-73189523D01*
X117696060Y-73189523D02*
X117772251Y-73151428D01*
X117772251Y-73151428D02*
X117924632Y-73113332D01*
X117924632Y-73113332D02*
X118038918Y-73113332D01*
X118038918Y-73113332D02*
X118191299Y-73151428D01*
X118191299Y-73151428D02*
X118267489Y-73189523D01*
X118267489Y-73189523D02*
X118343680Y-73265713D01*
X118343680Y-73265713D02*
X118381775Y-73379999D01*
X118381775Y-73379999D02*
X118381775Y-73570475D01*
X117581775Y-72389523D02*
X117581775Y-72770475D01*
X117581775Y-72770475D02*
X117962727Y-72808571D01*
X117962727Y-72808571D02*
X117924632Y-72770475D01*
X117924632Y-72770475D02*
X117886537Y-72694285D01*
X117886537Y-72694285D02*
X117886537Y-72503809D01*
X117886537Y-72503809D02*
X117924632Y-72427618D01*
X117924632Y-72427618D02*
X117962727Y-72389523D01*
X117962727Y-72389523D02*
X118038918Y-72351428D01*
X118038918Y-72351428D02*
X118229394Y-72351428D01*
X118229394Y-72351428D02*
X118305584Y-72389523D01*
X118305584Y-72389523D02*
X118343680Y-72427618D01*
X118343680Y-72427618D02*
X118381775Y-72503809D01*
X118381775Y-72503809D02*
X118381775Y-72694285D01*
X118381775Y-72694285D02*
X118343680Y-72770475D01*
X118343680Y-72770475D02*
X118305584Y-72808571D01*
X120691775Y-74933332D02*
X120310822Y-75199999D01*
X120691775Y-75390475D02*
X119891775Y-75390475D01*
X119891775Y-75390475D02*
X119891775Y-75085713D01*
X119891775Y-75085713D02*
X119929870Y-75009523D01*
X119929870Y-75009523D02*
X119967965Y-74971428D01*
X119967965Y-74971428D02*
X120044156Y-74933332D01*
X120044156Y-74933332D02*
X120158441Y-74933332D01*
X120158441Y-74933332D02*
X120234632Y-74971428D01*
X120234632Y-74971428D02*
X120272727Y-75009523D01*
X120272727Y-75009523D02*
X120310822Y-75085713D01*
X120310822Y-75085713D02*
X120310822Y-75390475D01*
X119891775Y-74247618D02*
X119891775Y-74399999D01*
X119891775Y-74399999D02*
X119929870Y-74476190D01*
X119929870Y-74476190D02*
X119967965Y-74514285D01*
X119967965Y-74514285D02*
X120082251Y-74590475D01*
X120082251Y-74590475D02*
X120234632Y-74628571D01*
X120234632Y-74628571D02*
X120539394Y-74628571D01*
X120539394Y-74628571D02*
X120615584Y-74590475D01*
X120615584Y-74590475D02*
X120653680Y-74552380D01*
X120653680Y-74552380D02*
X120691775Y-74476190D01*
X120691775Y-74476190D02*
X120691775Y-74323809D01*
X120691775Y-74323809D02*
X120653680Y-74247618D01*
X120653680Y-74247618D02*
X120615584Y-74209523D01*
X120615584Y-74209523D02*
X120539394Y-74171428D01*
X120539394Y-74171428D02*
X120348918Y-74171428D01*
X120348918Y-74171428D02*
X120272727Y-74209523D01*
X120272727Y-74209523D02*
X120234632Y-74247618D01*
X120234632Y-74247618D02*
X120196537Y-74323809D01*
X120196537Y-74323809D02*
X120196537Y-74476190D01*
X120196537Y-74476190D02*
X120234632Y-74552380D01*
X120234632Y-74552380D02*
X120272727Y-74590475D01*
X120272727Y-74590475D02*
X120348918Y-74628571D01*
X170376667Y-75071775D02*
X170110000Y-74690822D01*
X169919524Y-75071775D02*
X169919524Y-74271775D01*
X169919524Y-74271775D02*
X170224286Y-74271775D01*
X170224286Y-74271775D02*
X170300476Y-74309870D01*
X170300476Y-74309870D02*
X170338571Y-74347965D01*
X170338571Y-74347965D02*
X170376667Y-74424156D01*
X170376667Y-74424156D02*
X170376667Y-74538441D01*
X170376667Y-74538441D02*
X170338571Y-74614632D01*
X170338571Y-74614632D02*
X170300476Y-74652727D01*
X170300476Y-74652727D02*
X170224286Y-74690822D01*
X170224286Y-74690822D02*
X169919524Y-74690822D01*
X171100476Y-74271775D02*
X170719524Y-74271775D01*
X170719524Y-74271775D02*
X170681428Y-74652727D01*
X170681428Y-74652727D02*
X170719524Y-74614632D01*
X170719524Y-74614632D02*
X170795714Y-74576537D01*
X170795714Y-74576537D02*
X170986190Y-74576537D01*
X170986190Y-74576537D02*
X171062381Y-74614632D01*
X171062381Y-74614632D02*
X171100476Y-74652727D01*
X171100476Y-74652727D02*
X171138571Y-74728918D01*
X171138571Y-74728918D02*
X171138571Y-74919394D01*
X171138571Y-74919394D02*
X171100476Y-74995584D01*
X171100476Y-74995584D02*
X171062381Y-75033680D01*
X171062381Y-75033680D02*
X170986190Y-75071775D01*
X170986190Y-75071775D02*
X170795714Y-75071775D01*
X170795714Y-75071775D02*
X170719524Y-75033680D01*
X170719524Y-75033680D02*
X170681428Y-74995584D01*
X128471775Y-70203332D02*
X128090822Y-70469999D01*
X128471775Y-70660475D02*
X127671775Y-70660475D01*
X127671775Y-70660475D02*
X127671775Y-70355713D01*
X127671775Y-70355713D02*
X127709870Y-70279523D01*
X127709870Y-70279523D02*
X127747965Y-70241428D01*
X127747965Y-70241428D02*
X127824156Y-70203332D01*
X127824156Y-70203332D02*
X127938441Y-70203332D01*
X127938441Y-70203332D02*
X128014632Y-70241428D01*
X128014632Y-70241428D02*
X128052727Y-70279523D01*
X128052727Y-70279523D02*
X128090822Y-70355713D01*
X128090822Y-70355713D02*
X128090822Y-70660475D01*
X128471775Y-69822380D02*
X128471775Y-69669999D01*
X128471775Y-69669999D02*
X128433680Y-69593809D01*
X128433680Y-69593809D02*
X128395584Y-69555713D01*
X128395584Y-69555713D02*
X128281299Y-69479523D01*
X128281299Y-69479523D02*
X128128918Y-69441428D01*
X128128918Y-69441428D02*
X127824156Y-69441428D01*
X127824156Y-69441428D02*
X127747965Y-69479523D01*
X127747965Y-69479523D02*
X127709870Y-69517618D01*
X127709870Y-69517618D02*
X127671775Y-69593809D01*
X127671775Y-69593809D02*
X127671775Y-69746190D01*
X127671775Y-69746190D02*
X127709870Y-69822380D01*
X127709870Y-69822380D02*
X127747965Y-69860475D01*
X127747965Y-69860475D02*
X127824156Y-69898571D01*
X127824156Y-69898571D02*
X128014632Y-69898571D01*
X128014632Y-69898571D02*
X128090822Y-69860475D01*
X128090822Y-69860475D02*
X128128918Y-69822380D01*
X128128918Y-69822380D02*
X128167013Y-69746190D01*
X128167013Y-69746190D02*
X128167013Y-69593809D01*
X128167013Y-69593809D02*
X128128918Y-69517618D01*
X128128918Y-69517618D02*
X128090822Y-69479523D01*
X128090822Y-69479523D02*
X128014632Y-69441428D01*
X171721775Y-73940475D02*
X170921775Y-73940475D01*
X170921775Y-73940475D02*
X170921775Y-73749999D01*
X170921775Y-73749999D02*
X170959870Y-73635713D01*
X170959870Y-73635713D02*
X171036060Y-73559523D01*
X171036060Y-73559523D02*
X171112251Y-73521428D01*
X171112251Y-73521428D02*
X171264632Y-73483332D01*
X171264632Y-73483332D02*
X171378918Y-73483332D01*
X171378918Y-73483332D02*
X171531299Y-73521428D01*
X171531299Y-73521428D02*
X171607489Y-73559523D01*
X171607489Y-73559523D02*
X171683680Y-73635713D01*
X171683680Y-73635713D02*
X171721775Y-73749999D01*
X171721775Y-73749999D02*
X171721775Y-73940475D01*
X171188441Y-72797618D02*
X171721775Y-72797618D01*
X170883680Y-72988094D02*
X171455108Y-73178571D01*
X171455108Y-73178571D02*
X171455108Y-72683332D01*
X175589524Y-61621775D02*
X175589524Y-62269394D01*
X175589524Y-62269394D02*
X175627619Y-62345584D01*
X175627619Y-62345584D02*
X175665714Y-62383680D01*
X175665714Y-62383680D02*
X175741905Y-62421775D01*
X175741905Y-62421775D02*
X175894286Y-62421775D01*
X175894286Y-62421775D02*
X175970476Y-62383680D01*
X175970476Y-62383680D02*
X176008571Y-62345584D01*
X176008571Y-62345584D02*
X176046667Y-62269394D01*
X176046667Y-62269394D02*
X176046667Y-61621775D01*
X176389523Y-62383680D02*
X176503809Y-62421775D01*
X176503809Y-62421775D02*
X176694285Y-62421775D01*
X176694285Y-62421775D02*
X176770476Y-62383680D01*
X176770476Y-62383680D02*
X176808571Y-62345584D01*
X176808571Y-62345584D02*
X176846666Y-62269394D01*
X176846666Y-62269394D02*
X176846666Y-62193203D01*
X176846666Y-62193203D02*
X176808571Y-62117013D01*
X176808571Y-62117013D02*
X176770476Y-62078918D01*
X176770476Y-62078918D02*
X176694285Y-62040822D01*
X176694285Y-62040822D02*
X176541904Y-62002727D01*
X176541904Y-62002727D02*
X176465714Y-61964632D01*
X176465714Y-61964632D02*
X176427619Y-61926537D01*
X176427619Y-61926537D02*
X176389523Y-61850346D01*
X176389523Y-61850346D02*
X176389523Y-61774156D01*
X176389523Y-61774156D02*
X176427619Y-61697965D01*
X176427619Y-61697965D02*
X176465714Y-61659870D01*
X176465714Y-61659870D02*
X176541904Y-61621775D01*
X176541904Y-61621775D02*
X176732381Y-61621775D01*
X176732381Y-61621775D02*
X176846666Y-61659870D01*
X177456190Y-62002727D02*
X177570476Y-62040822D01*
X177570476Y-62040822D02*
X177608571Y-62078918D01*
X177608571Y-62078918D02*
X177646667Y-62155108D01*
X177646667Y-62155108D02*
X177646667Y-62269394D01*
X177646667Y-62269394D02*
X177608571Y-62345584D01*
X177608571Y-62345584D02*
X177570476Y-62383680D01*
X177570476Y-62383680D02*
X177494286Y-62421775D01*
X177494286Y-62421775D02*
X177189524Y-62421775D01*
X177189524Y-62421775D02*
X177189524Y-61621775D01*
X177189524Y-61621775D02*
X177456190Y-61621775D01*
X177456190Y-61621775D02*
X177532381Y-61659870D01*
X177532381Y-61659870D02*
X177570476Y-61697965D01*
X177570476Y-61697965D02*
X177608571Y-61774156D01*
X177608571Y-61774156D02*
X177608571Y-61850346D01*
X177608571Y-61850346D02*
X177570476Y-61926537D01*
X177570476Y-61926537D02*
X177532381Y-61964632D01*
X177532381Y-61964632D02*
X177456190Y-62002727D01*
X177456190Y-62002727D02*
X177189524Y-62002727D01*
X178408571Y-62421775D02*
X177951428Y-62421775D01*
X178180000Y-62421775D02*
X178180000Y-61621775D01*
X178180000Y-61621775D02*
X178103809Y-61736060D01*
X178103809Y-61736060D02*
X178027619Y-61812251D01*
X178027619Y-61812251D02*
X177951428Y-61850346D01*
%TO.C,U6*%
D13*
X126000000Y-66400000D02*
X126000000Y-64580000D01*
X126050000Y-66400000D02*
X126000000Y-66400000D01*
X129120000Y-66400000D02*
X129070000Y-66400000D01*
X126000000Y-64580000D02*
X126050000Y-64580000D01*
X129070000Y-64580000D02*
X129120000Y-64580000D01*
X129120000Y-64580000D02*
X129120000Y-66400000D01*
X126050000Y-66940000D02*
X125720000Y-67180000D01*
X125720000Y-66700000D01*
X126050000Y-66940000D01*
G36*
X126050000Y-66940000D02*
G01*
X125720000Y-67180000D01*
X125720000Y-66700000D01*
X126050000Y-66940000D01*
G37*
%TO.C,TP1*%
X130480000Y-74090000D02*
X127580000Y-74090000D01*
X130480000Y-71190000D02*
X130480000Y-74090000D01*
X127580000Y-74090000D02*
X127580000Y-71190000D01*
X127580000Y-71190000D02*
X130480000Y-71190000D01*
%TO.C,C18*%
X127347836Y-63150000D02*
X127132164Y-63150000D01*
X127347836Y-62430000D02*
X127132164Y-62430000D01*
%TO.C,C17*%
X127307836Y-62080000D02*
X127092164Y-62080000D01*
X127307836Y-61360000D02*
X127092164Y-61360000D01*
%TO.C,C16*%
X130370000Y-65612164D02*
X130370000Y-65827836D01*
X129650000Y-65612164D02*
X129650000Y-65827836D01*
%TO.C,D1*%
X163010000Y-68070000D02*
X163010000Y-74620000D01*
X163010000Y-74620000D02*
X163460000Y-75070000D01*
X163460000Y-75070000D02*
X168510000Y-75070000D01*
X164860000Y-68870000D02*
X166660000Y-68870000D01*
X164860000Y-74270000D02*
X166660000Y-74270000D01*
X168510000Y-68070000D02*
X163010000Y-68070000D01*
X168510000Y-68070000D02*
X168510000Y-75070000D01*
%TO.C,R7*%
X157230000Y-71676359D02*
X157230000Y-71983641D01*
X157990000Y-71676359D02*
X157990000Y-71983641D01*
%TO.C,C5*%
X169080000Y-64517836D02*
X169080000Y-64302164D01*
X169800000Y-64517836D02*
X169800000Y-64302164D01*
%TO.C,C12*%
X123797836Y-67990000D02*
X123582164Y-67990000D01*
X123797836Y-68710000D02*
X123582164Y-68710000D01*
%TO.C,C7*%
X162927836Y-62720000D02*
X162712164Y-62720000D01*
X162927836Y-63440000D02*
X162712164Y-63440000D01*
%TO.C,D7*%
D14*
X176640000Y-73500000D02*
G75*
G02*
X176540000Y-73500000I-50000J0D01*
G01*
X176540000Y-73500000D02*
G75*
G02*
X176640000Y-73500000I50000J0D01*
G01*
%TO.C,R4*%
D13*
X175346359Y-74120000D02*
X175653641Y-74120000D01*
X175346359Y-74880000D02*
X175653641Y-74880000D01*
%TO.C,SW2*%
D14*
X158710000Y-63220000D02*
X159360000Y-63220000D01*
X158710000Y-69320000D02*
X158710000Y-63220000D01*
X159360000Y-69320000D02*
X158710000Y-69320000D01*
D15*
X160760000Y-71770000D02*
X160759999Y-71770000D01*
X160759999Y-71770000D01*
X160759999Y-71770000D01*
X160759999Y-71770000D01*
X160759999Y-71770000D01*
X160759999Y-71770000D01*
X160759999Y-71770000D01*
X160759999Y-71769999D01*
X160759999Y-71769999D01*
X160759999Y-71769999D01*
X160759999Y-71769999D01*
X160759999Y-71769999D01*
X160760000Y-71769999D01*
X160760000Y-71769999D01*
X160760000Y-71769999D01*
X160760000Y-71769999D01*
X160760000Y-71769999D01*
X160760000Y-71769999D01*
X160760000Y-71769999D01*
X160760000Y-71769999D01*
X160760000Y-71769999D01*
X160760000Y-71769999D01*
X160760000Y-71769999D01*
X160760000Y-71769999D01*
X160760001Y-71769999D01*
X160760001Y-71769999D01*
X160760001Y-71769999D01*
X160760001Y-71769999D01*
X160760001Y-71769999D01*
X160760001Y-71769999D01*
X160760001Y-71770000D01*
X160760001Y-71770000D01*
X160760001Y-71770000D01*
X160760001Y-71770000D01*
X160760001Y-71770000D01*
X160760001Y-71770000D01*
X160760001Y-71770000D01*
X160760000Y-71770000D01*
X160760000Y-71770000D02*
X160760001Y-71770000D01*
X160760001Y-71770000D01*
X160760001Y-71770000D01*
X160760001Y-71770000D01*
X160760001Y-71770000D01*
X160760001Y-71770000D01*
X160760001Y-71770001D01*
X160760001Y-71770001D01*
X160760001Y-71770001D01*
X160760001Y-71770001D01*
X160760001Y-71770001D01*
X160760001Y-71770001D01*
X160760001Y-71770001D01*
X160760000Y-71770001D01*
X160760000Y-71770001D01*
X160760000Y-71770001D01*
X160760000Y-71770001D01*
X160760000Y-71770001D01*
X160760000Y-71770001D01*
X160760000Y-71770001D01*
X160760000Y-71770001D01*
X160760000Y-71770001D01*
X160760000Y-71770001D01*
X160760000Y-71770001D01*
X160760000Y-71770001D01*
X160759999Y-71770001D01*
X160759999Y-71770001D01*
X160759999Y-71770001D01*
X160759999Y-71770001D01*
X160759999Y-71770001D01*
X160759999Y-71770001D01*
X160759999Y-71770000D01*
X160759999Y-71770000D01*
X160759999Y-71770000D01*
X160759999Y-71770000D01*
X160759999Y-71770000D01*
X160759999Y-71770000D01*
X160760000Y-71770000D01*
D14*
D15*
X160760000Y-71870000D02*
X160759999Y-71870000D01*
X160759999Y-71870000D01*
X160759999Y-71870000D01*
X160759999Y-71870000D01*
X160759999Y-71870000D01*
X160759999Y-71870000D01*
X160759999Y-71870000D01*
X160759999Y-71869999D01*
X160759999Y-71869999D01*
X160759999Y-71869999D01*
X160759999Y-71869999D01*
X160759999Y-71869999D01*
X160760000Y-71869999D01*
X160760000Y-71869999D01*
X160760000Y-71869999D01*
X160760000Y-71869999D01*
X160760000Y-71869999D01*
X160760000Y-71869999D01*
X160760000Y-71869999D01*
X160760000Y-71869999D01*
X160760000Y-71869999D01*
X160760000Y-71869999D01*
X160760000Y-71869999D01*
X160760000Y-71869999D01*
X160760001Y-71869999D01*
X160760001Y-71869999D01*
X160760001Y-71869999D01*
X160760001Y-71869999D01*
X160760001Y-71869999D01*
X160760001Y-71869999D01*
X160760001Y-71870000D01*
X160760001Y-71870000D01*
X160760001Y-71870000D01*
X160760001Y-71870000D01*
X160760001Y-71870000D01*
X160760001Y-71870000D01*
X160760001Y-71870000D01*
X160760000Y-71870000D01*
X160760000Y-71870000D02*
X160760001Y-71870000D01*
X160760001Y-71870000D01*
X160760001Y-71870000D01*
X160760001Y-71870000D01*
X160760001Y-71870000D01*
X160760001Y-71870000D01*
X160760001Y-71870001D01*
X160760001Y-71870001D01*
X160760001Y-71870001D01*
X160760001Y-71870001D01*
X160760001Y-71870001D01*
X160760001Y-71870001D01*
X160760001Y-71870001D01*
X160760000Y-71870001D01*
X160760000Y-71870001D01*
X160760000Y-71870001D01*
X160760000Y-71870001D01*
X160760000Y-71870001D01*
X160760000Y-71870001D01*
X160760000Y-71870001D01*
X160760000Y-71870001D01*
X160760000Y-71870001D01*
X160760000Y-71870001D01*
X160760000Y-71870001D01*
X160760000Y-71870001D01*
X160759999Y-71870001D01*
X160759999Y-71870001D01*
X160759999Y-71870001D01*
X160759999Y-71870001D01*
X160759999Y-71870001D01*
X160759999Y-71870001D01*
X160759999Y-71870000D01*
X160759999Y-71870000D01*
X160759999Y-71870000D01*
X160759999Y-71870000D01*
X160759999Y-71870000D01*
X160759999Y-71870000D01*
X160760000Y-71870000D01*
D14*
D15*
X161760000Y-63220000D02*
X161759999Y-63220000D01*
X161759999Y-63220000D01*
X161759999Y-63220000D01*
X161759999Y-63220000D01*
X161759999Y-63220000D01*
X161759999Y-63220000D01*
X161759999Y-63220000D01*
X161759999Y-63219999D01*
X161759999Y-63219999D01*
X161759999Y-63219999D01*
X161759999Y-63219999D01*
X161759999Y-63219999D01*
X161760000Y-63219999D01*
X161760000Y-63219999D01*
X161760000Y-63219999D01*
X161760000Y-63219999D01*
X161760000Y-63219999D01*
X161760000Y-63219999D01*
X161760000Y-63219999D01*
X161760000Y-63219999D01*
X161760000Y-63219999D01*
X161760000Y-63219999D01*
X161760000Y-63219999D01*
X161760000Y-63219999D01*
X161760001Y-63219999D01*
X161760001Y-63219999D01*
X161760001Y-63219999D01*
X161760001Y-63219999D01*
X161760001Y-63219999D01*
X161760001Y-63219999D01*
X161760001Y-63220000D01*
X161760001Y-63220000D01*
X161760001Y-63220000D01*
X161760001Y-63220000D01*
X161760001Y-63220000D01*
X161760001Y-63220000D01*
X161760001Y-63220000D01*
X161760000Y-63220000D01*
X161760000Y-63220000D02*
X161760001Y-63220000D01*
X161760001Y-63220000D01*
X161760001Y-63220000D01*
X161760001Y-63220000D01*
X161760001Y-63220000D01*
X161760001Y-63220000D01*
X161760001Y-63220001D01*
X161760001Y-63220001D01*
X161760001Y-63220001D01*
X161760001Y-63220001D01*
X161760001Y-63220001D01*
X161760001Y-63220001D01*
X161760001Y-63220001D01*
X161760000Y-63220001D01*
X161760000Y-63220001D01*
X161760000Y-63220001D01*
X161760000Y-63220001D01*
X161760000Y-63220001D01*
X161760000Y-63220001D01*
X161760000Y-63220001D01*
X161760000Y-63220001D01*
X161760000Y-63220001D01*
X161760000Y-63220001D01*
X161760000Y-63220001D01*
X161760000Y-63220001D01*
X161759999Y-63220001D01*
X161759999Y-63220001D01*
X161759999Y-63220001D01*
X161759999Y-63220001D01*
X161759999Y-63220001D01*
X161759999Y-63220001D01*
X161759999Y-63220000D01*
X161759999Y-63220000D01*
X161759999Y-63220000D01*
X161759999Y-63220000D01*
X161759999Y-63220000D01*
X161759999Y-63220000D01*
X161760000Y-63220000D01*
D14*
X161760000Y-69320000D02*
X162360000Y-69320000D01*
X162360000Y-69320000D02*
X162410000Y-63220000D01*
X162410000Y-63220000D02*
X161760000Y-63220000D01*
X160760000Y-71770000D02*
G75*
G02*
X160760000Y-71870000I0J-50000D01*
G01*
X160760000Y-71870000D02*
G75*
G02*
X160760000Y-71770000I0J50000D01*
G01*
%TO.C,C6*%
D13*
X170580000Y-64637836D02*
X170580000Y-64422164D01*
X171300000Y-64637836D02*
X171300000Y-64422164D01*
%TO.C,R8*%
X157270000Y-74323641D02*
X157270000Y-74016359D01*
X158030000Y-74323641D02*
X158030000Y-74016359D01*
%TO.C,J1*%
D16*
X165210000Y-62350000D02*
X166190000Y-62350000D01*
X165210000Y-63230000D02*
X165210000Y-62350000D01*
X165210000Y-66350000D02*
X165210000Y-65470000D01*
X165210000Y-66350000D02*
X166190000Y-66350000D01*
X168110000Y-63470000D02*
X168110000Y-65230000D01*
D17*
X163510000Y-63850000D02*
G75*
G02*
X163310000Y-63850000I-100000J0D01*
G01*
X163310000Y-63850000D02*
G75*
G02*
X163510000Y-63850000I100000J0D01*
G01*
%TO.C,R10*%
D13*
X163063641Y-61600000D02*
X162756359Y-61600000D01*
X163063641Y-62360000D02*
X162756359Y-62360000D01*
%TO.C,C11*%
X157440000Y-65237836D02*
X157440000Y-65022164D01*
X158160000Y-65237836D02*
X158160000Y-65022164D01*
%TO.C,U4*%
X153620000Y-64460000D02*
X153620000Y-63080000D01*
X155000000Y-63080000D02*
X153620000Y-63080000D01*
X142000000Y-62540000D02*
X156583496Y-62540000D01*
X156583496Y-74057700D01*
X142000000Y-74057700D01*
X142000000Y-62540000D01*
%TO.C,U5*%
X122650000Y-74700000D02*
X126250000Y-74700000D01*
X122611522Y-74688478D02*
G75*
G02*
X124450000Y-70249999I1838478J1838478D01*
G01*
X124450000Y-70250000D02*
G75*
G02*
X126288478Y-74688478I0J-2600000D01*
G01*
%TO.C,C13*%
X160520000Y-73302164D02*
X160520000Y-73517836D01*
X161240000Y-73302164D02*
X161240000Y-73517836D01*
%TO.C,D5*%
D14*
X119740000Y-74170000D02*
G75*
G02*
X119640000Y-74170000I-50000J0D01*
G01*
X119640000Y-74170000D02*
G75*
G02*
X119740000Y-74170000I50000J0D01*
G01*
%TO.C,R6*%
D13*
X120480000Y-73213641D02*
X120480000Y-72906359D01*
X121240000Y-73213641D02*
X121240000Y-72906359D01*
%TO.C,R5*%
X172861359Y-74180000D02*
X173168641Y-74180000D01*
X172861359Y-74940000D02*
X173168641Y-74940000D01*
%TO.C,R9*%
X124013641Y-69030000D02*
X123706359Y-69030000D01*
X124013641Y-69790000D02*
X123706359Y-69790000D01*
%TO.C,D4*%
D14*
X171975000Y-73560000D02*
G75*
G02*
X171875000Y-73560000I-50000J0D01*
G01*
X171875000Y-73560000D02*
G75*
G02*
X171975000Y-73560000I50000J0D01*
G01*
%TO.C,USB1*%
D18*
X176205000Y-63570000D02*
X174465000Y-63570000D01*
X176205000Y-72370000D02*
X174465000Y-72370000D01*
X179985000Y-63570000D02*
X178565000Y-63570000D01*
X179985000Y-72370000D02*
X178565000Y-72370000D01*
X179985000Y-72370000D02*
X179985000Y-63570000D01*
D19*
X172165000Y-72450000D02*
G75*
G02*
X172105000Y-72450000I-30000J0D01*
G01*
X172105000Y-72450000D02*
G75*
G02*
X172165000Y-72450000I30000J0D01*
G01*
%TD*%
M02*
