%TF.GenerationSoftware,KiCad,Pcbnew,10.0.1*%
%TF.CreationDate,2026-08-26T11:50:51+01:00*%
%TF.ProjectId,Clinical_Thermometer,436c696e-6963-4616-9c5f-546865726d6f,rev?*%
%TF.SameCoordinates,Original*%
%TF.FileFunction,Copper,L2,Inr*%
%TF.FilePolarity,Positive*%
%FSLAX46Y46*%
G04 Gerber Fmt 4.6, Leading zero omitted, Abs format (unit mm)*
G04 Created by KiCad (PCBNEW 10.0.1) date 2026-08-26 11:50:51*
%MOMM*%
%LPD*%
G01*
G04 APERTURE LIST*
G04 Aperture macros list*
%AMRoundRect*
0 Rectangle with rounded corners*
0 $1 Rounding radius*
0 $2 $3 $4 $5 $6 $7 $8 $9 X,Y pos of 4 corners*
0 Add a 4 corners polygon primitive as box body*
4,1,4,$2,$3,$4,$5,$6,$7,$8,$9,$2,$3,0*
0 Add four circle primitives for the rounded corners*
1,1,$1+$1,$2,$3*
1,1,$1+$1,$4,$5*
1,1,$1+$1,$6,$7*
1,1,$1+$1,$8,$9*
0 Add four rect primitives between the rounded corners*
20,1,$1+$1,$2,$3,$4,$5,0*
20,1,$1+$1,$4,$5,$6,$7,0*
20,1,$1+$1,$6,$7,$8,$9,0*
20,1,$1+$1,$8,$9,$2,$3,0*%
G04 Aperture macros list end*
%TA.AperFunction,ComponentPad*%
%ADD10RoundRect,0.170000X-0.680000X0.680000X-0.680000X-0.680000X0.680000X-0.680000X0.680000X0.680000X0*%
%TD*%
%TA.AperFunction,ComponentPad*%
%ADD11C,1.700000*%
%TD*%
%TA.AperFunction,ComponentPad*%
%ADD12C,0.650000*%
%TD*%
%TA.AperFunction,ComponentPad*%
%ADD13O,1.800000X1.000000*%
%TD*%
%TA.AperFunction,HeatsinkPad*%
%ADD14C,0.500000*%
%TD*%
%TA.AperFunction,ViaPad*%
%ADD15C,0.600000*%
%TD*%
%TA.AperFunction,ViaPad*%
%ADD16C,0.800000*%
%TD*%
%TA.AperFunction,Conductor*%
%ADD17C,0.200000*%
%TD*%
%TA.AperFunction,Conductor*%
%ADD18C,0.600000*%
%TD*%
%TA.AperFunction,Conductor*%
%ADD19C,0.300000*%
%TD*%
%TA.AperFunction,Conductor*%
%ADD20C,0.250000*%
%TD*%
G04 APERTURE END LIST*
D10*
%TO.N,GND*%
%TO.C,U4*%
X155000000Y-64460000D03*
D11*
%TO.N,+3.3V*%
X155000000Y-67000000D03*
%TO.N,I2C_SCL*%
X155000000Y-69540000D03*
%TO.N,I2C_SDA*%
X155000000Y-72080000D03*
%TD*%
D12*
%TO.N,*%
%TO.C,USB1*%
X173685000Y-70860000D03*
X173685000Y-65080000D03*
D13*
%TO.N,GND*%
X173185000Y-72290000D03*
X173185000Y-63650000D03*
X177385000Y-72290000D03*
X177385000Y-63650000D03*
%TD*%
D14*
%TO.N,GND*%
%TO.C,U3*%
X133500000Y-69110000D03*
%TD*%
D15*
%TO.N,TOUCH_IN*%
X126440000Y-68000000D03*
X121238200Y-67586753D03*
%TO.N,LDO_IN*%
X157100000Y-69360000D03*
%TO.N,GND*%
X119340000Y-75010000D03*
X122015000Y-64785000D03*
X123430000Y-62670000D03*
D16*
X119356000Y-63462100D03*
D15*
X119075000Y-69975000D03*
D16*
X165693200Y-74259800D03*
X165804300Y-66056000D03*
X120696000Y-69100000D03*
D15*
X119075000Y-66025000D03*
X122035000Y-62065000D03*
%TO.N,LED_DIN*%
X119082000Y-64497600D03*
X163132900Y-71918700D03*
%TO.N,I2C_SCL*%
X125580000Y-66281600D03*
D16*
%TO.N,+3.3V*%
X150819000Y-69332500D03*
X135996000Y-61956000D03*
D15*
%TO.N,VBUS_5V*%
X169060000Y-65650000D03*
X146695001Y-62115001D03*
D16*
X170318000Y-67035700D03*
D15*
X139764000Y-69770000D03*
X173630000Y-74560000D03*
X169880000Y-72120000D03*
%TO.N,Net-(SW2-B)*%
X123010000Y-66770000D03*
X158845000Y-63415000D03*
%TO.N,Net-(D7-A)*%
X176472000Y-71464300D03*
X129050000Y-70730000D03*
%TO.N,I2C_SDA*%
X118970000Y-72417500D03*
%TO.N,VBAT*%
X166220000Y-63730000D03*
D16*
X131160000Y-73530000D03*
X162678000Y-66780300D03*
X153351000Y-66780300D03*
D15*
%TO.N,TEMP_DQ*%
X120908000Y-69971833D03*
X118124000Y-64328000D03*
%TO.N,Net-(D4-A)*%
X177220000Y-71189300D03*
X128926000Y-70010900D03*
%TO.N,USB_DP*%
X117965000Y-72190000D03*
X174738000Y-66820700D03*
%TO.N,USB_DN*%
X174544000Y-69235700D03*
X119808000Y-71586400D03*
%TO.N,CHIP_EN*%
X120696000Y-64385700D03*
%TO.N,Net-(U3-PROG)*%
X151910000Y-73743100D03*
X139043000Y-71807400D03*
%TD*%
%TO.N,TOUCH_IN*%
D17*
X123310000Y-68000000D02*
X126440000Y-68000000D01*
X122810000Y-67500000D02*
X123310000Y-68000000D01*
X121970000Y-67500000D02*
X122810000Y-67500000D01*
X121238200Y-67586753D02*
X121883247Y-67586753D01*
X121883247Y-67586753D02*
X121970000Y-67500000D01*
%TO.N,VBAT*%
D18*
X131160000Y-73049300D02*
X137429000Y-66780300D01*
X131160000Y-73530000D02*
X131160000Y-73049300D01*
X137429000Y-66780300D02*
X153351000Y-66780300D01*
%TO.N,TEMP_DQ*%
D19*
X120678000Y-70078500D02*
X118124000Y-67523500D01*
X120856167Y-69971833D02*
X120749500Y-70078500D01*
X120908000Y-69971833D02*
X120856167Y-69971833D01*
X120749500Y-70078500D02*
X120678000Y-70078500D01*
X118124000Y-67523500D02*
X118124000Y-64328000D01*
%TO.N,LED_DIN*%
D20*
X122927700Y-72944200D02*
X115501600Y-72944200D01*
X117881600Y-63771200D02*
X118355600Y-63771200D01*
X115501600Y-72944200D02*
X114712200Y-72154800D01*
X124293500Y-74310000D02*
X122927700Y-72944200D01*
X114712200Y-72154800D02*
X114712200Y-66940600D01*
X130692000Y-74401384D02*
X130325884Y-74767500D01*
X129442000Y-74401384D02*
X129442000Y-74310000D01*
X129808116Y-74767500D02*
X129442000Y-74401384D01*
X129442000Y-74310000D02*
X124293500Y-74310000D01*
X163132900Y-71918700D02*
X160741600Y-74310000D01*
X160741600Y-74310000D02*
X130692000Y-74310000D01*
X130692000Y-74310000D02*
X130692000Y-74401384D01*
X114712200Y-66940600D02*
X117881600Y-63771200D01*
X118355600Y-63771200D02*
X119082000Y-64497600D01*
X130325884Y-74767500D02*
X129808116Y-74767500D01*
%TO.N,Net-(SW2-B)*%
D19*
X125352000Y-66831600D02*
X125808000Y-66831600D01*
X123010000Y-66770000D02*
X123070000Y-66710000D01*
X124711000Y-66190000D02*
X125352000Y-66831600D01*
X126049000Y-66590000D02*
X132280000Y-66590000D01*
X125808000Y-66831600D02*
X126049000Y-66590000D01*
X123510000Y-66190000D02*
X124711000Y-66190000D01*
X123070000Y-66630000D02*
X123510000Y-66190000D01*
X135535000Y-63334600D02*
X158765000Y-63334600D01*
X158765000Y-63334600D02*
X158845000Y-63415000D01*
X132280000Y-66590000D02*
X135535000Y-63334600D01*
X123070000Y-66710000D02*
X123070000Y-66630000D01*
%TO.N,VBAT*%
D18*
X153351000Y-67189300D02*
X153351000Y-66780300D01*
X154431000Y-68270000D02*
X153351000Y-67189300D01*
X161188000Y-68270000D02*
X154431000Y-68270000D01*
X162678000Y-66780300D02*
X161188000Y-68270000D01*
%TO.N,Net-(D4-A)*%
D19*
X128926000Y-70010900D02*
X129427000Y-70010900D01*
X129427000Y-70010900D02*
X133550000Y-65888200D01*
X175980000Y-69949600D02*
X177220000Y-71189300D01*
X168564000Y-69949600D02*
X175980000Y-69949600D01*
X133550000Y-65888200D02*
X164502000Y-65888200D01*
X164502000Y-65888200D02*
X168564000Y-69949600D01*
%TO.N,USB_DP*%
X174383000Y-66820700D02*
X174738000Y-66820700D01*
%TO.N,Net-(U3-PROG)*%
X150084000Y-73743100D02*
X148148000Y-71807400D01*
X151910000Y-73743100D02*
X150084000Y-73743100D01*
X148148000Y-71807400D02*
X139043000Y-71807400D01*
%TD*%
%TA.AperFunction,Conductor*%
%TO.N,CHIP_EN*%
G36*
X176854042Y-60650765D02*
G01*
X176877728Y-60652317D01*
X177087489Y-60666065D01*
X177103550Y-60668180D01*
X177329011Y-60713028D01*
X177344650Y-60717218D01*
X177562332Y-60791111D01*
X177577299Y-60797311D01*
X177778126Y-60896347D01*
X177783460Y-60898978D01*
X177797508Y-60907088D01*
X177988631Y-61034793D01*
X178001495Y-61044664D01*
X178174310Y-61196220D01*
X178185779Y-61207689D01*
X178337335Y-61380504D01*
X178347209Y-61393372D01*
X178474911Y-61584492D01*
X178483021Y-61598539D01*
X178584685Y-61804693D01*
X178590890Y-61819674D01*
X178664375Y-62036154D01*
X178664776Y-62037333D01*
X178668974Y-62053000D01*
X178713817Y-62278437D01*
X178715935Y-62294519D01*
X178728826Y-62491209D01*
X178731235Y-62527956D01*
X178731500Y-62536066D01*
X178731500Y-62882216D01*
X178711815Y-62949255D01*
X178659011Y-62995010D01*
X178589853Y-63004954D01*
X178526297Y-62975929D01*
X178519819Y-62969897D01*
X178422785Y-62872863D01*
X178422781Y-62872860D01*
X178258920Y-62763371D01*
X178258907Y-62763364D01*
X178076839Y-62687950D01*
X178076829Y-62687947D01*
X177883543Y-62649500D01*
X177883541Y-62649500D01*
X176886459Y-62649500D01*
X176886457Y-62649500D01*
X176693170Y-62687947D01*
X176693160Y-62687950D01*
X176511092Y-62763364D01*
X176511079Y-62763371D01*
X176347218Y-62872860D01*
X176347214Y-62872863D01*
X176207863Y-63012214D01*
X176207860Y-63012218D01*
X176098371Y-63176079D01*
X176098364Y-63176092D01*
X176022950Y-63358160D01*
X176022947Y-63358170D01*
X175984500Y-63551456D01*
X175984500Y-63551459D01*
X175984500Y-63748541D01*
X175984500Y-63748543D01*
X175984499Y-63748543D01*
X176022947Y-63941829D01*
X176022950Y-63941839D01*
X176098364Y-64123907D01*
X176098371Y-64123920D01*
X176207860Y-64287781D01*
X176207863Y-64287785D01*
X176347214Y-64427136D01*
X176347218Y-64427139D01*
X176511079Y-64536628D01*
X176511092Y-64536635D01*
X176607201Y-64576444D01*
X176693165Y-64612051D01*
X176693169Y-64612051D01*
X176693170Y-64612052D01*
X176886456Y-64650500D01*
X176886459Y-64650500D01*
X177883543Y-64650500D01*
X178013582Y-64624632D01*
X178076835Y-64612051D01*
X178258914Y-64536632D01*
X178422782Y-64427139D01*
X178454511Y-64395410D01*
X178519819Y-64330103D01*
X178581142Y-64296618D01*
X178650834Y-64301602D01*
X178706767Y-64343474D01*
X178731184Y-64408938D01*
X178731500Y-64417784D01*
X178731500Y-71522216D01*
X178711815Y-71589255D01*
X178659011Y-71635010D01*
X178589853Y-71644954D01*
X178526297Y-71615929D01*
X178519819Y-71609897D01*
X178422785Y-71512863D01*
X178422781Y-71512860D01*
X178258920Y-71403371D01*
X178258907Y-71403364D01*
X178097048Y-71336321D01*
X178042644Y-71292480D01*
X178020579Y-71226186D01*
X178020500Y-71221760D01*
X178020500Y-71110455D01*
X178020499Y-71110453D01*
X178018576Y-71100785D01*
X177989737Y-70955803D01*
X177989735Y-70955798D01*
X177929397Y-70810127D01*
X177929390Y-70810114D01*
X177841789Y-70679011D01*
X177841786Y-70679007D01*
X177730292Y-70567513D01*
X177730288Y-70567510D01*
X177599185Y-70479909D01*
X177599172Y-70479902D01*
X177453501Y-70419564D01*
X177453491Y-70419561D01*
X177386312Y-70406198D01*
X177324401Y-70373812D01*
X177322833Y-70372273D01*
X176435933Y-69485588D01*
X176435931Y-69485586D01*
X176394669Y-69444324D01*
X176394641Y-69444305D01*
X176394610Y-69444274D01*
X176337217Y-69405936D01*
X176337217Y-69405935D01*
X176336352Y-69405358D01*
X176288127Y-69373135D01*
X176288092Y-69373120D01*
X176288057Y-69373097D01*
X176227086Y-69347851D01*
X176169744Y-69324099D01*
X176169737Y-69324096D01*
X176169670Y-69324076D01*
X176109991Y-69312212D01*
X176109980Y-69312206D01*
X176109980Y-69312210D01*
X176046188Y-69299521D01*
X176046185Y-69299520D01*
X176044069Y-69299100D01*
X176044025Y-69299100D01*
X176043990Y-69299093D01*
X175984192Y-69299100D01*
X175468500Y-69299100D01*
X175401461Y-69279415D01*
X175355706Y-69226611D01*
X175344500Y-69175100D01*
X175344500Y-69156855D01*
X175344499Y-69156853D01*
X175331981Y-69093923D01*
X175313737Y-69002203D01*
X175312934Y-69000264D01*
X175253397Y-68856527D01*
X175253390Y-68856514D01*
X175165789Y-68725411D01*
X175165786Y-68725407D01*
X175054292Y-68613913D01*
X175054288Y-68613910D01*
X174923185Y-68526309D01*
X174923172Y-68526302D01*
X174777501Y-68465964D01*
X174777489Y-68465961D01*
X174622845Y-68435200D01*
X174622842Y-68435200D01*
X174465158Y-68435200D01*
X174465155Y-68435200D01*
X174310510Y-68465961D01*
X174310498Y-68465964D01*
X174164827Y-68526302D01*
X174164814Y-68526309D01*
X174033711Y-68613910D01*
X174033707Y-68613913D01*
X173922213Y-68725407D01*
X173922210Y-68725411D01*
X173834609Y-68856514D01*
X173834602Y-68856527D01*
X173774264Y-69002198D01*
X173774261Y-69002210D01*
X173743500Y-69156853D01*
X173743500Y-69175100D01*
X173723815Y-69242139D01*
X173671011Y-69287894D01*
X173619500Y-69299100D01*
X168884776Y-69299100D01*
X168817737Y-69279415D01*
X168797101Y-69262788D01*
X166421568Y-66887606D01*
X166388079Y-66826285D01*
X166393058Y-66756593D01*
X166421560Y-66712238D01*
X166503764Y-66630035D01*
X166602313Y-66482547D01*
X166670194Y-66318666D01*
X166670839Y-66315426D01*
X166693264Y-66202682D01*
X166704800Y-66144691D01*
X166704800Y-65967309D01*
X166704800Y-65967306D01*
X166704799Y-65967304D01*
X166670196Y-65793341D01*
X166670193Y-65793332D01*
X166669435Y-65791503D01*
X166653223Y-65752363D01*
X166602316Y-65629459D01*
X166602310Y-65629448D01*
X166563358Y-65571153D01*
X168259500Y-65571153D01*
X168259500Y-65728846D01*
X168290261Y-65883489D01*
X168290264Y-65883501D01*
X168350602Y-66029172D01*
X168350609Y-66029185D01*
X168438210Y-66160288D01*
X168438213Y-66160292D01*
X168549707Y-66271786D01*
X168549711Y-66271789D01*
X168680814Y-66359390D01*
X168680827Y-66359397D01*
X168826498Y-66419735D01*
X168826503Y-66419737D01*
X168981153Y-66450499D01*
X168981156Y-66450500D01*
X168981158Y-66450500D01*
X169138844Y-66450500D01*
X169138845Y-66450499D01*
X169293497Y-66419737D01*
X169404001Y-66373964D01*
X169473470Y-66366496D01*
X169535949Y-66397771D01*
X169571601Y-66457860D01*
X169569107Y-66527685D01*
X169554555Y-66557416D01*
X169519993Y-66609141D01*
X169519983Y-66609159D01*
X169452106Y-66773032D01*
X169452103Y-66773041D01*
X169417500Y-66947004D01*
X169417500Y-67124395D01*
X169452103Y-67298358D01*
X169452106Y-67298367D01*
X169519983Y-67462240D01*
X169519990Y-67462253D01*
X169618535Y-67609734D01*
X169618538Y-67609738D01*
X169743961Y-67735161D01*
X169743965Y-67735164D01*
X169891446Y-67833709D01*
X169891459Y-67833716D01*
X170009063Y-67882428D01*
X170055334Y-67901594D01*
X170055336Y-67901594D01*
X170055341Y-67901596D01*
X170229304Y-67936199D01*
X170229307Y-67936200D01*
X170229309Y-67936200D01*
X170406693Y-67936200D01*
X170406694Y-67936199D01*
X170482337Y-67921153D01*
X170580658Y-67901596D01*
X170580661Y-67901594D01*
X170580666Y-67901594D01*
X170744547Y-67833713D01*
X170892035Y-67735164D01*
X171017464Y-67609735D01*
X171116013Y-67462247D01*
X171183894Y-67298366D01*
X171192694Y-67254129D01*
X171217616Y-67128833D01*
X171218500Y-67124391D01*
X171218500Y-66947009D01*
X171218500Y-66947006D01*
X171218499Y-66947004D01*
X171206120Y-66884771D01*
X173732499Y-66884771D01*
X173757497Y-67010438D01*
X173757499Y-67010444D01*
X173806533Y-67128824D01*
X173806538Y-67128833D01*
X173877723Y-67235368D01*
X173877726Y-67235372D01*
X173968327Y-67325973D01*
X173968331Y-67325976D01*
X174074866Y-67397161D01*
X174074872Y-67397164D01*
X174074873Y-67397165D01*
X174193256Y-67446201D01*
X174226034Y-67452721D01*
X174270733Y-67471236D01*
X174358814Y-67530090D01*
X174358827Y-67530097D01*
X174504498Y-67590435D01*
X174504503Y-67590437D01*
X174657253Y-67620821D01*
X174659153Y-67621199D01*
X174659156Y-67621200D01*
X174659158Y-67621200D01*
X174816844Y-67621200D01*
X174816845Y-67621199D01*
X174971497Y-67590437D01*
X175117179Y-67530094D01*
X175248289Y-67442489D01*
X175359789Y-67330989D01*
X175447394Y-67199879D01*
X175507737Y-67054197D01*
X175538500Y-66899542D01*
X175538500Y-66741858D01*
X175538500Y-66741855D01*
X175538499Y-66741853D01*
X175537015Y-66734394D01*
X175507737Y-66587203D01*
X175495399Y-66557416D01*
X175447397Y-66441527D01*
X175447390Y-66441514D01*
X175359789Y-66310411D01*
X175359786Y-66310407D01*
X175248292Y-66198913D01*
X175248288Y-66198910D01*
X175117185Y-66111309D01*
X175117172Y-66111302D01*
X174971501Y-66050964D01*
X174971489Y-66050961D01*
X174816845Y-66020200D01*
X174816842Y-66020200D01*
X174659158Y-66020200D01*
X174659155Y-66020200D01*
X174504510Y-66050961D01*
X174504498Y-66050964D01*
X174358828Y-66111302D01*
X174358819Y-66111307D01*
X174270731Y-66170164D01*
X174226038Y-66188676D01*
X174193265Y-66195196D01*
X174193257Y-66195198D01*
X174074875Y-66244233D01*
X174074866Y-66244238D01*
X173968331Y-66315423D01*
X173968327Y-66315426D01*
X173877726Y-66406027D01*
X173877723Y-66406031D01*
X173806538Y-66512566D01*
X173806533Y-66512575D01*
X173757499Y-66630955D01*
X173757497Y-66630961D01*
X173732500Y-66756628D01*
X173732500Y-66756631D01*
X173732500Y-66884769D01*
X173732500Y-66884771D01*
X173732499Y-66884771D01*
X171206120Y-66884771D01*
X171184232Y-66774730D01*
X171183895Y-66773039D01*
X171183893Y-66773032D01*
X171181387Y-66766983D01*
X171146915Y-66683757D01*
X171116016Y-66609159D01*
X171116009Y-66609146D01*
X171017464Y-66461665D01*
X171017461Y-66461661D01*
X170892038Y-66336238D01*
X170892034Y-66336235D01*
X170744553Y-66237690D01*
X170744540Y-66237683D01*
X170580667Y-66169806D01*
X170580658Y-66169803D01*
X170406694Y-66135200D01*
X170406691Y-66135200D01*
X170229309Y-66135200D01*
X170229306Y-66135200D01*
X170055341Y-66169803D01*
X170055337Y-66169805D01*
X170055335Y-66169805D01*
X170055334Y-66169806D01*
X170054470Y-66170164D01*
X169907704Y-66230955D01*
X169838235Y-66238423D01*
X169775756Y-66207147D01*
X169740104Y-66147058D01*
X169742599Y-66077232D01*
X169757152Y-66047500D01*
X169769394Y-66029179D01*
X169829737Y-65883497D01*
X169860500Y-65728842D01*
X169860500Y-65571158D01*
X169860500Y-65571155D01*
X169860499Y-65571153D01*
X169849271Y-65514707D01*
X169829737Y-65416503D01*
X169815828Y-65382924D01*
X169769397Y-65270827D01*
X169769390Y-65270814D01*
X169681789Y-65139711D01*
X169681786Y-65139707D01*
X169570292Y-65028213D01*
X169570288Y-65028210D01*
X169439185Y-64940609D01*
X169439172Y-64940602D01*
X169293501Y-64880264D01*
X169293489Y-64880261D01*
X169138845Y-64849500D01*
X169138842Y-64849500D01*
X168981158Y-64849500D01*
X168981155Y-64849500D01*
X168826510Y-64880261D01*
X168826498Y-64880264D01*
X168680827Y-64940602D01*
X168680814Y-64940609D01*
X168549711Y-65028210D01*
X168549707Y-65028213D01*
X168438213Y-65139707D01*
X168438210Y-65139711D01*
X168350609Y-65270814D01*
X168350602Y-65270827D01*
X168290264Y-65416498D01*
X168290261Y-65416510D01*
X168259500Y-65571153D01*
X166563358Y-65571153D01*
X166503764Y-65481965D01*
X166503761Y-65481961D01*
X166378338Y-65356538D01*
X166378334Y-65356535D01*
X166230853Y-65257990D01*
X166230840Y-65257983D01*
X166066967Y-65190106D01*
X166066958Y-65190103D01*
X165892994Y-65155500D01*
X165892991Y-65155500D01*
X165715609Y-65155500D01*
X165715606Y-65155500D01*
X165541641Y-65190103D01*
X165541632Y-65190106D01*
X165377759Y-65257983D01*
X165377746Y-65257990D01*
X165230265Y-65356535D01*
X165230261Y-65356538D01*
X165147955Y-65438845D01*
X165140014Y-65443181D01*
X165134593Y-65450424D01*
X165109830Y-65459662D01*
X165086632Y-65472330D01*
X165077607Y-65471684D01*
X165069131Y-65474847D01*
X165043306Y-65469231D01*
X165016940Y-65467346D01*
X165007889Y-65461530D01*
X165000857Y-65460001D01*
X164972601Y-65438853D01*
X164955798Y-65422053D01*
X164916662Y-65382917D01*
X164916635Y-65382894D01*
X164860936Y-65345685D01*
X164860927Y-65345679D01*
X164810112Y-65311725D01*
X164810094Y-65311716D01*
X164752442Y-65287841D01*
X164752442Y-65287839D01*
X164752432Y-65287837D01*
X164691737Y-65262696D01*
X164691714Y-65262689D01*
X164691700Y-65262686D01*
X164691697Y-65262685D01*
X164634386Y-65251289D01*
X164634385Y-65251288D01*
X164634385Y-65251287D01*
X164634376Y-65251287D01*
X164566084Y-65237702D01*
X164566073Y-65237700D01*
X164566069Y-65237700D01*
X164566064Y-65237700D01*
X164566025Y-65237696D01*
X164566021Y-65237696D01*
X164520461Y-65237699D01*
X164509070Y-65237700D01*
X156474500Y-65237700D01*
X156407461Y-65218015D01*
X156361706Y-65165211D01*
X156350500Y-65113700D01*
X156350499Y-64109100D01*
X156370183Y-64042061D01*
X156422987Y-63996306D01*
X156474499Y-63985100D01*
X158231659Y-63985100D01*
X158298698Y-64004785D01*
X158319340Y-64021419D01*
X158334707Y-64036786D01*
X158334711Y-64036789D01*
X158465814Y-64124390D01*
X158465827Y-64124397D01*
X158591052Y-64176266D01*
X158611503Y-64184737D01*
X158766153Y-64215499D01*
X158766156Y-64215500D01*
X158766158Y-64215500D01*
X158923844Y-64215500D01*
X158923845Y-64215499D01*
X159078497Y-64184737D01*
X159224179Y-64124394D01*
X159355289Y-64036789D01*
X159466789Y-63925289D01*
X159554394Y-63794179D01*
X159613637Y-63651153D01*
X165419500Y-63651153D01*
X165419500Y-63808846D01*
X165450261Y-63963489D01*
X165450264Y-63963501D01*
X165510602Y-64109172D01*
X165510609Y-64109185D01*
X165598210Y-64240288D01*
X165598213Y-64240292D01*
X165709707Y-64351786D01*
X165709711Y-64351789D01*
X165840814Y-64439390D01*
X165840827Y-64439397D01*
X165986498Y-64499735D01*
X165986503Y-64499737D01*
X166120672Y-64526425D01*
X166141153Y-64530499D01*
X166141156Y-64530500D01*
X166141158Y-64530500D01*
X166298844Y-64530500D01*
X166298845Y-64530499D01*
X166453497Y-64499737D01*
X166599179Y-64439394D01*
X166730289Y-64351789D01*
X166841789Y-64240289D01*
X166929394Y-64109179D01*
X166989737Y-63963497D01*
X167020500Y-63808842D01*
X167020500Y-63748543D01*
X171784499Y-63748543D01*
X171822947Y-63941829D01*
X171822950Y-63941839D01*
X171898364Y-64123907D01*
X171898371Y-64123920D01*
X172007860Y-64287781D01*
X172007863Y-64287785D01*
X172147214Y-64427136D01*
X172147218Y-64427139D01*
X172311079Y-64536628D01*
X172311092Y-64536635D01*
X172407201Y-64576444D01*
X172493165Y-64612051D01*
X172493169Y-64612051D01*
X172493170Y-64612052D01*
X172686456Y-64650500D01*
X172686459Y-64650500D01*
X172783812Y-64650500D01*
X172850851Y-64670185D01*
X172896606Y-64722989D01*
X172906550Y-64792147D01*
X172898374Y-64821947D01*
X172891226Y-64839206D01*
X172891223Y-64839214D01*
X172891222Y-64839216D01*
X172859500Y-64998692D01*
X172859500Y-64998695D01*
X172859500Y-65161305D01*
X172859500Y-65161307D01*
X172859499Y-65161307D01*
X172891222Y-65320783D01*
X172891225Y-65320793D01*
X172953450Y-65471019D01*
X172953452Y-65471023D01*
X173043788Y-65606220D01*
X173043794Y-65606228D01*
X173158771Y-65721205D01*
X173158779Y-65721211D01*
X173293976Y-65811547D01*
X173293980Y-65811549D01*
X173444206Y-65873774D01*
X173444211Y-65873776D01*
X173444215Y-65873776D01*
X173444216Y-65873777D01*
X173603692Y-65905500D01*
X173603695Y-65905500D01*
X173766307Y-65905500D01*
X173876959Y-65883489D01*
X173925789Y-65873776D01*
X174076021Y-65811548D01*
X174076023Y-65811547D01*
X174143169Y-65766680D01*
X174211225Y-65721208D01*
X174326208Y-65606225D01*
X174373544Y-65535382D01*
X174416547Y-65471023D01*
X174416549Y-65471019D01*
X174453052Y-65382893D01*
X174478776Y-65320789D01*
X174497533Y-65226494D01*
X174510500Y-65161307D01*
X174510500Y-64998692D01*
X174478777Y-64839216D01*
X174478776Y-64839215D01*
X174478776Y-64839211D01*
X174471628Y-64821954D01*
X174416549Y-64688980D01*
X174416547Y-64688976D01*
X174326211Y-64553779D01*
X174326205Y-64553771D01*
X174298859Y-64526425D01*
X174265374Y-64465102D01*
X174270358Y-64395410D01*
X174298859Y-64351063D01*
X174362136Y-64287785D01*
X174362139Y-64287782D01*
X174471632Y-64123914D01*
X174547051Y-63941835D01*
X174559632Y-63878582D01*
X174585500Y-63748543D01*
X174585500Y-63551456D01*
X174547052Y-63358170D01*
X174547051Y-63358169D01*
X174547051Y-63358165D01*
X174544006Y-63350814D01*
X174471635Y-63176092D01*
X174471628Y-63176079D01*
X174362139Y-63012218D01*
X174362136Y-63012214D01*
X174222785Y-62872863D01*
X174222781Y-62872860D01*
X174058920Y-62763371D01*
X174058907Y-62763364D01*
X173876839Y-62687950D01*
X173876829Y-62687947D01*
X173683543Y-62649500D01*
X173683541Y-62649500D01*
X172686459Y-62649500D01*
X172686457Y-62649500D01*
X172493170Y-62687947D01*
X172493160Y-62687950D01*
X172311092Y-62763364D01*
X172311079Y-62763371D01*
X172147218Y-62872860D01*
X172147214Y-62872863D01*
X172007863Y-63012214D01*
X172007860Y-63012218D01*
X171898371Y-63176079D01*
X171898364Y-63176092D01*
X171822950Y-63358160D01*
X171822947Y-63358170D01*
X171784500Y-63551456D01*
X171784500Y-63551459D01*
X171784500Y-63748541D01*
X171784500Y-63748543D01*
X171784499Y-63748543D01*
X167020500Y-63748543D01*
X167020500Y-63651158D01*
X167020500Y-63651155D01*
X167004269Y-63569559D01*
X167004269Y-63569558D01*
X166989738Y-63496510D01*
X166989737Y-63496503D01*
X166989735Y-63496498D01*
X166929397Y-63350827D01*
X166929390Y-63350814D01*
X166841789Y-63219711D01*
X166841786Y-63219707D01*
X166730292Y-63108213D01*
X166730288Y-63108210D01*
X166599185Y-63020609D01*
X166599172Y-63020602D01*
X166453501Y-62960264D01*
X166453489Y-62960261D01*
X166298845Y-62929500D01*
X166298842Y-62929500D01*
X166141158Y-62929500D01*
X166141155Y-62929500D01*
X165986510Y-62960261D01*
X165986498Y-62960264D01*
X165840827Y-63020602D01*
X165840814Y-63020609D01*
X165709711Y-63108210D01*
X165709707Y-63108213D01*
X165598213Y-63219707D01*
X165598210Y-63219711D01*
X165510609Y-63350814D01*
X165510602Y-63350827D01*
X165450264Y-63496498D01*
X165450261Y-63496510D01*
X165419500Y-63651153D01*
X159613637Y-63651153D01*
X159614737Y-63648497D01*
X159645500Y-63493842D01*
X159645500Y-63336158D01*
X159645500Y-63336155D01*
X159645499Y-63336153D01*
X159622336Y-63219707D01*
X159614737Y-63181503D01*
X159612490Y-63176079D01*
X159554397Y-63035827D01*
X159554390Y-63035814D01*
X159466789Y-62904711D01*
X159466786Y-62904707D01*
X159355292Y-62793213D01*
X159355288Y-62793210D01*
X159224185Y-62705609D01*
X159224172Y-62705602D01*
X159078501Y-62645264D01*
X159078489Y-62645261D01*
X158923845Y-62614500D01*
X158923842Y-62614500D01*
X158766158Y-62614500D01*
X158766155Y-62614500D01*
X158611511Y-62645260D01*
X158611501Y-62645263D01*
X158540529Y-62674661D01*
X158493077Y-62684100D01*
X147509483Y-62684100D01*
X147442444Y-62664415D01*
X147396689Y-62611611D01*
X147386745Y-62542453D01*
X147402899Y-62500291D01*
X147401522Y-62499555D01*
X147404391Y-62494185D01*
X147404395Y-62494180D01*
X147464738Y-62348498D01*
X147495501Y-62193843D01*
X147495501Y-62036159D01*
X147495501Y-62036156D01*
X147495500Y-62036154D01*
X147480472Y-61960606D01*
X147464738Y-61881504D01*
X147432922Y-61804693D01*
X147404398Y-61735828D01*
X147404391Y-61735815D01*
X147316790Y-61604712D01*
X147316787Y-61604708D01*
X147205293Y-61493214D01*
X147205289Y-61493211D01*
X147074186Y-61405610D01*
X147074173Y-61405603D01*
X146928502Y-61345265D01*
X146928490Y-61345262D01*
X146773846Y-61314501D01*
X146773843Y-61314501D01*
X146616159Y-61314501D01*
X146616156Y-61314501D01*
X146461511Y-61345262D01*
X146461499Y-61345265D01*
X146315828Y-61405603D01*
X146315815Y-61405610D01*
X146184712Y-61493211D01*
X146184708Y-61493214D01*
X146073214Y-61604708D01*
X146073211Y-61604712D01*
X145985610Y-61735815D01*
X145985603Y-61735828D01*
X145925265Y-61881499D01*
X145925262Y-61881511D01*
X145894501Y-62036154D01*
X145894501Y-62193847D01*
X145925262Y-62348490D01*
X145925265Y-62348502D01*
X145985603Y-62494173D01*
X145988480Y-62499555D01*
X145986557Y-62500582D01*
X146004499Y-62557894D01*
X145986011Y-62625273D01*
X145934029Y-62671960D01*
X145880519Y-62684100D01*
X136824509Y-62684100D01*
X136757470Y-62664415D01*
X136711715Y-62611611D01*
X136701771Y-62542453D01*
X136721407Y-62491209D01*
X136732595Y-62474463D01*
X136794013Y-62382547D01*
X136861894Y-62218666D01*
X136866832Y-62193845D01*
X136896499Y-62044695D01*
X136896500Y-62044693D01*
X136896500Y-61867306D01*
X136896499Y-61867304D01*
X136861896Y-61693341D01*
X136861893Y-61693332D01*
X136858784Y-61685827D01*
X136825186Y-61604712D01*
X136794016Y-61529459D01*
X136794009Y-61529446D01*
X136695464Y-61381965D01*
X136695461Y-61381961D01*
X136570038Y-61256538D01*
X136570034Y-61256535D01*
X136422553Y-61157990D01*
X136422540Y-61157983D01*
X136258667Y-61090106D01*
X136258658Y-61090103D01*
X136084694Y-61055500D01*
X136084691Y-61055500D01*
X135907309Y-61055500D01*
X135907306Y-61055500D01*
X135733341Y-61090103D01*
X135733332Y-61090106D01*
X135569459Y-61157983D01*
X135569446Y-61157990D01*
X135421965Y-61256535D01*
X135421961Y-61256538D01*
X135296538Y-61381961D01*
X135296535Y-61381965D01*
X135197990Y-61529446D01*
X135197983Y-61529459D01*
X135130106Y-61693332D01*
X135130103Y-61693341D01*
X135095500Y-61867304D01*
X135095500Y-62044695D01*
X135130103Y-62218658D01*
X135130106Y-62218667D01*
X135197983Y-62382540D01*
X135197990Y-62382553D01*
X135296535Y-62530034D01*
X135296538Y-62530038D01*
X135306197Y-62539697D01*
X135321786Y-62568246D01*
X135338520Y-62596153D01*
X135338439Y-62598744D01*
X135339682Y-62601020D01*
X135337361Y-62633465D01*
X135336352Y-62665989D01*
X135334882Y-62668125D01*
X135334698Y-62670712D01*
X135315203Y-62696752D01*
X135296771Y-62723566D01*
X135293807Y-62725333D01*
X135292826Y-62726645D01*
X135266502Y-62741717D01*
X135266015Y-62741921D01*
X135226873Y-62758135D01*
X135226855Y-62758146D01*
X135226838Y-62758154D01*
X135225998Y-62758714D01*
X135225996Y-62758716D01*
X135179939Y-62789495D01*
X135179933Y-62789499D01*
X135120324Y-62829328D01*
X135120303Y-62829344D01*
X135071458Y-62878193D01*
X135071459Y-62878194D01*
X135061593Y-62888061D01*
X135029724Y-62919931D01*
X135029719Y-62919937D01*
X135026368Y-62923289D01*
X135026354Y-62923305D01*
X133825900Y-64123907D01*
X132047606Y-65902421D01*
X132046851Y-65903176D01*
X131985530Y-65936665D01*
X131959164Y-65939500D01*
X126380449Y-65939500D01*
X126313410Y-65919815D01*
X126277347Y-65884391D01*
X126201789Y-65771311D01*
X126201786Y-65771307D01*
X126090292Y-65659813D01*
X126090288Y-65659810D01*
X125959185Y-65572209D01*
X125959172Y-65572202D01*
X125813501Y-65511864D01*
X125813489Y-65511861D01*
X125658845Y-65481100D01*
X125658842Y-65481100D01*
X125501158Y-65481100D01*
X125501155Y-65481100D01*
X125346510Y-65511861D01*
X125346498Y-65511864D01*
X125200828Y-65572202D01*
X125200817Y-65572208D01*
X125147502Y-65607832D01*
X125134106Y-65612026D01*
X125122943Y-65620534D01*
X125101424Y-65622258D01*
X125080824Y-65628709D01*
X125065891Y-65625107D01*
X125053297Y-65626117D01*
X125024950Y-65615813D01*
X125024889Y-65615962D01*
X125024865Y-65615952D01*
X125024207Y-65615639D01*
X125022313Y-65614855D01*
X125020195Y-65614085D01*
X125020123Y-65614068D01*
X125019128Y-65613535D01*
X124959641Y-65588894D01*
X124959591Y-65588873D01*
X124959589Y-65588873D01*
X124959100Y-65588670D01*
X124958797Y-65588544D01*
X124901036Y-65564588D01*
X124900887Y-65564558D01*
X124900744Y-65564499D01*
X124900711Y-65564492D01*
X124900710Y-65564492D01*
X124836757Y-65551770D01*
X124836756Y-65551770D01*
X124836701Y-65551759D01*
X124775373Y-65539531D01*
X124775224Y-65539530D01*
X124775069Y-65539500D01*
X124774929Y-65539500D01*
X124709168Y-65539500D01*
X124647235Y-65539471D01*
X124647089Y-65539500D01*
X123445931Y-65539500D01*
X123445929Y-65539500D01*
X123320719Y-65564406D01*
X123320703Y-65564410D01*
X123320490Y-65564452D01*
X123320254Y-65564499D01*
X123201874Y-65613534D01*
X123095331Y-65684723D01*
X122799555Y-65980498D01*
X122759327Y-66007377D01*
X122630823Y-66060604D01*
X122630814Y-66060609D01*
X122499711Y-66148210D01*
X122499707Y-66148213D01*
X122388213Y-66259707D01*
X122388210Y-66259711D01*
X122300609Y-66390814D01*
X122300602Y-66390827D01*
X122240264Y-66536498D01*
X122240261Y-66536510D01*
X122209500Y-66691153D01*
X122209500Y-66775500D01*
X122189815Y-66842539D01*
X122137011Y-66888294D01*
X122085500Y-66899500D01*
X121890942Y-66899500D01*
X121773601Y-66930941D01*
X121703751Y-66929278D01*
X121672617Y-66914268D01*
X121617384Y-66877362D01*
X121617381Y-66877360D01*
X121617379Y-66877359D01*
X121617376Y-66877357D01*
X121617371Y-66877355D01*
X121471701Y-66817017D01*
X121471689Y-66817014D01*
X121317045Y-66786253D01*
X121317042Y-66786253D01*
X121159358Y-66786253D01*
X121159355Y-66786253D01*
X121004710Y-66817014D01*
X121004698Y-66817017D01*
X120859027Y-66877355D01*
X120859014Y-66877362D01*
X120727911Y-66964963D01*
X120727907Y-66964966D01*
X120616413Y-67076460D01*
X120616410Y-67076464D01*
X120528809Y-67207567D01*
X120528802Y-67207580D01*
X120468464Y-67353251D01*
X120468461Y-67353263D01*
X120437700Y-67507906D01*
X120437700Y-67665599D01*
X120468461Y-67820242D01*
X120468464Y-67820254D01*
X120528802Y-67965925D01*
X120528808Y-67965936D01*
X120572669Y-68031579D01*
X120593546Y-68098256D01*
X120575061Y-68165636D01*
X120523082Y-68212326D01*
X120493758Y-68222086D01*
X120433340Y-68234104D01*
X120433332Y-68234106D01*
X120269459Y-68301983D01*
X120269446Y-68301990D01*
X120121968Y-68400533D01*
X120108887Y-68413614D01*
X120047563Y-68447097D01*
X119977871Y-68442111D01*
X119933510Y-68413594D01*
X119920457Y-68400536D01*
X119050353Y-67530090D01*
X118810802Y-67290445D01*
X118777329Y-67229115D01*
X118774500Y-67202781D01*
X118774500Y-66932504D01*
X118794185Y-66865465D01*
X118846989Y-66819710D01*
X118916147Y-66809766D01*
X118922691Y-66810887D01*
X118996153Y-66825499D01*
X118996156Y-66825500D01*
X118996158Y-66825500D01*
X119153844Y-66825500D01*
X119153845Y-66825499D01*
X119308497Y-66794737D01*
X119436159Y-66741858D01*
X119454172Y-66734397D01*
X119454172Y-66734396D01*
X119454179Y-66734394D01*
X119585289Y-66646789D01*
X119696789Y-66535289D01*
X119784394Y-66404179D01*
X119844737Y-66258497D01*
X119875500Y-66103842D01*
X119875500Y-65946158D01*
X119875500Y-65946155D01*
X119875499Y-65946153D01*
X119870260Y-65919815D01*
X119844737Y-65791503D01*
X119818782Y-65728842D01*
X119784397Y-65645827D01*
X119784390Y-65645814D01*
X119696789Y-65514711D01*
X119696786Y-65514707D01*
X119585292Y-65403213D01*
X119585288Y-65403210D01*
X119530707Y-65366740D01*
X119485902Y-65313128D01*
X119477195Y-65243803D01*
X119507350Y-65180775D01*
X119530702Y-65160540D01*
X119592289Y-65119389D01*
X119703789Y-65007889D01*
X119791394Y-64876779D01*
X119851737Y-64731097D01*
X119856699Y-64706153D01*
X121214500Y-64706153D01*
X121214500Y-64863846D01*
X121245261Y-65018489D01*
X121245264Y-65018501D01*
X121305602Y-65164172D01*
X121305609Y-65164185D01*
X121393210Y-65295288D01*
X121393213Y-65295292D01*
X121504707Y-65406786D01*
X121504711Y-65406789D01*
X121635814Y-65494390D01*
X121635827Y-65494397D01*
X121744792Y-65539531D01*
X121781503Y-65554737D01*
X121936153Y-65585499D01*
X121936156Y-65585500D01*
X121936158Y-65585500D01*
X122093844Y-65585500D01*
X122093845Y-65585499D01*
X122248497Y-65554737D01*
X122394179Y-65494394D01*
X122525289Y-65406789D01*
X122636789Y-65295289D01*
X122724394Y-65164179D01*
X122725585Y-65161305D01*
X122778938Y-65032497D01*
X122784737Y-65018497D01*
X122815500Y-64863842D01*
X122815500Y-64706158D01*
X122815500Y-64706155D01*
X122815499Y-64706153D01*
X122796780Y-64612049D01*
X122784737Y-64551503D01*
X122776037Y-64530499D01*
X122724397Y-64405827D01*
X122724390Y-64405814D01*
X122636789Y-64274711D01*
X122636786Y-64274707D01*
X122525292Y-64163213D01*
X122525288Y-64163210D01*
X122394185Y-64075609D01*
X122394172Y-64075602D01*
X122248501Y-64015264D01*
X122248489Y-64015261D01*
X122093845Y-63984500D01*
X122093842Y-63984500D01*
X121936158Y-63984500D01*
X121936155Y-63984500D01*
X121781510Y-64015261D01*
X121781498Y-64015264D01*
X121635827Y-64075602D01*
X121635814Y-64075609D01*
X121504711Y-64163210D01*
X121504707Y-64163213D01*
X121393213Y-64274707D01*
X121393210Y-64274711D01*
X121305609Y-64405814D01*
X121305602Y-64405827D01*
X121245264Y-64551498D01*
X121245261Y-64551510D01*
X121214500Y-64706153D01*
X119856699Y-64706153D01*
X119860115Y-64688979D01*
X119862722Y-64675874D01*
X119862722Y-64675873D01*
X119882499Y-64576446D01*
X119882500Y-64576444D01*
X119882500Y-64418755D01*
X119859083Y-64301035D01*
X119865310Y-64231443D01*
X119908172Y-64176266D01*
X119911777Y-64173763D01*
X119930035Y-64161564D01*
X120055464Y-64036135D01*
X120154013Y-63888647D01*
X120221894Y-63724766D01*
X120256500Y-63550791D01*
X120256500Y-63373409D01*
X120256500Y-63373406D01*
X120256499Y-63373404D01*
X120221896Y-63199441D01*
X120221893Y-63199432D01*
X120213963Y-63180288D01*
X120190709Y-63124145D01*
X120154016Y-63035559D01*
X120154009Y-63035546D01*
X120055464Y-62888065D01*
X120055461Y-62888061D01*
X119930038Y-62762638D01*
X119930034Y-62762635D01*
X119782553Y-62664090D01*
X119782540Y-62664083D01*
X119618667Y-62596206D01*
X119618658Y-62596203D01*
X119444694Y-62561600D01*
X119444691Y-62561600D01*
X119267309Y-62561600D01*
X119267306Y-62561600D01*
X119093341Y-62596203D01*
X119093332Y-62596206D01*
X118929459Y-62664083D01*
X118929446Y-62664090D01*
X118781965Y-62762635D01*
X118781961Y-62762638D01*
X118656538Y-62888061D01*
X118656535Y-62888065D01*
X118557985Y-63035555D01*
X118557984Y-63035556D01*
X118543824Y-63069742D01*
X118499982Y-63124145D01*
X118433687Y-63146208D01*
X118417410Y-63145700D01*
X118417207Y-63145700D01*
X118417206Y-63145700D01*
X117943206Y-63145700D01*
X117819993Y-63145700D01*
X117819988Y-63145700D01*
X117699155Y-63169735D01*
X117699147Y-63169737D01*
X117585316Y-63216887D01*
X117505035Y-63270530D01*
X117482866Y-63285342D01*
X117482860Y-63285347D01*
X115083486Y-65684723D01*
X114313469Y-66454740D01*
X114313467Y-66454742D01*
X114285669Y-66482540D01*
X114226342Y-66541866D01*
X114215952Y-66557416D01*
X114194743Y-66589158D01*
X114157890Y-66644310D01*
X114157885Y-66644319D01*
X114136368Y-66696268D01*
X114110738Y-66758144D01*
X114110735Y-66758154D01*
X114106433Y-66779781D01*
X114106434Y-66779782D01*
X114087890Y-66873013D01*
X114087889Y-66873014D01*
X114086700Y-66878991D01*
X114086700Y-72216408D01*
X114089536Y-72230667D01*
X114089538Y-72230677D01*
X114090207Y-72234037D01*
X114110737Y-72337252D01*
X114123822Y-72368842D01*
X114127166Y-72376915D01*
X114127168Y-72376923D01*
X114157885Y-72451081D01*
X114157887Y-72451085D01*
X114178257Y-72481569D01*
X114178258Y-72481571D01*
X114226341Y-72553532D01*
X114226344Y-72553536D01*
X114317786Y-72644978D01*
X114317808Y-72644998D01*
X115012616Y-73339806D01*
X115012645Y-73339837D01*
X115102863Y-73430055D01*
X115102867Y-73430058D01*
X115205307Y-73498507D01*
X115205313Y-73498510D01*
X115205314Y-73498511D01*
X115319148Y-73545663D01*
X115357825Y-73553356D01*
X115439991Y-73569699D01*
X115439992Y-73569700D01*
X115439993Y-73569700D01*
X115439994Y-73569700D01*
X122617248Y-73569700D01*
X122684287Y-73589385D01*
X122704929Y-73606019D01*
X123807639Y-74708729D01*
X123807642Y-74708733D01*
X123894767Y-74795858D01*
X123944528Y-74829107D01*
X123951221Y-74833579D01*
X123951229Y-74833586D01*
X123997212Y-74864310D01*
X123997215Y-74864312D01*
X124036476Y-74880574D01*
X124036477Y-74880575D01*
X124070888Y-74894828D01*
X124111048Y-74911463D01*
X124171471Y-74923481D01*
X124231893Y-74935500D01*
X124231894Y-74935500D01*
X129040164Y-74935500D01*
X129107203Y-74955185D01*
X129127844Y-74971818D01*
X129322255Y-75166229D01*
X129322258Y-75166233D01*
X129361936Y-75205911D01*
X129406844Y-75250820D01*
X129440329Y-75312143D01*
X129438443Y-75338500D01*
X129435344Y-75381834D01*
X129404530Y-75422996D01*
X129393471Y-75437768D01*
X129352424Y-75453077D01*
X129328008Y-75462184D01*
X129319162Y-75462500D01*
X120204602Y-75462500D01*
X120137563Y-75442815D01*
X120091808Y-75390011D01*
X120081864Y-75320853D01*
X120090041Y-75291047D01*
X120090885Y-75289010D01*
X120109737Y-75243497D01*
X120140500Y-75088842D01*
X120140500Y-74931158D01*
X120140500Y-74931155D01*
X120140499Y-74931153D01*
X120140160Y-74929449D01*
X120109737Y-74776503D01*
X120109735Y-74776498D01*
X120049397Y-74630827D01*
X120049390Y-74630814D01*
X119961789Y-74499711D01*
X119961786Y-74499707D01*
X119850292Y-74388213D01*
X119850288Y-74388210D01*
X119719185Y-74300609D01*
X119719172Y-74300602D01*
X119573501Y-74240264D01*
X119573489Y-74240261D01*
X119418845Y-74209500D01*
X119418842Y-74209500D01*
X119261158Y-74209500D01*
X119261155Y-74209500D01*
X119106510Y-74240261D01*
X119106498Y-74240264D01*
X118960827Y-74300602D01*
X118960814Y-74300609D01*
X118829711Y-74388210D01*
X118829707Y-74388213D01*
X118718213Y-74499707D01*
X118718210Y-74499711D01*
X118630609Y-74630814D01*
X118630602Y-74630827D01*
X118570264Y-74776498D01*
X118570261Y-74776510D01*
X118539500Y-74931153D01*
X118539500Y-75088846D01*
X118570261Y-75243489D01*
X118570263Y-75243497D01*
X118589959Y-75291047D01*
X118597428Y-75360517D01*
X118566153Y-75422996D01*
X118506064Y-75458648D01*
X118475398Y-75462500D01*
X111624000Y-75462500D01*
X111556961Y-75442815D01*
X111511206Y-75390011D01*
X111500000Y-75338500D01*
X111500000Y-61986153D01*
X121234500Y-61986153D01*
X121234500Y-62143846D01*
X121265261Y-62298489D01*
X121265264Y-62298501D01*
X121325602Y-62444172D01*
X121325609Y-62444185D01*
X121413210Y-62575288D01*
X121413213Y-62575292D01*
X121524707Y-62686786D01*
X121524711Y-62686789D01*
X121655814Y-62774390D01*
X121655827Y-62774397D01*
X121788483Y-62829344D01*
X121801503Y-62834737D01*
X121956153Y-62865499D01*
X121956156Y-62865500D01*
X121956158Y-62865500D01*
X122113844Y-62865500D01*
X122113845Y-62865499D01*
X122268497Y-62834737D01*
X122414179Y-62774394D01*
X122414184Y-62774390D01*
X122414187Y-62774389D01*
X122454420Y-62747506D01*
X122521097Y-62726627D01*
X122588478Y-62745111D01*
X122635168Y-62797089D01*
X122644929Y-62826414D01*
X122660261Y-62903492D01*
X122660264Y-62903501D01*
X122720602Y-63049172D01*
X122720609Y-63049185D01*
X122808210Y-63180288D01*
X122808213Y-63180292D01*
X122919707Y-63291786D01*
X122919711Y-63291789D01*
X123050814Y-63379390D01*
X123050827Y-63379397D01*
X123196498Y-63439735D01*
X123196503Y-63439737D01*
X123351153Y-63470499D01*
X123351156Y-63470500D01*
X123351158Y-63470500D01*
X123508844Y-63470500D01*
X123508845Y-63470499D01*
X123663497Y-63439737D01*
X123809179Y-63379394D01*
X123940289Y-63291789D01*
X124051789Y-63180289D01*
X124139394Y-63049179D01*
X124199737Y-62903497D01*
X124230500Y-62748842D01*
X124230500Y-62591158D01*
X124230500Y-62591155D01*
X124230499Y-62591153D01*
X124225942Y-62568246D01*
X124199737Y-62436503D01*
X124184610Y-62399983D01*
X124139397Y-62290827D01*
X124139390Y-62290814D01*
X124051789Y-62159711D01*
X124051786Y-62159707D01*
X123940292Y-62048213D01*
X123940288Y-62048210D01*
X123809185Y-61960609D01*
X123809172Y-61960602D01*
X123663501Y-61900264D01*
X123663489Y-61900261D01*
X123508845Y-61869500D01*
X123508842Y-61869500D01*
X123351158Y-61869500D01*
X123351155Y-61869500D01*
X123196510Y-61900261D01*
X123196498Y-61900264D01*
X123050827Y-61960602D01*
X123050811Y-61960611D01*
X123010576Y-61987495D01*
X122943899Y-62008372D01*
X122876519Y-61989887D01*
X122829829Y-61937907D01*
X122820070Y-61908584D01*
X122804738Y-61831508D01*
X122804737Y-61831507D01*
X122804737Y-61831503D01*
X122793632Y-61804693D01*
X122744397Y-61685827D01*
X122744390Y-61685814D01*
X122656789Y-61554711D01*
X122656786Y-61554707D01*
X122545292Y-61443213D01*
X122545288Y-61443210D01*
X122414185Y-61355609D01*
X122414172Y-61355602D01*
X122268501Y-61295264D01*
X122268489Y-61295261D01*
X122113845Y-61264500D01*
X122113842Y-61264500D01*
X121956158Y-61264500D01*
X121956155Y-61264500D01*
X121801510Y-61295261D01*
X121801498Y-61295264D01*
X121655827Y-61355602D01*
X121655814Y-61355609D01*
X121524711Y-61443210D01*
X121524707Y-61443213D01*
X121413213Y-61554707D01*
X121413210Y-61554711D01*
X121325609Y-61685814D01*
X121325602Y-61685827D01*
X121265264Y-61831498D01*
X121265261Y-61831510D01*
X121234500Y-61986153D01*
X111500000Y-61986153D01*
X111500000Y-60774500D01*
X111519685Y-60707461D01*
X111572489Y-60661706D01*
X111624000Y-60650500D01*
X176815649Y-60650500D01*
X176845933Y-60650500D01*
X176854042Y-60650765D01*
G37*
%TD.AperFunction*%
%TD*%
M02*
