%TF.GenerationSoftware,KiCad,Pcbnew,10.0.1*%
%TF.CreationDate,2026-08-26T11:50:51+01:00*%
%TF.ProjectId,Clinical_Thermometer,436c696e-6963-4616-9c5f-546865726d6f,rev?*%
%TF.SameCoordinates,Original*%
%TF.FileFunction,Paste,Top*%
%TF.FilePolarity,Positive*%
%FSLAX46Y46*%
G04 Gerber Fmt 4.6, Leading zero omitted, Abs format (unit mm)*
G04 Created by KiCad (PCBNEW 10.0.1) date 2026-08-26 11:50:51*
%MOMM*%
%LPD*%
G01*
G04 APERTURE LIST*
G04 Aperture macros list*
%AMRoundRect*
0 Rectangle with rounded corners*
0 $1 Rounding radius*
0 $2 $3 $4 $5 $6 $7 $8 $9 X,Y pos of 4 corners*
0 Add a 4 corners polygon primitive as box body*
4,1,4,$2,$3,$4,$5,$6,$7,$8,$9,$2,$3,0*
0 Add four circle primitives for the rounded corners*
1,1,$1+$1,$2,$3*
1,1,$1+$1,$4,$5*
1,1,$1+$1,$6,$7*
1,1,$1+$1,$8,$9*
0 Add four rect primitives between the rounded corners*
20,1,$1+$1,$2,$3,$4,$5,0*
20,1,$1+$1,$4,$5,$6,$7,0*
20,1,$1+$1,$6,$7,$8,$9,0*
20,1,$1+$1,$8,$9,$2,$3,0*%
G04 Aperture macros list end*
%ADD10RoundRect,0.150000X0.150000X-0.512500X0.150000X0.512500X-0.150000X0.512500X-0.150000X-0.512500X0*%
%ADD11RoundRect,0.140000X0.140000X0.170000X-0.140000X0.170000X-0.140000X-0.170000X0.140000X-0.170000X0*%
%ADD12RoundRect,0.140000X-0.170000X0.140000X-0.170000X-0.140000X0.170000X-0.140000X0.170000X0.140000X0*%
%ADD13RoundRect,0.090000X-0.360000X0.660000X-0.360000X-0.660000X0.360000X-0.660000X0.360000X0.660000X0*%
%ADD14RoundRect,0.135000X-0.185000X0.135000X-0.185000X-0.135000X0.185000X-0.135000X0.185000X0.135000X0*%
%ADD15RoundRect,0.140000X0.170000X-0.140000X0.170000X0.140000X-0.170000X0.140000X-0.170000X-0.140000X0*%
%ADD16RoundRect,0.147500X0.147500X0.172500X-0.147500X0.172500X-0.147500X-0.172500X0.147500X-0.172500X0*%
%ADD17RoundRect,0.135000X-0.135000X-0.185000X0.135000X-0.185000X0.135000X0.185000X-0.135000X0.185000X0*%
%ADD18R,2.100000X2.400000*%
%ADD19RoundRect,0.135000X0.185000X-0.135000X0.185000X0.135000X-0.185000X0.135000X-0.185000X-0.135000X0*%
%ADD20R,1.550000X0.600000*%
%ADD21R,1.800000X1.200000*%
%ADD22RoundRect,0.135000X0.135000X0.185000X-0.135000X0.185000X-0.135000X-0.185000X0.135000X-0.185000X0*%
%ADD23RoundRect,0.147500X0.172500X-0.147500X0.172500X0.147500X-0.172500X0.147500X-0.172500X-0.147500X0*%
%ADD24RoundRect,0.147500X-0.147500X-0.172500X0.147500X-0.172500X0.147500X0.172500X-0.147500X0.172500X0*%
%ADD25R,1.150000X0.600000*%
%ADD26R,1.150000X0.300000*%
G04 APERTURE END LIST*
D10*
%TO.C,U6*%
X126610000Y-66627500D03*
X127560000Y-66627500D03*
X128510000Y-66627500D03*
X128510000Y-64352500D03*
X127560000Y-64352500D03*
X126610000Y-64352500D03*
%TD*%
D11*
%TO.C,C18*%
X127720000Y-62790000D03*
X126760000Y-62790000D03*
%TD*%
%TO.C,C17*%
X127680000Y-61720000D03*
X126720000Y-61720000D03*
%TD*%
D12*
%TO.C,C16*%
X130010000Y-65240000D03*
X130010000Y-66200000D03*
%TD*%
D13*
%TO.C,D1*%
X167410000Y-69120000D03*
X164110000Y-69120000D03*
X164110000Y-74020000D03*
X167410000Y-74020000D03*
%TD*%
D14*
%TO.C,R7*%
X157610000Y-71320000D03*
X157610000Y-72340000D03*
%TD*%
D15*
%TO.C,C5*%
X169440000Y-64890000D03*
X169440000Y-63930000D03*
%TD*%
D11*
%TO.C,C12*%
X124170000Y-68350000D03*
X123210000Y-68350000D03*
%TD*%
%TO.C,C7*%
X163300000Y-63080000D03*
X162340000Y-63080000D03*
%TD*%
D16*
%TO.C,D7*%
X175985000Y-73500000D03*
X175015000Y-73500000D03*
%TD*%
D17*
%TO.C,R4*%
X174990000Y-74500000D03*
X176010000Y-74500000D03*
%TD*%
D18*
%TO.C,SW2*%
X160560000Y-69570000D03*
X160560000Y-62970000D03*
%TD*%
D15*
%TO.C,C6*%
X170940000Y-65010000D03*
X170940000Y-64050000D03*
%TD*%
D19*
%TO.C,R8*%
X157650000Y-74680000D03*
X157650000Y-73660000D03*
%TD*%
D20*
%TO.C,J1*%
X164885000Y-63850000D03*
X164885000Y-64850000D03*
D21*
X167410000Y-62550000D03*
X167410000Y-66150000D03*
%TD*%
D22*
%TO.C,R10*%
X163420000Y-61980000D03*
X162400000Y-61980000D03*
%TD*%
D15*
%TO.C,C11*%
X157800000Y-65610000D03*
X157800000Y-64650000D03*
%TD*%
D12*
%TO.C,C13*%
X160880000Y-72930000D03*
X160880000Y-73890000D03*
%TD*%
D23*
%TO.C,D5*%
X119690000Y-73565000D03*
X119690000Y-72595000D03*
%TD*%
D19*
%TO.C,R6*%
X120860000Y-73570000D03*
X120860000Y-72550000D03*
%TD*%
D17*
%TO.C,R5*%
X172505000Y-74560000D03*
X173525000Y-74560000D03*
%TD*%
D22*
%TO.C,R9*%
X124370000Y-69410000D03*
X123350000Y-69410000D03*
%TD*%
D24*
%TO.C,D4*%
X172530000Y-73560000D03*
X173500000Y-73560000D03*
%TD*%
D25*
%TO.C,USB1*%
X172425000Y-71170000D03*
X172425000Y-70370000D03*
D26*
X172425000Y-69220000D03*
X172425000Y-68220000D03*
X172425000Y-67720000D03*
X172425000Y-66720000D03*
D25*
X172425000Y-64770000D03*
X172425000Y-65570000D03*
D26*
X172425000Y-66220000D03*
X172425000Y-67220000D03*
X172425000Y-68720000D03*
X172425000Y-69720000D03*
%TD*%
M02*
